<svg width="32" height="32" fill="none" xmlns="http://www.w3.org/2000/svg"><path d="M26.177 10.637c.018.234.018.466.018.698 0 7.1-5.404 15.28-15.28 15.28-3.043 0-5.87-.88-8.248-2.411.432.05.848.067 1.297.067 2.51 0 4.821-.848 6.668-2.295a5.381 5.381 0 01-5.023-3.724c.332.05.666.083 1.015.083.481 0 .965-.067 1.415-.183a5.37 5.37 0 01-4.307-5.27v-.067a5.418 5.418 0 002.427.68 5.363 5.363 0 01-2.395-4.471c0-.997.265-1.912.73-2.71a15.276 15.276 0 0011.075 5.62 6.1 6.1 0 01-.133-1.23c0-2.96 2.395-5.37 5.37-5.37 1.547 0 2.943.647 3.925 1.695a10.609 10.609 0 003.408-1.297 5.36 5.36 0 01-2.362 2.96 10.765 10.765 0 003.092-.832 11.526 11.526 0 01-2.692 2.777z" fill="#000"/></svg>