<svg width="437" height="107" fill="none" xmlns="http://www.w3.org/2000/svg"><path d="M1 94c0-6.627 4.873-12 11.5-12h261a12 12 0 0111.077 7.385l4.872 11.692a8 8 0 007.384 4.923h37.334a8 8 0 007.384-4.923l4.872-11.692A12 12 0 01357.5 82h67c6.627 0 11.5 5.373 11.5 12" stroke="#2E203E"/><path d="M436 94V13c0-6.627-4.873-12-11.5-12h-67a12 12 0 00-11.077 7.385l-4.872 11.692A8 8 0 01334.167 25h-37.334a8 8 0 01-7.384-4.923l-4.872-11.692A12 12 0 00273.5 1h-261C5.873 1 1 6.373 1 13v81" stroke="#2E203E"/></svg>