<svg width="32" height="32" fill="none" xmlns="http://www.w3.org/2000/svg"><path d="M26.165 7.102a25.046 25.046 0 00-5.97-1.767.092.092 0 00-.096.043 15.762 15.762 0 00-.744 1.457 23.392 23.392 0 00-6.706 0c-.2-.459-.496-1.02-.755-1.457a.096.096 0 00-.096-.043 24.93 24.93 0 00-5.97 1.767.084.084 0 00-.04.032c-3.803 5.42-4.845 10.708-4.334 15.93.003.026.018.05.039.066a24.796 24.796 0 007.324 3.533.097.097 0 00.103-.032 16.474 16.474 0 001.499-2.326c.025-.048 0-.104-.051-.123A16.363 16.363 0 018.08 23.14a.088.088 0 01-.01-.149c.154-.11.308-.224.455-.34a.094.094 0 01.095-.012c4.8 2.091 9.997 2.091 14.741 0a.094.094 0 01.096.011c.147.116.3.231.456.341a.087.087 0 01-.008.149c-.731.408-1.49.752-2.29 1.04a.088.088 0 00-.05.124c.441.814.944 1.59 1.498 2.324a.095.095 0 00.103.034 24.716 24.716 0 007.336-3.533.089.089 0 00.038-.064c.612-6.038-1.024-11.282-4.337-15.931a.073.073 0 00-.038-.033zm-15.03 12.783c-1.445 0-2.636-1.266-2.636-2.821 0-1.555 1.168-2.821 2.636-2.821 1.48 0 2.66 1.277 2.637 2.82 0 1.556-1.168 2.822-2.636 2.822zm9.747 0c-1.445 0-2.636-1.266-2.636-2.821 0-1.555 1.168-2.821 2.636-2.821 1.48 0 2.66 1.277 2.637 2.82 0 1.556-1.157 2.822-2.637 2.822z" fill="#23272A"/></svg>