<svg width="512" height="517" fill="none" xmlns="http://www.w3.org/2000/svg"><mask id="a" fill="#fff"><path fill-rule="evenodd" clip-rule="evenodd" d="M58.011 33.56L91.01 0l109.482 111.344c-52.208-10.687-102-36.615-142.48-77.784zm253.499 77.784L256 167.799l-55.509-56.455a276.887 276.887 0 00111.019 0zm0 0L420.991 0l32.998 33.56c-40.48 41.169-90.271 67.097-142.479 77.784zM33.148 58.425L0 91.688l165.741 166.316L0 424.319l33.148 33.263 198.89-199.578L33.148 58.425zM478.85 457.582l33.149-33.263-165.742-166.315L511.999 91.688 478.85 58.425 279.961 258.004 478.85 457.582zM256 348.309l-55.509 56.454c-52.209 10.688-102 36.616-142.48 77.785l32.998 33.56 109.482-111.345a276.923 276.923 0 01111.019 0l109.481 111.345 32.998-33.56c-40.48-41.169-90.271-67.097-142.479-77.785L256 348.309z"/></mask><path d="M91.01 0l.356-.35-.356-.363-.357.362.356.351zm-33 33.56l-.356-.35-.345.35.345.35.356-.35zM256 167.799l-.356.35.356.363.357-.363-.357-.35zM420.991 0l.357-.35-.357-.363-.357.362.357.351zm32.998 33.56l.357.35.344-.35-.344-.35-.357.35zM0 91.688l-.354-.353-.352.353.352.353.354-.353zm33.148-33.263l.354-.353-.354-.355-.354.355.354.353zm132.593 199.579l.355.353.351-.353-.351-.353-.355.353zM0 424.319l-.354-.353-.352.353.352.353.354-.353zm33.148 33.263l-.354.353.354.356.354-.356-.354-.353zm198.89-199.578l.354.353.352-.353-.352-.353-.354.353zm279.961 166.315l.354.353.352-.353-.352-.353-.354.353zm-33.149 33.263l-.354.353.354.356.355-.356-.355-.353zM346.257 258.004l-.354-.353-.352.353.352.353.354-.353zM511.999 91.688l.354.353.352-.353-.352-.353-.354.353zM478.85 58.425l.355-.353-.355-.355-.354.355.354.353zM279.961 258.004l-.354-.353-.352.353.352.353.354-.353zM256 348.309l.357-.35-.357-.363-.356.363.356.35zM58.011 482.548l-.356-.351-.345.351.345.35.356-.35zm32.998 33.56l-.356.35.356.363.357-.363-.356-.35zm329.982 0l-.357.35.357.363.357-.363-.357-.35zm32.998-33.56l.357.35.344-.35-.344-.351-.357.351zM90.653-.351L57.655 33.21l.713.701L91.366.35l-.713-.7zm110.194 111.345L91.366-.351l-.713.702 109.481 111.344.713-.701zM57.655 33.91c40.551 41.242 90.432 67.217 142.735 77.924l.201-.98C148.478 100.187 98.777 74.306 58.368 33.209l-.713.701zm198.702 134.24l55.509-56.454-.713-.701-55.509 56.454.713.701zm-56.223-56.454l55.51 56.454.713-.701-55.51-56.454-.713.701zm111.276-.841a276.406 276.406 0 01-110.819 0l-.201.98a277.409 277.409 0 00111.22 0l-.2-.98zM420.634-.351L311.153 110.994l.713.701L421.348.351l-.714-.702zm33.712 33.56L421.348-.35l-.714.702 32.999 33.56.713-.702zM311.61 111.834c52.303-10.707 102.184-36.682 142.736-77.924l-.713-.7c-40.409 41.096-90.11 66.977-142.223 77.644l.2.98zM.354 92.041l33.148-33.263-.708-.706L-.354 91.335l.708.706zm165.742 165.61L.354 91.335l-.708.706 165.741 166.316.709-.706zM.354 424.672l165.742-166.315-.709-.706L-.354 423.966l.708.706zm33.148 32.558L.354 423.966l-.708.706 33.148 33.263.709-.705zm198.182-199.579L32.794 457.23l.709.705 198.889-199.578-.708-.706zM32.794 58.778l198.89 199.579.708-.706L33.502 58.072l-.708.706zm478.851 365.188l-33.149 33.264.709.705 33.148-33.263-.708-.706zM345.903 258.357l165.742 166.315.708-.706-165.742-166.315-.708.706zM511.645 91.335L345.903 257.651l.708.706L512.353 92.041l-.708-.706zm-33.149-32.557l33.149 33.263.708-.706-33.148-33.263-.709.706zM280.315 258.357l198.89-199.579-.709-.706-198.889 199.579.708.706zm198.89 198.873l-198.89-199.579-.708.706 198.889 199.578.709-.705zm-278.358-52.116l55.51-56.454-.713-.701-55.51 56.454.713.701zm-142.48 77.784c40.41-41.096 90.111-66.977 142.224-77.645l-.201-.98c-52.303 10.707-102.184 36.683-142.735 77.924l.713.701zm32.999 32.859l-32.998-33.56-.713.701 32.998 33.56.713-.701zm108.768-111.344L90.653 515.757l.713.701 109.481-111.344-.713-.701zm111.476-.14a277.445 277.445 0 00-111.22 0l.201.98a276.406 276.406 0 01110.819 0l.2-.98zm109.738 111.484L311.866 404.413l-.713.701 109.481 111.344.714-.701zm32.285-33.56l-32.999 33.56.714.701 32.998-33.56-.713-.701zM311.41 405.253c52.113 10.668 101.814 36.549 142.223 77.645l.713-.701c-40.552-41.241-90.433-67.217-142.736-77.924l-.2.98zm-55.766-56.593l55.509 56.454.713-.701-55.509-56.454-.713.701z" fill="#746A7E" mask="url(#a)"/></svg>