<svg width="74" height="75" fill="none" xmlns="http://www.w3.org/2000/svg"><path d="M29.2 74.5h37.6c3.7 0 6.7-3 6.7-6.7V30.2c0-3.7-3-6.7-6.7-6.7H32.243A10.743 10.743 0 0121.5 12.757V7.2c0-3.7-3-6.7-6.7-6.7H7.2C3.5.5.5 3.5.5 7.2v8.6c0 3.7 3 6.7 6.7 6.7h7.098a8.201 8.201 0 018.202 8.202V67.8c0 3.7 3 6.7 6.7 6.7z" stroke="#5D5169"/><circle cx="11.5" cy="11.5" r="2.5" fill="#5D5169"/><circle cx="48" cy="49" r="7.8" fill="#fff" stroke="#170728" stroke-width=".4"/><circle cx="1" cy="1" r=".8" transform="matrix(1 0 0 -1 43 49)" stroke="#170728" stroke-width=".4"/><circle cx="1" cy="1" r=".8" transform="matrix(1 0 0 -1 59 35)" fill="#170728" stroke="#170728" stroke-width=".4"/><circle cx="2" cy="2" r="1.8" transform="matrix(1 0 0 -1 59 66)" stroke="#170728" stroke-width=".4"/><circle cx="1.5" cy="1.5" r="1.3" transform="matrix(1 0 0 -1 32 36)" stroke="#170728" stroke-width=".4"/><path d="M54.755 52.9A7.8 7.8 0 0144.1 55.755c-.47-.272-.749-.503-.891-.698-.134-.184-.141-.323-.089-.453.06-.15.213-.318.475-.51.257-.19.593-.385.987-.598.177-.095.366-.195.562-.298.665-.35 1.42-.748 2.137-1.223.93-.618 1.818-1.38 2.392-2.375.575-.995.772-2.112.811-3.178.033-.874-.04-1.727-.103-2.457a61.698 61.698 0 01-.038-.458 8.01 8.01 0 01-.034-1.052c.019-.292.073-.47.151-.566.062-.075.164-.13.392-.092.238.04.576.175 1.048.448A7.8 7.8 0 0154.755 52.9z" fill="#BEFECD" stroke="#170728" stroke-width=".4"/><path d="M35.5 40v19M48 45.327V64.5m12.5-24.822v19.035" stroke="#000"/><path d="M48 34v7" stroke="#000" stroke-width=".4"/><path transform="matrix(.91394 -.40586 .91394 .40586 35.078 40.144)" stroke="#000" d="M.914 0h13.224v13.224H.914z"/><path d="M43.194 55.134L35 58.773l13 5.773 13-5.773-8.194-3.639" stroke="#000"/></svg>