<svg width="50" height="50" fill="none" xmlns="http://www.w3.org/2000/svg"><path fill-rule="evenodd" clip-rule="evenodd" d="M40 26.128V22a2 2 0 012-2h6a2 2 0 012 2v6a2 2 0 01-2 2h-4.559a2 2 0 00-1.414.586l-1.441 1.441A2 2 0 0040 33.441V38a2 2 0 01-2 2h-4.559a2 2 0 00-1.414.586l-1.441 1.441A2 2 0 0030 43.441V48a2 2 0 01-2 2h-6a2 2 0 01-2-2v-4.416a2 2 0 00-.586-1.414l-1.584-1.584A2 2 0 0016.416 40H12a2 2 0 01-2-2v-4.416a2 2 0 00-.586-1.414L7.83 30.586A2 2 0 006.416 30H2a2 2 0 01-2-2v-6a2 2 0 012-2h6a2 2 0 012 2v4.27a2 2 0 00.586 1.415l1.73 1.73a2 2 0 001.413.585H18a2 2 0 002-2V2a2 2 0 012-2h6a2 2 0 012 2v26a2 2 0 002 2h4.127a2 2 0 001.415-.586l1.872-1.872A2 2 0 0040 26.128zm-10.6-16.7c-.36.354-.855.572-1.4.572h-6c-.545 0-1.04-.218-1.4-.572V28a2.6 2.6 0 01-2.6 2.6h-4.27a2.6 2.6 0 01-1.839-.761l-1.73-1.73a2.595 2.595 0 01-.161-.177V28a2 2 0 01-1.925 1.999 2.6 2.6 0 01.18.163l1.583 1.584a2.6 2.6 0 01.762 1.838V38a1.4 1.4 0 001.4 1.4h4.416a2.6 2.6 0 011.838.761l1.584 1.585c.058.057.112.117.163.179A2 2 0 0122 40h6a2 2 0 011.99 1.793c.053-.066.11-.13.172-.19l1.441-1.442a2.6 2.6 0 011.838-.761H38a1.4 1.4 0 001.4-1.4v-4.559c0-.69.274-1.35.761-1.838l1.442-1.442c.06-.06.124-.118.19-.172A2 2 0 0140 28v-.211c-.05.061-.105.12-.162.177l-1.872 1.873a2.6 2.6 0 01-1.839.761H32a2.6 2.6 0 01-2.6-2.6V9.428z" fill="#2E203E"/></svg>