<svg width="74" height="75" fill="none" xmlns="http://www.w3.org/2000/svg"><path d="M51.5 7.2c0-3.7-3-6.7-6.7-6.7H7.2C3.5.5.5 3.5.5 7.2v37.6c0 3.7 3 6.7 6.7 6.7h34.557A10.743 10.743 0 0152.5 62.243V67.8c0 3.7 3 6.7 6.7 6.7h7.6c3.7 0 6.7-3 6.7-6.7v-8.6c0-3.7-3-6.7-6.7-6.7h-7.098a8.201 8.201 0 01-8.202-8.202V7.2z" stroke="#5D5169"/><circle cx="62.5" cy="63.5" r="2.5" transform="rotate(-180 62.5 63.5)" fill="#5D5169"/><path transform="matrix(.85892 .5121 -.85892 .5121 26.417 8.1)" fill="#BEFECD" stroke="#170728" stroke-width=".4" d="M0 .205h6.527v6.527H0z"/><path transform="matrix(.85892 .5121 -.85892 .5121 32.307 18.93)" fill="#170728" stroke="#170728" stroke-width=".4" d="M0 .205h6.527v6.527H0z"/><path transform="matrix(.85892 .5121 -.85892 .5121 38.196 29.76)" stroke="#170728" stroke-width=".4" d="M0 .205h6.527v6.527H0z"/><path transform="matrix(.85892 .5121 -.85892 .5121 20.347 18.897)" stroke="#170728" stroke-width=".4" d="M0 .205h6.527v6.527H0z"/><path transform="matrix(.85892 .5121 -.85892 .5121 14.276 29.695)" fill="#170728" stroke="#170728" stroke-width=".4" d="M0 .205h6.527v6.527H0z"/><path transform="matrix(.00004 -1 -.85889 .51216 31.964 18.573)" stroke="#170728" stroke-width=".4" d="M-.172-.098h6.695v6.527H-.172z"/><path transform="matrix(.00004 -1 -.85889 .51216 37.854 29.403)" stroke="#170728" stroke-width=".4" d="M-.172-.098h6.695v6.527H-.172z"/><path transform="matrix(.00004 -1 -.85889 .51216 43.744 40.233)" stroke="#170728" stroke-width=".4" d="M-.172-.098h6.695v6.527H-.172z"/><path transform="matrix(-.00004 -1 .85889 .51216 20.396 18.917)" stroke="#170728" stroke-width=".4" d="M.172-.098h6.695v6.527H.172z"/><path transform="matrix(-.00004 -1 .85889 .51216 26.287 29.746)" stroke="#170728" stroke-width=".4" d="M.172-.098h6.695v6.527H.172z"/><path transform="matrix(-.00004 -1 .85889 .51216 32.176 40.576)" stroke="#170728" stroke-width=".4" d="M.172-.098h6.695v6.527H.172z"/><path transform="matrix(.00004 -1 -.85889 .51216 25.894 29.37)" stroke="#170728" stroke-width=".4" d="M-.172-.098h6.695v6.527H-.172z"/><path transform="matrix(-.00004 -1 .85889 .51216 14.326 29.713)" stroke="#170728" stroke-width=".4" d="M.172-.098h6.695v6.527H.172z"/><path transform="matrix(.00004 -1 -.85889 .51216 25.894 29.37)" fill="#BEFECD" stroke="#170728" stroke-width=".4" d="M-.172-.098h6.695v6.527H-.172z"/><path transform="matrix(-.00004 -1 .85889 .51216 14.326 29.713)" stroke="#170728" stroke-width=".4" d="M.172-.098h6.695v6.527H.172z"/><path transform="matrix(.00004 -1 -.85889 .51216 19.824 40.167)" stroke="#170728" stroke-width=".4" d="M-.172-.098h6.695v6.527H-.172z"/><path transform="matrix(-.00004 -1 .85889 .51216 8.256 40.51)" stroke="#170728" stroke-width=".4" d="M.172-.098h6.695v6.527H.172z"/></svg>