<svg width="50" height="50" fill="none" xmlns="http://www.w3.org/2000/svg"><path fill-rule="evenodd" clip-rule="evenodd" d="M20 2v-.013A2 2 0 0122 0h6a2 2 0 012 2v26a2 2 0 002 2h4.127a2 2 0 001.415-.586l1.872-1.872A2 2 0 0040 26.128V22a2 2 0 012-2h6a2 2 0 012 2v6a2 2 0 01-2 2h-4.559a2 2 0 00-1.414.586l-1.441 1.441A2 2 0 0040 33.441V38a2 2 0 01-2 2h-4.559a2 2 0 00-1.414.586l-1.441 1.441A2 2 0 0030 43.441V48a2 2 0 01-2 2h-6a2 2 0 01-2-2v-4.416a2 2 0 00-.586-1.414l-1.584-1.584A2 2 0 0016.416 40H12a2 2 0 01-2-2v-4.416a2 2 0 00-.586-1.414L7.83 30.586A2 2 0 006.416 30H2a2 2 0 01-2-2v-6a2 2 0 012-2h6a2 2 0 012 2v4.27a2 2 0 00.586 1.415l1.73 1.73a2 2 0 001.413.585H18a2 2 0 002-2V2zm.628-.282A1.4 1.4 0 0122 .6h6A1.4 1.4 0 0129.4 2v6A1.4 1.4 0 0128 9.4h-6A1.4 1.4 0 0120.6 8V2c0-.097.01-.191.028-.282zM10 27.932c.05.061.105.12.162.177l1.73 1.73a2.6 2.6 0 001.838.761H18a2.6 2.6 0 002.6-2.6V9.428c.36.354.855.572 1.4.572h6c.545 0 1.04-.218 1.4-.572V28a2.6 2.6 0 002.6 2.6h4.127a2.6 2.6 0 001.839-.761l1.872-1.873c.057-.057.111-.116.162-.177V28a2 2 0 001.793 1.99c-.066.053-.13.11-.19.172l-1.442 1.44a2.6 2.6 0 00-.761 1.84V38a1.4 1.4 0 01-1.4 1.4h-4.559a2.6 2.6 0 00-1.838.761l-1.441 1.442a2.39 2.39 0 00-.173.19A2 2 0 0028 40h-6a2 2 0 00-1.999 1.925 2.593 2.593 0 00-.163-.18l-1.584-1.584a2.6 2.6 0 00-1.838-.761H12a1.4 1.4 0 01-1.4-1.4v-4.416a2.6 2.6 0 00-.762-1.838l-1.584-1.584a2.6 2.6 0 00-.179-.163A2 2 0 0010 28v-.068zM8 29.4A1.4 1.4 0 009.4 28v-6A1.4 1.4 0 008 20.6H2A1.4 1.4 0 00.6 22v6A1.4 1.4 0 002 29.4h6zM29.4 42a1.4 1.4 0 00-1.4-1.4h-6a1.4 1.4 0 00-1.4 1.4v6a1.4 1.4 0 001.4 1.4h6a1.4 1.4 0 001.4-1.4v-6zm11.2-14a1.4 1.4 0 001.4 1.4h6a1.4 1.4 0 001.4-1.4v-6a1.4 1.4 0 00-1.4-1.4h-6a1.4 1.4 0 00-1.4 1.4v6z" fill="#2E203E"/></svg>