<svg width="115" height="259" fill="none" xmlns="http://www.w3.org/2000/svg"><path d="M114 224.481v.258a3.97 3.97 0 01-2.036 3.388l-3.755 2.171-45.833 26.463a9.78 9.78 0 01-9.759 0L6.791 230.298l-3.755-2.171C1.676 227.348 1 225.982 1 224.604c0-1.366.676-2.738 2.036-3.524l49.581-28.627a9.75 9.75 0 019.76 0l49.587 28.627a4.016 4.016 0 012.036 3.401z" fill="#B9B5BF"/><path d="M114 171.357v.257a3.972 3.972 0 01-2.036 3.389l-3.755 2.17-45.833 26.463a9.78 9.78 0 01-9.759 0L6.791 177.173l-3.755-2.17c-1.36-.78-2.036-2.145-2.036-3.524 0-1.366.676-2.738 2.036-3.524l49.581-28.626a9.746 9.746 0 019.76 0l49.587 28.626a4.017 4.017 0 012.036 3.402z" fill="#fff" stroke="#170728" stroke-miterlimit="10" stroke-linecap="round" stroke-linejoin="round"/><path d="M114 171.614v38.006a3.972 3.972 0 01-2.036 3.389l-49.588 28.633a9.78 9.78 0 01-9.759 0L3.036 213.009c-1.36-.78-2.036-2.146-2.036-3.524v-38.006c0 1.372.676 2.738 2.036 3.524l3.755 2.17 45.826 26.463a9.78 9.78 0 009.76 0l45.832-26.463 3.755-2.17a3.972 3.972 0 002.036-3.389z" fill="#EFF1EA" stroke="#170728" stroke-miterlimit="10" stroke-linecap="round" stroke-linejoin="round"/><path d="M88.259 188.698v12.484c0 .992 1.076 1.61 1.933 1.114l12.471-7.202a1.288 1.288 0 011.932 1.115v6.88a3.212 3.212 0 01-1.61 2.789l-5.843 3.395a3.21 3.21 0 00-1.61 2.789v6.003m-68.791-29.367v12.484c0 .992-1.076 1.61-1.932 1.114l-12.472-7.202a1.288 1.288 0 00-1.932 1.115v6.88c0 1.153.612 2.215 1.61 2.789l5.843 3.395a3.21 3.21 0 011.61 2.789v5.192m47.836 11.608v9.939m10.642-44.151v10.01a3.214 3.214 0 01-1.61 2.79l-7.421 4.283a3.214 3.214 0 00-1.61 2.79v9.037m-26.096-21.438v6.043a3.21 3.21 0 001.61 2.789l4.915 2.834a3.212 3.212 0 011.61 2.789v23.178" stroke="#170728" stroke-miterlimit="10" stroke-linecap="round" stroke-linejoin="round"/><path d="M85.18 152.508v.129a1.956 1.956 0 01-.998 1.662l-1.843 1.069-14.99 8.658-7.46 4.309a4.793 4.793 0 01-4.779 0l-7.453-4.309-14.983-8.658-1.843-1.069a1.955 1.955 0 01-.998-1.726c0-.67.329-1.347.998-1.727l24.28-14.017a4.764 4.764 0 014.779 0l24.292 14.017c.644.374.979 1.018.998 1.662z" fill="#fff" stroke="#4C917E" stroke-miterlimit="10" stroke-linecap="round" stroke-linejoin="round"/><path d="M85.18 152.637v22.887a1.964 1.964 0 01-.999 1.662l-1.842 1.063-22.456 12.961a4.798 4.798 0 01-4.78 0l-22.442-12.961-1.842-1.063a1.969 1.969 0 01-.999-1.726v-22.887c0 .676.329 1.346.999 1.726l1.842 1.069 14.983 8.658 7.453 4.31c1.482.85 3.305.85 4.78 0l7.46-4.31 14.99-8.658 1.842-1.069a1.95 1.95 0 001.01-1.662z" fill="#ABE5B9" stroke="#170728" stroke-miterlimit="10" stroke-linecap="round" stroke-linejoin="round"/><path d="M114 125.338v.257a3.972 3.972 0 01-2.036 3.389l-3.755 2.17-45.833 26.463a9.78 9.78 0 01-9.759 0L6.791 131.154l-3.755-2.17C1.676 128.204 1 126.839 1 125.46c0-1.366.676-2.738 2.036-3.524l49.581-28.627a9.747 9.747 0 019.76 0l49.587 28.627a4.017 4.017 0 012.036 3.402z" fill="#fff" stroke="#170728" stroke-miterlimit="10" stroke-linecap="round" stroke-linejoin="round"/><path d="M25.594 131.521l5.978-3.452m16.478 16.419l5.984-3.452m-10.474.857l5.978-3.453m-10.468.863l5.978-3.453m-10.474.857l5.984-3.453m-10.474.857l5.985-3.453m53.343.863l-5.978-3.452M66.95 144.488l-5.978-3.452m10.474.857l-5.984-3.453m10.474.863l-5.978-3.453m10.468.857l-5.978-3.453m10.474.857l-5.984-3.453m-53.344-11.247l5.978 3.453m16.478-16.42l5.984 3.453m-10.474-.857l5.978 3.453m-10.468-.864l5.978 3.453m-10.474-.856l5.984 3.452m-10.474-.856l5.985 3.452m53.343-.863l-5.978 3.453m-16.484-16.42l-5.978 3.453m10.474-.857l-5.984 3.453m10.474-.864l-5.978 3.453m10.468-.856l-5.978 3.452m10.474-.856l-5.984 3.452" stroke="#170728" stroke-miterlimit="10" stroke-linecap="round" stroke-linejoin="round"/><path d="M88.227 127.148l-7.57 4.373-20.239 11.686a5.851 5.851 0 01-5.83 0l-20.24-11.686-7.568-4.373c-1.295-.748-1.295-2.616 0-3.363l27.808-16.059a5.851 5.851 0 015.83 0l27.809 16.059c1.288.747 1.288 2.615 0 3.363z" fill="#ABE5B9" stroke="#170728" stroke-miterlimit="10" stroke-linecap="round" stroke-linejoin="round"/><path d="M80.658 131.522l-20.24 11.685a5.851 5.851 0 01-5.83 0l-20.24-11.685 20.24-11.686a5.851 5.851 0 015.83 0l20.24 11.686z" fill="#453953" stroke="#170728" stroke-miterlimit="10"/><path d="M114 125.595v25.123a3.972 3.972 0 01-2.036 3.388l-49.588 28.633a9.775 9.775 0 01-9.759 0L3.036 154.106C1.676 153.327 1 151.961 1 150.583V125.46c0 1.372.676 2.738 2.036 3.524l3.755 2.17 45.826 26.463a9.78 9.78 0 009.76 0l45.832-26.463 3.755-2.17a3.972 3.972 0 002.036-3.389z" fill="#EFF1EA" stroke="#170728" stroke-miterlimit="10" stroke-linecap="round" stroke-linejoin="round"/><path d="M11.829 134.066v11.08a3.21 3.21 0 001.61 2.789l11.692 6.745a3.21 3.21 0 011.61 2.789v5.501m61.518 4.831v-5.823a3.21 3.21 0 011.61-2.789l11.692-6.745a3.21 3.21 0 001.611-2.789v-10.352M41.209 157.05v19.106m36.737-27.525v20.336" stroke="#170728" stroke-miterlimit="10" stroke-linecap="round" stroke-linejoin="round"/><path d="M57.5 101.31c1.359 0 2.46-.637 2.46-1.424 0-.786-1.101-1.423-2.46-1.423-1.36 0-2.46.637-2.46 1.424 0 .786 1.1 1.423 2.46 1.423zm0 51.16c1.359 0 2.46-.637 2.46-1.424 0-.786-1.101-1.423-2.46-1.423-1.36 0-2.46.637-2.46 1.423 0 .787 1.1 1.424 2.46 1.424zm0 46.747c1.359 0 2.46-.638 2.46-1.424 0-.786-1.101-1.423-2.46-1.423-1.36 0-2.46.637-2.46 1.423s1.1 1.424 2.46 1.424zm44.415-72.327c1.359 0 2.461-.637 2.461-1.424 0-.786-1.102-1.423-2.461-1.423-1.359 0-2.46.637-2.46 1.423 0 .787 1.101 1.424 2.46 1.424zm-88.83 0c1.359 0 2.46-.637 2.46-1.424 0-.786-1.101-1.423-2.46-1.423-1.36 0-2.461.637-2.461 1.423 0 .787 1.101 1.424 2.46 1.424zm88.83 44.924c1.359 0 2.461-.638 2.461-1.424 0-.786-1.102-1.423-2.461-1.423-1.359 0-2.46.637-2.46 1.423s1.101 1.424 2.46 1.424zm-88.83 0c1.359 0 2.46-.638 2.46-1.424 0-.786-1.101-1.423-2.46-1.423-1.36 0-2.461.637-2.461 1.423s1.101 1.424 2.46 1.424z" fill="#170728"/><path d="M100.541 6.457a6.329 6.329 0 00-.116-.38l1.641 1.625c6.629 6.592-3.876 25.122-17.857 28.831-3.976 1.049-7.289.512-9.33-1.515l-1.35-1.34c.232.06.472.108.717.15 12.826 2.14 29.506-16.493 26.295-27.37z" fill="#EFF1EA"/><path d="M101.541 7.457a6.329 6.329 0 00-.116-.38l1.641 1.625c6.629 6.592-3.876 25.122-17.857 28.831-3.976 1.049-7.289.512-9.33-1.515l-1.35-1.34c.232.06.472.108.717.15 12.826 2.14 29.506-16.493 26.295-27.37z" fill="#453953"/><path d="M75.197 21.39c-1.51 5.639 1.714 8.914 7.347 7.422 5.786-1.532 11.76-7.51 13.318-13.325 1.512-5.643-1.729-8.905-7.33-7.42-5.797 1.535-11.779 7.51-13.335 13.32v.002z" fill="#EFF1EA"/><path d="M82.647 29.199c-2.894.766-5.28.334-6.74-1.143-1.44-1.459-1.862-3.817-1.123-6.666L88.532 8.067l-.103-.386s0 0 0 0c2.879-.763 5.26-.333 6.72 1.142 1.458 1.474 1.876 3.87 1.1 6.768M82.646 29.199l-.103-.387.103.387s0 0 0 0zm0 0c2.977-.789 5.977-2.712 8.424-5.16 2.448-2.45 4.376-5.457 5.177-8.448m0 0l-.386-.104.386.104zM82.71 32.634h0a21.46 21.46 0 001.397-.561c5.457-2.436 10.78-7.562 13.905-12.934 1.56-2.683 2.558-5.403 2.764-7.854.204-2.442-.376-4.595-1.945-6.214l-.003-.003a.43.43 0 01-.081-.092c-1.897-1.875-5.023-2.428-8.903-1.4h0c-4.133 1.096-8.358 3.784-11.836 7.258-3.477 3.474-6.175 7.702-7.285 11.846l-.386-.104.386.104c-.387 1.445-.596 3.221-.415 4.924.182 1.705.75 3.299 1.881 4.432h0c1.225 1.23 2.961 1.707 4.866 1.706 1.903 0 3.927-.48 5.655-1.108z" fill="#EFF1EA" stroke="#453953" stroke-width=".8"/><path d="M42.91 85.14c.028-.103.06-.204.094-.306l-1.324 1.311c-5.35 5.32 3.127 20.274 14.41 23.268 3.21.846 5.883.412 7.53-1.223l1.09-1.081a6.981 6.981 0 01-.579.12c-10.35 1.727-23.812-13.31-21.22-22.088z" fill="#EFF1EA"/><path d="M42.104 85.948c.027-.104.059-.205.093-.307l-1.324 1.311c-5.35 5.32 3.127 20.274 14.41 23.268 3.21.846 5.883.413 7.53-1.223l1.09-1.081a6.981 6.981 0 01-.579.12c-10.35 1.727-23.812-13.31-21.22-22.088z" fill="#453953"/><path d="M63.363 97.191c1.22 4.551-1.383 7.195-5.929 5.99-4.669-1.236-9.49-6.06-10.747-10.753-1.22-4.554 1.395-7.186 5.915-5.988 4.679 1.238 9.506 6.06 10.762 10.75v.001z" fill="#EFF1EA"/><path d="M57.332 103.568c2.35.623 4.308.277 5.513-.942 1.186-1.201 1.525-3.128.932-5.434L52.602 86.44l.103-.387s0 0 0 0c-2.339-.62-4.293-.275-5.498.942-1.203 1.217-1.537 3.183-.907 5.537m11.032 11.036l.102-.387-.102.387s0 0 0 0zm0 0c-2.42-.641-4.852-2.201-6.834-4.185-1.983-1.983-3.547-4.422-4.198-6.851m0 0l.387-.104-.387.104zm11.028 13.662l-.001-.001a17.17 17.17 0 01-1.122-.45c-4.387-1.958-8.671-6.083-11.186-10.406-1.256-2.16-2.056-4.344-2.22-6.307-.164-1.954.3-3.667 1.547-4.953a.426.426 0 00.073-.082c1.504-1.483 3.992-1.93 7.105-1.105h0c3.32.88 6.718 3.04 9.517 5.837 2.8 2.797 4.968 6.198 5.86 9.525l.386-.103-.386.103c.31 1.16.478 2.583.332 3.947-.146 1.365-.6 2.632-1.496 3.53h0c-.969.973-2.346 1.355-3.872 1.354-1.524 0-3.148-.385-4.538-.889z" fill="#EFF1EA" stroke="#453953" stroke-width=".8"/><path d="M45.17 33.827c.109.047.216.097.323.15l-1.24-1.664c-5.034-6.729-22.847.292-27.905 12.27-1.434 3.406-1.372 6.422.175 8.494l1.023 1.37a7.947 7.947 0 01-.042-.657C17.21 42.106 35.89 29.6 45.169 33.827z" fill="#EFF1EA"/><path d="M44.404 32.811c.11.047.217.097.324.15l-1.24-1.664c-5.034-6.729-22.846.292-27.905 12.27-1.433 3.407-1.372 6.422.176 8.494l1.022 1.37a7.944 7.944 0 01-.042-.657c-.293-11.684 18.387-24.189 27.665-19.963z" fill="#453953"/><path d="M28.693 54.507c-5.21.635-7.719-2.646-5.683-7.472 2.091-4.957 8.163-9.523 13.534-10.179 5.212-.636 7.708 2.658 5.682 7.457-2.094 4.967-8.164 9.54-13.531 10.194h-.002z" fill="#EFF1EA"/><path d="M22.642 46.88c-1.05 2.486-.969 4.68.175 6.181 1.127 1.48 3.186 2.152 5.817 1.855l13.592-10.603.369.155s0 0 0 0c1.044-2.473.964-4.664-.177-6.164s-3.238-2.173-5.923-1.845M22.642 46.88l.368.156-.369-.156s0 0 0 0zm0 0c1.08-2.56 3.173-4.992 5.665-6.866 2.492-1.874 5.417-3.215 8.188-3.554m0 0l.049.397-.049-.397zm-16.83 9.967h0c.208-.393.432-.783.673-1.17 2.849-4.543 8.073-8.63 13.24-10.734 2.582-1.05 5.121-1.595 7.32-1.47 2.191.124 4.022.908 5.257 2.495l.001.002c.023.037.05.066.076.09 1.416 1.907 1.518 4.74.119 8.056h0c-1.49 3.532-4.41 6.95-7.934 9.605-3.525 2.655-7.621 4.521-11.44 4.988l.049.397-.049-.397c-1.331.162-2.933.125-4.42-.25-1.49-.374-2.827-1.077-3.686-2.216h0c-.932-1.233-1.138-2.826-.9-4.515.24-1.687.919-3.424 1.694-4.88z" fill="#EFF1EA" stroke="#453953" stroke-width=".8"/></svg>