<svg width="138" height="40" fill="none" xmlns="http://www.w3.org/2000/svg"><path fill-rule="evenodd" clip-rule="evenodd" d="M19.84 40c10.959 0 19.841-8.954 19.841-20S30.8 0 19.841 0 0 8.954 0 20s8.883 20 19.84 20zM13.028 9.344l-1.362 1.386a11.45 11.45 0 005.883 3.212l2.293 2.331 2.292-2.331a11.45 11.45 0 005.884-3.212l-1.363-1.386-4.521 4.598c-1.512.31-3.073.31-4.585 0l-4.52-4.598zM9.27 13.13l1.37-1.373 8.212 8.241-8.213 8.241-1.369-1.373 6.844-6.868L9.27 13.13zm21.143 13.736l-1.369 1.373-8.213-8.241 8.213-8.242 1.369 1.374-6.844 6.868 6.844 6.868zm-12.864-.808l2.293-2.331 2.292 2.331a11.434 11.434 0 00-4.585 0zm-5.883 3.212a11.45 11.45 0 015.883-3.212l-4.52 4.598-1.363-1.386zm14.989 1.386l-4.521-4.598a11.45 11.45 0 015.884 3.212l-1.363 1.386z" fill="#170728"/><path d="M95.923 12.076h3.244v2.382l-.567 2.097h.882c.714-3.198 2.551-4.797 5.512-4.797 1.386 0 2.457.434 3.213 1.303.776.847 1.27 2.011 1.48 3.494h.598c.336-1.525.935-2.7 1.796-3.526.882-.847 2.11-1.27 3.685-1.27 1.659 0 2.897.613 3.716 1.842.819 1.207 1.229 2.806 1.229 4.796v9.53h-3.244v-8.99c0-1.588-.21-2.71-.63-3.367-.42-.656-1.208-.985-2.363-.985-1.469 0-2.593.604-3.37 1.81-.777 1.208-1.165 2.85-1.165 4.924v6.607h-3.244v-8.989c0-1.588-.21-2.71-.63-3.367-.42-.656-1.208-.985-2.362-.985-1.47 0-2.594.604-3.371 1.81-.776 1.208-1.165 2.85-1.165 4.924v6.607h-3.244v-15.85zm-2.395 15.851h-6.505c-1.522 0-2.283-.767-2.283-2.3V14.908h-3.502v-2.835h3.502V8.462l3.221-1.008v4.62h4.941v2.834h-4.94v10.215h5.566v2.803zm-28.746-8.048c0-1.662.313-3.093.94-4.292.648-1.22 1.547-2.146 2.696-2.777 1.15-.631 2.487-.947 4.013-.947 2.404 0 4.306.684 5.706 2.052 1.4 1.367 2.1 3.26 2.1 5.68v1.104H67.98c.062 1.494.48 2.693 1.254 3.598.794.904 1.912 1.357 3.354 1.357 1.233 0 2.226-.284 2.978-.852.774-.569 1.286-1.368 1.537-2.399H80.3c-.334 1.683-1.139 3.082-2.414 4.197-1.254 1.094-2.999 1.641-5.235 1.641-1.672 0-3.104-.357-4.295-1.073a7.098 7.098 0 01-2.665-2.998c-.606-1.262-.91-2.692-.91-4.291zm12.29-1.294c-.085-1.326-.544-2.356-1.38-3.093-.815-.736-1.892-1.104-3.23-1.104-1.253 0-2.288.368-3.103 1.104-.815.737-1.275 1.767-1.38 3.093h9.092zm45.409 1.294c0-1.662.314-3.093.941-4.292.648-1.22 1.547-2.146 2.696-2.777 1.15-.631 2.487-.947 4.013-.947 2.403 0 4.305.684 5.706 2.052 1.4 1.367 2.1 3.26 2.1 5.68v1.104h-12.258c.063 1.494.481 2.693 1.254 3.598.794.904 1.913 1.357 3.355 1.357 1.233 0 2.226-.284 2.978-.852.773-.569 1.285-1.368 1.536-2.399H138c-.334 1.683-1.139 3.082-2.414 4.197-1.254 1.094-2.999 1.641-5.236 1.641-1.672 0-3.103-.357-4.295-1.073a7.098 7.098 0 01-2.664-2.998c-.607-1.262-.91-2.692-.91-4.291zm12.29-1.294c-.084-1.326-.544-2.356-1.38-3.093-.815-.736-1.891-1.104-3.229-1.104-1.254 0-2.288.368-3.103 1.104-.815.737-1.275 1.767-1.38 3.093h9.092zm-70.614-6.511l-4.74 15.853h-6.705L47.91 12.074h3.243l4.49 14.963h.874l4.46-14.963h3.18z" fill="#170728"/></svg>