<svg width="32" height="32" fill="none" xmlns="http://www.w3.org/2000/svg"><g clip-path="url(#clip0_862_3303)" fill="#170728"><path d="M32 15.77c0 4.24-.71 7.678-1.587 7.678s-1.587-3.438-1.587-7.678.71-7.677 1.587-7.677c.876 0 1.587 3.437 1.587 7.677zm-4.05 0c0 4.733-2.02 8.57-4.512 8.57-2.492 0-4.513-3.837-4.513-8.57 0-4.732 2.02-8.57 4.512-8.57 2.493 0 4.513 3.837 4.513 8.57m-9.9 0c0 5.028-4.04 9.104-9.025 9.104C4.041 24.874 0 20.797 0 15.77c0-5.026 4.04-9.103 9.025-9.103s9.025 4.076 9.025 9.103z"/></g><defs><clipPath id="clip0_862_3303"><path fill="#fff" d="M0 0h32v32H0z"/></clipPath></defs></svg>