<svg width="728" height="1136" fill="none" xmlns="http://www.w3.org/2000/svg"><path d="M12 0C5.373 0 0 5.373 0 12v1112c0 6.63 5.373 12 12 12h704c6.627 0 12-5.37 12-12V12c0-6.627-5.373-12-12-12H439.5a12 12 0 00-11.077 7.385l-4.872 11.692A8 8 0 01416.167 24H312.833a8 8 0 01-7.384-4.923l-4.872-11.692A12 12 0 00289.5 0H12z" fill="url(#paint0_linear_403_21882)"/><defs><linearGradient id="paint0_linear_403_21882" x1="784" y1="0" x2="1206.19" y2="486.088" gradientUnits="userSpaceOnUse"><stop stop-color="#170728"/><stop offset="1" stop-color="#250E3E"/></linearGradient></defs></svg>