<svg width="384" height="1215" fill="none" xmlns="http://www.w3.org/2000/svg"><path d="M12 .5C5.373.5 0 5.873 0 12.5v1190c0 6.63 5.373 12 12 12h360c6.627 0 12-5.37 12-12V12.5c0-6.627-5.373-12-12-12H267a12 12 0 00-11.077 7.385l-4.872 11.692a8 8 0 01-7.384 4.923H140.333a8 8 0 01-7.384-4.923l-4.872-11.692A12 12 0 00117 .5H12z" fill="url(#paint0_linear_369_10301)"/><defs><linearGradient id="paint0_linear_369_10301" x1="784.001" y1="67" x2="1206.19" y2="553.088" gradientUnits="userSpaceOnUse"><stop stop-color="#170728"/><stop offset="1" stop-color="#250E3E"/></linearGradient></defs></svg>