<svg width="31" height="16" fill="none" xmlns="http://www.w3.org/2000/svg"><path d="M20.366 16a7.856 7.856 0 005.407-2.163 8.038 8.038 0 002.483-5.32H31V7.482h-2.744a8.059 8.059 0 00-1.395-4.047A7.926 7.926 0 0023.601.7a7.82 7.82 0 00-8.102.998 7.82 7.82 0 00-8.102-1 7.924 7.924 0 00-3.259 2.738 8.056 8.056 0 00-1.394 4.047H0v1.035h2.744a8.056 8.056 0 001.394 4.047 7.924 7.924 0 003.26 2.737 7.82 7.82 0 008.101-1A7.81 7.81 0 0020.366 16zm4.869-3.075a6.848 6.848 0 01-4.356 2.02 6.826 6.826 0 01-4.603-1.344 8.018 8.018 0 002.245-5.084h8.71a6.974 6.974 0 01-1.996 4.408zM13.504 7.482a6.98 6.98 0 011.995-4.41 6.979 6.979 0 011.995 4.41h-3.99zm3.991 1.035a6.979 6.979 0 01-1.994 4.41 6.98 6.98 0 01-1.996-4.41h3.99zm7.74-5.443a6.974 6.974 0 011.996 4.41h-8.71a8.018 8.018 0 00-2.245-5.083 6.825 6.825 0 014.603-1.345 6.847 6.847 0 014.356 2.02v-.002zm-19.47 0a6.848 6.848 0 014.355-2.021 6.825 6.825 0 014.604 1.345 8.013 8.013 0 00-2.246 5.084h-8.71a6.98 6.98 0 011.996-4.408zm0 9.851a6.98 6.98 0 01-1.997-4.41h8.71a8.013 8.013 0 002.246 5.083 6.825 6.825 0 01-8.96-.673z" fill="#453953"/></svg>