<svg width="384" height="760" fill="none" xmlns="http://www.w3.org/2000/svg"><path d="M.5 12.01C.5 5.651 5.65.5 12 .5h104.998a11.5 11.5 0 0110.616 7.08l4.874 11.705a8.5 8.5 0 007.847 5.233h103.33a8.5 8.5 0 007.847-5.233l4.874-11.705A11.5 11.5 0 01267.002.5H372c6.351 0 11.5 5.152 11.5 11.51v735.48c0 6.357-5.149 11.509-11.5 11.509H12C5.65 759 .5 753.848.5 747.491V12.009z" fill="#fff" stroke="#5D5169"/><path d="M197.367 19a7.854 7.854 0 005.406-2.163 8.037 8.037 0 002.483-5.32H208v-1.035h-2.744a8.056 8.056 0 00-1.395-4.047 7.921 7.921 0 00-3.26-2.736 7.819 7.819 0 00-4.188-.641 7.855 7.855 0 00-3.914 1.64 7.818 7.818 0 00-8.101-1 7.921 7.921 0 00-3.26 2.737 8.055 8.055 0 00-1.394 4.047H177v1.035h2.744a8.055 8.055 0 001.394 4.047 7.921 7.921 0 003.26 2.737 7.818 7.818 0 008.101-1A7.814 7.814 0 00197.367 19zm4.868-3.075a6.85 6.85 0 01-4.356 2.02 6.826 6.826 0 01-4.603-1.344 8.014 8.014 0 002.245-5.084h8.71a6.979 6.979 0 01-1.996 4.408zm-11.732-5.443a6.985 6.985 0 011.996-4.41 6.974 6.974 0 011.995 4.41h-3.991zm3.992 1.035a6.978 6.978 0 01-1.994 4.41 6.975 6.975 0 01-1.996-4.41h3.99zm7.74-5.443a6.979 6.979 0 011.996 4.41h-8.71a8.014 8.014 0 00-2.245-5.083 6.825 6.825 0 018.959.675v-.002zm-19.471 0a6.85 6.85 0 014.356-2.021 6.826 6.826 0 014.604 1.345 8.014 8.014 0 00-2.246 5.084h-8.71a6.98 6.98 0 011.996-4.408zm0 9.851a6.98 6.98 0 01-1.996-4.41h8.71a8.014 8.014 0 002.246 5.083 6.825 6.825 0 01-8.96-.673z" fill="#453953"/></svg>