<svg width="730" height="994" fill="none" xmlns="http://www.w3.org/2000/svg"><path d="M66.16 254H14.481C7.036 254 1 247.956 1 240.5v-216C1 17.044 7.036 11 14.482 11h75.266a13.48 13.48 0 0112.447 8.302l5.477 13.163A8.988 8.988 0 00115.97 38h32.949a8.988 8.988 0 008.298-5.535l5.477-13.163A13.48 13.48 0 01175.141 11h65.717m62.914 243h47.746c7.446 0 13.482-6.044 13.482-13.5v-216c0-7.456-6.036-13.5-13.481-13.5h-66.284" stroke="#2E203E"/><path d="M51.325 243.881c0-.371.417-.588.72-.375L67 254l-14.954 10.494a.458.458 0 01-.721-.375 10.3 10.3 0 00-3.666-7.88l-2.015-1.696a.71.71 0 010-1.086l2.015-1.696a10.3 10.3 0 003.666-7.88z" fill="#2E203E"/><path d="M408 254h-29.519c-7.445 0-13.481-6.044-13.481-13.5v-216c0-7.456 6.036-13.5 13.481-13.5h75.267a13.48 13.48 0 0112.447 8.302l5.477 13.163A8.988 8.988 0 00479.97 38h32.949a8.988 8.988 0 008.298-5.535l5.477-13.163A13.48 13.48 0 01539.141 11h65.717M514 254h201.518c7.446 0 13.482-6.044 13.482-13.5v-216c0-7.456-6.036-13.5-13.481-13.5h-66.284" stroke="#2E203E"/><path d="M662.675.88a.458.458 0 00-.721-.374L647 11l14.954 10.494a.458.458 0 00.721-.375c0-3.039 1.342-5.922 3.666-7.88l2.015-1.696a.71.71 0 000-1.086l-2.015-1.696a10.304 10.304 0 01-3.666-7.88z" fill="#2E203E"/><path d="M257 496.184h-6.518c-7.446 0-13.482-6.024-13.482-13.454V267.455c0-7.431 6.036-13.455 13.481-13.455H352.5m40 0h34.371a13.482 13.482 0 0112.441 8.287l5.468 13.097a8.988 8.988 0 008.294 5.525h32.963a8.987 8.987 0 008.294-5.525l5.468-13.097A13.482 13.482 0 01512.24 254h75.278c7.446 0 13.482 6.024 13.482 13.455V482.73c0 7.43-6.054 14.27-13.5 14.27H545m-245.161 0h51.68c7.445 0 13.481 6.044 13.481 13.5v216c0 7.456-6.036 13.5-13.481 13.5h-75.267a13.48 13.48 0 01-12.447-8.302l-5.477-13.163A8.989 8.989 0 00250.03 713h-32.949a8.989 8.989 0 00-8.298 5.535l-5.477 13.163A13.48 13.48 0 01190.859 740h-39.316m105.605-243H14.481c-7.445 0-13.48 6.044-13.48 13.5L1 726.5c0 7.456 6.036 13.5 13.482 13.5h96.617" stroke="#2E203E"/><path d="M126.675 486.881a.458.458 0 00-.721-.375L111 497l14.954 10.494a.458.458 0 00.721-.375c0-3.039 1.342-5.923 3.666-7.88l2.015-1.696a.711.711 0 000-1.086l-2.015-1.696a10.302 10.302 0 01-3.666-7.88z" fill="#2E203E"/><path d="M429.303 740h-51.679c-7.446 0-12.624-5.205-12.624-12.687V510.548c0-7.482 6.036-13.548 13.481-13.548h75.255a13.483 13.483 0 0112.454 8.318l5.486 13.232a8.988 8.988 0 008.302 5.546h32.932a8.988 8.988 0 008.303-5.546l5.486-13.232A13.483 13.483 0 01539.153 497h43.798M472.852 740h242.666c7.446 0 13.482-6.066 13.482-13.548V510.548c0-7.482-6.036-13.548-13.481-13.548h-66.284" stroke="#2E203E"/><path d="M433.325 729.881c0-.371.417-.588.721-.375L449 740l-14.954 10.494a.458.458 0 01-.721-.375c0-3.039-1.342-5.923-3.666-7.88l-2.015-1.696a.711.711 0 010-1.086l2.015-1.696a10.302 10.302 0 003.666-7.88z" fill="#2E203E"/><path d="M299.839 740h51.68c7.445 0 13.481 6.044 13.481 13.5v216c0 7.456-6.036 13.5-13.481 13.5h-75.267a13.48 13.48 0 01-12.447-8.302l-5.477-13.163A8.989 8.989 0 00250.03 956h-32.949a8.989 8.989 0 00-8.298 5.535l-5.477 13.163A13.48 13.48 0 01190.859 983h-65.717M182 740H14.482C7.036 740 1 746.044 1 753.5v216c0 7.456 6.036 13.5 13.482 13.5h66.283" stroke="#2E203E"/><path d="M74.325 972.881c0-.371.418-.588.72-.375L90 983l-14.954 10.494a.458.458 0 01-.721-.375 10.3 10.3 0 00-3.666-7.88l-2.015-1.696a.71.71 0 010-1.086l2.015-1.696a10.3 10.3 0 003.666-7.88z" fill="#2E203E"/><path d="M412.185 740h-33.704c-7.445 0-13.481 6.044-13.481 13.5v216c0 7.456 6.036 13.5 13.481 13.5h75.267a13.48 13.48 0 0012.447-8.302l5.477-13.163A8.989 8.989 0 01479.97 956h32.949a8.989 8.989 0 018.298 5.535l5.477 13.163A13.48 13.48 0 00539.141 983h65.717M514.42 740h201.098c7.446 0 13.482 6.044 13.482 13.5v216c0 7.456-6.036 13.5-13.481 13.5h-66.284" stroke="#2E203E"/><path d="M663.675 972.881a.458.458 0 00-.721-.375L648 983l14.954 10.494a.458.458 0 00.721-.375c0-3.039 1.342-5.923 3.666-7.88l2.015-1.696a.711.711 0 000-1.086l-2.015-1.696a10.302 10.302 0 01-3.666-7.88z" fill="#2E203E"/></svg>