<svg width="1458" height="454" fill="none" xmlns="http://www.w3.org/2000/svg"><path d="M59 227H13c-6.627 0-12-5.373-12-12V23c0-6.627 5.373-12 12-12h67a12 12 0 0111.077 7.385l4.872 11.692A8 8 0 00103.333 35h29.334a8 8 0 007.384-4.923l4.872-11.692A12 12 0 01156 11h58.5m56 216H313c6.627 0 12-5.373 12-12V23c0-6.627-5.373-12-12-12h-59" stroke="#2E203E"/><path d="M45.325 216.881c0-.371.417-.588.72-.375L61 227l-14.954 10.494a.458.458 0 01-.721-.375 10.3 10.3 0 00-3.667-7.88l-2.014-1.696a.71.71 0 010-1.086l2.014-1.696a10.3 10.3 0 003.667-7.88z" fill="#2E203E"/><path d="M793 227h46c6.627 0 12 5.373 12 12v192c0 6.627-5.373 12-12 12h-67a12 12 0 01-11.077-7.385l-4.872-11.692a8 8 0 00-7.384-4.923h-29.334a8 8 0 00-7.384 4.923l-4.872 11.692A12 12 0 01696 443h-58.5M755 227H539c-6.627 0-12 5.373-12 12v192c0 6.627 5.373 12 12 12h59" stroke="#2E203E"/><path d="M593.325 432.881c0-.371.417-.588.721-.375L609 443l-14.954 10.494a.458.458 0 01-.721-.375c0-3.039-1.342-5.923-3.666-7.88l-2.015-1.696a.711.711 0 010-1.086l2.015-1.696a10.302 10.302 0 003.666-7.88z" fill="#2E203E"/><path d="M173 443h-46.001c-6.627 0-12-5.373-12-12L115 239c0-6.627 5.372-12 12-12h67c4.844 0 9.213 2.913 11.076 7.385l4.872 11.692a8 8 0 007.385 4.923h29.333a8 8 0 007.385-4.923l4.872-11.692A12 12 0 01270 227h39m-98 216h215.999c6.628 0 12-5.373 12-12L439 239c0-6.627-5.373-12-12-12h-59" stroke="#2E203E"/><path d="M181.325 432.881c0-.371.417-.588.721-.375L197 443l-14.954 10.494a.458.458 0 01-.721-.375c0-3.039-1.342-5.923-3.666-7.88l-2.015-1.696a.711.711 0 010-1.086l2.015-1.696a10.302 10.302 0 003.666-7.88z" fill="#2E203E"/><path d="M1003 11h46c6.63 0 12 5.373 12 12v192c0 6.627-5.37 12-12 12h-67a12 12 0 01-11.077-7.385l-4.872-11.692a8 8 0 00-7.384-4.923h-29.334a8 8 0 00-7.384 4.923l-4.872 11.692A12 12 0 01906 227h-39.5M965 11H749c-6.627 0-12 5.373-12 12v192c0 6.627 5.373 12 12 12h59" stroke="#2E203E"/><path d="M949.325.88c0-.37.417-.587.721-.374L965 11l-14.954 10.494a.458.458 0 01-.721-.375c0-3.039-1.342-5.922-3.666-7.88l-2.015-1.696a.71.71 0 010-1.086l2.015-1.696a10.304 10.304 0 003.666-7.88z" fill="#2E203E"/><path d="M383 227h-46c-6.627 0-12-5.373-12-12V23c0-6.627 5.373-12 12-12h67a12 12 0 0111.077 7.385l4.872 11.692A8 8 0 00427.333 35h29.334a8 8 0 007.384-4.923l4.872-11.692A12 12 0 01480 11h58.5M421 227h216c6.627 0 12-5.373 12-12V23c0-6.627-5.373-12-12-12h-59" stroke="#2E203E"/><path d="M591.675.88a.458.458 0 00-.721-.374L576 11l14.954 10.494a.458.458 0 00.721-.375c0-3.039 1.342-5.922 3.666-7.88l2.015-1.696a.71.71 0 000-1.086l-2.015-1.696a10.304 10.304 0 01-3.666-7.88z" fill="#2E203E"/><path d="M893 227h-30c-6.627 0-12 5.373-12 12v192c0 6.627 5.373 12 12 12h67a12 12 0 0011.077-7.385l4.872-11.692a8 8 0 017.384-4.923h29.334a8 8 0 017.384 4.923l4.872 11.692A12.004 12.004 0 001006 443h58.5M984 227h179c6.63 0 12 5.373 12 12v192c0 6.627-5.37 12-12 12h-59" stroke="#2E203E"/><path d="M1117.68 432.881a.464.464 0 00-.73-.375L1102 443l14.95 10.494c.31.213.73-.004.73-.375a10.31 10.31 0 013.66-7.88l2.02-1.696a.72.72 0 000-1.086l-2.02-1.696a10.31 10.31 0 01-3.66-7.88z" fill="#2E203E"/><path d="M1399 11h46c6.63 0 12 5.373 12 12v192c0 6.627-5.37 12-12 12h-67c-4.85 0-9.21-2.913-11.08-7.385l-4.87-11.692a7.991 7.991 0 00-7.38-4.923h-29.34a7.991 7.991 0 00-7.38 4.923l-4.87 11.692A12.016 12.016 0 011302 227h-35m94-216h-216c-6.63 0-12 5.373-12 12v192c0 6.627 5.37 12 12 12h86" stroke="#2E203E"/><path d="M1244.67.88c0-.37-.41-.587-.72-.374L1229 11l14.95 10.494c.31.213.72-.004.72-.375a10.32 10.32 0 013.67-7.88l2.01-1.696a.705.705 0 000-1.086l-2.01-1.696a10.32 10.32 0 01-3.67-7.88z" fill="#2E203E"/></svg>