<svg width="386" height="1804" fill="none" xmlns="http://www.w3.org/2000/svg"><path d="M69.74 257H15.223C7.367 257 1 250.632 1 242.778V15.222C1 7.367 7.368 1 15.222 1H94.63c5.741 0 10.92 3.452 13.128 8.752l5.774 13.858a9.48 9.48 0 008.752 5.834h34.765a9.483 9.483 0 008.753-5.834l5.774-13.858A14.221 14.221 0 01184.704 1h69.333m66.37 256h50.371c7.854 0 14.222-6.367 14.222-14.222V15.222C385 7.368 378.632 1 370.778 1h-69.926" stroke="#2E203E"/><path d="M54.325 246.881c0-.371.417-.588.72-.375L70 257l-14.954 10.494a.458.458 0 01-.721-.375 10.3 10.3 0 00-3.666-7.88l-2.015-1.696a.71.71 0 010-1.086l2.015-1.696a10.3 10.3 0 003.666-7.88z" fill="#2E203E"/><path d="M15.722 257C7.868 257 1.5 263.368 1.5 271.222v227.556C1.5 506.633 7.868 513 15.722 513h271m45.037 0h39.019c7.855 0 14.222-6.368 14.222-14.222V271.222c0-7.855-6.367-14.222-14.222-14.222H306.87a14.222 14.222 0 00-13.128 8.752l-5.774 13.858a9.48 9.48 0 01-8.752 5.834H244.45a9.481 9.481 0 01-8.752-5.834l-5.774-13.858A14.22 14.22 0 00216.796 257h-69.333m168.796 256h54.519c7.855 0 14.222 6.368 14.222 14.222v227.556c0 7.855-6.368 14.222-14.222 14.222H291.37a14.222 14.222 0 01-13.128-8.752l-5.774-13.858a9.48 9.48 0 00-8.752-5.834h-34.765a9.483 9.483 0 00-8.753 5.834l-5.774 13.858A14.22 14.22 0 01201.296 769h-46.815m116.741-256h-256C7.368 513 1 519.368 1 527.222v227.556C1 762.632 7.368 769 15.222 769h69.926" stroke="#2E203E"/><path d="M272.325 502.881c0-.371.417-.588.721-.375L288 513l-14.954 10.494a.458.458 0 01-.721-.375c0-3.039-1.342-5.923-3.666-7.88l-2.015-1.696a.711.711 0 010-1.086l2.015-1.696a10.302 10.302 0 003.666-7.88z" fill="#2E203E"/><path d="M15.222 769C7.368 769 1 775.368 1 783.222v227.558c0 7.85 6.368 14.22 14.222 14.22h78.222M316.26 769H370c7.855 0 14.222 6.368 14.222 14.222v227.558c0 7.85-6.367 14.22-14.222 14.22h-78.63a14.22 14.22 0 01-13.128-8.75l-5.774-13.86a9.48 9.48 0 00-8.752-5.834h-34.765a9.483 9.483 0 00-8.753 5.834l-5.774 13.86a14.219 14.219 0 01-13.128 8.75h-17.185M138.5 769H198" stroke="#2E203E"/><path d="M134.675 758.881a.457.457 0 00-.72-.375L119 769l14.955 10.494a.457.457 0 00.72-.375 10.3 10.3 0 013.667-7.88l2.014-1.696a.71.71 0 000-1.086l-2.014-1.696a10.3 10.3 0 01-3.667-7.88z" fill="#2E203E"/><path d="M69.74 1281H15.223C7.367 1281 1 1274.63 1 1266.78v-227.56c0-7.85 6.368-14.22 14.222-14.22H94.63a14.22 14.22 0 0113.128 8.75l5.774 13.86a9.481 9.481 0 008.752 5.83h34.765c3.828 0 7.28-2.3 8.753-5.83l5.774-13.86a14.219 14.219 0 0113.128-8.75h16.592M129 1281h241.778c7.854 0 14.222-6.37 14.222-14.22v-227.56c0-7.85-6.368-14.22-14.222-14.22h-69.926" stroke="#2E203E"/><path d="M80.325 1270.88c0-.37.418-.59.72-.37L96 1281l-14.954 10.49a.454.454 0 01-.721-.37c0-3.04-1.342-5.92-3.666-7.88l-2.015-1.7a.704.704 0 010-1.08l2.015-1.7a10.304 10.304 0 003.666-7.88z" fill="#2E203E"/><path d="M316.259 1281h54.519c7.855 0 14.222 6.37 14.222 14.22v227.56c0 7.85-6.368 14.22-14.222 14.22H291.37a14.22 14.22 0 01-13.128-8.75l-5.774-13.86a9.481 9.481 0 00-8.752-5.83h-34.765c-3.828 0-7.28 2.3-8.753 5.83l-5.774 13.86a14.219 14.219 0 01-13.128 8.75h-69.333m139.259-256H128m-42.852 256H15.222C7.368 1537 1 1530.63 1 1522.78v-227.56c0-7.85 6.368-14.22 14.222-14.22H74.5" stroke="#2E203E"/><path d="M70.325 1526.88c0-.37.418-.59.72-.37L86 1537l-14.954 10.49a.454.454 0 01-.721-.37c0-3.04-1.342-5.92-3.666-7.88l-2.015-1.7a.704.704 0 010-1.08l2.015-1.7a10.304 10.304 0 003.666-7.88z" fill="#2E203E"/><path d="M370.778 1537c7.854 0 14.222 6.37 14.222 14.22v227.56c0 7.85-6.368 14.22-14.222 14.22h-69.926M50.778 1537H15.222C7.367 1537 1 1543.37 1 1551.22v227.56c0 7.85 6.368 14.22 14.222 14.22H94.63a14.22 14.22 0 0013.128-8.75l5.774-13.86a9.481 9.481 0 018.752-5.83h34.765c3.828 0 7.28 2.3 8.753 5.83l5.774 13.86a14.219 14.219 0 0013.128 8.75h69.333" stroke="#2E203E"/><path d="M314.675 1782.88c0-.37-.417-.59-.721-.37L299 1793l14.954 10.49c.304.22.721 0 .721-.37 0-3.04 1.342-5.92 3.666-7.88l2.015-1.7a.705.705 0 000-1.08l-2.015-1.7a10.305 10.305 0 01-3.666-7.88z" fill="#2E203E"/></svg>