<svg width="728" height="822" fill="none" xmlns="http://www.w3.org/2000/svg"><path d="M12 822c-6.627 0-12-5.373-12-12V12C0 5.373 5.373 0 12 0h704c6.627 0 12 5.373 12 12v798c0 6.627-5.373 12-12 12H439.5a12 12 0 01-11.077-7.385l-4.872-11.692a8 8 0 00-7.384-4.923H312.833a8 8 0 00-7.384 4.923l-4.872 11.692A12 12 0 01289.5 822H12z" fill="#EFF1EA"/><g clip-path="url(#clip0_67_142)"><path d="M369.367 819a7.858 7.858 0 005.406-2.163 8.038 8.038 0 002.483-5.32H380v-1.035h-2.744a8.06 8.06 0 00-1.395-4.047 7.921 7.921 0 00-3.26-2.736 7.81 7.81 0 00-4.188-.641 7.86 7.86 0 00-3.914 1.639 7.853 7.853 0 00-3.913-1.639 7.82 7.82 0 00-4.188.64 7.93 7.93 0 00-3.26 2.737 8.059 8.059 0 00-1.394 4.047H349v1.035h2.744a8.059 8.059 0 001.394 4.047 7.923 7.923 0 003.26 2.737 7.82 7.82 0 004.188.64 7.853 7.853 0 003.913-1.639 7.816 7.816 0 004.868 1.698zm4.868-3.075a6.849 6.849 0 01-4.356 2.021 6.829 6.829 0 01-4.603-1.345 8.018 8.018 0 002.245-5.084h8.71a6.978 6.978 0 01-1.996 4.408zm-11.732-5.443a6.983 6.983 0 011.996-4.41 6.972 6.972 0 011.995 4.41h-3.991zm3.992 1.035a6.976 6.976 0 01-1.994 4.41 6.973 6.973 0 01-1.996-4.41h3.99zm7.74-5.443a6.978 6.978 0 011.996 4.41h-8.71a8.013 8.013 0 00-2.245-5.083 6.824 6.824 0 018.959.675v-.002zm-19.471 0a6.826 6.826 0 018.96-.676 8.016 8.016 0 00-2.246 5.084h-8.71a6.98 6.98 0 011.996-4.408zm0 9.851a6.978 6.978 0 01-1.996-4.41h8.71a8.014 8.014 0 002.246 5.083 6.825 6.825 0 01-4.603 1.347 6.848 6.848 0 01-4.357-2.02z" fill="#453953"/></g><defs><clipPath id="clip0_67_142"><path fill="#fff" transform="rotate(90 -211.5 591.5)" d="M0 0h16v31H0z"/></clipPath></defs></svg>