<svg width="40" height="40" fill="none" xmlns="http://www.w3.org/2000/svg"><ellipse cx="19.841" cy="20" rx="19.841" ry="20" fill="#170728"/><path fill-rule="evenodd" clip-rule="evenodd" d="M19.84 40c10.959 0 19.841-8.954 19.841-20S30.8 0 19.841 0 0 8.954 0 20s8.883 20 19.84 20zM13.029 9.344l-1.363 1.386a11.45 11.45 0 005.884 3.212l2.292 2.331 2.292-2.331a11.45 11.45 0 005.884-3.212l-1.363-1.386-4.52 4.598c-1.513.31-3.074.31-4.585 0l-4.521-4.598zM9.27 13.13l1.368-1.373 8.213 8.241-8.213 8.241-1.368-1.373 6.844-6.868L9.27 13.13zm21.142 13.736l-1.369 1.373-8.213-8.241 8.213-8.242 1.37 1.374-6.845 6.868 6.844 6.868zm-12.863-.808l2.292-2.33 2.292 2.33a11.434 11.434 0 00-4.584 0zm-5.884 3.212a11.45 11.45 0 015.884-3.212l-4.521 4.598-1.363-1.386zm14.99 1.386l-4.522-4.598a11.45 11.45 0 015.884 3.212l-1.363 1.386z" fill="#BEFECD"/></svg>