<svg width="925" height="40" fill="none" xmlns="http://www.w3.org/2000/svg"><path fill-rule="evenodd" clip-rule="evenodd" d="M197 16v8h-1v-8h1zm6 0v8h-1v-8h1zm6 8v-8h-1v8h1zm6-8v8h-1v-8h1zm6 8v-8h-1v8h1zm6-8v8h-1v-8h1zm6 8v-8h-1v8h1zm6-8v8h-1v-8h1zm6 8v-8h-1v8h1zm6-8v8h-1v-8h1zm6 8v-8h-1v8h1zm6-8v8h-1v-8h1zm6 8v-8h-1v8h1zm6-8v8h-1v-8h1zm6 8v-8h-1v8h1zm6-8v8h-1v-8h1zm6 8v-8h-1v8h1zm6-8v8h-1v-8h1zm6 8v-8h-1v8h1zm512-8v8h-1v-8h1zm6 0v8h-1v-8h1zm6 8v-8h-1v8h1zm6-8v8h-1v-8h1zm6 8v-8h-1v8h1zm6-8v8h-1v-8h1zm6 8v-8h-1v8h1zm6-8v8h-1v-8h1zm6 8v-8h-1v8h1zm6-8v8h-1v-8h1zm6 8v-8h-1v8h1zm6-8v8h-1v-8h1zm6 8v-8h-1v8h1zm6-8v8h-1v-8h1zm6 8v-8h-1v8h1zm6-8v8h-1v-8h1zm6 8v-8h-1v8h1zm6-8v8h-1v-8h1zm6 8v-8h-1v8h1z" fill="#746A7E"/><rect x="308.5" y=".5" width="39" height="39" rx="19.5" stroke="#5D5169"/><circle cx="328" cy="20" r="5" fill="#E8E6EA"/><circle cx="318" cy="11" r="1" fill="#746A7E"/><circle cx="318" cy="29" r="1" fill="#746A7E"/><circle cx="337" cy="11" r="1" fill="#746A7E"/><circle cx="337" cy="29" r="1" fill="#746A7E"/><path fill-rule="evenodd" clip-rule="evenodd" d="M352 16v8h-1v-8h1zm6 0v8h-1v-8h1zm6 8v-8h-1v8h1zm6-8v8h-1v-8h1zm6 8v-8h-1v8h1zm6-8v8h-1v-8h1zm6 8v-8h-1v8h1zm6-8v8h-1v-8h1zm6 8v-8h-1v8h1zm6-8v8h-1v-8h1zm6 8v-8h-1v8h1zm6-8v8h-1v-8h1zm6 8v-8h-1v8h1zm6-8v8h-1v-8h1zm6 8v-8h-1v8h1zm6-8v8h-1v-8h1zm6 8v-8h-1v8h1zm6-8v8h-1v-8h1zm6 8v-8h-1v8h1z" fill="#746A7E"/><rect x="463.5" y=".5" width="39" height="39" rx="19.5" stroke="#5D5169"/><circle cx="483" cy="20" r="5" fill="#E8E6EA"/><circle cx="473" cy="11" r="1" fill="#746A7E"/><circle cx="473" cy="29" r="1" fill="#746A7E"/><circle cx="492" cy="11" r="1" fill="#746A7E"/><circle cx="492" cy="29" r="1" fill="#746A7E"/><path fill-rule="evenodd" clip-rule="evenodd" d="M507 16v8h-1v-8h1zm6 0v8h-1v-8h1zm6 8v-8h-1v8h1zm6-8v8h-1v-8h1zm6 8v-8h-1v8h1zm6-8v8h-1v-8h1zm6 8v-8h-1v8h1zm6-8v8h-1v-8h1zm6 8v-8h-1v8h1zm6-8v8h-1v-8h1zm6 8v-8h-1v8h1zm6-8v8h-1v-8h1zm6 8v-8h-1v8h1zm6-8v8h-1v-8h1zm6 8v-8h-1v8h1zm6-8v8h-1v-8h1zm6 8v-8h-1v8h1zm6-8v8h-1v-8h1zm6 8v-8h-1v8h1z" fill="#746A7E"/><rect x="618.5" y=".5" width="39" height="39" rx="19.5" stroke="#5D5169"/><circle cx="638" cy="20" r="5" fill="#E8E6EA"/><circle cx="628" cy="11" r="1" fill="#746A7E"/><circle cx="628" cy="29" r="1" fill="#746A7E"/><circle cx="647" cy="11" r="1" fill="#746A7E"/><circle cx="647" cy="29" r="1" fill="#746A7E"/><path fill-rule="evenodd" clip-rule="evenodd" d="M663 16v8h-1v-8h1zm6 0v8h-1v-8h1zm6 8v-8h-1v8h1zm6-8v8h-1v-8h1zm6 8v-8h-1v8h1zm6-8v8h-1v-8h1zm6 8v-8h-1v8h1zm6-8v8h-1v-8h1zm6 8v-8h-1v8h1zm6-8v8h-1v-8h1zm6 8v-8h-1v8h1zm6-8v8h-1v-8h1zm6 8v-8h-1v8h1zm6-8v8h-1v-8h1zm6 8v-8h-1v8h1zm6-8v8h-1v-8h1zm6 8v-8h-1v8h1zm6-8v8h-1v-8h1zm6 8v-8h-1v8h1z" fill="#746A7E"/><rect x="774.5" y=".5" width="39" height="39" rx="19.5" stroke="#5D5169"/><circle cx="794" cy="20" r="5" fill="#E8E6EA"/><circle cx="784" cy="11" r="1" fill="#746A7E"/><circle cx="784" cy="29" r="1" fill="#746A7E"/><circle cx="803" cy="11" r="1" fill="#746A7E"/><circle cx="803" cy="29" r="1" fill="#746A7E"/><path fill-rule="evenodd" clip-rule="evenodd" d="M42 16v8h-1v-8h1zm6 0v8h-1v-8h1zm6 8v-8h-1v8h1zm6-8v8h-1v-8h1zm6 8v-8h-1v8h1zm6-8v8h-1v-8h1zm6 8v-8h-1v8h1zm6-8v8h-1v-8h1zm6 8v-8h-1v8h1zm6-8v8h-1v-8h1zm6 8v-8h-1v8h1zm6-8v8h-1v-8h1zm6 8v-8h-1v8h1zm6-8v8h-1v-8h1zm6 8v-8h-1v8h1zm6-8v8h-1v-8h1zm6 8v-8h-1v8h1zm6-8v8h-1v-8h1zm6 8v-8h-1v8h1z" fill="#746A7E"/><path fill="#746A7E" d="M19 16v8h-1v-8zm6 0v8h-1v-8zm6 0v8h-1v-8zm6 0v8h-1v-8zM1 16v8H0v-8zm6 0v8H6v-8zm6 0v8h-1v-8z"/><path fill="#746A7E" d="M19 16v8h-1v-8z"/><rect x="153.5" y=".5" width="39" height="39" rx="19.5" stroke="#5D5169"/><circle cx="173" cy="20" r="5" fill="#E8E6EA"/><circle cx="163" cy="11" r="1" fill="#746A7E"/><circle cx="163" cy="29" r="1" fill="#746A7E"/><circle cx="182" cy="11" r="1" fill="#746A7E"/><circle cx="182" cy="29" r="1" fill="#746A7E"/></svg>