<svg width="1802" height="40" fill="none" xmlns="http://www.w3.org/2000/svg"><path fill-rule="evenodd" clip-rule="evenodd" d="M189 16v8h-1v-8h1zm6 0v8h-1v-8h1zm6 8v-8h-1v8h1zm6-8v8h-1v-8h1zm6 8v-8h-1v8h1zm6-8v8h-1v-8h1zm6 8v-8h-1v8h1zm6-8v8h-1v-8h1zm6 8v-8h-1v8h1zm6-8v8h-1v-8h1zm6 8v-8h-1v8h1zm6-8v8h-1v-8h1zm6 8v-8h-1v8h1zm6-8v8h-1v-8h1zm6 8v-8h-1v8h1zm6-8v8h-1v-8h1zm6 8v-8h-1v8h1zm6-8v8h-1v-8h1zm6 8v-8h-1v8h1zM74 16v8h-1v-8h1zm6 0v8h-1v-8h1zm6 8v-8h-1v8h1zm6-8v8h-1v-8h1zm6 8v-8h-1v8h1zm6-8v8h-1v-8h1zm6 8v-8h-1v8h1zm6-8v8h-1v-8h1zm6 8v-8h-1v8h1zm6-8v8h-1v-8h1zm6 8v-8h-1v8h1zm6-8v8h-1v-8h1zm6 8v-8h-1v8h1zm6-8v8h-1v-8h1zm6 8v-8h-1v8h1zm6-8v8h-1v-8h1zm6 8v-8h-1v8h1zm6-8v8h-1v-8h1zm6 8v-8h-1v8h1zM20 24v-8h-1v8h1zm24 0v-8h-1v8h1zm6-8v8h-1v-8h1zm6 8v-8h-1v8h1zm6-8v8h-1v-8h1zm6 8v-8h-1v8h1z" fill="#BEFECD"/><rect x=".5" y=".5" width="39" height="39" rx="19.5" stroke="#5D5169"/><circle cx="20" cy="20" r="5" fill="#BEFECD"/><circle cx="10" cy="11" r="1" fill="#746A7E"/><circle cx="10" cy="29" r="1" fill="#746A7E"/><circle cx="29" cy="11" r="1" fill="#746A7E"/><circle cx="29" cy="29" r="1" fill="#746A7E"/><path fill-rule="evenodd" clip-rule="evenodd" d="M490 16v8h-1v-8h1zm6 0v8h-1v-8h1zm6 8v-8h-1v8h1zm6-8v8h-1v-8h1zm6 8v-8h-1v8h1zm6-8v8h-1v-8h1zm6 8v-8h-1v8h1zm6-8v8h-1v-8h1zm6 8v-8h-1v8h1zm6-8v8h-1v-8h1zm6 8v-8h-1v8h1zm6-8v8h-1v-8h1zm6 8v-8h-1v8h1zm6-8v8h-1v-8h1zm6 8v-8h-1v8h1zm6-8v8h-1v-8h1zm6 8v-8h-1v8h1zm6-8v8h-1v-8h1zm6 8v-8h-1v8h1zm-223-8v8h-1v-8h1zm6 0v8h-1v-8h1zm6 8v-8h-1v8h1zm6-8v8h-1v-8h1zm6 8v-8h-1v8h1zm6-8v8h-1v-8h1zm6 8v-8h-1v8h1zm6-8v8h-1v-8h1zm6 8v-8h-1v8h1zm6-8v8h-1v-8h1zm6 8v-8h-1v8h1zm6-8v8h-1v-8h1zm6 8v-8h-1v8h1zm6-8v8h-1v-8h1zm6 8v-8h-1v8h1zm6-8v8h-1v-8h1zm6 8v-8h-1v8h1zm6-8v8h-1v-8h1zm6 8v-8h-1v8h1zm-162 0v-8h-1v8h1zm24 0v-8h-1v8h1zm6-8v8h-1v-8h1zm6 8v-8h-1v8h1zm6-8v8h-1v-8h1zm6 8v-8h-1v8h1z" fill="#BEFECD"/><rect x="301.5" y=".5" width="39" height="39" rx="19.5" stroke="#5D5169"/><circle cx="321" cy="20" r="5" fill="#BEFECD"/><circle cx="311" cy="11" r="1" fill="#746A7E"/><circle cx="311" cy="29" r="1" fill="#746A7E"/><circle cx="330" cy="11" r="1" fill="#746A7E"/><circle cx="330" cy="29" r="1" fill="#746A7E"/><path fill-rule="evenodd" clip-rule="evenodd" d="M791 16v8h-1v-8h1zm6 0v8h-1v-8h1zm6 8v-8h-1v8h1zm6-8v8h-1v-8h1zm6 8v-8h-1v8h1zm6-8v8h-1v-8h1zm6 8v-8h-1v8h1zm6-8v8h-1v-8h1zm6 8v-8h-1v8h1zm6-8v8h-1v-8h1zm6 8v-8h-1v8h1zm6-8v8h-1v-8h1zm6 8v-8h-1v8h1zm6-8v8h-1v-8h1zm6 8v-8h-1v8h1zm6-8v8h-1v-8h1zm6 8v-8h-1v8h1zm6-8v8h-1v-8h1zm6 8v-8h-1v8h1zm-223-8v8h-1v-8h1zm6 0v8h-1v-8h1zm6 8v-8h-1v8h1zm6-8v8h-1v-8h1zm6 8v-8h-1v8h1zm6-8v8h-1v-8h1zm6 8v-8h-1v8h1zm6-8v8h-1v-8h1zm6 8v-8h-1v8h1zm6-8v8h-1v-8h1zm6 8v-8h-1v8h1zm6-8v8h-1v-8h1zm6 8v-8h-1v8h1zm6-8v8h-1v-8h1zm6 8v-8h-1v8h1zm6-8v8h-1v-8h1zm6 8v-8h-1v8h1zm6-8v8h-1v-8h1zm6 8v-8h-1v8h1zm-162 0v-8h-1v8h1zm24 0v-8h-1v8h1zm6-8v8h-1v-8h1zm6 8v-8h-1v8h1zm6-8v8h-1v-8h1zm6 8v-8h-1v8h1z" fill="#BEFECD"/><rect x="602.5" y=".5" width="39" height="39" rx="19.5" stroke="#5D5169"/><circle cx="622" cy="20" r="5" fill="#BEFECD"/><circle cx="612" cy="11" r="1" fill="#746A7E"/><circle cx="612" cy="29" r="1" fill="#746A7E"/><circle cx="631" cy="11" r="1" fill="#746A7E"/><circle cx="631" cy="29" r="1" fill="#746A7E"/><path fill-rule="evenodd" clip-rule="evenodd" d="M1092 16v8h-1v-8h1zm6 0v8h-1v-8h1zm6 8v-8h-1v8h1zm6-8v8h-1v-8h1zm6 8v-8h-1v8h1zm6-8v8h-1v-8h1zm6 8v-8h-1v8h1zm6-8v8h-1v-8h1zm6 8v-8h-1v8h1zm6-8v8h-1v-8h1zm6 8v-8h-1v8h1zm6-8v8h-1v-8h1zm6 8v-8h-1v8h1zm6-8v8h-1v-8h1zm6 8v-8h-1v8h1zm6-8v8h-1v-8h1zm6 8v-8h-1v8h1zm6-8v8h-1v-8h1zm6 8v-8h-1v8h1zm-223-8v8h-1v-8h1zm6 0v8h-1v-8h1zm6 8v-8h-1v8h1zm6-8v8h-1v-8h1zm6 8v-8h-1v8h1zm6-8v8h-1v-8h1zm6 8v-8h-1v8h1zm6-8v8h-1v-8h1zm6 8v-8h-1v8h1zm6-8v8h-1v-8h1zm6 8v-8h-1v8h1zm6-8v8h-1v-8h1zm6 8v-8h-1v8h1zm6-8v8h-1v-8h1zm6 8v-8h-1v8h1zm6-8v8h-1v-8h1zm6 8v-8h-1v8h1zm6-8v8h-1v-8h1zm6 8v-8h-1v8h1zm-162 0v-8h-1v8h1zm24 0v-8h-1v8h1zm6-8v8h-1v-8h1zm6 8v-8h-1v8h1zm6-8v8h-1v-8h1zm6 8v-8h-1v8h1z" fill="#BEFECD"/><rect x="903.5" y=".5" width="39" height="39" rx="19.5" stroke="#5D5169"/><circle cx="923" cy="20" r="5" fill="#BEFECD"/><circle cx="913" cy="11" r="1" fill="#746A7E"/><circle cx="913" cy="29" r="1" fill="#746A7E"/><circle cx="932" cy="11" r="1" fill="#746A7E"/><circle cx="932" cy="29" r="1" fill="#746A7E"/><path fill-rule="evenodd" clip-rule="evenodd" d="M1393 16v8h-1v-8h1zm6 0v8h-1v-8h1zm6 8v-8h-1v8h1zm6-8v8h-1v-8h1zm6 8v-8h-1v8h1zm6-8v8h-1v-8h1zm6 8v-8h-1v8h1zm6-8v8h-1v-8h1zm6 8v-8h-1v8h1zm6-8v8h-1v-8h1zm6 8v-8h-1v8h1zm6-8v8h-1v-8h1zm6 8v-8h-1v8h1zm6-8v8h-1v-8h1zm6 8v-8h-1v8h1zm6-8v8h-1v-8h1zm6 8v-8h-1v8h1zm6-8v8h-1v-8h1zm6 8v-8h-1v8h1z" fill="#BEFECD"/><path fill-rule="evenodd" clip-rule="evenodd" d="M1417 24v-8h-1v8h1zm6 0v-8h-1v8h1zm6-8v8h-1v-8h1zm6 8v-8h-1v8h1zm6-8v8h-1v-8h1zm6 8v-8h-1v8h1zm6-8v8h-1v-8h1zm6 8v-8h-1v8h1zm6-8v8h-1v-8h1zm6 8v-8h-1v8h1zm6-8v8h-1v-8h1zm6 8v-8h-1v8h1zm6-8v8h-1v-8h1zm6 8v-8h-1v8h1zm6-8v8h-1v-8h1zm24 8v-8h-1v8h1zm-247-8v8h-1v-8h1zm6 0v8h-1v-8h1zm6 8v-8h-1v8h1zm6-8v8h-1v-8h1zm6 8v-8h-1v8h1zm6-8v8h-1v-8h1zm6 8v-8h-1v8h1zm6-8v8h-1v-8h1zm6 8v-8h-1v8h1zm6-8v8h-1v-8h1zm6 8v-8h-1v8h1zm6-8v8h-1v-8h1zm6 8v-8h-1v8h1zm6-8v8h-1v-8h1zm6 8v-8h-1v8h1zm6-8v8h-1v-8h1zm6 8v-8h-1v8h1zm6-8v8h-1v-8h1zm6 8v-8h-1v8h1zm-162 0v-8h-1v8h1zm24 0v-8h-1v8h1zm6-8v8h-1v-8h1zm6 8v-8h-1v8h1zm6-8v8h-1v-8h1zm6 8v-8h-1v8h1z" fill="#BEFECD"/><rect x="1204.5" y=".5" width="39" height="39" rx="19.5" stroke="#5D5169"/><circle cx="1224" cy="20" r="5" fill="#BEFECD"/><circle cx="1214" cy="11" r="1" fill="#746A7E"/><circle cx="1214" cy="29" r="1" fill="#746A7E"/><circle cx="1233" cy="11" r="1" fill="#746A7E"/><circle cx="1233" cy="29" r="1" fill="#746A7E"/><path fill-rule="evenodd" clip-rule="evenodd" d="M1694 16v8h-1v-8h1zm6 0v8h-1v-8h1zm6 8v-8h-1v8h1zm6-8v8h-1v-8h1zm6 8v-8h-1v8h1zm6-8v8h-1v-8h1zm6 8v-8h-1v8h1zm6-8v8h-1v-8h1zm6 8v-8h-1v8h1zm6-8v8h-1v-8h1zm6 8v-8h-1v8h1zm6-8v8h-1v-8h1zm6 8v-8h-1v8h1zm6-8v8h-1v-8h1zm6 8v-8h-1v8h1zm6-8v8h-1v-8h1zm6 8v-8h-1v8h1zm6-8v8h-1v-8h1zm6 8v-8h-1v8h1z" fill="#BEFECD"/><path fill-rule="evenodd" clip-rule="evenodd" d="M1718 16v8h-1v-8h1zm6 0v8h-1v-8h1zm6 8v-8h-1v8h1zm6-8v8h-1v-8h1zm6 8v-8h-1v8h1zm6-8v8h-1v-8h1zm6 8v-8h-1v8h1zm6-8v8h-1v-8h1zm6 8v-8h-1v8h1zm6-8v8h-1v-8h1zm6 8v-8h-1v8h1zm6-8v8h-1v-8h1zm6 8v-8h-1v8h1zm6-8v8h-1v-8h1zm6 8v-8h-1v8h1zm-223-8v8h-1v-8h1zm6 0v8h-1v-8h1zm6 8v-8h-1v8h1zm6-8v8h-1v-8h1zm6 8v-8h-1v8h1zm6-8v8h-1v-8h1zm6 8v-8h-1v8h1zm6-8v8h-1v-8h1zm6 8v-8h-1v8h1zm6-8v8h-1v-8h1zm6 8v-8h-1v8h1zm6-8v8h-1v-8h1zm6 8v-8h-1v8h1zm6-8v8h-1v-8h1zm6 8v-8h-1v8h1zm6-8v8h-1v-8h1zm6 8v-8h-1v8h1zm6-8v8h-1v-8h1zm6 8v-8h-1v8h1zm-162 0v-8h-1v8h1zm24 0v-8h-1v8h1zm6-8v8h-1v-8h1zm6 8v-8h-1v8h1zm6-8v8h-1v-8h1zm6 8v-8h-1v8h1z" fill="#BEFECD"/><rect x="1505.5" y=".5" width="39" height="39" rx="19.5" stroke="#5D5169"/><circle cx="1525" cy="20" r="5" fill="#BEFECD"/><circle cx="1515" cy="11" r="1" fill="#746A7E"/><circle cx="1515" cy="29" r="1" fill="#746A7E"/><circle cx="1534" cy="11" r="1" fill="#746A7E"/><circle cx="1534" cy="29" r="1" fill="#746A7E"/></svg>