<svg width="1240" height="40" fill="none" xmlns="http://www.w3.org/2000/svg"><path fill="#746A7E" d="M46 16v8h-1v-8zm6 0v8h-1v-8zm6 0v8h-1v-8zm6 0v8h-1v-8zm6 0v8h-1v-8zm6 0v8h-1v-8zm6 0v8h-1v-8zm6 0v8h-1v-8zm6 0v8h-1v-8zm6 0v8h-1v-8zm6 0v8h-1v-8zm6 0v8h-1v-8zm6 0v8h-1v-8zm6 0v8h-1v-8zm6 0v8h-1v-8zm6 0v8h-1v-8zm6 0v8h-1v-8zm6 0v8h-1v-8zm6 0v8h-1v-8zm6 0v8h-1v-8zm6 0v8h-1v-8zm6 0v8h-1v-8zm6 0v8h-1v-8zm6 0v8h-1v-8zm6 0v8h-1v-8zm6 0v8h-1v-8zm6 0v8h-1v-8zm6 0v8h-1v-8zm6 0v8h-1v-8zm6 0v8h-1v-8zm6 0v8h-1v-8zm6 0v8h-1v-8zm6 0v8h-1v-8zm6 0v8h-1v-8zm6 0v8h-1v-8zm6 0v8h-1v-8zm6 0v8h-1v-8zm6 0v8h-1v-8zm6 0v8h-1v-8zm6 0v8h-1v-8zm6 0v8h-1v-8zm6 0v8h-1v-8zm6 0v8h-1v-8zm6 0v8h-1v-8zm6 0v8h-1v-8zm6 0v8h-1v-8zm6 0v8h-1v-8zm6 0v8h-1v-8zm6 0v8h-1v-8zm6 0v8h-1v-8zm6 0v8h-1v-8zm6 0v8h-1v-8zm6 0v8h-1v-8zm6 0v8h-1v-8zm6 0v8h-1v-8zm6 0v8h-1v-8zm6 0v8h-1v-8zm6 0v8h-1v-8zm6 0v8h-1v-8zm6 0v8h-1v-8zm6 0v8h-1v-8zm6 0v8h-1v-8zm6 0v8h-1v-8zm6 0v8h-1v-8zm6 0v8h-1v-8zm6 0v8h-1v-8zm6 0v8h-1v-8zm6 0v8h-1v-8zm6 0v8h-1v-8zm6 0v8h-1v-8zm6 0v8h-1v-8zm6 0v8h-1v-8zm6 0v8h-1v-8zm6 0v8h-1v-8zm6 0v8h-1v-8zm6 0v8h-1v-8zm6 0v8h-1v-8zm6 0v8h-1v-8zm6 0v8h-1v-8zm6 0v8h-1v-8zm6 0v8h-1v-8zm6 0v8h-1v-8zm6 0v8h-1v-8zm6 0v8h-1v-8zm6 0v8h-1v-8zm6 0v8h-1v-8zm6 0v8h-1v-8zm6 0v8h-1v-8zm6 0v8h-1v-8zm6 0v8h-1v-8zm6 0v8h-1v-8zm6 0v8h-1v-8zm6 0v8h-1v-8zm6 0v8h-1v-8zm6 0v8h-1v-8zm6 0v8h-1v-8zm6 0v8h-1v-8zm6 0v8h-1v-8zm6 0v8h-1v-8zm6 0v8h-1v-8zm6 0v8h-1v-8zm6 0v8h-1v-8zm6 0v8h-1v-8zm6 0v8h-1v-8zm6 0v8h-1v-8zm6 0v8h-1v-8zm6 0v8h-1v-8zm6 0v8h-1v-8zm6 0v8h-1v-8zm6 0v8h-1v-8zm6 0v8h-1v-8zm6 0v8h-1v-8zm6 0v8h-1v-8zm6 0v8h-1v-8zm6 0v8h-1v-8zm6 0v8h-1v-8zm6 0v8h-1v-8zm6 0v8h-1v-8zm6 0v8h-1v-8zm6 0v8h-1v-8zm6 0v8h-1v-8zm6 0v8h-1v-8zm6 0v8h-1v-8zm6 0v8h-1v-8zm6 0v8h-1v-8zm6 0v8h-1v-8zm6 0v8h-1v-8zm6 0v8h-1v-8zm6 0v8h-1v-8zm6 0v8h-1v-8zm6 0v8h-1v-8zm6 0v8h-1v-8zm6 0v8h-1v-8zm6 0v8h-1v-8zm6 0v8h-1v-8zm6 0v8h-1v-8zm6 0v8h-1v-8zm6 0v8h-1v-8zm6 0v8h-1v-8zm6 0v8h-1v-8zm6 0v8h-1v-8zm6 0v8h-1v-8zm6 0v8h-1v-8zm6 0v8h-1v-8zm6 0v8h-1v-8zm6 0v8h-1v-8zm6 0v8h-1v-8zm6 0v8h-1v-8zm6 0v8h-1v-8zm6 0v8h-1v-8zm6 0v8h-1v-8zm6 0v8h-1v-8zm6 0v8h-1v-8zm6 0v8h-1v-8zm6 0v8h-1v-8zm6 0v8h-1v-8zm6 0v8h-1v-8zm6 0v8h-1v-8zm6 0v8h-1v-8zm6 0v8h-1v-8zm6 0v8h-1v-8zm6 0v8h-1v-8zm6 0v8h-1v-8zm6 0v8h-1v-8zm6 0v8h-1v-8zm6 0v8h-1v-8zm6 0v8h-1v-8zm6 0v8h-1v-8zm6 0v8h-1v-8zm6 0v8h-1v-8zm6 0v8h-1v-8zm6 0v8h-1v-8zm6 0v8h-1v-8zm6 0v8h-1v-8zm6 0v8h-1v-8zm6 0v8h-1v-8zm6 0v8h-1v-8zm6 0v8h-1v-8zm6 0v8h-1v-8zm6 0v8h-1v-8zm6 0v8h-1v-8zm6 0v8h-1v-8zm6 0v8h-1v-8zm6 0v8h-1v-8zm6 0v8h-1v-8zm6 0v8h-1v-8zm6 0v8h-1v-8zm6 0v8h-1v-8zm6 0v8h-1v-8zm6 0v8h-1v-8zm6 0v8h-1v-8zm6 0v8h-1v-8zm6 0v8h-1v-8zm6 0v8h-1v-8zm6 0v8h-1v-8zm6 0v8h-1v-8zm6 0v8h-1v-8zm6 0v8h-1v-8zm6 0v8h-1v-8zm6 0v8h-1v-8z"/><circle cx="436" cy="20" r="20" fill="#170728"/><rect x="416.5" y=".5" width="39" height="39" rx="19.5" stroke="#5D5169"/><circle cx="436" cy="20" r="5" fill="#E8E6EA"/><circle cx="426" cy="11" r="1" fill="#746A7E"/><circle cx="426" cy="29" r="1" fill="#746A7E"/><circle cx="445" cy="11" r="1" fill="#746A7E"/><circle cx="445" cy="29" r="1" fill="#746A7E"/><circle cx="226" cy="20" r="20" fill="#170728"/><rect x="206.5" y=".5" width="39" height="39" rx="19.5" stroke="#5D5169"/><circle cx="226" cy="20" r="5" fill="#E8E6EA"/><circle cx="216" cy="11" r="1" fill="#746A7E"/><circle cx="216" cy="29" r="1" fill="#746A7E"/><circle cx="235" cy="11" r="1" fill="#746A7E"/><circle cx="235" cy="29" r="1" fill="#746A7E"/><circle cx="20" cy="20" r="20" fill="#170728"/><rect x=".5" y=".5" width="39" height="39" rx="19.5" stroke="#5D5169"/><circle cx="20" cy="20" r="5" fill="#E8E6EA"/><circle cx="10" cy="11" r="1" fill="#746A7E"/><circle cx="10" cy="29" r="1" fill="#746A7E"/><circle cx="29" cy="11" r="1" fill="#746A7E"/><circle cx="29" cy="29" r="1" fill="#746A7E"/><circle cx="850" cy="20" r="20" fill="#170728"/><rect x="830.5" y=".5" width="39" height="39" rx="19.5" stroke="#5D5169"/><circle cx="850" cy="20" r="5" fill="#E8E6EA"/><circle cx="840" cy="11" r="1" fill="#746A7E"/><circle cx="840" cy="29" r="1" fill="#746A7E"/><circle cx="859" cy="11" r="1" fill="#746A7E"/><circle cx="859" cy="29" r="1" fill="#746A7E"/><circle cx="640" cy="20" r="20" fill="#170728"/><rect x="620.5" y=".5" width="39" height="39" rx="19.5" stroke="#5D5169"/><circle cx="640" cy="20" r="5" fill="#E8E6EA"/><circle cx="630" cy="11" r="1" fill="#746A7E"/><circle cx="630" cy="29" r="1" fill="#746A7E"/><circle cx="649" cy="11" r="1" fill="#746A7E"/><circle cx="649" cy="29" r="1" fill="#746A7E"/><circle cx="1053" cy="20" r="20" fill="#170728"/><rect x="1033.5" y=".5" width="39" height="39" rx="19.5" stroke="#5D5169"/><circle cx="1053" cy="20" r="5" fill="#E8E6EA"/><circle cx="1043" cy="11" r="1" fill="#746A7E"/><circle cx="1043" cy="29" r="1" fill="#746A7E"/><circle cx="1062" cy="11" r="1" fill="#746A7E"/><circle cx="1062" cy="29" r="1" fill="#746A7E"/></svg>