<svg width="926" height="40" fill="none" xmlns="http://www.w3.org/2000/svg"><path fill-rule="evenodd" clip-rule="evenodd" d="M199 16v8h-1v-8h1zm6 0v8h-1v-8h1zm6 8v-8h-1v8h1zm6-8v8h-1v-8h1zm6 8v-8h-1v8h1zm6-8v8h-1v-8h1zm6 8v-8h-1v8h1zm6-8v8h-1v-8h1zm6 8v-8h-1v8h1zm6-8v8h-1v-8h1zm6 8v-8h-1v8h1zm6-8v8h-1v-8h1zm6 8v-8h-1v8h1zm6-8v8h-1v-8h1zm6 8v-8h-1v8h1zm6-8v8h-1v-8h1zm6 8v-8h-1v8h1zm6-8v8h-1v-8h1zm6 8v-8h-1v8h1zm47-8v8h-1v-8h1zm6 0v8h-1v-8h1zm6 8v-8h-1v8h1zm6-8v8h-1v-8h1zm6 8v-8h-1v8h1zm6-8v8h-1v-8h1zm6 8v-8h-1v8h1zm6-8v8h-1v-8h1zm6 8v-8h-1v8h1zm6-8v8h-1v-8h1zm6 8v-8h-1v8h1zm6-8v8h-1v-8h1zm6 8v-8h-1v8h1zm6-8v8h-1v-8h1zm6 8v-8h-1v8h1zm6-8v8h-1v-8h1zm6 8v-8h-1v8h1zm6-8v8h-1v-8h1zm6 8v-8h-1v8h1zm47-8v8h-1v-8h1zm6 0v8h-1v-8h1zm6 8v-8h-1v8h1zm6-8v8h-1v-8h1zm6 8v-8h-1v8h1zm6-8v8h-1v-8h1zm6 8v-8h-1v8h1zm6-8v8h-1v-8h1zm6 8v-8h-1v8h1zm6-8v8h-1v-8h1zm6 8v-8h-1v8h1zm6-8v8h-1v-8h1zm6 8v-8h-1v8h1zm6-8v8h-1v-8h1zm6 8v-8h-1v8h1zm6-8v8h-1v-8h1zm6 8v-8h-1v8h1zm6-8v8h-1v-8h1zm6 8v-8h-1v8h1zM44 16v8h-1v-8h1zm6 0v8h-1v-8h1zm6 8v-8h-1v8h1zm6-8v8h-1v-8h1zm6 8v-8h-1v8h1zm6-8v8h-1v-8h1zm6 8v-8h-1v8h1zm6-8v8h-1v-8h1zm6 8v-8h-1v8h1zm6-8v8h-1v-8h1zm6 8v-8h-1v8h1zm6-8v8h-1v-8h1zm6 8v-8h-1v8h1zm6-8v8h-1v-8h1zm6 8v-8h-1v8h1zm6-8v8h-1v-8h1zm6 8v-8h-1v8h1zm6-8v8h-1v-8h1zm6 8v-8h-1v8h1z" fill="#BEFECD"/><rect x="155.5" y=".5" width="39" height="39" rx="19.5" stroke="#5D5169"/><circle cx="175" cy="20" r="5" fill="#E8E6EA"/><circle cx="165" cy="11" r="1" fill="#746A7E"/><circle cx="165" cy="29" r="1" fill="#746A7E"/><circle cx="184" cy="11" r="1" fill="#746A7E"/><circle cx="184" cy="29" r="1" fill="#746A7E"/><rect x="310.5" y=".5" width="39" height="39" rx="19.5" stroke="#5D5169"/><circle cx="330" cy="20" r="5" fill="#BEFECD"/><circle cx="320" cy="11" r="1" fill="#746A7E"/><circle cx="320" cy="29" r="1" fill="#746A7E"/><circle cx="339" cy="11" r="1" fill="#746A7E"/><circle cx="339" cy="29" r="1" fill="#746A7E"/><rect x="465.5" y=".5" width="39" height="39" rx="19.5" stroke="#5D5169"/><circle cx="485" cy="20" r="5" fill="#BEFECD"/><circle cx="475" cy="11" r="1" fill="#746A7E"/><circle cx="475" cy="29" r="1" fill="#746A7E"/><circle cx="494" cy="11" r="1" fill="#746A7E"/><circle cx="494" cy="29" r="1" fill="#746A7E"/><path fill-rule="evenodd" clip-rule="evenodd" d="M665 16v8h-1v-8h1zm6 0v8h-1v-8h1zm6 8v-8h-1v8h1zm6-8v8h-1v-8h1zm6 8v-8h-1v8h1zm6-8v8h-1v-8h1zm6 8v-8h-1v8h1zm6-8v8h-1v-8h1zm6 8v-8h-1v8h1zm6-8v8h-1v-8h1zm6 8v-8h-1v8h1zm6-8v8h-1v-8h1zm6 8v-8h-1v8h1zm6-8v8h-1v-8h1zm6 8v-8h-1v8h1zm6-8v8h-1v-8h1zm6 8v-8h-1v8h1zm6-8v8h-1v-8h1zm6 8v-8h-1v8h1z" fill="#BEFECD"/><path fill="#BEFECD" d="M773 16v8h-1v-8zm24 0v8h-1v-8z"/><path fill-rule="evenodd" clip-rule="evenodd" d="M794 24v-8h-1v8h1zm24 0v-8h-1v8h1zm6-8v8h-1v-8h1zm6 8v-8h-1v8h1zm6-8v8h-1v-8h1zm6 8v-8h-1v8h1zm6-8v8h-1v-8h1zm6 8v-8h-1v8h1zm6-8v8h-1v-8h1zm6 8v-8h-1v8h1zm6-8v8h-1v-8h1zm6 8v-8h-1v8h1zm6-8v8h-1v-8h1zm6 8v-8h-1v8h1zm6-8v8h-1v-8h1zm6 8v-8h-1v8h1z" fill="#BEFECD"/><path fill="#BEFECD" d="M902 16v8h-1v-8zm6 0v8h-1v-8zm6 0v8h-1v-8zm6 0v8h-1v-8z"/><path fill="#BEFECD" d="M908 16v8h-1v-8zm6 0v8h-1v-8zm6 0v8h-1v-8zm6 0v8h-1v-8z"/><rect x="155.5" y=".5" width="39" height="39" rx="19.5" stroke="#5D5169"/><circle cx="175" cy="20" r="5" fill="#BEFECD"/><circle cx="165" cy="11" r="1" fill="#746A7E"/><circle cx="165" cy="29" r="1" fill="#746A7E"/><circle cx="184" cy="11" r="1" fill="#746A7E"/><circle cx="184" cy="29" r="1" fill="#746A7E"/><rect x="620.5" y=".5" width="39" height="39" rx="19.5" stroke="#5D5169"/><rect x="620.5" y=".5" width="39" height="39" rx="19.5" stroke="#5D5169"/><circle cx="640" cy="20" r="5" fill="#BEFECD"/><circle cx="630" cy="11" r="1" fill="#746A7E"/><circle cx="630" cy="29" r="1" fill="#746A7E"/><circle cx="649" cy="11" r="1" fill="#746A7E"/><circle cx="649" cy="29" r="1" fill="#746A7E"/><rect x="775.5" y=".5" width="39" height="39" rx="19.5" stroke="#5D5169"/><rect x="775.5" y=".5" width="39" height="39" rx="19.5" stroke="#5D5169"/><circle cx="795" cy="20" r="5" fill="#BEFECD"/><circle cx="785" cy="11" r="1" fill="#746A7E"/><circle cx="785" cy="29" r="1" fill="#746A7E"/><circle cx="804" cy="11" r="1" fill="#746A7E"/><circle cx="804" cy="29" r="1" fill="#746A7E"/><rect x=".5" y=".5" width="39" height="39" rx="19.5" stroke="#5D5169"/><circle cx="20" cy="20" r="5" fill="#BEFECD"/><circle cx="10" cy="11" r="1" fill="#746A7E"/><circle cx="10" cy="29" r="1" fill="#746A7E"/><circle cx="29" cy="11" r="1" fill="#746A7E"/><circle cx="29" cy="29" r="1" fill="#746A7E"/></svg>