<svg width="1799" height="41" fill="none" xmlns="http://www.w3.org/2000/svg"><path fill-rule="evenodd" clip-rule="evenodd" d="M487 16.003v8h-1v-8h1zm6 0v8h-1v-8h1zm6 8v-8h-1v8h1zm6-8v8h-1v-8h1zm6 8v-8h-1v8h1zm6-8v8h-1v-8h1zm6 8v-8h-1v8h1zm6-8v8h-1v-8h1zm6 8v-8h-1v8h1zm6-8v8h-1v-8h1zm6 8v-8h-1v8h1zm6-8v8h-1v-8h1zm6 8v-8h-1v8h1zm6-8v8h-1v-8h1zm6 8v-8h-1v8h1zm6-8v8h-1v-8h1zm6 8v-8h-1v8h1zm6-8v8h-1v-8h1zm6 8v-8h-1v8h1zm-223-8v8h-1v-8h1zm6 0v8h-1v-8h1zm6 8v-8h-1v8h1zm6-8v8h-1v-8h1zm6 8v-8h-1v8h1zm6-8v8h-1v-8h1zm6 8v-8h-1v8h1zm6-8v8h-1v-8h1zm6 8v-8h-1v8h1zm6-8v8h-1v-8h1zm6 8v-8h-1v8h1zm6-8v8h-1v-8h1zm6 8v-8h-1v8h1zm6-8v8h-1v-8h1zm6 8v-8h-1v8h1zm6-8v8h-1v-8h1zm6 8v-8h-1v8h1zm6-8v8h-1v-8h1zm6 8v-8h-1v8h1zm-138-8v8h-1v-8h1zm6 0v8h-1v-8h1zm6 8v-8h-1v8h1zm6-8v8h-1v-8h1zm6 8v-8h-1v8h1z" fill="#746A7E"/><path fill="#746A7E" d="M319 16.003v8h-1v-8z"/><path fill-rule="evenodd" clip-rule="evenodd" d="M788 16.003v8h-1v-8h1zm6 0v8h-1v-8h1zm6 8v-8h-1v8h1zm6-8v8h-1v-8h1zm6 8v-8h-1v8h1zm6-8v8h-1v-8h1zm6 8v-8h-1v8h1zm6-8v8h-1v-8h1zm6 8v-8h-1v8h1zm6-8v8h-1v-8h1zm6 8v-8h-1v8h1zm6-8v8h-1v-8h1zm6 8v-8h-1v8h1zm6-8v8h-1v-8h1zm6 8v-8h-1v8h1zm6-8v8h-1v-8h1zm6 8v-8h-1v8h1zm6-8v8h-1v-8h1zm6 8v-8h-1v8h1zm-223-8v8h-1v-8h1zm6 0v8h-1v-8h1zm6 8v-8h-1v8h1zm6-8v8h-1v-8h1zm6 8v-8h-1v8h1zm6-8v8h-1v-8h1zm6 8v-8h-1v8h1zm6-8v8h-1v-8h1zm6 8v-8h-1v8h1zm6-8v8h-1v-8h1zm6 8v-8h-1v8h1zm6-8v8h-1v-8h1zm6 8v-8h-1v8h1zm6-8v8h-1v-8h1zm6 8v-8h-1v8h1zm6-8v8h-1v-8h1zm6 8v-8h-1v8h1zm6-8v8h-1v-8h1zm6 8v-8h-1v8h1zm-162 0v-8h-1v8h1zm24 0v-8h-1v8h1zm6-8v8h-1v-8h1zm6 8v-8h-1v8h1zm6-8v8h-1v-8h1zm6 8v-8h-1v8h1z" fill="#746A7E"/><rect x="599.5" y=".503" width="39" height="39" rx="19.5" stroke="#5D5169"/><circle cx="619" cy="20.003" r="5" fill="#E8E6EA"/><circle cx="609" cy="11.003" r="1" fill="#746A7E"/><circle cx="609" cy="29.003" r="1" fill="#746A7E"/><circle cx="628" cy="11.003" r="1" fill="#746A7E"/><circle cx="628" cy="29.003" r="1" fill="#746A7E"/><path fill-rule="evenodd" clip-rule="evenodd" d="M149 24v-8h1v8h-1zm-6 0v-8h1v8h-1zm-6-8v8h1v-8h-1zm-6 8v-8h1v8h-1zm-6-8v8h1v-8h-1zm-6 8v-8h1v8h-1zm-6-8v8h1v-8h-1zm-6 8v-8h1v8h-1zm-6-8v8h1v-8h-1zm-6 8v-8h1v8h-1zm-6-8v8h1v-8h-1zm-6 8v-8h1v8h-1zm-6-8v8h1v-8h-1zm-6 8v-8h1v8h-1zm-6-8v8h1v-8h-1zm-6 8v-8h1v8h-1zm-6-8v8h1v-8h-1zm-6 8v-8h1v8h-1zm-6-8v8h1v-8h-1z" fill="#746A7E"/><path fill="#746A7E" d="M36 24v-8h1v8zm-6 0v-8h1v8zm-6 0v-8h1v8zm-6 0v-8h1v8zm-6 0v-8h1v8zm-6 0v-8h1v8H6zm-6 0v-8h1v8H0z"/><path fill-rule="evenodd" clip-rule="evenodd" d="M264 24v-8h1v8h-1zm-6 0v-8h1v8h-1zm-6-8v8h1v-8h-1zm-6 8v-8h1v8h-1zm-6-8v8h1v-8h-1zm-6 8v-8h1v8h-1zm-6-8v8h1v-8h-1zm-6 8v-8h1v8h-1zm-6-8v8h1v-8h-1zm-6 8v-8h1v8h-1zm-6-8v8h1v-8h-1zm-6 8v-8h1v8h-1zm-6-8v8h1v-8h-1zm-6 8v-8h1v8h-1zm-6-8v8h1v-8h-1zm-6 8v-8h1v8h-1zm-6-8v8h1v-8h-1zm-6 8v-8h1v8h-1zm-6-8v8h1v-8h-1zm162 0v8h1v-8h-1zm-24 0v8h1v-8h-1zm-6 8v-8h1v8h-1zm-6-8v8h1v-8h-1zm-6 8v-8h1v8h-1zm-6-8v8h1v-8h-1z" fill="#746A7E"/><rect x="337.5" y="39.5" width="39" height="39" rx="19.5" transform="rotate(-180 337.5 39.5)" stroke="#5D5169"/><circle cx="318" cy="20" r="5" transform="rotate(-180 318 20)" fill="#E8E6EA"/><circle cx="328" cy="29" r="1" transform="rotate(-180 328 29)" fill="#746A7E"/><circle cx="328" cy="11" r="1" transform="rotate(-180 328 11)" fill="#746A7E"/><circle cx="309" cy="29" r="1" transform="rotate(-180 309 29)" fill="#746A7E"/><circle cx="309" cy="11" r="1" transform="rotate(-180 309 11)" fill="#746A7E"/><path fill-rule="evenodd" clip-rule="evenodd" d="M1089 16.003v8h-1v-8h1zm6 0v8h-1v-8h1zm6 8v-8h-1v8h1zm6-8v8h-1v-8h1zm6 8v-8h-1v8h1zm6-8v8h-1v-8h1zm6 8v-8h-1v8h1zm6-8v8h-1v-8h1zm6 8v-8h-1v8h1zm6-8v8h-1v-8h1zm6 8v-8h-1v8h1zm6-8v8h-1v-8h1zm6 8v-8h-1v8h1zm6-8v8h-1v-8h1zm6 8v-8h-1v8h1zm6-8v8h-1v-8h1zm6 8v-8h-1v8h1zm6-8v8h-1v-8h1zm6 8v-8h-1v8h1zm-223-8v8h-1v-8h1zm6 0v8h-1v-8h1zm6 8v-8h-1v8h1zm6-8v8h-1v-8h1zm6 8v-8h-1v8h1zm6-8v8h-1v-8h1zm6 8v-8h-1v8h1zm6-8v8h-1v-8h1zm6 8v-8h-1v8h1zm6-8v8h-1v-8h1zm6 8v-8h-1v8h1zm6-8v8h-1v-8h1zm6 8v-8h-1v8h1zm6-8v8h-1v-8h1zm6 8v-8h-1v8h1zm6-8v8h-1v-8h1zm6 8v-8h-1v8h1zm6-8v8h-1v-8h1zm6 8v-8h-1v8h1zm-162 0v-8h-1v8h1zm24 0v-8h-1v8h1zm6-8v8h-1v-8h1zm6 8v-8h-1v8h1zm6-8v8h-1v-8h1zm6 8v-8h-1v8h1z" fill="#746A7E"/><rect x="900.5" y=".503" width="39" height="39" rx="19.5" stroke="#5D5169"/><circle cx="920" cy="20.003" r="5" fill="#E8E6EA"/><circle cx="910" cy="11.003" r="1" fill="#746A7E"/><circle cx="910" cy="29.003" r="1" fill="#746A7E"/><circle cx="929" cy="11.003" r="1" fill="#746A7E"/><circle cx="929" cy="29.003" r="1" fill="#746A7E"/><path fill-rule="evenodd" clip-rule="evenodd" d="M1390 16.003v8h-1v-8h1zm6 0v8h-1v-8h1zm6 8v-8h-1v8h1zm6-8v8h-1v-8h1zm6 8v-8h-1v8h1zm6-8v8h-1v-8h1zm6 8v-8h-1v8h1zm6-8v8h-1v-8h1zm6 8v-8h-1v8h1zm6-8v8h-1v-8h1zm6 8v-8h-1v8h1zm6-8v8h-1v-8h1zm6 8v-8h-1v8h1zm6-8v8h-1v-8h1zm6 8v-8h-1v8h1zm6-8v8h-1v-8h1zm6 8v-8h-1v8h1zm6-8v8h-1v-8h1zm6 8v-8h-1v8h1zm-223-8v8h-1v-8h1zm6 0v8h-1v-8h1zm6 8v-8h-1v8h1zm6-8v8h-1v-8h1zm6 8v-8h-1v8h1zm6-8v8h-1v-8h1zm6 8v-8h-1v8h1zm6-8v8h-1v-8h1zm6 8v-8h-1v8h1zm6-8v8h-1v-8h1zm6 8v-8h-1v8h1zm6-8v8h-1v-8h1zm6 8v-8h-1v8h1zm6-8v8h-1v-8h1zm6 8v-8h-1v8h1zm6-8v8h-1v-8h1zm6 8v-8h-1v8h1zm6-8v8h-1v-8h1zm6 8v-8h-1v8h1zm-162 0v-8h-1v8h1zm24 0v-8h-1v8h1zm6-8v8h-1v-8h1zm6 8v-8h-1v8h1zm6-8v8h-1v-8h1zm6 8v-8h-1v8h1z" fill="#746A7E"/><rect x="1201.5" y=".503" width="39" height="39" rx="19.5" stroke="#5D5169"/><circle cx="1221" cy="20.003" r="5" fill="#E8E6EA"/><circle cx="1211" cy="11.003" r="1" fill="#746A7E"/><circle cx="1211" cy="29.003" r="1" fill="#746A7E"/><circle cx="1230" cy="11.003" r="1" fill="#746A7E"/><circle cx="1230" cy="29.003" r="1" fill="#746A7E"/><path fill-rule="evenodd" clip-rule="evenodd" d="M1691 16.003v8h-1v-8h1zm6 0v8h-1v-8h1zm6 8v-8h-1v8h1zm6-8v8h-1v-8h1zm6 8v-8h-1v8h1zm6-8v8h-1v-8h1zm6 8v-8h-1v8h1zm6-8v8h-1v-8h1zm6 8v-8h-1v8h1zm6-8v8h-1v-8h1zm6 8v-8h-1v8h1zm6-8v8h-1v-8h1zm6 8v-8h-1v8h1zm6-8v8h-1v-8h1zm6 8v-8h-1v8h1zm6-8v8h-1v-8h1zm6 8v-8h-1v8h1zm6-8v8h-1v-8h1zm6 8v-8h-1v8h1zm-223-8v8h-1v-8h1zm6 0v8h-1v-8h1zm6 8v-8h-1v8h1zm6-8v8h-1v-8h1zm6 8v-8h-1v8h1zm6-8v8h-1v-8h1zm6 8v-8h-1v8h1zm6-8v8h-1v-8h1zm6 8v-8h-1v8h1zm6-8v8h-1v-8h1zm6 8v-8h-1v8h1zm6-8v8h-1v-8h1zm6 8v-8h-1v8h1zm6-8v8h-1v-8h1zm6 8v-8h-1v8h1zm6-8v8h-1v-8h1zm6 8v-8h-1v8h1zm6-8v8h-1v-8h1zm6 8v-8h-1v8h1zm-162 0v-8h-1v8h1zm24 0v-8h-1v8h1zm6-8v8h-1v-8h1zm6 8v-8h-1v8h1zm6-8v8h-1v-8h1zm6 8v-8h-1v8h1z" fill="#746A7E"/><rect x="1502.5" y=".503" width="39" height="39" rx="19.5" stroke="#5D5169"/><circle cx="1522" cy="20.003" r="5" fill="#E8E6EA"/><circle cx="1512" cy="11.003" r="1" fill="#746A7E"/><circle cx="1512" cy="29.003" r="1" fill="#746A7E"/><circle cx="1531" cy="11.003" r="1" fill="#746A7E"/><circle cx="1531" cy="29.003" r="1" fill="#746A7E"/></svg>