<svg width="370" height="251" fill="none" xmlns="http://www.w3.org/2000/svg"><path d="M119.76 179.209c0 2.97-.658 5.94-1.989 8.823-2.583 5.642-7.711 10.987-15.376 15.438-11.587 6.723-26.8 10.03-42.019 10.03-15.22 0-30.424-3.307-42.01-10.03-7.666-4.443-12.794-9.788-15.377-15.438C1.666 185.149 1 182.179 1 179.209c0-8.824 5.77-17.584 17.365-24.308 23.23-13.392 60.848-13.392 84.03 0 11.603 6.716 17.365 15.484 17.365 24.308z" fill="#211737"/><path d="M119.76 141.18c0 2.97-.658 5.94-1.989 8.824-2.583 5.642-7.711 10.986-15.376 15.437-11.587 6.723-26.8 10.03-42.019 10.03-15.22 0-30.424-3.307-42.01-10.03-7.666-4.443-12.794-9.787-15.377-15.437C1.666 147.12 1 144.15 1 141.18c0-8.823 5.77-17.584 17.365-24.308 23.23-13.392 60.848-13.392 84.03 0 11.603 6.716 17.365 15.485 17.365 24.308z" fill="#fff" stroke="#170728" stroke-miterlimit="10" stroke-linecap="round" stroke-linejoin="round"/><path d="M119.76 141.18v17.679c0 8.768-5.77 17.537-17.365 24.26-11.587 6.724-26.8 10.031-42.019 10.031-15.22 0-30.424-3.307-42.01-10.031C6.77 176.396 1 167.635 1 158.859V141.18c0 2.97.658 5.94 1.989 8.824 2.583 5.642 7.711 10.986 15.376 15.437 11.587 6.723 26.8 10.03 42.011 10.03 15.212 0 30.424-3.307 42.019-10.03 7.665-4.443 12.793-9.787 15.376-15.437 1.331-2.892 1.989-5.862 1.989-8.824z" fill="#D8FEE1" stroke="#170728" stroke-miterlimit="10" stroke-linecap="round" stroke-linejoin="round"/><path d="M95.772 178.081c-7.86 3.377-16.849 5.469-26.118 6.3m41.243-15.813c-2.356 2.202-5.19 4.286-8.502 6.198" stroke="#170728" stroke-miterlimit="10" stroke-linecap="round" stroke-linejoin="round"/><path d="M12.51 171.225c.58-.247.695-1.284.257-2.315-.439-1.032-1.265-1.667-1.846-1.42-.581.247-.696 1.284-.258 2.316.439 1.031 1.265 1.667 1.846 1.419zm4.954 4.029c.581-.247.697-1.284.258-2.316-.439-1.031-1.265-1.667-1.846-1.419-.58.247-.696 1.284-.258 2.315.439 1.032 1.265 1.667 1.846 1.42zm5.678 2.937c.581-.247.697-1.284.258-2.315-.438-1.032-1.265-1.667-1.846-1.42-.58.248-.696 1.284-.258 2.316.439 1.031 1.265 1.667 1.846 1.419z" fill="#170728"/><path d="M119.76 112.523c0 2.97-.658 5.94-1.989 8.824-2.583 5.642-7.711 10.986-15.376 15.437-11.587 6.724-26.8 10.03-42.019 10.03-15.22 0-30.424-3.306-42.01-10.03-7.666-4.443-12.794-9.787-15.377-15.437C1.666 118.463 1 115.493 1 112.523c0-8.823 5.77-17.584 17.365-24.307 23.23-13.392 60.848-13.392 84.03 0 11.603 6.723 17.365 15.484 17.365 24.307z" fill="#fff" stroke="#170728" stroke-miterlimit="10" stroke-linecap="round" stroke-linejoin="round"/><path d="M119.76 112.523v17.679c0 8.768-5.77 17.537-17.365 24.26-11.587 6.724-26.8 10.031-42.019 10.031-15.22 0-30.424-3.307-42.01-10.031C6.77 147.739 1 138.978 1 130.202v-17.679c0 2.97.658 5.94 1.989 8.824 2.583 5.642 7.711 10.986 15.376 15.437 11.587 6.723 26.8 10.03 42.011 10.03 15.212 0 30.424-3.307 42.019-10.03 7.665-4.443 12.793-9.787 15.376-15.437 1.331-2.884 1.989-5.854 1.989-8.824z" fill="#D8FEE1" stroke="#170728" stroke-miterlimit="10" stroke-linecap="round" stroke-linejoin="round"/><path d="M95.772 149.432c-7.86 3.377-16.849 5.469-26.118 6.3m41.243-15.813c-2.356 2.202-5.19 4.286-8.502 6.198" stroke="#170728" stroke-miterlimit="10" stroke-linecap="round" stroke-linejoin="round"/><path d="M12.509 142.575c.58-.248.696-1.285.257-2.316-.438-1.031-1.265-1.667-1.845-1.42-.581.248-.697 1.285-.258 2.316.438 1.031 1.265 1.667 1.846 1.42zm4.955 4.029c.58-.248.696-1.285.258-2.316-.439-1.031-1.265-1.667-1.846-1.42-.581.248-.696 1.285-.258 2.316.439 1.031 1.265 1.667 1.846 1.42zm5.678 2.937c.58-.247.696-1.284.258-2.315-.439-1.032-1.265-1.667-1.846-1.42-.581.248-.696 1.284-.258 2.316.439 1.031 1.265 1.667 1.846 1.419z" fill="#170728"/><path d="M119.76 83.318c0 2.97-.658 5.94-1.989 8.823-2.583 5.642-7.711 10.987-15.376 15.438-11.587 6.723-26.8 10.03-42.019 10.03-15.22 0-30.424-3.307-42.01-10.03-7.666-4.444-12.794-9.788-15.377-15.438C1.666 89.258 1 86.288 1 83.318c0-8.824 5.77-17.584 17.365-24.308 23.23-13.392 60.848-13.392 84.03 0 11.603 6.724 17.365 15.492 17.365 24.308z" fill="#fff" stroke="#170728" stroke-miterlimit="10" stroke-linecap="round" stroke-linejoin="round"/><path d="M91.732 83.302c0 4.224-3.046 8.455-9.168 11.692-6.122 3.236-14.147 4.835-22.18 4.835s-16.058-1.599-22.18-4.835c-6.122-3.237-9.168-7.468-9.168-11.692 0-4.255 3.046-8.479 9.168-11.723 12.268-6.457 32.123-6.457 44.36 0 6.122 3.245 9.168 7.476 9.168 11.723z" fill="#170728"/><path d="M101.894 48.016c0 22.952-18.579 41.547-41.51 41.547-22.931 0-41.51-18.595-41.51-41.547 0-22.952 18.579-41.547 41.51-41.547 11.524 0 21.945 4.694 29.469 12.279 0 0 .266 2.939-2.89 3.926-.821.266-1.886.392-3.256.298-5.37-.369-16.653-4.921-33-1.427-.36.079-.72.165-1.08.26C33.749 25.84 20.51 43.69 27.932 61.07c7.595 17.773 25.46 24.637 41.51 16.174 2.858-1.513 5.371-3.573 7.602-5.971 10.296-11.087 14.523-29.448 18.148-34.29.102-.133.212-.267.321-.4 1.245-1.434 3.038-2.39 4.244-1.747a41.457 41.457 0 012.137 13.18z" fill="#fff" stroke="#170728" stroke-miterlimit="10" stroke-linecap="round" stroke-linejoin="round"/><path d="M77.052 71.266c-2.231 2.406-4.744 4.467-7.602 5.971C53.4 85.7 35.534 78.836 27.94 61.063c-7.422-17.38 5.817-35.231 21.695-39.267C43.19 27.07 39.08 35.08 39.08 44.06c0 15.876 12.847 28.735 28.717 28.735 3.233 0 6.35-.533 9.254-1.528z" fill="#D8FEE1" stroke="#170728" stroke-miterlimit="10" stroke-linecap="round" stroke-linejoin="round"/><path d="M95.513 36.575a7.002 7.002 0 00-.32.4c-3.626 4.843-7.846 23.203-18.149 34.29a28.51 28.51 0 01-9.254 1.529c-15.87 0-28.717-12.86-28.717-28.735 0-8.988 4.11-16.997 10.554-22.263.36-.094.72-.18 1.08-.258 16.34-3.495 27.63 1.058 33 1.426 1.37.094 2.427-.031 3.257-.298.438.392.861.792 1.268 1.207 0 0-1.707 3.847-11.391 2.688-9.67-1.168-23.629-.62-28.647 12.498-5.019 13.11 5.692 24.394 17.028 24.394 11.321 0 17.569-8.142 19.832-13.658 2.27-5.517 3.671-14.176 9.81-15.28.258.673.47 1.363.65 2.06z" fill="#ABE5B9" stroke="#170728" stroke-miterlimit="10" stroke-linecap="round" stroke-linejoin="round"/><path d="M94.871 34.514c-6.138 1.113-7.547 9.764-9.81 15.28-2.27 5.518-8.51 13.66-19.83 13.66-11.33 0-22.048-11.285-17.03-24.395 5.02-13.117 18.979-13.666 28.648-12.498 9.676 1.16 11.391-2.688 11.391-2.688a28.596 28.596 0 016.631 10.641z" fill="#F2FFF5" stroke="#170728" stroke-miterlimit="10" stroke-linecap="round" stroke-linejoin="round"/><path d="M111.876 83.294c0 .808-.532 1.615-1.605 2.242-1.073.619-2.474.924-3.875.924-1.402 0-2.803-.305-3.876-.924-1.072-.62-1.605-1.427-1.605-2.242 0-.814.533-1.622 1.605-2.24 2.145-1.239 5.614-1.239 7.751 0 1.073.618 1.605 1.426 1.605 2.24zm-46.012 25.985c0 .807-.532 1.614-1.605 2.241-1.072.619-2.474.925-3.875.925-1.401 0-2.803-.306-3.875-.925-1.073-.619-1.605-1.426-1.605-2.241 0-.815.532-1.622 1.605-2.241 2.145-1.238 5.613-1.238 7.75 0 1.073.619 1.605 1.426 1.605 2.241zM19.845 83.294c0 .808-.533 1.615-1.605 2.242-1.073.619-2.474.924-3.876.924-1.401 0-2.802-.305-3.875-.924-1.073-.62-1.605-1.427-1.605-2.242 0-.814.532-1.622 1.605-2.24 2.145-1.239 5.613-1.239 7.75 0 1.073.618 1.606 1.426 1.606 2.24z" fill="#BEFECD" stroke="#170728" stroke-miterlimit="10" stroke-linecap="round" stroke-linejoin="round"/><path d="M119.76 83.318v17.678c0 8.769-5.77 17.538-17.365 24.261-11.587 6.723-26.8 10.03-42.019 10.03-15.22 0-30.424-3.307-42.01-10.03C6.77 118.534 1 109.773 1 100.996V83.318c0 2.97.658 5.94 1.989 8.823 2.583 5.642 7.711 10.987 15.376 15.438 11.587 6.723 26.8 10.03 42.011 10.03 15.212 0 30.424-3.307 42.019-10.03 7.665-4.443 12.793-9.788 15.376-15.438 1.331-2.883 1.989-5.853 1.989-8.823z" fill="#D8FEE1" stroke="#170728" stroke-miterlimit="10" stroke-linecap="round" stroke-linejoin="round"/><path d="M95.772 120.226c-7.86 3.377-16.849 5.47-26.118 6.3m41.243-15.813c-2.356 2.202-5.19 4.286-8.502 6.199" stroke="#170728" stroke-miterlimit="10" stroke-linecap="round" stroke-linejoin="round"/><path d="M12.506 113.368c.581-.247.697-1.284.258-2.315-.438-1.032-1.265-1.667-1.846-1.42-.58.247-.696 1.284-.257 2.316.438 1.031 1.264 1.667 1.845 1.419zm4.956 4.029c.58-.247.696-1.284.257-2.316-.438-1.031-1.265-1.667-1.846-1.419-.58.247-.696 1.284-.257 2.315.438 1.032 1.265 1.667 1.846 1.42zm5.678 2.938c.58-.248.696-1.284.257-2.316-.438-1.031-1.265-1.667-1.846-1.419-.58.247-.696 1.284-.257 2.315.438 1.032 1.265 1.667 1.846 1.42z" fill="#170728"/><path d="M317.302 225.058c0 .978-.485 1.956-1.456 2.52l-5.707 3.294-33.307 19.218a6.771 6.771 0 01-6.78 0l-104.844-60.488-5.707-3.294a2.869 2.869 0 01-1.456-2.52c0-.978.485-1.956 1.456-2.519l39.022-22.513a6.77 6.77 0 016.78 0l110.535 63.782a2.88 2.88 0 011.464 2.52z" fill="#211737"/><path d="M317.302 104.622c0 .978-.485 1.956-1.456 2.52l-5.707 3.294-33.307 19.218a6.771 6.771 0 01-6.78 0L165.208 69.166l-5.707-3.294a2.87 2.87 0 01-1.456-2.52c0-.978.485-1.956 1.456-2.52l39.022-22.512a6.771 6.771 0 016.78 0l110.535 63.782a2.88 2.88 0 011.464 2.52z" fill="#ABE5B9" stroke="#170728" stroke-miterlimit="10" stroke-linecap="round" stroke-linejoin="round"/><path d="M170.814 63.344l31.106-17.943 102.628 59.221-31.098 17.943-102.636-59.22z" fill="#72987B" stroke="#170728" stroke-miterlimit="10" stroke-linecap="round" stroke-linejoin="round"/><path d="M317.302 104.622v101.656c0 .978-.485 1.956-1.456 2.519L276.84 231.31a6.771 6.771 0 01-6.78 0l-110.544-63.782a2.872 2.872 0 01-1.456-2.52V63.344a2.88 2.88 0 001.456 2.52l5.708 3.294 104.844 60.488a6.771 6.771 0 006.78 0l33.306-19.218 5.708-3.294a2.884 2.884 0 001.44-2.512z" fill="#fff" stroke="#170728" stroke-miterlimit="10" stroke-linecap="round" stroke-linejoin="round"/><path d="M317.302 68.212c0 .978-.485 1.956-1.456 2.52l-5.707 3.294-33.307 19.218a6.771 6.771 0 01-6.78 0L165.208 32.756l-5.707-3.294a2.87 2.87 0 01-1.456-2.52c0-.978.485-1.956 1.456-2.52L198.523 1.91a6.771 6.771 0 016.78 0l110.535 63.782a2.879 2.879 0 011.464 2.52z" fill="#fff" stroke="#170728" stroke-miterlimit="10" stroke-linecap="round" stroke-linejoin="round"/><path d="M317.302 68.212v14.523c0 .978-.485 1.956-1.456 2.52l-39.006 22.512a6.771 6.771 0 01-6.78 0L159.516 43.985a2.871 2.871 0 01-1.456-2.52V26.942a2.88 2.88 0 001.456 2.52l5.708 3.294 104.844 60.488a6.771 6.771 0 006.78 0l33.306-19.218 5.708-3.295a2.905 2.905 0 001.44-2.52z" fill="#D8FEE1" stroke="#170728" stroke-miterlimit="10" stroke-linecap="round" stroke-linejoin="round"/><path d="M334.253 128.285c1.253-.603 2.905-.454 4.729.587.016.008.023.008.039.023 3.899 2.246 7.047 7.7 7.047 12.192v.039c-.016 2.136-.744 3.67-1.926 4.437l11.172-6.448c.376-.814.58-1.823.587-2.989v-.047c0-4.867-3.413-10.775-7.633-13.209-.016-.016-.024-.016-.047-.023-1.003-.572-1.958-.893-2.842-.986l-11.126 6.424z" fill="#BEFECD" stroke="#170728" stroke-miterlimit="10" stroke-linecap="round" stroke-linejoin="round"/><path d="M345.379 121.861c.884.093 1.839.414 2.842.985.023.008.031.008.047.024 4.22 2.434 7.633 8.342 7.633 13.209v.047c-.007 1.166-.211 2.175-.587 2.989l11.525-6.651.219-.126c1.19-.767 1.926-2.3 1.942-4.444v-.039c0-4.492-3.148-9.946-7.047-12.192-.015-.016-.023-.016-.039-.023-1.863-1.072-3.554-1.198-4.807-.548l-.258.149-11.47 6.62z" fill="#ABE5B9" stroke="#170728" stroke-miterlimit="10" stroke-linecap="round" stroke-linejoin="round"/><path d="M331.975 132.957c0 4.491 3.163 9.945 7.046 12.191 1.903 1.096 3.617 1.236 4.886.548l.235-.133c1.182-.767 1.91-2.301 1.926-4.437v-.039c0-4.492-3.148-9.946-7.047-12.192-.016-.015-.023-.015-.039-.023-1.824-1.041-3.476-1.19-4.729-.587-.031.008-.055.023-.086.039l-.251.157c-1.205.759-1.941 2.308-1.941 4.476z" fill="#D8FEE1" stroke="#170728" stroke-miterlimit="10" stroke-linecap="round" stroke-linejoin="round"/><path d="M344.142 145.563l-.235.133" stroke="#4C917E" stroke-miterlimit="10" stroke-linecap="round" stroke-linejoin="round"/><path d="M307.069 148.568c.775-.399 1.817-.321 2.968.336.007.008.015.008.023.016 2.404 1.385 4.345 4.75 4.345 7.52v.023c-.007 1.323-.462 2.269-1.197 2.739l28.232-16.284c.744-.47 1.198-1.416 1.206-2.747v-.023c0-2.77-1.949-6.143-4.345-7.52-.008-.008-.016-.016-.024-.016-1.151-.657-2.2-.735-2.967-.336l-.172.101-28.069 16.191z" fill="#fff" stroke="#170728" stroke-miterlimit="10" stroke-linecap="round" stroke-linejoin="round"/><path d="M294.675 170.83v.078c.016 4.28 1.488 7.332 3.876 8.835l.415.242c2.513 1.338 5.927 1.08 9.685-1.088 7.72-4.452 13.983-15.29 13.983-24.203 0-4.303-1.456-7.371-3.836-8.889l-.509-.297c-2.49-1.299-5.857-1.041-9.568 1.08a.307.307 0 00-.07.039c-7.712 4.444-13.976 15.29-13.976 24.203z" fill="#fff" stroke="#170728" stroke-miterlimit="10" stroke-linecap="round" stroke-linejoin="round"/><path d="M305.535 164.562v.016c.007.954.336 1.635.869 1.972l.094.054c.563.298 1.323.243 2.161-.242 1.722-.994 3.124-3.42 3.124-5.407 0-.963-.329-1.644-.854-1.988l-.109-.063c-.556-.289-1.308-.234-2.138.243-.008 0-.008.008-.016.008-1.73.994-3.131 3.412-3.131 5.407z" fill="#BEFECD" stroke="#170728" stroke-miterlimit="10" stroke-linecap="round" stroke-linejoin="round"/><path d="M280.763 162.7v.101c0 4.32 1.471 7.395 3.867 8.913l.439.251 13.482 7.778c-2.388-1.503-3.86-4.547-3.876-8.835v-.078c0-8.913 6.264-19.758 13.984-24.211.023-.015.047-.031.07-.039 3.711-2.121 7.07-2.379 9.568-1.08l-13.404-7.731-.517-.297c-2.505-1.307-5.903-1.041-9.63 1.111-.079.039-.157.094-.235.141-7.579 4.523-13.701 15.172-13.748 23.976z" fill="#D8FEE1" stroke="#170728" stroke-miterlimit="10" stroke-linecap="round" stroke-linejoin="round"/><path d="M311.336 141.494c-2.505-1.307-5.903-1.041-9.63 1.111-.078.039-.156.094-.235.141-7.586 4.515-13.701 15.165-13.748 23.968v.102c0 4.319 1.472 7.395 3.868 8.913" stroke="#170728" stroke-miterlimit="10" stroke-linecap="round" stroke-linejoin="round"/><path d="M247.793 173.631c0 6.151-1.582 10.963-4.283 14.195a13.023 13.023 0 01-3.124 2.723l-.673.391c-4.768 2.567-11.243 2.097-18.399-2.026-14.625-8.444-26.479-28.961-26.479-45.832 0-8.365 2.92-14.273 7.649-17.066a12.996 12.996 0 014.369-1.597c4.157-.735 9.129.313 14.461 3.388 14.625 8.42 26.479 28.945 26.479 45.824z" fill="#fff" stroke="#170728" stroke-miterlimit="10" stroke-linecap="round" stroke-linejoin="round"/><path d="M235.28 182.594c6.7-3.865 5.859-17.855-1.876-31.246-7.736-13.391-19.438-21.112-26.137-17.246-6.699 3.865-5.859 17.855 1.877 31.245 7.736 13.391 19.437 21.113 26.136 17.247z" fill="#F2FFF5" stroke="#170728" stroke-miterlimit="10" stroke-linecap="round" stroke-linejoin="round"/><path d="M255.528 169.155c0 8.232-2.818 14.078-7.406 16.926l-.642.376-7.101 4.092a12.864 12.864 0 003.123-2.723c2.709-3.232 4.283-8.044 4.283-14.195 0-16.878-11.854-37.396-26.479-45.831-5.34-3.075-10.311-4.132-14.461-3.388a12.988 12.988 0 00-4.369 1.596l7.603-4.39.266-.149c4.791-2.754 11.4-2.347 18.697 1.863 14.625 8.435 26.486 28.953 26.486 45.823z" fill="#D8FEE1" stroke="#170728" stroke-miterlimit="10" stroke-linecap="round" stroke-linejoin="round"/><path d="M221.322 171.706c-3.093-1.784-5.426-6.354-4.886-9.554l2.819-16.746c.18-1.056 1.049-1.393 2.067-.806 1.018.587 1.895 1.933 2.067 3.193l2.818 20.001c.54 3.818-1.8 5.689-4.885 3.912z" fill="#ABE5B9" stroke="#170728" stroke-miterlimit="10" stroke-linecap="round" stroke-linejoin="round"/><path d="M222.803 168.784c.846-.488.847-2.07.001-3.534-.845-1.463-2.216-2.253-3.063-1.765-.846.488-.847 2.07-.001 3.534.845 1.463 2.216 2.253 3.063 1.765z" fill="#FDFBFF" stroke="#170728" stroke-miterlimit="10" stroke-linecap="round" stroke-linejoin="round"/><path d="M188.297 167.262v.015c-.008 2.582-1.292 4.061-3.171 4.061-.767 0-1.636-.25-2.552-.782l-10.241-5.916c-3.163-1.823-5.723-6.252-5.723-9.891 0-2.59 1.292-4.077 3.171-4.077.767 0 1.636.251 2.552.783l.031.023 10.202 5.885c3.171 1.823 5.731 6.26 5.731 9.899z" fill="#ABE5B9" stroke="#170728" stroke-miterlimit="10" stroke-linecap="round" stroke-linejoin="round"/><path d="M188.297 167.262v.015l-10.209-5.892c-3.163-1.823-5.716-6.252-5.716-9.891v-.015l10.202 5.884c3.163 1.823 5.723 6.26 5.723 9.899z" fill="#72987B" stroke="#170728" stroke-miterlimit="10" stroke-linecap="round" stroke-linejoin="round"/><path d="M303.984 203.875l.157-11.002c.039-1.51 1.151-3.326 2.482-4.046 1.331-.72 2.38-.086 2.341 1.432l-.157 11.002c-.039 1.511-1.151 3.326-2.482 4.046-1.338.72-2.38.086-2.341-1.432zm-9.543 5.188l.156-11.002c.039-1.51 1.151-3.325 2.482-4.045 1.331-.72 2.38-.086 2.341 1.432l-.157 11.002c-.039 1.51-1.151 3.325-2.482 4.045-1.331.72-2.38.079-2.34-1.432zm-9.544 5.18l.156-11.002c.039-1.51 1.151-3.325 2.482-4.045 1.331-.72 2.38-.086 2.341 1.432l-.157 11.002c-.039 1.51-1.15 3.326-2.481 4.045-1.331.728-2.381.087-2.341-1.432z" fill="#BEFECD" stroke="#170728" stroke-miterlimit="10" stroke-linecap="round" stroke-linejoin="round"/><path d="M182.799 117.591c1.049-.605 1.048-2.567 0-4.382-1.049-1.815-2.749-2.797-3.797-2.191-1.049.605-1.049 2.567 0 4.382 1.048 1.815 2.749 2.796 3.797 2.191z" stroke="#170728" stroke-miterlimit="10" stroke-linecap="round" stroke-linejoin="round"/><path d="M192.979 110.675c.839-.484.839-2.054 0-3.506s-2.199-2.237-3.038-1.753c-.838.484-.838 2.054.001 3.506.838 1.452 2.198 2.237 3.037 1.753z" fill="#170728"/><path d="M180.946 111.203V99.011l3.648-2.105V80.411" stroke="#170728" stroke-miterlimit="10" stroke-linecap="round" stroke-linejoin="round"/><path d="M174.817 101.392c.839-.484.839-2.054 0-3.506s-2.199-2.237-3.038-1.753c-.839.484-.839 2.054 0 3.506s2.199 2.237 3.038 1.753z" fill="#170728"/><path d="M173.343 96.28v-7.856l-3.641-6.307V71.819m21.805 12.583v21.159m-13.286-28.828V87.36" stroke="#170728" stroke-miterlimit="10" stroke-linecap="round" stroke-linejoin="round"/><path d="M169.721 41.445c.212.498.28.976.239 1.333-.042.374-.18.506-.26.54-.079.033-.27.042-.569-.187-.285-.219-.583-.598-.795-1.097-.212-.498-.279-.975-.239-1.332.042-.374.18-.506.26-.54.079-.034.27-.042.569.187.285.219.583.598.795 1.096zm6.2 3.576c.213.498.28.976.24 1.333-.043.374-.181.506-.26.54-.08.033-.271.042-.57-.187-.285-.219-.583-.598-.795-1.097-.212-.498-.279-.975-.239-1.332.042-.375.181-.506.26-.54.08-.034.27-.042.569.187.286.219.583.598.795 1.096zm6.201 3.576c.212.498.279.976.239 1.333-.042.374-.181.505-.26.54-.08.033-.27.041-.569-.188-.286-.218-.583-.598-.795-1.096-.213-.498-.28-.976-.24-1.333.043-.374.181-.505.26-.54.08-.033.271-.041.57.188.285.218.583.598.795 1.096z" fill="#170728" stroke="#170728"/><path d="M301.691 86.335l9.724-5.603m-17.342 10l3.178-1.83" stroke="#170728" stroke-miterlimit="10" stroke-linecap="round" stroke-linejoin="round"/><path d="M223.444 20.001h-20.052a7.556 7.556 0 00-2.223 0h-20.051v7.966c0 .978.485 1.957 1.456 2.52l15.823 9.132a7.778 7.778 0 007.767 0l15.823-9.132a2.888 2.888 0 001.457-2.52v-7.966z" fill="#ABE5B9" stroke="#170728" stroke-miterlimit="10" stroke-linecap="round" stroke-linejoin="round"/><path d="M198.397 31.653l-15.823-9.132c-1.942-1.119-1.942-3.92 0-5.04l15.823-9.131a7.779 7.779 0 017.767 0l15.823 9.132c1.942 1.119 1.942 3.92 0 5.04l-15.823 9.13a7.778 7.778 0 01-7.767 0z" fill="#D8FEE1" stroke="#170728" stroke-miterlimit="10" stroke-linecap="round" stroke-linejoin="round"/><path d="M193.089 20.158l9.45-5.454m-4.987 8.028l9.45-5.454m-4.988 8.029l9.451-5.454m34.504 23.725l-14.093 8.13m23.613-2.636l-14.093 8.13m23.614-2.645l-14.101 8.138m23.614-2.645l-14.093 8.138m23.613-2.645l-14.101 8.138m-6.02 136.916v5.736m-4.8-8.506v5.736m-4.807-8.514v5.736m-4.808-8.506v5.736" stroke="#170728" stroke-miterlimit="10" stroke-linecap="round" stroke-linejoin="round"/><path d="M175.521 144.299c.704-.299.845-1.551.315-2.796-.53-1.245-1.53-2.011-2.235-1.711-.704.299-.845 1.551-.315 2.796.53 1.245 1.53 2.011 2.235 1.711zm6.004 3.498c.705-.3.846-1.552.316-2.796-.53-1.245-1.531-2.011-2.235-1.712-.704.3-.845 1.552-.315 2.796.53 1.245 1.53 2.011 2.234 1.712z" fill="#170728"/></svg>