<svg width="440" height="427" fill="none" xmlns="http://www.w3.org/2000/svg"><path d="M247.796 260.658l-6.083 14.228-23.633 2.909-17.009-9.638 6.075-13.772 23.458-3.899 17.192 10.172z" fill="#211737"/><path d="M261.806 217.324l-9.788 21.562-10.305-22.718 6.083-14.229 14.01 15.385z" fill="#D8FEE1" stroke="#170728" stroke-miterlimit="10" stroke-linecap="round" stroke-linejoin="round"/><path d="M247.796 201.939l-6.083 14.229-23.633 2.917-17.009-9.637 6.075-13.782 23.458-3.89 17.192 10.163z" fill="#fff" stroke="#170728" stroke-width=".872" stroke-miterlimit="10" stroke-linecap="round" stroke-linejoin="round"/><path d="M237.64 203.455l-3.443 8.043-13.355 1.647-9.614-5.441 3.434-7.788 13.259-2.199 9.719 5.738z" fill="#BEFECD" stroke="#170728" stroke-miterlimit="10" stroke-linecap="round" stroke-linejoin="round"/><path d="M207.146 195.667l-6.075 13.781-14.29 19.363 9.877-21.834 10.488-11.31z" fill="#98CBA4" stroke="#170728" stroke-miterlimit="10" stroke-linecap="round" stroke-linejoin="round"/><path d="M224.609 263.181l-37.828-34.371 27.768 16.086 10.06 18.285z" fill="#98CBA4" stroke="#170728" stroke-miterlimit="10" stroke-linecap="round" stroke-linejoin="round"/><path d="M252.018 238.886l-27.409 24.295-10.06-18.285 37.469-6.01z" fill="#98CBA4" stroke="#170728" stroke-miterlimit="10" stroke-linecap="round" stroke-linejoin="round"/><path d="M252.018 238.886l-37.469 6.011 3.531-25.811 23.633-2.918 10.305 22.718z" fill="#fff" stroke="#170728" stroke-width=".872" stroke-miterlimit="10" stroke-linecap="round" stroke-linejoin="round"/><path d="M218.08 219.085l-3.531 25.811-27.768-16.086 14.29-19.362 17.009 9.637z" fill="#ABE5B9" stroke="#170728" stroke-width="1.046" stroke-miterlimit="10" stroke-linecap="round" stroke-linejoin="round"/><path d="M173.535 175.834c0 1.185-.358 2.17-1.064 2.719l-.506.288-10.522 6.074c.846-.506 1.255-1.551 1.255-2.841 0-1.307-.427-2.867-1.299-4.366l-7.872-13.631 4.568-2.632 3.304-1.908c.628-.366 1.029-1.029 1.204-1.865.209-.994.087-2.231-.358-3.512l4.35 7.547.009.009 5.632 9.752c.863 1.499 1.299 3.059 1.299 4.366zm31.087 5.238c.018 1.351-.418 2.449-1.299 2.963l-10.932 6.309a7.668 7.668 0 01-.157.079l.253-.148c.872-.506 1.299-1.569 1.299-2.885v-.157c0-1.307-.427-2.867-1.299-4.375l-3.051-5.29-7.881-13.639c-.846-1.481-1.961-2.623-3.086-3.276.453-1.107.697-2.458.697-4.009 0 .008.009.008.009.008 2.11 1.212 4.08 1.656 5.736 1.403-.296-1.804.105-3.346 1.204-3.982a2.256 2.256 0 011.15-.297c.637 0 1.343.227 2.04.637 1.116.662 2.232 1.812 3.086 3.285l10.932 18.92c.881 1.534 1.317 3.129 1.299 4.454z" fill="#F2FFF5" stroke="#170728" stroke-miterlimit="10" stroke-linecap="round" stroke-linejoin="round"/><path d="M193.785 187.233c-.035-1.272-.462-2.762-1.298-4.2l-3.13-5.421.079-.044 3.051 5.29c.871 1.508 1.298 3.068 1.298 4.375zm-21.314-8.68c-.069.053-.148.114-.235.157a1.601 1.601 0 01-.27.131l.505-.288z" fill="#fff" stroke="#170728" stroke-width=".872" stroke-miterlimit="10" stroke-linecap="round" stroke-linejoin="round"/><path d="M193.785 187.234c-.035-1.273-.462-2.763-1.298-4.201l-3.13-5.421.079-.043 3.051 5.29c.871 1.507 1.298 3.067 1.298 4.375z" fill="#170728" stroke="#170728" stroke-width=".872" stroke-miterlimit="10" stroke-linecap="round" stroke-linejoin="round"/><path d="M193.786 187.233v.157c0 1.316-.427 2.379-1.299 2.885l-.253.148-10.679 6.161c-1.726.994-4.533-.619-6.268-3.625-.863-1.499-1.299-3.059-1.299-4.366 0-1.308.436-2.371 1.299-2.868l7.872-4.549-7.872-13.621c-.628-1.098-1.029-2.223-1.203-3.26-.296-1.804.105-3.346 1.203-3.983.349-.2.741-.296 1.159-.296.637 0 1.334.227 2.023.636 1.125.654 2.241 1.796 3.086 3.277l7.881 13.639-.078.044 3.129 5.42c.837 1.438 1.264 2.929 1.299 4.201zm-31.088-5.159c0 1.29-.409 2.336-1.255 2.841l-.087.052c-1.726.95-4.507-.671-6.225-3.643l-10.932-18.928c-.871-1.508-1.299-3.068-1.299-4.375v-.157c0-1.316.428-2.379 1.299-2.876l10.932-6.31a.361.361 0 01.079-.035l2.589-1.499c.009.053.018.114.035.166.105.549.227 1.089.384 1.647v.009c.078.279.157.549.252.828.872 2.78 2.328 5.525 4.133 7.878-.175.837-.576 1.499-1.203 1.865l-3.305 1.909-4.568 2.631 7.873 13.631c.871 1.499 1.298 3.059 1.298 4.366z" fill="#fff" stroke="#170728" stroke-width=".872" stroke-miterlimit="10" stroke-linecap="round" stroke-linejoin="round"/><path d="M193.934 149.706v.079c-.008 1.124-.13 2.152-.357 3.076a3.76 3.76 0 01-1.778 2.379l-.872.497-10.802 6.249-4.943 2.85c1.352-.881 2.337-2.388 2.79-4.445.174-.802.27-1.682.279-2.632v-.061c0-7.164-5.021-15.861-11.237-19.443-.026-.026-.035-.026-.061-.044-2.912-1.656-5.545-1.891-7.541-.932l15.884-9.168.645-.375c.837-.488 1.848-.662 2.781-.401.95.27 1.944.688 2.964 1.272.035.009.052.009.07.035 2.031 1.168 3.94 2.841 5.623 4.828 3.896 4.593 6.555 10.824 6.555 16.236z" fill="#98CBA4" stroke="#170728" stroke-miterlimit="10" stroke-linecap="round" stroke-linejoin="round"/><path d="M155.785 144.73c0 7.164 5.048 15.861 11.238 19.443 3.033 1.743 5.771 1.97 7.793.872l.375-.21c1.883-1.22 3.043-3.669 3.069-7.076v-.061c0-7.164-5.022-15.861-11.237-19.443-.027-.026-.035-.026-.061-.035-2.912-1.656-5.545-1.9-7.541-.933-.053.009-.088.035-.14.061l-.401.253c-1.926 1.203-3.095 3.678-3.095 7.129z" fill="#D8FEE1" stroke="#170728" stroke-miterlimit="10" stroke-linecap="round" stroke-linejoin="round"/><path d="M168.127 153.459c.708-.301.85-1.562.317-2.815-.534-1.253-1.54-2.024-2.249-1.723-.708.302-.85 1.562-.317 2.815.533 1.253 1.54 2.025 2.249 1.723z" fill="#170728"/><path d="M439 246.495v.009c0 1.673-.828 3.355-2.493 4.314l-71.46 41.239a14.957 14.957 0 01-14.968 0l-71.46-41.239a4.934 4.934 0 01-2.494-4.314v-.009c0-1.682.829-3.355 2.494-4.314l71.46-41.248a15 15 0 0114.968 0l71.46 41.248c1.665.959 2.493 2.632 2.493 4.314z" fill="#211737"/><path d="M439 197.691v.009c0 1.673-.828 3.355-2.493 4.314l-71.46 41.239a14.957 14.957 0 01-14.968 0l-71.46-41.239a4.934 4.934 0 01-2.494-4.314v-.009c0-1.682.829-3.355 2.494-4.314l71.46-41.248a15 15 0 0114.968 0l71.46 41.248c1.665.959 2.493 2.632 2.493 4.314zM179.838 91.281v46.547c-1.683-1.987-3.592-3.661-5.623-4.828-.018-.026-.035-.026-.07-.035a13.366 13.366 0 00-2.964-1.273c-.933-.261-1.944-.087-2.781.401l-.645.375V91.281h12.083zm156.344-8.889c-3.591 2.074-9.415 2.074-12.998 0l-62.079-35.897c-3.592-2.075-3.592-5.43 0-7.504s9.415-2.074 12.998 0l62.079 35.897c3.592 2.074 3.592 5.43 0 7.504z" fill="#fff" stroke="#170728" stroke-width=".872" stroke-miterlimit="10" stroke-linecap="round" stroke-linejoin="round"/><path d="M439 197.7v27.312a4.95 4.95 0 01-2.493 4.314l-71.46 41.249a15.006 15.006 0 01-14.968 0l-71.46-41.249a4.935 4.935 0 01-1.875-1.891 5.065 5.065 0 01-.619-2.423V197.7c0 1.673.829 3.355 2.494 4.314l71.46 41.239a14.957 14.957 0 0014.968 0l71.46-41.239c1.665-.959 2.493-2.641 2.493-4.314z" fill="#D8FEE1" stroke="#170728" stroke-miterlimit="10" stroke-linecap="round" stroke-linejoin="round"/><path d="M299.306 197.699c0-.679.192-1.359.575-1.943l-.575 1.943zm116.522 0l-.575-1.943c.383.584.575 1.264.575 1.943z" fill="#fff" stroke="#170728" stroke-width=".872" stroke-miterlimit="10" stroke-linecap="round" stroke-linejoin="round"/><path d="M405.48 162.84a2.92 2.92 0 01-1.464 2.545l-20.304 11.713-21.742 12.549a8.824 8.824 0 01-8.805 0l-21.742-12.549-20.304-11.713a2.92 2.92 0 01-1.465-2.545c0-.994.488-1.979 1.465-2.545l42.046-24.263a8.829 8.829 0 018.805 0l42.046 24.263a2.909 2.909 0 011.464 2.545z" fill="#F2FFF5" stroke="#170728" stroke-miterlimit="10" stroke-linecap="round" stroke-linejoin="round"/><path d="M301.538 224.237v9.7l-10.976-6.336c-2.319-1.342-4.202-4.593-4.202-7.277 0-1.342.471-2.284 1.229-2.719.759-.436 1.814-.375 2.973.296l10.976 6.336z" fill="#98CBA4" stroke="#170728" stroke-miterlimit="10" stroke-linecap="round" stroke-linejoin="round"/><path d="M324.038 242.076c0 1.342-.47 2.284-1.229 2.719-.758.436-1.813.375-2.973-.296l-18.298-10.562v-9.7l18.298 10.562c2.319 1.342 4.202 4.593 4.202 7.277z" fill="#BEFECD" stroke="#170728" stroke-miterlimit="10" stroke-linecap="round" stroke-linejoin="round"/><path d="M378.699 246.26l19.685-11.356m-19.685 17.997l10.304-5.953" stroke="#170728" stroke-width=".872" stroke-miterlimit="10" stroke-linecap="round" stroke-linejoin="round"/><path d="M430.425 222.116c.534-1.253.391-2.513-.317-2.815-.709-.301-1.715.47-2.249 1.723-.533 1.253-.391 2.514.317 2.815.709.301 1.716-.47 2.249-1.723zm-6.907 3.986c.533-1.254.391-2.514-.318-2.816-.708-.301-1.715.47-2.248 1.724-.533 1.253-.391 2.513.318 2.815.708.301 1.715-.47 2.248-1.723z" fill="#170728"/><path d="M415.828 197.7a3.545 3.545 0 01-1.778 3.094l-51.13 29.5a10.684 10.684 0 01-10.706 0l-51.13-29.5a3.545 3.545 0 01-1.778-3.094l.575-1.944 9.773-32.916a2.92 2.92 0 001.465 2.545l20.303 11.713 21.742 12.549a8.824 8.824 0 008.805 0l21.743-12.549 20.303-11.713a2.92 2.92 0 001.465-2.545l9.773 32.916.575 1.944z" fill="#D8FEE1" stroke="#170728" stroke-miterlimit="10" stroke-linecap="round" stroke-linejoin="round"/><path d="M377.636 148.399c-3.592.688-8.186-3.599-10.261-9.587l-26.764-77.223c-2.075-5.987-.845-11.4 2.746-12.088 3.592-.688 8.186 3.6 10.261 9.587l26.764 77.223c2.075 5.987.845 11.399-2.746 12.088z" fill="#F2FFF5" stroke="#170728" stroke-miterlimit="10" stroke-linecap="round" stroke-linejoin="round"/><path d="M348.972 65.702c-1.779.34-4.054-1.778-5.074-4.74-1.029-2.964-.419-5.64 1.36-5.98 1.778-.34 4.053 1.779 5.073 4.742 1.029 2.954.419 5.63-1.359 5.978zm26.763 77.224c-1.778.34-4.054-1.778-5.074-4.741-1.028-2.963-.418-5.638 1.361-5.978 1.778-.34 4.053 1.778 5.073 4.741 1.029 2.954.419 5.63-1.36 5.978z" fill="#170728" stroke="#170728" stroke-width=".872" stroke-miterlimit="10" stroke-linecap="round" stroke-linejoin="round"/><path d="M368.77 134.333l-8.779-5.072a4.878 4.878 0 00-4.856 0l-8.779 5.072h-15.195v28.507c0 .54.27 1.089.811 1.403l23.163 13.369a4.883 4.883 0 004.856 0l23.163-13.369c.54-.314.811-.854.811-1.403v-28.507H368.77z" fill="#98CBA4" stroke="#170728" stroke-miterlimit="10" stroke-linecap="round" stroke-linejoin="round"/><path d="M355.135 149.105l-23.163-13.369c-1.081-.618-1.081-2.179 0-2.797l23.163-13.369a4.878 4.878 0 014.856 0l23.163 13.369c1.081.618 1.081 2.179 0 2.797l-23.163 13.369a4.878 4.878 0 01-4.856 0z" fill="#BEFECD" stroke="#170728" stroke-miterlimit="10" stroke-linecap="round" stroke-linejoin="round"/><path d="M369.197 134.525l-11.961-6.911m-5.658 3.259l11.97 6.911m-5.658 3.26l-11.961-6.911" stroke="#170728" stroke-width=".872" stroke-miterlimit="10" stroke-linecap="round"/><path d="M340.201 53.223l-8.779-5.072a4.879 4.879 0 00-4.856 0l-8.778 5.072h-15.195V81.73c0 .54.27 1.089.81 1.403L326.566 96.5c1.5.863 3.348.863 4.856 0l23.164-13.368c.54-.314.81-.854.81-1.403V53.223h-15.195z" fill="#F2FFF5" stroke="#170728" stroke-miterlimit="10" stroke-linecap="round" stroke-linejoin="round"/><path d="M326.567 67.995l-23.163-13.37a1.612 1.612 0 010-2.797l23.163-13.368a4.877 4.877 0 014.855 0l23.164 13.368a1.612 1.612 0 010 2.798l-23.164 13.369a4.835 4.835 0 01-4.855 0z" fill="#fff" stroke="#170728" stroke-width=".872" stroke-miterlimit="10" stroke-linecap="round" stroke-linejoin="round"/><path d="M278.811 16.41l-8.779-5.072a4.879 4.879 0 00-4.856 0l-8.779 5.072h-15.195v28.507c0 .54.27 1.09.811 1.403l23.163 13.369c1.5.863 3.348.863 4.856 0l23.163-13.369c.541-.314.811-.854.811-1.403V16.41h-15.195z" fill="#F2FFF5" stroke="#170728" stroke-miterlimit="10" stroke-linecap="round" stroke-linejoin="round"/><path d="M265.176 31.182l-23.163-13.368a1.612 1.612 0 010-2.798l23.163-13.369a4.879 4.879 0 014.856 0l23.163 13.369a1.612 1.612 0 010 2.798l-23.163 13.368a4.879 4.879 0 01-4.856 0z" fill="#fff" stroke="#170728" stroke-width=".872" stroke-miterlimit="10" stroke-linecap="round" stroke-linejoin="round"/><path d="M346.121 166.613c-3.592.689-8.186-3.599-10.261-9.586l-26.764-77.224c-2.074-5.987-.845-11.4 2.746-12.088 3.592-.688 8.186 3.6 10.261 9.587l26.764 77.223c2.083 5.979.846 11.391-2.746 12.088z" fill="#F2FFF5" stroke="#170728" stroke-miterlimit="10" stroke-linecap="round" stroke-linejoin="round"/><path d="M317.465 83.908c-1.778.34-4.053-1.778-5.073-4.74-1.029-2.964-.419-5.64 1.359-5.98 1.779-.34 4.054 1.778 5.074 4.742 1.029 2.963.419 5.638-1.36 5.978zm26.764 77.224c-1.779.34-4.054-1.778-5.074-4.741-1.028-2.963-.418-5.639 1.36-5.979 1.778-.34 4.054 1.778 5.074 4.741 1.02 2.963.418 5.639-1.36 5.979z" fill="#D8FEE1" stroke="#170728" stroke-miterlimit="10" stroke-linecap="round" stroke-linejoin="round"/><path d="M336.182 56.395c-3.591 2.074-9.415 2.074-12.998 0l-62.079-35.898c-3.592-2.074-3.592-5.429 0-7.503s9.415-2.074 12.998 0l62.079 35.897c3.592 2.074 3.592 5.43 0 7.504z" fill="#fff" stroke="#170728" stroke-width=".872" stroke-miterlimit="10" stroke-linecap="round" stroke-linejoin="round"/><path d="M270.852 18.624c-1.796 1.037-4.708 1.037-6.504 0-1.796-1.037-1.796-2.72 0-3.756 1.796-1.037 4.708-1.037 6.504 0 1.795 1.037 1.795 2.719 0 3.756zm62.079 35.897c-1.796 1.037-4.708 1.037-6.504 0-1.795-1.037-1.795-2.719 0-3.756 1.796-1.037 4.708-1.037 6.504 0 1.796 1.037 1.796 2.719 0 3.756z" fill="#D8FEE1" stroke="#170728" stroke-miterlimit="10" stroke-linecap="round" stroke-linejoin="round"/><path d="M319.34 192.086l-5.51-3.171m68.435 10.972l-19.798 11.426a9.83 9.83 0 01-9.817 0l-22.518-12.994m73.395-10.703l-12.414 7.164" stroke="#170728" stroke-width=".872" stroke-miterlimit="10" stroke-linecap="round" stroke-linejoin="round"/><path d="M258.106 45.71s-.523.392-.645.453l-12.109 6.99c.645-.715.994-1.856.994-3.233 0-1.046-.201-2.214-.62-3.425-1.176-3.4-3.687-5.91-5.797-5.91-.078 0-.165 0-.244.01l11.603-6.702s.785-.305 1.212-.384c2.127-.41 4.847 2.127 6.076 5.674.959 2.78.715 5.35-.47 6.527z" fill="#98CBA4" stroke="#170728" stroke-miterlimit="10" stroke-linecap="round" stroke-linejoin="round"/><path d="M246.346 49.92c0 1.377-.349 2.518-.994 3.233l-1.264.732-66.351 38.294-6.861-11.879 67.109-38.73 1.692-.975h.008c.079-.01.166-.01.244-.01 2.11 0 4.621 2.51 5.798 5.91.418 1.211.619 2.379.619 3.425z" fill="#ABE5B9" stroke="#170728" stroke-miterlimit="10" stroke-linecap="round" stroke-linejoin="round"/><path d="M164.189 79.342c1.395-.671 3.235-.506 5.266.653.017.009.026.009.043.026 4.342 2.502 7.846 8.576 7.846 13.578v.044c-.017 2.38-.828 4.087-2.144 4.941l11.603-6.701a2.584 2.584 0 001.238-1.665 9.128 9.128 0 00.244-2.153v-.052c0-5.42-3.801-12-8.5-14.71-.017-.018-.026-.018-.052-.027a9.399 9.399 0 00-2.066-.889c-.654-.183-1.36-.06-1.944.279l-11.534 6.676z" fill="#D8FEE1" stroke="#170728" stroke-miterlimit="10" stroke-linecap="round" stroke-linejoin="round"/><path d="M161.653 84.545c0 5.002 3.522 11.076 7.846 13.578 2.118 1.22 4.027 1.377 5.439.61l.262-.148c1.316-.854 2.127-2.563 2.145-4.942V93.6c0-5.003-3.505-11.077-7.846-13.578-.018-.018-.027-.018-.044-.026-2.031-1.16-3.871-1.325-5.265-.654-.035.009-.062.026-.096.043l-.279.175c-1.343.845-2.162 2.57-2.162 4.985z" fill="#D8FEE1" stroke="#170728" stroke-miterlimit="10" stroke-linecap="round" stroke-linejoin="round"/><path d="M173.796 107.979v14.005" stroke="#170728" stroke-width=".872" stroke-miterlimit="10" stroke-linecap="round"/><path d="M187.444 379.361v.008a4.94 4.94 0 01-2.501 4.321l-71.659 41.3a15.017 15.017 0 01-15.01 0l-71.66-41.3a4.94 4.94 0 01-2.5-4.321v-.008c0-1.685.83-3.361 2.5-4.321l71.66-41.309a15.06 15.06 0 0115.01 0l71.659 41.309c1.67.96 2.501 2.636 2.501 4.321z" fill="#211737"/><path d="M187.444 331.357v.009c0 1.676-.831 3.36-2.501 4.32l-71.659 41.301a15.022 15.022 0 01-15.01 0l-71.66-41.301a4.938 4.938 0 01-2.5-4.32v-.009c0-1.684.83-3.36 2.5-4.32l71.66-41.31a15.065 15.065 0 0115.01 0l71.659 41.31c1.67.96 2.501 2.636 2.501 4.32z" fill="#fff" stroke="#170728" stroke-width=".872" stroke-miterlimit="10" stroke-linecap="round" stroke-linejoin="round"/><path d="M45.768 328.337l58.258-33.585a3.52 3.52 0 013.497 0l58.258 33.585c2.334 1.344 2.334 4.705 0 6.049l-56.51 32.572a6.999 6.999 0 01-6.993 0l-56.51-32.572c-2.325-1.344-2.325-4.705 0-6.049z" fill="#ABE5B9" stroke="#170728" stroke-miterlimit="10" stroke-linecap="round" stroke-linejoin="round"/><path d="M187.444 331.366v27.353c0 1.676-.84 3.36-2.501 4.32l-71.659 41.31a15.06 15.06 0 01-15.01 0l-71.66-41.31a4.943 4.943 0 01-1.88-1.894 5.057 5.057 0 01-.62-2.426v-27.353c0 1.675.83 3.36 2.5 4.32l71.66 41.301a15.022 15.022 0 0015.01 0l71.659-41.301a4.94 4.94 0 002.501-4.32z" fill="#D8FEE1" stroke="#170728" stroke-miterlimit="10" stroke-linecap="round" stroke-linejoin="round"/><path d="M129.116 378.636l19.731-11.381m-19.731 18.023l10.333-5.952" stroke="#170728" stroke-width=".872" stroke-miterlimit="10" stroke-linecap="round" stroke-linejoin="round"/><path d="M181.027 356.606c1.992-4.676 1.46-9.378-1.187-10.504-2.648-1.125-6.41 1.753-8.402 6.428-1.992 4.676-1.461 9.378 1.187 10.504 2.648 1.125 6.409-1.753 8.402-6.428z" fill="#BEFECD" stroke="#170728" stroke-miterlimit="10" stroke-linecap="round" stroke-linejoin="round"/><path d="M176.088 354.573l3.208-3.936" stroke="#170728" stroke-width=".872" stroke-miterlimit="10" stroke-linecap="round" stroke-linejoin="round"/><path d="M75.046 384.572l-33.719-19.438a2.202 2.202 0 01-1.11-1.92v-9.88c0-1.134 1.233-1.85 2.22-1.283l33.72 19.437a2.203 2.203 0 011.11 1.92v9.88c-.01 1.144-1.242 1.851-2.221 1.284z" fill="#BEFECD" stroke="#170728" stroke-miterlimit="10" stroke-linecap="round" stroke-linejoin="round"/><path d="M56.215 367.255l14.163 8.169m-23.281-13.423l4.756 2.748" stroke="#170728" stroke-width=".872" stroke-miterlimit="10" stroke-linecap="round" stroke-linejoin="round"/><path d="M59.905 179.77l-8.804-5.079a4.893 4.893 0 00-4.869 0l-8.803 5.079H22.19v28.549c0 .541.271 1.091.813 1.405l23.228 13.389a4.898 4.898 0 004.87 0l23.227-13.389c.542-.314.813-.855.813-1.405V179.77H59.905z" fill="#F2FFF5" stroke="#170728" stroke-miterlimit="10" stroke-linecap="round" stroke-linejoin="round"/><path d="M46.232 194.564l-23.228-13.389a1.613 1.613 0 010-2.801l23.228-13.389a4.898 4.898 0 014.87 0l23.227 13.389a1.613 1.613 0 010 2.801l-23.228 13.389a4.898 4.898 0 01-4.87 0z" fill="#fff" stroke="#170728" stroke-width=".872" stroke-miterlimit="10" stroke-linecap="round" stroke-linejoin="round"/><path d="M112.681 356.563l-53.047-30.582-11.278-19.49c-7.23-12.507-7.317-26.027-.262-30.408.087-.061.175-.113.262-.166.105-.061.21-.113.315-.166 3.62-1.911 8.279-1.213 12.947 1.475 4.808 2.767 9.608 7.646 13.27 13.982l37.793 65.355z" fill="#F2FFF5" stroke="#170728" stroke-miterlimit="10" stroke-linecap="round" stroke-linejoin="round"/><path d="M146.679 336.969l-33.998 19.594-37.792-65.354c-3.663-6.337-8.463-11.216-13.27-13.982-4.67-2.689-9.329-3.387-12.948-1.475l33.526-19.324.394-.227c3.628-1.964 8.33-1.274 13.025 1.431 4.8 2.767 9.599 7.646 13.271 13.982l37.792 65.355z" fill="#fff" stroke="#170728" stroke-width=".872" stroke-miterlimit="10" stroke-linecap="round" stroke-linejoin="round"/><path d="M119.08 341.586l11.601-6.293a6.58 6.58 0 002.605-8.998 6.598 6.598 0 00-8.899-2.566l-11.601 6.293a6.58 6.58 0 00-2.605 8.998 6.589 6.589 0 008.899 2.566z" fill="#BEFECD" stroke="#170728" stroke-miterlimit="10" stroke-linecap="round" stroke-linejoin="round"/><path d="M98.221 290.283l14.338 24.797m-1.696-23.671l-5.359 11.486" stroke="#170728" stroke-width=".872" stroke-miterlimit="10" stroke-linecap="round" stroke-linejoin="round"/><path d="M110.863 294.735a3.328 3.328 0 003.33-3.326 3.328 3.328 0 00-3.33-3.325 3.328 3.328 0 00-3.331 3.325 3.328 3.328 0 003.331 3.326z" fill="#BEFECD" stroke="#170728" stroke-miterlimit="10" stroke-linecap="round" stroke-linejoin="round"/><path d="M67.187 313.971c-.874 1.746-2.116 3.09-3.69 3.919-1.293.69-2.823 1.039-4.545.969-8.41-.323-18.411-10.282-22.337-22.239l-25.754-78.534c-3.034-9.234-1.547-16.967 3.156-19.856l.315-.183h.008l.062-.035c1.31-.707 2.84-1.056 4.58-.986.08 0 .167.008.245.017.446.026.892.079 1.346.157 3.76.655 7.729 3.064 11.26 6.59 4.04 4.015 7.519 9.496 9.477 15.474l25.763 78.543c2.15 6.537 2.028 12.324.114 16.164z" fill="#fff" stroke="#170728" stroke-width=".872" stroke-miterlimit="10" stroke-linecap="round" stroke-linejoin="round"/><path d="M72.3 312.828c0 .008-.008.008-.017.017h-.008c-.053.035-.114.07-.184.105l-8.585 4.949-.008-.009c1.573-.829 2.815-2.173 3.689-3.919 1.914-3.84 2.037-9.627-.114-16.164L41.31 219.264c-1.958-5.978-5.438-11.46-9.477-15.474-3.531-3.526-7.5-5.935-11.26-6.59a11.87 11.87 0 00-1.346-.157 2.24 2.24 0 00-.244-.018c-1.74-.069-3.27.28-4.581.987l8.322-4.801.009.009c1.337-.759 2.92-1.135 4.72-1.065 4.206.166 8.804 2.732 12.852 6.764 4.038 4.015 7.518 9.496 9.476 15.475l25.763 78.543c3.051 9.286 1.53 17.045-3.243 19.891z" fill="#F2FFF5" stroke="#170728" stroke-miterlimit="10" stroke-linecap="round" stroke-linejoin="round"/><path d="M53.296 311.231v.078c-.018 4.067-1.416 6.956-3.68 8.379l-.394.227c-2.387 1.265-5.63 1.03-9.197-1.039-7.334-4.224-13.28-14.506-13.28-22.963 0-4.085 1.382-6.991 3.646-8.431l.481-.28c2.37-1.23 5.56-.986 9.083 1.022.026.008.044.026.07.035 7.326 4.233 13.27 14.514 13.27 22.972z" fill="#D8FEE1" stroke="#170728" stroke-miterlimit="10" stroke-linecap="round" stroke-linejoin="round"/><path d="M62.903 305.601v.096c0 4.094-1.398 7.017-3.671 8.449l-.42.235-9.197 5.307c2.264-1.423 3.663-4.312 3.68-8.379v-.078c0-8.458-5.944-18.739-13.279-22.964a.25.25 0 00-.07-.034c-3.523-2.008-6.714-2.252-9.083-1.022l9.127-5.263.49-.279c2.378-1.239 5.603-.986 9.144 1.056.07.044.148.087.218.131 7.204 4.294 13.018 14.392 13.061 22.745z" fill="#98CBA4" stroke="#170728" stroke-miterlimit="10" stroke-linecap="round" stroke-linejoin="round"/><path d="M41.116 298.002c.627-.361.625-1.537-.005-2.626s-1.65-1.679-2.276-1.318c-.627.361-.625 1.537.005 2.627.63 1.089 1.65 1.679 2.276 1.317zm-5.659.499c.627-.361.624-1.537-.006-2.626-.63-1.09-1.649-1.68-2.276-1.318-.627.361-.624 1.537.006 2.626.63 1.09 1.649 1.68 2.276 1.318zm.001 7.532c.627-.362.625-1.538-.005-2.627-.63-1.089-1.649-1.679-2.276-1.318-.627.361-.624 1.537.005 2.627.63 1.089 1.65 1.679 2.276 1.318zm5.657 7.025c.627-.361.624-1.537-.006-2.626s-1.648-1.679-2.276-1.318c-.627.361-.624 1.537.006 2.627.63 1.089 1.649 1.679 2.276 1.317zm5.655-.505c.627-.362.624-1.538-.006-2.627-.63-1.089-1.648-1.679-2.275-1.318s-.625 1.538.005 2.627c.63 1.089 1.649 1.679 2.276 1.318zm-.002-7.532c.627-.361.625-1.537-.005-2.626-.63-1.09-1.649-1.68-2.276-1.318-.627.361-.624 1.537.006 2.626.63 1.09 1.648 1.68 2.275 1.318z" fill="#170728"/><path d="M27.55 233.918v.079c-.018 4.067-1.416 6.956-3.68 8.379l-.394.227c-2.386 1.265-5.63 1.03-9.197-1.039C6.945 237.34 1 227.058 1 218.601c0-4.085 1.381-6.991 3.646-8.431l.48-.28c2.37-1.23 5.56-.986 9.084 1.022.026.008.043.026.07.035 7.325 4.233 13.27 14.514 13.27 22.971z" fill="#D8FEE1" stroke="#170728" stroke-miterlimit="10" stroke-linecap="round" stroke-linejoin="round"/><path d="M37.158 228.289v.096c0 4.093-1.4 7.017-3.672 8.449l-.42.235-9.197 5.307c2.265-1.423 3.663-4.312 3.68-8.379v-.079c0-8.457-5.944-18.738-13.278-22.963a.288.288 0 00-.07-.035c-3.523-2.007-6.714-2.251-9.083-1.021l9.126-5.263.49-.279c2.378-1.24 5.604-.986 9.144 1.056.07.044.149.087.219.131 7.203 4.294 13.017 14.392 13.06 22.745z" fill="#98CBA4" stroke="#170728" stroke-miterlimit="10" stroke-linecap="round" stroke-linejoin="round"/><path d="M15.367 220.684c.627-.362.625-1.538-.005-2.627-.63-1.089-1.649-1.679-2.276-1.318-.627.362-.625 1.538.005 2.627.63 1.089 1.65 1.679 2.276 1.318zm-5.655.506c.627-.362.625-1.538-.005-2.627-.63-1.089-1.65-1.679-2.276-1.318-.627.362-.625 1.538.005 2.627.63 1.089 1.65 1.679 2.276 1.318zm.001 7.531c.628-.361.625-1.537-.005-2.626-.63-1.09-1.649-1.68-2.276-1.318-.627.361-.624 1.537.006 2.626.63 1.09 1.649 1.68 2.276 1.318zm5.657 7.026c.627-.361.625-1.537-.005-2.626s-1.649-1.68-2.276-1.318c-.627.361-.625 1.537.005 2.627.63 1.089 1.65 1.679 2.276 1.317zm5.655-.506c.627-.361.625-1.537-.005-2.626-.63-1.09-1.65-1.68-2.276-1.318-.627.361-.625 1.537.005 2.626.63 1.09 1.649 1.68 2.276 1.318zm-.002-7.531c.627-.362.625-1.538-.005-2.627-.63-1.089-1.649-1.679-2.276-1.318-.627.362-.624 1.538.006 2.627.63 1.089 1.648 1.679 2.275 1.318z" fill="#170728"/><path d="M59.59 212.343s.813.611.996.698l18.761 10.814c-.997-1.108-1.538-2.871-1.538-5.001 0-1.615.314-3.422.961-5.298 1.827-5.263 5.718-9.147 8.987-9.147.122 0 .253 0 .376.018L70.15 194.058s-1.215-.472-1.88-.594c-3.295-.637-7.509 3.291-9.414 8.781-1.487 4.302-1.102 8.282.734 10.098z" fill="#D8FEE1" stroke="#170728" stroke-miterlimit="10" stroke-linecap="round" stroke-linejoin="round"/><path d="M77.808 218.863c0 2.129.542 3.901 1.539 5.001l1.958 1.134 102.808 59.254 10.63-18.381-103.979-59.926-2.623-1.51h-.017c-.122-.017-.253-.017-.376-.017-3.27 0-7.16 3.884-8.987 9.147-.638 1.868-.953 3.674-.953 5.298z" fill="#fff" stroke="#170728" stroke-width=".872" stroke-miterlimit="10" stroke-linecap="round" stroke-linejoin="round"/><path d="M205.103 264.388c-2.159-1.039-5.009-.786-8.157 1.012-.026.017-.043.017-.069.044-6.723 3.866-12.161 13.266-12.161 21.008v.07c.026 3.683 1.285 6.327 3.322 7.645l-17.982-10.369a4.05 4.05 0 01-1.924-2.574c-.244-1.004-.375-2.112-.384-3.326v-.078c0-8.388 5.892-18.573 13.165-22.763.027-.026.044-.026.079-.043 1.102-.629 2.177-1.082 3.208-1.371 1.015-.279 2.099-.096 3.016.428l17.887 10.317z" fill="#98CBA4" stroke="#170728" stroke-miterlimit="10" stroke-linecap="round" stroke-linejoin="round"/><path d="M209.037 272.435c0 7.741-5.455 17.141-12.16 21.008-3.279 1.885-6.242 2.13-8.428.943l-.402-.227c-2.037-1.318-3.296-3.963-3.322-7.646v-.07c0-7.742 5.429-17.142 12.16-21.008.027-.026.044-.026.07-.044 3.147-1.798 5.997-2.051 8.157-1.012.052.017.096.044.148.07l.429.27c2.072 1.309 3.348 3.98 3.348 7.716z" fill="#D8FEE1" stroke="#170728" stroke-miterlimit="10" stroke-linecap="round" stroke-linejoin="round"/><path d="M194.744 283.746c0 1.143.288 2.095.83 2.697l1.058.611 37.032 21.357 5.726-9.897-37.661-21.724-1.408-.812h-.008c-.062-.009-.14-.009-.202-.009-1.757 0-3.855 2.095-4.834 4.923-.367 1.012-.533 1.981-.533 2.854z" fill="#fff" stroke="#170728" stroke-width=".872" stroke-miterlimit="10" stroke-linecap="round" stroke-linejoin="round"/><path d="M244.958 297.711c-1.162-.559-2.701-.419-4.397.541-.017.009-.026.009-.035.018-3.619 2.086-6.548 7.148-6.548 11.311v.035c.018 1.981.691 3.404 1.793 4.12l-9.678-5.578a2.2 2.2 0 01-1.04-1.387 8.006 8.006 0 01-.21-1.79v-.043c0-4.521 3.173-10.002 7.09-12.254.017-.018.017-.018.043-.018a7.386 7.386 0 011.723-.733c.542-.148 1.127-.052 1.626.227l9.633 5.551z" fill="#98CBA4" stroke="#170728" stroke-miterlimit="10" stroke-linecap="round" stroke-linejoin="round"/><path d="M247.083 302.049c0 4.172-2.938 9.225-6.548 11.311-1.766 1.012-3.357 1.143-4.537.506l-.219-.122c-1.101-.716-1.774-2.138-1.792-4.12v-.034c0-4.172 2.92-9.226 6.548-11.312.017-.017.026-.017.035-.017 1.696-.969 3.226-1.1 4.397-.541a.3.3 0 01.079.034l.236.149c1.11.698 1.801 2.138 1.801 4.146zM60.43 171.575a5.14 5.14 0 01-.333 1.789c-.568 1.492-1.862 2.915-3.873 4.076-5.612 3.238-14.722 3.238-20.343 0-2.02-1.161-3.313-2.584-3.873-4.076a4.913 4.913 0 01-.332-1.789c0-2.121 1.399-4.242 4.214-5.865 5.612-3.239 14.722-3.239 20.343 0 2.789 1.623 4.196 3.744 4.196 5.865z" fill="#D8FEE1" stroke="#170728" stroke-miterlimit="10" stroke-linecap="round" stroke-linejoin="round"/><path d="M54.039 150.916c0-4.408-3.576-7.978-7.99-7.978-4.415 0-7.99 3.57-7.99 7.978v20.659c0 .227.06.454.183.672.315.558 1.031 1.099 2.15 1.536 3.121 1.213 8.174 1.213 11.295 0 1.12-.437 1.836-.969 2.15-1.536.123-.218.184-.445.184-.672v-20.659h.018z" fill="#F2FFF5" stroke="#170728" stroke-miterlimit="10" stroke-linecap="round" stroke-linejoin="round"/><path d="M46.048 150.994v23.696" stroke="#170728" stroke-width=".872" stroke-miterlimit="10" stroke-linecap="round" stroke-linejoin="round"/></svg>