<svg width="514" height="541" fill="none" xmlns="http://www.w3.org/2000/svg"><path d="M166.231 240.845c0 4.124-.915 8.247-2.766 12.251-3.595 7.834-10.73 15.254-21.394 21.434-16.121 9.336-37.285 13.927-58.46 13.927-21.176 0-42.33-4.591-58.45-13.927-10.665-6.169-17.8-13.589-21.394-21.434C1.926 249.092 1 244.969 1 240.845c0-12.251 8.028-24.415 24.16-33.751 32.319-18.594 84.658-18.594 116.911 0 16.143 9.325 24.16 21.5 24.16 33.751z" fill="#211737"/><path d="M166.231 188.043c0 4.124-.915 8.248-2.766 12.251-3.595 7.834-10.73 15.255-21.394 21.435-16.121 9.335-37.285 13.926-58.46 13.926-21.176 0-42.33-4.591-58.45-13.926-10.665-6.17-17.8-13.59-21.394-21.435C1.926 196.291 1 192.167 1 188.043c0-12.251 8.028-24.415 24.16-33.75 32.319-18.595 84.658-18.595 116.911 0 16.143 9.324 24.16 21.499 24.16 33.75z" fill="#fff" stroke="#170728" stroke-width="1.393" stroke-miterlimit="10" stroke-linecap="round" stroke-linejoin="round"/><path d="M166.231 188.044v24.546c0 12.175-8.028 24.35-24.16 33.685-16.121 9.336-37.285 13.927-58.46 13.927-21.176 0-42.33-4.591-58.45-13.927C9.027 236.94 1 224.776 1 212.59v-24.546c0 4.124.915 8.247 2.767 12.251 3.594 7.834 10.73 15.254 21.393 21.434 16.121 9.336 37.286 13.927 58.45 13.927 21.165 0 42.329-4.591 58.461-13.927 10.664-6.169 17.799-13.589 21.394-21.434 1.851-4.015 2.766-8.138 2.766-12.251z" fill="#D8FEE1" stroke="#170728" stroke-width="1.393" stroke-miterlimit="10" stroke-linecap="round" stroke-linejoin="round"/><path d="M132.856 239.279c-10.936 4.689-23.44 7.594-36.337 8.748m57.381-21.956c-3.278 3.057-7.222 5.951-11.829 8.606" stroke="#170728" stroke-width="1.393" stroke-miterlimit="10" stroke-linecap="round" stroke-linejoin="round"/><path d="M17.012 229.76c.808-.343.969-1.783.358-3.215-.61-1.432-1.76-2.314-2.568-1.971-.808.344-.968 1.783-.358 3.215.61 1.433 1.76 2.315 2.568 1.971zm6.894 5.594c.808-.343.969-1.783.359-3.215s-1.76-2.315-2.569-1.971c-.808.344-.968 1.783-.358 3.215s1.76 2.315 2.568 1.971zm7.9 4.079c.808-.344.969-1.783.358-3.215-.61-1.432-1.76-2.315-2.568-1.971-.808.343-.968 1.783-.358 3.215s1.76 2.314 2.568 1.971z" fill="#170728"/><path d="M166.231 148.254c0 4.123-.915 8.247-2.766 12.251-3.595 7.834-10.73 15.254-21.394 21.434-16.121 9.335-37.285 13.927-58.46 13.927-21.176 0-42.33-4.592-58.45-13.927-10.665-6.169-17.8-13.589-21.394-21.434C1.926 156.501 1 152.377 1 148.254c0-12.252 8.028-24.416 24.16-33.751 32.319-18.594 84.658-18.594 116.911 0 16.143 9.335 24.16 21.499 24.16 33.751z" fill="#fff" stroke="#170728" stroke-width="1.393" stroke-miterlimit="10" stroke-linecap="round" stroke-linejoin="round"/><path d="M166.231 148.253v24.546c0 12.175-8.028 24.351-24.16 33.686-16.121 9.335-37.285 13.927-58.46 13.927-21.176 0-42.33-4.592-58.45-13.927C9.027 197.15 1 184.985 1 172.799v-24.546c0 4.124.915 8.248 2.767 12.252 3.594 7.833 10.73 15.254 21.393 21.434 16.121 9.335 37.286 13.927 58.45 13.927 21.165 0 42.329-4.592 58.461-13.927 10.664-6.169 17.799-13.59 21.394-21.434 1.851-4.004 2.766-8.128 2.766-12.252z" fill="#D8FEE1" stroke="#170728" stroke-width="1.393" stroke-miterlimit="10" stroke-linecap="round" stroke-linejoin="round"/><path d="M132.856 199.5c-10.936 4.689-23.44 7.594-36.337 8.748m57.381-21.956c-3.278 3.057-7.222 5.951-11.829 8.606" stroke="#170728" stroke-width="1.393" stroke-miterlimit="10" stroke-linecap="round" stroke-linejoin="round"/><path d="M17.012 189.98c.808-.344.969-1.783.358-3.215-.61-1.433-1.76-2.315-2.568-1.972-.808.344-.968 1.784-.358 3.216.61 1.432 1.76 2.314 2.568 1.971zm6.894 5.593c.808-.343.969-1.783.359-3.215s-1.76-2.314-2.569-1.971c-.808.344-.968 1.783-.358 3.215.61 1.433 1.76 2.315 2.568 1.971zm7.9 4.08c.808-.344.969-1.783.358-3.216-.61-1.432-1.76-2.314-2.568-1.971-.808.344-.968 1.783-.358 3.216.61 1.432 1.76 2.314 2.568 1.971z" fill="#170728"/><path d="M166.231 107.703c0 4.124-.915 8.248-2.766 12.252-3.595 7.833-10.73 15.254-21.394 21.434-16.121 9.335-37.285 13.927-58.46 13.927-21.176 0-42.33-4.592-58.45-13.927-10.665-6.169-17.8-13.59-21.394-21.434C1.926 115.951 1 111.827 1 107.703c0-12.25 8.028-24.415 24.16-33.75 32.319-18.595 84.658-18.595 116.911 0 16.143 9.335 24.16 21.51 24.16 33.75z" fill="#fff" stroke="#170728" stroke-width="1.393" stroke-miterlimit="10" stroke-linecap="round" stroke-linejoin="round"/><path d="M127.236 107.682c0 5.864-4.238 11.739-12.756 16.233s-19.683 6.713-30.859 6.713c-11.176 0-22.34-2.219-30.859-6.713-8.518-4.494-12.755-10.369-12.755-16.233 0-5.908 4.237-11.773 12.755-16.277 17.069-8.966 44.693-8.966 61.718 0 8.518 4.504 12.756 10.38 12.756 16.277z" fill="#170728"/><path d="M141.375 58.687c0 31.869-25.848 57.688-57.753 57.688-31.904 0-57.753-25.82-57.753-57.688C25.87 26.82 51.718 1 83.622 1c16.034 0 30.532 6.517 41 17.05 0 0 .371 4.08-4.019 5.45-1.144.37-2.625.544-4.531.414-7.473-.512-23.17-6.833-45.913-1.98-.501.108-1.002.228-1.503.359-22.09 5.603-40.51 30.388-30.184 54.52 10.566 24.677 35.423 34.209 57.753 22.458 3.976-2.1 7.472-4.962 10.577-8.29 14.324-15.396 20.206-40.89 25.249-47.613.142-.185.294-.37.447-.555 1.732-1.991 4.226-3.319 5.904-2.426a57.438 57.438 0 012.973 18.3z" fill="#fff" stroke="#170728" stroke-width="1.393" stroke-miterlimit="10" stroke-linecap="round" stroke-linejoin="round"/><path d="M106.812 90.97c-3.105 3.34-6.601 6.2-10.577 8.29-22.33 11.751-47.187 2.22-57.753-22.457-10.326-24.133 8.093-48.918 30.184-54.521-8.965 7.322-14.684 18.442-14.684 30.91 0 22.044 17.875 39.899 39.954 39.899 4.5 0 8.835-.74 12.876-2.122z" fill="#D8FEE1" stroke="#170728" stroke-width="1.393" stroke-miterlimit="10" stroke-linecap="round" stroke-linejoin="round"/><path d="M132.497 42.802c-.163.185-.304.37-.446.555-5.043 6.724-10.915 32.216-25.249 47.612a39.74 39.74 0 01-12.876 2.122c-22.079 0-39.954-17.855-39.954-39.898 0-12.48 5.719-23.6 14.684-30.911.5-.131 1.001-.25 1.503-.36 22.733-4.852 38.44 1.47 45.912 1.98 1.907.131 3.377-.043 4.532-.413.61.544 1.198 1.1 1.764 1.676 0 0-2.374 5.342-15.849 3.732-13.452-1.621-32.874-.86-39.856 17.354-6.982 18.203 7.919 33.87 23.692 33.87 15.75 0 24.443-11.304 27.591-18.964 3.159-7.66 5.109-19.682 13.648-21.217.36.936.654 1.894.904 2.862z" fill="#ABE5B9" stroke="#170728" stroke-width="1.393" stroke-miterlimit="10" stroke-linecap="round" stroke-linejoin="round"/><path d="M131.604 39.94c-8.54 1.545-10.5 13.557-13.648 21.217-3.159 7.66-11.841 18.964-27.592 18.964-15.761 0-30.674-15.668-23.691-33.87 6.982-18.214 26.404-18.976 39.856-17.354 13.464 1.61 15.849-3.732 15.849-3.732 4.074 4.134 7.276 9.172 9.226 14.775z" fill="#F2FFF5" stroke="#170728" stroke-width="1.393" stroke-miterlimit="10" stroke-linecap="round" stroke-linejoin="round"/><path d="M155.262 107.67c0 1.121-.74 2.241-2.233 3.112-1.492.859-3.442 1.284-5.391 1.284-1.95 0-3.9-.425-5.392-1.284-1.493-.86-2.233-1.98-2.233-3.112 0-1.131.74-2.252 2.233-3.112 2.984-1.719 7.81-1.719 10.783 0 1.493.86 2.233 1.981 2.233 3.112zm-64.017 36.08c0 1.121-.74 2.242-2.233 3.112-1.492.859-3.442 1.284-5.391 1.284-1.95 0-3.9-.425-5.392-1.284-1.493-.86-2.233-1.98-2.233-3.112 0-1.131.74-2.252 2.233-3.112 2.984-1.719 7.81-1.719 10.783 0 1.493.86 2.233 1.981 2.233 3.112zm-64.027-36.08c0 1.121-.74 2.241-2.233 3.112-1.492.859-3.442 1.284-5.391 1.284-1.95 0-3.9-.425-5.392-1.284-1.492-.86-2.233-1.98-2.233-3.112 0-1.131.74-2.252 2.233-3.112 2.984-1.719 7.81-1.719 10.783 0 1.493.86 2.233 1.981 2.233 3.112z" fill="#BEFECD" stroke="#170728" stroke-width="1.393" stroke-miterlimit="10" stroke-linecap="round" stroke-linejoin="round"/><path d="M166.231 107.703v24.546c0 12.175-8.028 24.35-24.16 33.685-16.121 9.335-37.285 13.927-58.46 13.927-21.176 0-42.33-4.592-58.45-13.927C9.027 156.599 1 144.435 1 132.249v-24.546c0 4.123.915 8.247 2.767 12.251 3.594 7.834 10.73 15.254 21.393 21.434 16.121 9.335 37.286 13.927 58.45 13.927 21.165 0 42.329-4.592 58.461-13.927 10.664-6.169 17.799-13.589 21.394-21.434 1.851-4.004 2.766-8.128 2.766-12.251z" fill="#D8FEE1" stroke="#170728" stroke-width="1.393" stroke-miterlimit="10" stroke-linecap="round" stroke-linejoin="round"/><path d="M132.856 158.949c-10.936 4.69-23.44 7.595-36.337 8.748m57.381-21.956c-3.278 3.057-7.222 5.951-11.829 8.606" stroke="#170728" stroke-width="1.393" stroke-miterlimit="10" stroke-linecap="round" stroke-linejoin="round"/><path d="M17.01 149.427c.808-.344.968-1.783.358-3.215s-1.76-2.315-2.568-1.971c-.808.343-.969 1.783-.359 3.215s1.76 2.315 2.568 1.971zm6.893 5.594c.809-.344.97-1.783.359-3.215-.61-1.433-1.76-2.315-2.568-1.972-.808.344-.969 1.784-.359 3.216.61 1.432 1.76 2.314 2.568 1.971zm7.9 4.078c.808-.343.97-1.783.359-3.215-.61-1.432-1.76-2.314-2.568-1.971-.809.344-.969 1.783-.359 3.215s1.76 2.315 2.568 1.971z" fill="#170728"/><path d="M441.073 504.461a4.006 4.006 0 01-2.026 3.498l-7.941 4.575-46.339 26.684a9.44 9.44 0 01-9.434 0l-145.869-83.986-7.941-4.574a3.984 3.984 0 01-2.026-3.499c0-1.358.675-2.716 2.026-3.498l54.291-31.259a9.44 9.44 0 019.434 0l153.788 88.56a3.997 3.997 0 012.037 3.499z" fill="#211737"/><path d="M441.073 337.238a4.009 4.009 0 01-2.026 3.499l-7.941 4.574-46.339 26.684a9.44 9.44 0 01-9.434 0l-145.869-83.986-7.941-4.574a3.982 3.982 0 01-2.026-3.498c0-1.359.675-2.717 2.026-3.499l54.291-31.258a9.435 9.435 0 019.434 0l153.788 88.56a3.995 3.995 0 012.037 3.498z" fill="#ABE5B9" stroke="#170728" stroke-width="1.393" stroke-miterlimit="10" stroke-linecap="round" stroke-linejoin="round"/><path d="M237.264 279.926l43.278-24.914 142.787 82.226-43.267 24.913-142.798-82.225z" fill="#72987B" stroke="#170728" stroke-width="1.393" stroke-miterlimit="10" stroke-linecap="round" stroke-linejoin="round"/><path d="M441.073 337.238v141.146a4.01 4.01 0 01-2.026 3.499l-54.27 31.258a9.438 9.438 0 01-9.433 0l-153.799-88.56a3.982 3.982 0 01-2.026-3.498V279.925c0 1.369.675 2.717 2.026 3.499l7.941 4.574 145.869 83.986a9.438 9.438 0 009.433 0l46.34-26.684 7.94-4.575a4.001 4.001 0 002.005-3.487z" fill="#fff" stroke="#170728" stroke-width="1.393" stroke-miterlimit="10" stroke-linecap="round" stroke-linejoin="round"/><path d="M441.073 286.684a4.006 4.006 0 01-2.026 3.498l-7.941 4.574-46.339 26.684a9.435 9.435 0 01-9.434 0l-145.869-83.986-7.941-4.574a3.981 3.981 0 01-2.026-3.498c0-1.358.675-2.716 2.026-3.499l54.291-31.258a9.44 9.44 0 019.434 0l153.788 88.56a3.995 3.995 0 012.037 3.499z" fill="#fff" stroke="#170728" stroke-width="1.393" stroke-miterlimit="10" stroke-linecap="round" stroke-linejoin="round"/><path d="M441.073 286.683v20.165a4.01 4.01 0 01-2.026 3.499l-54.27 31.258a9.438 9.438 0 01-9.433 0l-153.799-88.56a3.981 3.981 0 01-2.026-3.498v-20.166c0 1.369.675 2.717 2.026 3.499l7.941 4.574 145.869 83.986a9.438 9.438 0 009.433 0l46.34-26.684 7.94-4.574a4.034 4.034 0 002.005-3.499z" fill="#D8FEE1" stroke="#170728" stroke-width="1.393" stroke-miterlimit="10" stroke-linecap="round" stroke-linejoin="round"/><path d="M464.657 370.095c1.743-.837 4.041-.63 6.579.815.022.011.033.011.055.032 5.424 3.119 9.804 10.691 9.804 16.928v.054c-.022 2.966-1.035 5.096-2.68 6.161l15.544-8.953c.523-1.13.806-2.532.817-4.15v-.066c0-6.758-4.749-14.961-10.62-18.34-.022-.021-.033-.021-.066-.032-1.394-.793-2.723-1.239-3.954-1.369l-15.479 8.92z" fill="#BEFECD" stroke="#170728" stroke-width="1.393" stroke-miterlimit="10" stroke-linecap="round" stroke-linejoin="round"/><path d="M480.135 361.174c1.231.131 2.56.576 3.954 1.369.033.011.044.011.066.033 5.871 3.379 10.62 11.582 10.62 18.34v.065c-.01 1.619-.294 3.021-.816 4.151l16.034-9.236.305-.174c1.656-1.064 2.68-3.194 2.702-6.171v-.054c0-6.237-4.379-13.809-9.804-16.928-.022-.021-.033-.021-.055-.032-2.592-1.489-4.945-1.663-6.688-.761l-.359.207-15.959 9.191z" fill="#ABE5B9" stroke="#170728" stroke-width="1.393" stroke-miterlimit="10" stroke-linecap="round" stroke-linejoin="round"/><path d="M461.487 376.581c0 6.237 4.401 13.81 9.804 16.928 2.647 1.521 5.033 1.716 6.797.76l.327-.184c1.645-1.065 2.658-3.195 2.68-6.161v-.054c0-6.237-4.379-13.809-9.804-16.928-.022-.021-.033-.021-.054-.032-2.539-1.445-4.837-1.652-6.58-.815-.043.011-.076.032-.12.054l-.348.217c-1.678 1.054-2.702 3.206-2.702 6.215z" fill="#D8FEE1" stroke="#170728" stroke-width="1.393" stroke-miterlimit="10" stroke-linecap="round" stroke-linejoin="round"/><path d="M478.415 394.084l-.328.186" stroke="#4C917E" stroke-width="1.393" stroke-miterlimit="10" stroke-linecap="round" stroke-linejoin="round"/><path d="M426.836 398.257c1.078-.554 2.527-.446 4.128.467.011.011.022.011.033.022 3.344 1.923 6.046 6.595 6.046 10.441v.033c-.011 1.836-.643 3.15-1.667 3.802l39.281-22.61c1.035-.651 1.666-1.966 1.677-3.813v-.033c0-3.846-2.712-8.529-6.045-10.441-.011-.011-.022-.022-.033-.022-1.601-.912-3.061-1.021-4.129-.467l-.239.141-39.052 22.48z" fill="#fff" stroke="#170728" stroke-width="1.393" stroke-miterlimit="10" stroke-linecap="round" stroke-linejoin="round"/><path d="M409.593 429.167v.108c.022 5.943 2.069 10.181 5.392 12.267l.577.336c3.497 1.858 8.246 1.5 13.475-1.51 10.74-6.182 19.455-21.23 19.455-33.605 0-5.976-2.026-10.235-5.338-12.343l-.708-.412c-3.464-1.804-8.148-1.445-13.311 1.499-.033.011-.066.033-.098.054-10.73 6.172-19.444 21.23-19.444 33.606z" fill="#fff" stroke="#170728" stroke-width="1.393" stroke-miterlimit="10" stroke-linecap="round" stroke-linejoin="round"/><path d="M424.702 420.465v.021c.011 1.326.468 2.271 1.209 2.738l.13.076c.785.413 1.841.337 3.007-.336 2.396-1.38 4.346-4.748 4.346-7.508 0-1.337-.457-2.282-1.187-2.76l-.153-.087c-.773-.402-1.819-.326-2.973.337-.011 0-.011.011-.022.011-2.407 1.38-4.357 4.737-4.357 7.508z" fill="#BEFECD" stroke="#170728" stroke-width="1.393" stroke-miterlimit="10" stroke-linecap="round" stroke-linejoin="round"/><path d="M390.235 417.878v.141c0 5.998 2.048 10.267 5.381 12.375l.611.348 18.757 10.8c-3.322-2.086-5.37-6.313-5.392-12.267v-.108c0-12.376 8.715-27.434 19.455-33.617.033-.021.066-.043.098-.054 5.164-2.944 9.837-3.303 13.312-1.499l-18.649-10.735-.719-.413c-3.486-1.814-8.214-1.445-13.399 1.543-.109.054-.218.131-.327.196-10.544 6.28-19.062 21.067-19.128 33.29z" fill="#D8FEE1" stroke="#170728" stroke-width="1.393" stroke-miterlimit="10" stroke-linecap="round" stroke-linejoin="round"/><path d="M432.772 388.434c-3.485-1.815-8.213-1.445-13.398 1.543-.109.054-.218.13-.327.195-10.555 6.269-19.063 21.056-19.128 33.28v.141c0 5.997 2.048 10.267 5.381 12.375" stroke="#170728" stroke-width="1.393" stroke-miterlimit="10" stroke-linecap="round" stroke-linejoin="round"/><path d="M344.364 433.056c0 8.539-2.2 15.221-5.958 19.709a18.106 18.106 0 01-4.347 3.781l-.936.543c-6.634 3.564-15.643 2.912-25.599-2.814-20.348-11.723-36.84-40.211-36.84-63.636 0-11.615 4.063-19.818 10.642-23.697 1.841-1.086 3.878-1.825 6.078-2.216 5.785-1.021 12.702.435 20.12 4.705 20.348 11.69 36.84 40.189 36.84 63.625z" fill="#fff" stroke="#170728" stroke-width="1.393" stroke-miterlimit="10" stroke-linecap="round" stroke-linejoin="round"/><path d="M326.956 445.501c9.321-5.368 8.152-24.792-2.611-43.385-10.763-18.593-27.044-29.314-36.364-23.946-9.321 5.367-8.152 24.791 2.611 43.384s27.044 29.314 36.364 23.947z" fill="#F2FFF5" stroke="#170728" stroke-width="1.393" stroke-miterlimit="10" stroke-linecap="round" stroke-linejoin="round"/><path d="M355.126 426.841c0 11.43-3.922 19.546-10.305 23.5l-.893.522-9.88 5.682a17.842 17.842 0 004.346-3.781c3.769-4.487 5.959-11.169 5.959-19.709 0-23.435-16.493-51.923-36.841-63.636-7.429-4.269-14.346-5.736-20.119-4.704-2.201.391-4.238 1.13-6.079 2.216l10.578-6.095.37-.206c6.666-3.825 15.86-3.26 26.013 2.586 20.348 11.712 36.851 40.2 36.851 63.625z" fill="#D8FEE1" stroke="#170728" stroke-width="1.393" stroke-miterlimit="10" stroke-linecap="round" stroke-linejoin="round"/><path d="M307.534 430.383c-4.303-2.477-7.549-8.823-6.798-13.266l3.922-23.251c.251-1.467 1.46-1.934 2.876-1.119s2.636 2.683 2.876 4.433l3.921 27.77c.752 5.302-2.505 7.899-6.797 5.433z" fill="#ABE5B9" stroke="#170728" stroke-width="1.393" stroke-miterlimit="10" stroke-linecap="round" stroke-linejoin="round"/><path d="M309.594 426.325c1.177-.678 1.178-2.874.002-4.906-1.176-2.032-3.084-3.129-4.261-2.451-1.178.678-1.179 2.874-.003 4.906 1.176 2.032 3.084 3.129 4.262 2.451z" fill="#FDFBFF" stroke="#170728" stroke-width="1.393" stroke-miterlimit="10" stroke-linecap="round" stroke-linejoin="round"/><path d="M261.588 424.211v.022c-.011 3.585-1.798 5.639-4.412 5.639-1.067 0-2.277-.348-3.551-1.087l-14.248-8.214c-4.401-2.531-7.963-8.681-7.963-13.733 0-3.596 1.797-5.661 4.412-5.661 1.067 0 2.276.348 3.551 1.087l.043.032 14.194 8.171c4.412 2.531 7.974 8.692 7.974 13.744z" fill="#ABE5B9" stroke="#170728" stroke-width="1.393" stroke-miterlimit="10" stroke-linecap="round" stroke-linejoin="round"/><path d="M261.587 424.212v.022l-14.204-8.182c-4.401-2.531-7.952-8.681-7.952-13.733v-.022l14.193 8.171c4.401 2.531 7.963 8.692 7.963 13.744z" fill="#72987B" stroke="#170728" stroke-width="1.393" stroke-miterlimit="10" stroke-linecap="round" stroke-linejoin="round"/><path d="M422.544 475.049l.218-15.276c.054-2.097 1.601-4.618 3.453-5.617 1.852-1 3.312-.12 3.257 1.988l-.218 15.276c-.054 2.097-1.601 4.618-3.453 5.617-1.863 1-3.311.12-3.257-1.988zm-13.278 7.203l.217-15.276c.055-2.097 1.602-4.617 3.453-5.617 1.852-.999 3.312-.119 3.257 1.988l-.217 15.277c-.055 2.096-1.602 4.617-3.453 5.617-1.852.999-3.312.108-3.257-1.989zm-13.279 7.192l.218-15.276c.055-2.097 1.601-4.617 3.453-5.617 1.852-1 3.312-.119 3.257 1.988l-.218 15.276c-.054 2.097-1.601 4.618-3.453 5.618-1.851 1.01-3.311.119-3.257-1.989z" fill="#BEFECD" stroke="#170728" stroke-width="1.393" stroke-miterlimit="10" stroke-linecap="round" stroke-linejoin="round"/><path d="M253.937 355.245c1.459-.84 1.459-3.564 0-6.084-1.459-2.52-3.824-3.883-5.283-3.042-1.459.84-1.459 3.564 0 6.084 1.459 2.52 3.824 3.882 5.283 3.042z" stroke="#170728" stroke-width="1.393" stroke-miterlimit="10" stroke-linecap="round" stroke-linejoin="round"/><path d="M268.101 345.643c1.167-.672 1.167-2.852 0-4.868-1.167-2.016-3.059-3.106-4.226-2.434-1.167.672-1.167 2.852 0 4.868 1.167 2.016 3.059 3.106 4.226 2.434z" fill="#170728"/><path d="M251.359 346.375v-16.927l5.076-2.923v-22.903" stroke="#170728" stroke-width="1.393" stroke-miterlimit="10" stroke-linecap="round" stroke-linejoin="round"/><path d="M242.833 332.754c1.167-.673 1.167-2.852 0-4.868-1.167-2.016-3.06-3.106-4.227-2.434-1.167.672-1.167 2.851 0 4.868 1.168 2.016 3.06 3.106 4.227 2.434z" fill="#170728"/><path d="M240.781 325.656v-10.908l-5.065-8.757v-14.299m30.338 17.471v29.378m-18.486-40.025v14.754" stroke="#170728" stroke-width="1.393" stroke-miterlimit="10" stroke-linecap="round" stroke-linejoin="round"/><path d="M235.741 249.52c.295.691.389 1.354.333 1.849-.059.519-.251.701-.362.748-.11.047-.375.059-.791-.259-.397-.303-.81-.83-1.105-1.521-.295-.691-.389-1.354-.333-1.849.059-.519.251-.701.362-.748.11-.047.375-.059.791.259.396.303.81.829 1.105 1.521zm8.627 4.964c.295.692.388 1.354.332 1.849-.058.519-.25.702-.361.749-.111.047-.375.058-.791-.26-.397-.303-.81-.829-1.105-1.521-.295-.691-.389-1.353-.333-1.849.059-.519.251-.701.361-.748.111-.047.376-.058.791.259.397.303.811.83 1.106 1.521zm8.626 4.966c.295.691.388 1.353.332 1.849-.058.519-.25.701-.361.748-.11.047-.375.058-.791-.259-.397-.303-.81-.83-1.105-1.521-.295-.692-.389-1.354-.333-1.849.059-.519.251-.702.361-.749.111-.047.376-.058.792.26.396.303.81.829 1.105 1.521z" fill="#170728" stroke="#170728" stroke-width="1.393"/><path d="M419.353 311.846l13.529-7.779m-24.128 13.886l4.423-2.543" stroke="#170728" stroke-width="1.393" stroke-miterlimit="10" stroke-linecap="round" stroke-linejoin="round"/><path d="M310.487 219.744h-27.898a10.547 10.547 0 00-3.093 0h-27.897v11.06c0 1.359.675 2.717 2.026 3.499l22.014 12.679a10.843 10.843 0 0010.807 0l22.014-12.679a4.008 4.008 0 002.027-3.499v-11.06z" fill="#ABE5B9" stroke="#170728" stroke-width="1.393" stroke-miterlimit="10" stroke-linecap="round" stroke-linejoin="round"/><path d="M275.64 235.923l-22.015-12.68c-2.702-1.553-2.702-5.443 0-6.997l22.015-12.679a10.842 10.842 0 0110.806 0l22.015 12.679c2.701 1.554 2.701 5.444 0 6.997l-22.015 12.68a10.842 10.842 0 01-10.806 0z" fill="#D8FEE1" stroke="#170728" stroke-width="1.393" stroke-miterlimit="10" stroke-linecap="round" stroke-linejoin="round"/><path d="M268.254 219.962l13.148-7.573m-6.939 11.148l13.148-7.573m-6.939 11.146l13.148-7.572m48.006 32.943l-19.607 11.289m32.853-3.663l-19.607 11.289m32.854-3.671l-19.618 11.299m32.853-3.672l-19.608 11.299m32.853-3.673l-19.618 11.3m-8.377 190.103v7.964m-6.677-11.81v7.964m-6.688-11.821v7.964m-6.689-11.81v7.964" stroke="#170728" stroke-width="1.393" stroke-miterlimit="10" stroke-linecap="round" stroke-linejoin="round"/><path d="M243.812 392.329c.98-.416 1.176-2.154.439-3.882-.738-1.728-2.13-2.792-3.11-2.376-.979.416-1.176 2.154-.439 3.882.738 1.728 2.13 2.792 3.11 2.376zm8.354 4.856c.98-.416 1.177-2.154.439-3.882-.737-1.728-2.129-2.792-3.109-2.376-.98.416-1.177 2.154-.439 3.882.737 1.728 2.129 2.792 3.109 2.376z" fill="#170728"/></svg>