<svg width="408" height="373" fill="none" xmlns="http://www.w3.org/2000/svg"><path d="M269.616 255.023c0 2.728-.508 5.474-1.526 8.156a27.983 27.983 0 01-3.126 5.88c-3.209 4.642-8.055 8.988-14.567 12.742a58.81 58.81 0 01-3.718 1.978v-32.075c-1.174.157-2.349.296-3.533.444a328.383 328.383 0 01-18.202 1.646c-6.909.434-13.864.656-20.828.656-6.641 0-13.217-.194-19.728-.573a319.86 319.86 0 01-19.562-1.729c-6.03-.712-11.977-1.6-17.822-2.645-.158-.027-.306-.055-.463-.083a224.33 224.33 0 01-6.779-1.313c-.093-.009-.176-.028-.259-.046.037-.12.083-.241.12-.361 1.674-4.937 5.068-9.727 10.183-14.045 2.257-1.905 4.865-3.717 7.797-5.418a65.596 65.596 0 013.579-1.914c6.872-3.421 14.678-5.89 22.9-7.388 13.393-2.459 27.886-2.376 41.204.259 7.723 1.516 15.048 3.902 21.532 7.129 1.23.61 2.423 1.248 3.579 1.914 2.932 1.701 5.531 3.513 7.788 5.427 5.115 4.309 8.518 9.09 10.192 14.036a22.377 22.377 0 011.239 7.323z" fill="#211737"/><path d="M347.493 173.009c-79.301-45.769-207.833-45.797-287.078-.055C20.802 195.81 1 225.778 1 255.754c0 4.235.398 8.46 1.184 12.667 4.81 25.65 24.25 50.559 58.324 70.235 52.968 30.578 127.912 40.74 195.448 30.476a322.978 322.978 0 0013.568-2.358l-16.38-27.739c-15.816 2.645-32.316 4.032-49.001 4.032-47.798 0-94.08-11.327-126.987-31.086-21.356-12.816-35.572-28.183-40.714-43.569-1.415-4.244-2.146-8.479-2.146-12.667 0-19.353 15.585-39.815 42.767-56.125 32.843-19.713 79.06-31.021 126.803-31.021 47.789 0 94.08 11.326 126.979 31.076 27.238 16.348 42.859 36.847 42.859 56.236 0 4.18-.731 8.424-2.146 12.658-3.977 11.891-13.374 23.763-27.294 34.452l19.016 6.399 16.204 5.446c14.549-14.406 23.326-30.208 26.332-46.315a67.785 67.785 0 001.184-12.64c0-30.004-19.839-60.008-59.507-82.902z" fill="#211737"/><path d="M373.704 209.439c0 4.18-.731 8.424-2.146 12.658-5.151-15.385-19.358-30.753-40.713-43.568-32.899-19.75-79.19-31.077-126.979-31.077-47.743 0-93.96 11.308-126.803 31.021-21.3 12.788-35.488 28.118-40.621 43.467-1.415-4.244-2.146-8.479-2.146-12.667 0-19.353 15.585-39.815 42.767-56.125 32.843-19.713 79.06-31.022 126.803-31.022 47.789 0 94.08 11.327 126.979 31.077 27.238 16.348 42.859 36.847 42.859 56.236z" fill="#D8FEE1" stroke="#170728" stroke-miterlimit="10" stroke-linecap="round" stroke-linejoin="round"/><path d="M347.493 126.537c-79.301-45.77-207.833-45.797-287.078-.055C20.802 149.338 1 179.306 1 209.282c0 4.235.398 8.461 1.184 12.668 4.81 25.649 24.25 50.558 58.324 70.234 52.968 30.578 127.912 40.74 195.448 30.476a322.978 322.978 0 0013.568-2.358l-16.38-27.738c-15.816 2.644-32.316 4.031-49.001 4.031-47.798 0-94.08-11.327-126.987-31.086-21.356-12.815-35.572-28.183-40.714-43.569-1.415-4.244-2.146-8.479-2.146-12.667 0-19.353 15.585-39.815 42.767-56.125 32.843-19.713 79.06-31.021 126.803-31.021 47.789 0 94.08 11.326 126.979 31.076 27.238 16.348 42.859 36.847 42.859 56.236 0 4.18-.731 8.424-2.146 12.659-3.977 11.89-13.374 23.763-27.294 34.451l19.016 6.399 16.204 5.446c14.549-14.406 23.326-30.208 26.332-46.315a67.785 67.785 0 001.184-12.64c0-30.004-19.839-60.008-59.507-82.902z" fill="#fff" stroke="#170728" stroke-miterlimit="10" stroke-linecap="round" stroke-linejoin="round"/><path d="M243.146 202.532a328.383 328.383 0 01-18.202 1.646c-6.909.434-13.864.656-20.828.656-6.641 0-13.217-.194-19.728-.573a319.86 319.86 0 01-19.562-1.729c-6.03-.712-11.977-1.6-17.822-2.645-.158-.027-.306-.055-.463-.083a224.33 224.33 0 01-6.779-1.313 1.99 1.99 0 01-.259-.046 40.676 40.676 0 01-1.027-.213c-.028 0-.065 0-.092-.018-25.749-5.391-49.279-13.99-69.108-25.437-8.944-5.159-16.852-10.781-23.631-16.745-14.993-13.166-24.455-28.007-27.303-43.217a54.518 54.518 0 01-.934-9.977v106.444c0 3.301.314 6.666.934 9.976 4.143 22.099 22.225 43.393 50.934 59.963 35.802 20.674 83.684 32.057 134.84 32.057 14.336 0 28.625-.925 42.563-2.747V202.088c-1.174.157-2.349.296-3.533.444z" fill="#ABE5B9" stroke="#170728" stroke-miterlimit="10" stroke-linecap="round" stroke-linejoin="round"/><path d="M144.007 267.858a283.68 283.68 0 01-8.74-1.795m32.658 5.345a318.978 318.978 0 01-15.28-2.044m-14.363-21.608c-1.008-.213-2.017-.435-3.025-.648m24.491 4.338a302.753 302.753 0 01-16.833-2.757m11.071 11.521l5.753.777m-27.691-4.771c4.254.944 8.574 1.795 12.958 2.562" stroke="#170728" stroke-miterlimit="10" stroke-linecap="round" stroke-linejoin="round"/><path d="M390.593 102.996a53.22 53.22 0 01-.925 9.921c-2.109 11.271-7.649 22.154-16.51 32.464v21.599c-8.546-9.94-20.116-19.223-34.433-27.489-35.803-20.665-83.703-32.048-134.859-32.048-51.11 0-98.936 11.364-134.692 32.002-8.935 5.159-16.805 10.716-23.53 16.588-14.992-13.167-24.454-28.007-27.302-43.218a54.507 54.507 0 01-.934-9.976c0-25.779 18.386-50.578 51.766-69.847C104.93 12.364 152.756 1 203.866 1c51.156 0 99.056 11.382 134.859 32.048 33.453 19.306 51.868 44.141 51.868 69.948z" fill="#72987B" stroke="#170728" stroke-miterlimit="10" stroke-linecap="round" stroke-linejoin="round"/><path d="M356.094 64.041a107.8 107.8 0 016.373 5.456m-34.989-22.996a187.033 187.033 0 016.381 3.227c6.983 3.698 13.282 7.637 18.878 11.752m-55.614-26.833c8.666 2.7 16.934 5.788 24.731 9.247m-47.521-15.239a282.992 282.992 0 0116.177 4.032m-71.809-11.049c16.907.702 33.324 2.607 48.899 5.63m-90.556-4.937a353.57 353.57 0 0126.739-1.008c2.895 0 5.78.037 8.657.102m-76.665 6.685c11.201-2.34 22.864-4.096 34.85-5.233m-60.146 11.77a260.7 260.7 0 0118.212-4.956M74.177 49.515c9.009-4.752 18.803-8.94 29.236-12.547M333.859 63.69c11.386 6.038 20.968 12.686 28.598 19.76m-52.969-30.624c7.02 2.616 13.726 5.501 20.071 8.654m-47.133-16.985c7.686 1.914 15.131 4.114 22.262 6.602m-56.353-12.983c9.915 1.286 19.571 3.006 28.884 5.141M154.264 38.8c13.069-1.905 26.628-3.052 40.482-3.404m-68.201 8.757a295.895 295.895 0 0120.93-4.29m-52.349 14.1c8.324-3.236 17.111-6.075 26.286-8.497M74.177 63.477a196.706 196.706 0 0114.031-6.685m267.886 36.449a107.837 107.837 0 016.373 5.456M327.478 75.7a187.034 187.034 0 016.381 3.228c6.983 3.698 13.282 7.637 18.878 11.752m-55.614-26.833c8.666 2.7 16.934 5.788 24.731 9.247m-47.521-15.239a282.992 282.992 0 0116.177 4.032m-71.809-11.05c16.907.703 33.324 2.608 48.899 5.631m-90.556-4.937a353.57 353.57 0 0126.739-1.008c2.895 0 5.78.037 8.657.102m-76.665 6.685c11.201-2.34 22.864-4.096 34.85-5.234m-60.146 11.771a260.7 260.7 0 0118.212-4.956M74.177 78.715c9.009-4.753 18.803-8.941 29.236-12.547M333.859 92.89c11.386 6.037 20.968 12.686 28.598 19.759m-52.969-30.624c7.02 2.617 13.726 5.502 20.071 8.655m-47.133-16.986c7.686 1.914 15.131 4.115 22.262 6.602m-56.353-12.982c9.915 1.286 19.571 3.006 28.884 5.141m-77.016-7.952a350.662 350.662 0 0142.009 2.072M154.264 68c13.069-1.906 26.628-3.053 40.482-3.404m-68.201 8.757a295.895 295.895 0 0120.93-4.29M95.126 83.162c8.324-3.236 17.111-6.074 26.286-8.497M74.177 92.677a196.706 196.706 0 0114.031-6.685m267.886 36.449a107.721 107.721 0 016.373 5.455m-34.989-22.995a184.684 184.684 0 016.381 3.227c6.983 3.698 13.282 7.637 18.878 11.752m-55.614-26.833c8.666 2.7 16.934 5.788 24.731 9.246m-47.521-15.238a282.992 282.992 0 0116.177 4.032m-71.809-11.05c16.907.703 33.324 2.608 48.899 5.631m-90.556-4.937a353.57 353.57 0 0126.739-1.008c2.895 0 5.78.037 8.657.102M110.479 93.047a260.7 260.7 0 0118.212-4.956m-54.514 19.824c9.009-4.753 18.803-8.941 29.236-12.547m230.446 26.721c11.386 6.038 20.968 12.686 28.598 19.76m-52.969-30.624c7.02 2.617 13.726 5.502 20.071 8.655m-47.133-16.986c7.686 1.914 15.131 4.115 22.262 6.602m-56.353-12.982c9.915 1.286 19.571 3.005 28.884 5.141m-77.016-7.952a350.661 350.661 0 0142.009 2.072M154.264 97.2c13.069-1.906 26.628-3.053 40.482-3.404m-68.201 8.756a295.951 295.951 0 0120.93-4.29m-52.349 14.1c8.324-3.236 17.111-6.074 26.286-8.497m-47.235 18.012a196.402 196.402 0 0114.031-6.685" stroke="#170728" stroke-miterlimit="10" stroke-linecap="round" stroke-linejoin="round"/><path d="M390.593 102.996v106.443c0 3.329-.306 6.667-.925 9.921-2.109 11.272-7.649 22.164-16.51 32.473V145.381c8.861-10.31 14.401-21.193 16.51-32.464a53.22 53.22 0 00.925-9.921z" fill="#ABE5B9" stroke="#170728" stroke-miterlimit="10" stroke-linecap="round" stroke-linejoin="round"/><path d="M269.524 320.302v25.326c-70.893 13.897-152.468 4.521-209.016-28.118C20.839 294.616 1 264.603 1 234.608v-25.326c0 4.235.398 8.46 1.184 12.667 4.81 25.65 24.25 50.559 58.324 70.235 52.968 30.578 127.912 40.739 195.448 30.476a322.978 322.978 0 0013.568-2.358zM407 209.439v25.326c0 20.397-9.175 40.794-27.516 58.954v-25.325c14.549-14.406 23.326-30.208 26.332-46.315a67.785 67.785 0 001.184-12.64z" fill="#D8FEE1" stroke="#170728" stroke-miterlimit="10" stroke-linecap="round" stroke-linejoin="round"/><path d="M379.484 268.393v25.326l-35.22-11.845v-25.325l19.016 6.398 16.204 5.446z" fill="#D8FEE1" stroke="#170728" stroke-miterlimit="10" stroke-linecap="round" stroke-linejoin="round"/><path d="M46.967 177.207v18.391c0 1.692.657 3.31 1.84 4.521 3.247 3.338 10.702 10.125 21.421 14.813 1.018.443 1.665 1.47 1.665 2.579v11.457" stroke="#170728" stroke-miterlimit="10" stroke-linecap="round" stroke-linejoin="round"/><path d="M66.371 200.202c-18.544-10.004-28.07-23.347-30.872-27.766a5.461 5.461 0 01-.842-3.116l.194-6.51c.028-.897 1.193-1.239 1.693-.49 3.607 5.391 13.54 18.16 31.779 27.536.638.323 1.036.98 1.008 1.701l-.213 7.083c-.055 1.368-1.535 2.219-2.747 1.562z" fill="#BEFECD" stroke="#170728" stroke-miterlimit="10" stroke-linecap="round" stroke-linejoin="round"/><path d="M82.557 239.49v10.485c0 1.285-1.286 2.191-2.488 1.738-4.338-1.627-13.707-5.806-22.762-14.359-1.184-1.11-3.116-.287-3.116 1.34v8.59" stroke="#170728" stroke-miterlimit="10" stroke-linecap="round" stroke-linejoin="round"/><path d="M66.371 266.036c-18.544-10.005-28.07-23.347-30.872-27.767a5.459 5.459 0 01-.842-3.116l.194-6.509c.028-.897 1.193-1.239 1.693-.49 3.607 5.39 13.54 18.159 31.779 27.535.638.324 1.036.98 1.008 1.702l-.213 7.082c-.055 1.369-1.535 2.219-2.747 1.563z" fill="#BEFECD" stroke="#170728" stroke-miterlimit="10" stroke-linecap="round" stroke-linejoin="round"/><path d="M115.418 277.612v-8.608a3.698 3.698 0 00-2.626-3.542c-3.237-.971-9.24-3.097-16.676-7.286a3.71 3.71 0 01-1.887-3.227v-7.166" stroke="#170728" stroke-miterlimit="10" stroke-linecap="round" stroke-linejoin="round"/><path d="M89.586 265.398c7.02 4.013 26.85 14.008 52.691 15.857.971.074 1.73.869 1.73 1.84v8.978a1.853 1.853 0 01-1.979 1.85c-26.323-1.933-46.356-12.307-52.913-16.107a4.609 4.609 0 01-2.294-3.995v-6.814c.009-1.424 1.535-2.312 2.765-1.609z" fill="#BEFECD" stroke="#170728" stroke-miterlimit="10" stroke-linecap="round" stroke-linejoin="round"/><path d="M112.968 223.327v10.661a1.85 1.85 0 01-2.303 1.794c-4.051-1.036-12.829-3.578-21.125-7.961-1.23-.647-2.71.231-2.71 1.627v8.192" stroke="#170728" stroke-miterlimit="10" stroke-linecap="round" stroke-linejoin="round"/><path d="M89.586 204.261c7.02 4.013 26.85 14.008 52.691 15.857.971.074 1.73.87 1.73 1.84v8.979a1.852 1.852 0 01-1.979 1.849c-26.323-1.933-46.356-12.307-52.913-16.107a4.609 4.609 0 01-2.294-3.995v-6.814c.009-1.424 1.535-2.321 2.765-1.609z" fill="#BEFECD" stroke="#170728" stroke-miterlimit="10" stroke-linecap="round" stroke-linejoin="round"/><path d="M63.578 231.39c3.626 3.476 15.326 13.037 41.352 21.59a1.714 1.714 0 002.257-1.627v-7.305a1.71 1.71 0 00-1.193-1.627c-23.835-7.693-35.932-16.283-40.899-20.564-1.11-.952-2.82-.157-2.82 1.304v5.141c0 1.174.47 2.283 1.303 3.088zm143.58-11.844a29.511 29.511 0 00-8.407-1.202c-4.957 0-9.619 1.202-13.623 3.31-8.167 4.281-13.67 12.297-13.67 21.479 0 1.193.092 2.358.277 3.504 1.869 12.039 13.254 21.285 27.016 21.285 5.309 0 10.267-1.378 14.456-3.763 7.714-4.374 12.847-12.159 12.847-21.026 0-11.031-7.936-20.379-18.896-23.587zm1.591 38.122c-2.895 1.655-6.326 2.607-9.998 2.607-9.526 0-17.397-6.407-18.692-14.729a14.984 14.984 0 01-.194-2.422c0-6.353 3.801-11.9 9.462-14.85 2.774-1.461 5.993-2.293 9.424-2.293 2.026 0 3.977.287 5.809.832 7.593 2.219 13.078 8.682 13.078 16.311 0 6.139-3.552 11.52-8.889 14.544z" fill="#ABE5B9" stroke="#170728" stroke-miterlimit="10" stroke-linecap="round" stroke-linejoin="round"/><path d="M209.203 243.124c0 3.393-1.961 6.37-4.912 8.044a11.237 11.237 0 01-5.53 1.433c-5.272 0-9.619-3.541-10.341-8.146a9.008 9.008 0 01-.102-1.341c0-3.504 2.109-6.574 5.226-8.22a11.244 11.244 0 015.217-1.266c1.128 0 2.21.166 3.218.462 4.181 1.248 7.224 4.827 7.224 9.034z" fill="#BEFECD" stroke="#170728" stroke-miterlimit="10" stroke-linecap="round" stroke-linejoin="round"/><path d="M189.327 228.274l-4.199-6.629m-5.069 23.901l-8.324 1.082m41.472 17.522l-4.458-6.482m-1.591-38.132l-2.598 7.277" stroke="#170728" stroke-miterlimit="10" stroke-linecap="round" stroke-linejoin="round"/><path d="M209.905 286.646H186.45a3.532 3.532 0 110-7.064h23.455a3.532 3.532 0 110 7.064zm13.245 13.804h-38.3a3.532 3.532 0 110-7.064h38.3a3.532 3.532 0 013.533 3.532 3.52 3.52 0 01-3.533 3.532z" fill="#BEFECD" stroke="#170728" stroke-miterlimit="10" stroke-linecap="round" stroke-linejoin="round"/><path d="M269.616 205.408c0 2.727-.508 5.473-1.526 8.155a27.99 27.99 0 01-3.126 5.881c-3.209 4.641-8.055 8.987-14.567 12.741a59.34 59.34 0 01-3.718 1.979v-32.076c-1.174.157-2.349.296-3.533.444a328.383 328.383 0 01-18.202 1.646c-6.909.434-13.864.656-20.828.656-6.641 0-13.217-.194-19.728-.573a319.86 319.86 0 01-19.562-1.729c-6.03-.712-11.977-1.6-17.822-2.644l-.463-.084a221.265 221.265 0 01-6.779-1.313 1.99 1.99 0 01-.259-.046c.037-.12.083-.24.12-.36 1.674-4.938 5.068-9.728 10.183-14.046 2.257-1.904 4.865-3.717 7.797-5.418a65.596 65.596 0 013.579-1.914c6.872-3.421 14.678-5.89 22.9-7.388 13.393-2.459 27.886-2.376 41.204.259 7.723 1.517 15.048 3.902 21.532 7.129 1.23.61 2.423 1.248 3.579 1.914 2.932 1.701 5.531 3.514 7.788 5.428 5.115 4.308 8.518 9.089 10.192 14.036a22.369 22.369 0 011.239 7.323z" fill="#F2FFF5" stroke="#170728" stroke-miterlimit="10" stroke-linecap="round" stroke-linejoin="round"/><path d="M269.616 205.408v28.062c0 2.728-.508 5.483-1.526 8.155-2.608 6.833-8.499 13.324-17.693 18.622a58.308 58.308 0 01-3.718 1.979v-28.062a59.34 59.34 0 003.718-1.979c6.512-3.754 11.358-8.1 14.567-12.741a27.99 27.99 0 003.126-5.881c1.018-2.681 1.526-5.428 1.526-8.155z" fill="#fff" stroke="#170728" stroke-miterlimit="10" stroke-linecap="round" stroke-linejoin="round"/><path d="M261.459 241.302c-3.367 4.124-8.444 7.804-14.78 10.809v-8.719c6.336-3.015 11.413-6.695 14.78-10.809.157-.185.629-.758 1.064-.768 1.47-.055 1.045 6.787-1.064 9.487z" fill="#D8FEE1" stroke="#170728" stroke-miterlimit="10" stroke-linecap="round" stroke-linejoin="round"/><path d="M269.617 162.671c0 2.728-.509 5.483-1.526 8.165a28.083 28.083 0 01-3.126 5.881c-3.21 4.641-8.056 8.987-14.567 12.741-25.62 14.794-67.166 14.794-92.786 0-6.511-3.754-11.367-8.1-14.576-12.741a27.532 27.532 0 01-3.117-5.881 22.744 22.744 0 01-1.526-8.165c0-9.69 6.4-19.38 19.219-26.777 25.62-14.794 67.166-14.794 92.786 0 12.819 7.397 19.219 17.087 19.219 26.777z" fill="#F2FFF5" stroke="#170728" stroke-miterlimit="10" stroke-linecap="round" stroke-linejoin="round"/><path d="M269.616 162.671v28.072c0 2.45-.406 4.919-1.239 7.342-.083.268-.185.545-.287.813-2.608 6.824-8.499 13.315-17.693 18.622a58.308 58.308 0 01-3.718 1.979v-17.411c-1.174.158-2.349.296-3.533.444a328.383 328.383 0 01-18.202 1.646c-6.909.435-13.864.656-20.828.656-6.641 0-13.217-.194-19.728-.573a319.07 319.07 0 01-19.562-1.729 303.54 303.54 0 01-17.822-2.644c-.158-.028-.306-.056-.463-.083a227.483 227.483 0 01-6.779-1.313c-.056-.139-.093-.278-.139-.407a22.528 22.528 0 01-1.239-7.342v-28.072c0 2.728.508 5.483 1.526 8.165.758 1.988 1.803 3.967 3.117 5.881.221.314.453.638.684.952.472.629.98 1.248 1.507 1.868.269.314.546.619.824.924.249.268.499.527.758.795.074.074.148.148.222.232.231.231.472.471.721.702.204.194.417.389.62.583.463.434.943.85 1.443 1.267.287.24.573.48.869.712.287.24.592.471.888.702.305.231.62.463.934.694.213.157.435.314.657.471.231.167.472.333.721.5.232.157.463.314.694.462.296.203.592.398.897.582.694.444 1.406.87 2.137 1.295 25.629 14.785 67.166 14.785 92.794 0a58.756 58.756 0 002.137-1.295c.305-.184.601-.379.897-.582.425-.277.851-.564 1.267-.86a51.552 51.552 0 002.321-1.72c.25-.194.5-.397.74-.601.148-.111.287-.231.426-.351.342-.296.684-.583 1.008-.879.259-.231.527-.471.777-.712a.15.15 0 00.046-.037.727.727 0 01.028-.027c.027-.028.046-.056.074-.074.259-.25.518-.5.767-.758.028-.019.056-.047.084-.074.074-.084.148-.158.222-.232.259-.268.508-.527.758-.795.277-.305.555-.61.823-.924a39.66 39.66 0 001.508-1.868c.231-.314.462-.638.684-.952a28.212 28.212 0 003.126-5.881c1.018-2.682 1.526-5.437 1.526-8.165z" fill="#fff" stroke="#170728" stroke-miterlimit="10" stroke-linecap="round" stroke-linejoin="round"/><path d="M164.826 202.532a303.54 303.54 0 01-17.822-2.644c-.093-.093-.185-.194-.278-.296-1.619-1.877-2.155-5.446-2.118-7.249.018-.86.231-3.486 2.118-1.47 4.005 4.438 10.026 8.321 17.499 11.373.203.083.407.185.601.286zm96.633-3.957c-3.367 4.114-8.444 7.794-14.78 10.809v-7.296c-1.174.158-2.349.296-3.533.444a7.539 7.539 0 011.591-.989c7.242-3.162 13.022-7.157 16.722-11.697.157-.185.629-.749 1.064-.767 1.47-.046 1.045 6.787-1.064 9.496z" fill="#ABE5B9" stroke="#170728" stroke-miterlimit="10" stroke-linecap="round" stroke-linejoin="round"/><path d="M269.616 119.944c0 2.728-.508 5.483-1.526 8.165a28.205 28.205 0 01-3.126 5.88c-3.209 4.642-8.055 8.988-14.567 12.742-25.619 14.794-67.165 14.794-92.785 0-6.511-3.754-11.367-8.1-14.576-12.742a27.526 27.526 0 01-3.117-5.88 22.744 22.744 0 01-1.526-8.165c0-9.69 6.4-19.38 19.219-26.777 25.62-14.794 67.166-14.794 92.785 0 12.819 7.397 19.219 17.087 19.219 26.777z" fill="#F2FFF5" stroke="#170728" stroke-miterlimit="10" stroke-linecap="round" stroke-linejoin="round"/><path d="M269.616 119.944v28.063c0 2.727-.508 5.483-1.526 8.164-2.598 6.824-8.49 13.315-17.693 18.622-25.619 14.794-67.165 14.794-92.785 0-9.203-5.307-15.103-11.798-17.693-18.622a22.739 22.739 0 01-1.526-8.164v-28.063c0 2.728.508 5.483 1.526 8.165a27.74 27.74 0 003.117 5.88c3.209 4.642 8.065 8.988 14.576 12.742 25.62 14.794 67.166 14.794 92.785 0 6.512-3.754 11.367-8.1 14.567-12.742a27.983 27.983 0 003.126-5.88c1.018-2.691 1.526-5.437 1.526-8.165z" fill="#fff" stroke="#170728" stroke-miterlimit="10" stroke-linecap="round" stroke-linejoin="round"/><path d="M164.225 159.509c-7.473-3.042-13.494-6.935-17.499-11.373-1.887-2.016-2.1.619-2.118 1.47-.037 1.803.499 5.372 2.118 7.249 4.005 4.438 10.026 8.331 17.499 11.373 3.32 1.267 5.577-1.341 4.088-4.715-.592-1.35-1.979-3.116-4.088-4.004z" fill="#ABE5B9" stroke="#170728" stroke-miterlimit="10" stroke-linecap="round" stroke-linejoin="round"/><path d="M219.83 165.464c-5.494.739-11.293 1.1-17.259 1.054a122.509 122.509 0 01-12.847-.777c-5.151-.49-7.066 3.31-4.522 6.371.749.897 2.136 2.034 4.522 2.358 4.135.471 8.435.739 12.847.776 5.975.056 11.765-.314 17.259-1.054 5.17-.804 7.084-5.806 4.097-7.915-.721-.517-2.016-1.072-4.097-.813z" fill="#D8FEE1" stroke="#170728" stroke-miterlimit="10" stroke-linecap="round" stroke-linejoin="round"/><path d="M261.468 147.119c-3.709 4.531-9.48 8.535-16.722 11.697-4.366 2.015-6.049 7.776-2.608 8.941 1.147.388 2.21-.056 2.608-.213 7.251-3.171 13.022-7.166 16.722-11.696 2.109-2.7 2.525-9.542 1.064-9.496-.444.009-.916.573-1.064.767z" fill="#ABE5B9" stroke="#170728" stroke-miterlimit="10" stroke-linecap="round" stroke-linejoin="round"/><path d="M269.616 77.208c0 2.727-.508 5.483-1.526 8.164a28.212 28.212 0 01-3.126 5.88c-3.209 4.642-8.055 8.988-14.567 12.742-25.619 14.794-67.165 14.794-92.785 0-6.511-3.754-11.367-8.1-14.576-12.741a27.525 27.525 0 01-3.117-5.88 22.74 22.74 0 01-1.526-8.165c0-9.69 6.4-19.38 19.219-26.777 25.62-14.795 67.166-14.795 92.785 0 12.819 7.397 19.219 17.087 19.219 26.777z" fill="#F2FFF5" stroke="#170728" stroke-miterlimit="10" stroke-linecap="round" stroke-linejoin="round"/><path d="M269.616 77.208v28.062c0 2.728-.508 5.483-1.526 8.165-2.598 6.823-8.49 13.314-17.693 18.622-25.619 14.794-67.165 14.794-92.785 0-9.203-5.308-15.103-11.799-17.693-18.622a22.744 22.744 0 01-1.526-8.165V77.208c0 2.727.508 5.483 1.526 8.164a27.745 27.745 0 003.117 5.88c3.209 4.642 8.065 8.988 14.576 12.742 25.62 14.794 67.166 14.794 92.785 0 6.512-3.754 11.367-8.1 14.567-12.741a27.983 27.983 0 003.126-5.88c1.018-2.682 1.526-5.438 1.526-8.165z" fill="#fff" stroke="#170728" stroke-miterlimit="10" stroke-linecap="round" stroke-linejoin="round"/><path d="M164.225 116.782c-7.473-3.042-13.494-6.935-17.499-11.373-1.887-2.016-2.1.619-2.118 1.47-.037 1.803.499 5.372 2.118 7.249 4.005 4.438 10.026 8.331 17.499 11.373 3.32 1.267 5.577-1.341 4.088-4.716-.592-1.359-1.979-3.125-4.088-4.003z" fill="#D8FEE1" stroke="#170728" stroke-miterlimit="10" stroke-linecap="round" stroke-linejoin="round"/><path d="M219.83 122.737c-5.494.739-11.293 1.1-17.259 1.054a122.509 122.509 0 01-12.847-.777c-5.151-.49-7.066 3.31-4.522 6.371.749.897 2.136 2.034 4.522 2.358 4.135.471 8.435.739 12.847.776 5.975.056 11.765-.314 17.259-1.054 5.17-.804 7.084-5.807 4.097-7.915-.721-.517-2.016-1.072-4.097-.813zm41.638-18.354c-3.709 4.53-9.48 8.534-16.722 11.696-4.366 2.016-6.049 7.776-2.608 8.941 1.147.389 2.21-.055 2.608-.212 7.251-3.172 13.022-7.166 16.722-11.697 2.109-2.7 2.525-9.542 1.064-9.496-.444.019-.916.583-1.064.768z" fill="#ABE5B9" stroke="#170728" stroke-miterlimit="10" stroke-linecap="round" stroke-linejoin="round"/><path d="M253.801 56.006c0 2.025-.379 4.06-1.138 6.038-1.924 5.049-6.28 9.857-13.087 13.777-18.96 10.948-49.694 10.948-68.655 0-6.807-3.92-11.172-8.728-13.087-13.777-.758-1.988-1.138-4.013-1.138-6.038 0-7.166 4.736-14.331 14.225-19.815 18.961-10.947 49.695-10.947 68.655 0 9.48 5.483 14.225 12.65 14.225 19.815z" fill="#D8FEE1" stroke="#170728" stroke-miterlimit="10" stroke-linecap="round" stroke-linejoin="round"/><path d="M222.355 56.293L204.763 46.14m-8.305 4.79l17.591 10.152m-8.315 4.799L188.143 55.73" stroke="#170728" stroke-miterlimit="10" stroke-linecap="round"/><path d="M253.801 56.006v15.257c0 7.165-4.745 14.331-14.225 19.814-18.96 10.948-49.694 10.948-68.655 0-9.489-5.474-14.224-12.64-14.224-19.814V56.006c0 2.025.379 4.06 1.137 6.038 1.915 5.048 6.28 9.856 13.087 13.777 18.961 10.948 49.695 10.948 68.655 0 6.807-3.92 11.163-8.729 13.087-13.777.759-1.988 1.138-4.013 1.138-6.038z" fill="#ABE5B9" stroke="#170728" stroke-miterlimit="10" stroke-linecap="round" stroke-linejoin="round"/></svg>