<svg width="335" height="337" fill="none" xmlns="http://www.w3.org/2000/svg"><path d="M334 280.117a3.088 3.088 0 01-1.557 2.692l-91.769 52.943a9.362 9.362 0 01-9.34 0l-91.777-52.943a3.09 3.09 0 01-1.557-2.692c0-1.05.522-2.1 1.557-2.699l91.777-52.943a9.362 9.362 0 019.34 0l91.769 52.943a3.09 3.09 0 011.557 2.699z" fill="#211737"/><path d="M334 245.117a3.088 3.088 0 01-1.557 2.692l-91.769 52.943a9.362 9.362 0 01-9.34 0l-91.777-52.943a3.09 3.09 0 01-1.557-2.692c0-1.05.522-2.1 1.557-2.699l91.777-52.943a9.362 9.362 0 019.34 0l91.769 52.943a3.09 3.09 0 011.557 2.699z" fill="#D8FEE1" stroke="#170728" stroke-miterlimit="10" stroke-linecap="round" stroke-linejoin="round"/><path d="M334 245.117v16.209a3.087 3.087 0 01-1.557 2.691l-91.769 52.944a9.362 9.362 0 01-9.34 0l-91.777-52.944a3.09 3.09 0 01-1.557-2.691v-16.209a3.09 3.09 0 001.557 2.691l91.777 52.944a9.362 9.362 0 009.34 0l91.769-52.944a3.087 3.087 0 001.557-2.691z" fill="#ABE5B9" stroke="#170728" stroke-miterlimit="10" stroke-linecap="round" stroke-linejoin="round"/><path d="M309.318 209.884c0 .778-.389 1.563-1.168 2.014l-68.651 39.613a7.013 7.013 0 01-6.99 0l-68.659-39.613a2.311 2.311 0 01-1.168-2.014c0-.786.389-1.571 1.168-2.022l68.659-39.613a7.013 7.013 0 016.99 0l68.651 39.613a2.331 2.331 0 011.168 2.022z" fill="#fff" stroke="#4C917E" stroke-miterlimit="10" stroke-linecap="round" stroke-linejoin="round"/><path d="M309.318 209.884v35.327c0 .778-.389 1.563-1.168 2.014l-68.651 39.612a7.008 7.008 0 01-6.99 0l-68.659-39.612a2.311 2.311 0 01-1.168-2.014v-35.327c0 .778.389 1.563 1.168 2.014l68.659 39.613a7.013 7.013 0 006.99 0l68.651-39.613a2.328 2.328 0 001.168-2.014z" fill="#ABE5B9" stroke="#170728" stroke-miterlimit="10" stroke-linecap="round" stroke-linejoin="round"/><path d="M334 57.89a3.09 3.09 0 01-1.557 2.692l-91.769 52.943a9.362 9.362 0 01-9.34 0l-91.777-52.943A3.09 3.09 0 01138 57.89c0-1.05.522-2.1 1.557-2.7l91.777-52.943a9.36 9.36 0 019.34 0l91.769 52.944A3.092 3.092 0 01334 57.89z" fill="#fff" stroke="#170728" stroke-miterlimit="10" stroke-linecap="round" stroke-linejoin="round"/><path d="M334 57.89v150.641a3.09 3.09 0 01-1.557 2.691l-91.769 52.943a9.357 9.357 0 01-9.34 0l-91.777-52.943a3.09 3.09 0 01-1.557-2.691V57.891a3.09 3.09 0 001.557 2.69l91.777 52.944a9.357 9.357 0 009.34 0l91.769-52.943A3.09 3.09 0 00334 57.89z" fill="#D8FEE1" stroke="#170728" stroke-miterlimit="10" stroke-linecap="round" stroke-linejoin="round"/><path d="M206.364 146.417c0 5.266-1.354 9.388-3.666 12.157a10.786 10.786 0 01-2.678 2.325l-.576.335c-4.078 2.201-9.628 1.796-15.754-1.735-12.524-7.225-22.674-24.795-22.674-39.238 0-7.164 2.499-12.219 6.547-14.615a11.192 11.192 0 013.743-1.369c3.557-.63 7.815.265 12.384 2.901 12.516 7.218 22.674 24.788 22.674 39.239z" fill="#fff" stroke="#170728" stroke-miterlimit="10" stroke-linecap="round" stroke-linejoin="round"/><path d="M195.611 154.078c5.737-3.309 5.017-15.287-1.607-26.751-6.625-11.465-16.645-18.076-22.382-14.767-5.737 3.31-5.017 15.287 1.607 26.752 6.625 11.465 16.645 18.076 22.382 14.766z" fill="#D8FEE1" stroke="#170728" stroke-miterlimit="10" stroke-linecap="round" stroke-linejoin="round"/><path d="M212.98 142.583c0 7.046-2.413 12.048-6.336 14.49l-.545.319-6.079 3.5a11.152 11.152 0 002.678-2.326c2.319-2.769 3.666-6.891 3.666-12.157 0-14.451-10.15-32.021-22.674-39.238-4.569-2.637-8.827-3.539-12.384-2.902-1.354.242-2.607.7-3.744 1.369l6.507-3.756.226-.133c4.102-2.356 9.761-2.006 16.011 1.595 12.524 7.233 22.674 24.795 22.674 39.239z" fill="#ABE5B9" stroke="#170728" stroke-miterlimit="10" stroke-linecap="round" stroke-linejoin="round"/><path d="M183.69 144.768c-2.646-1.524-4.647-5.436-4.188-8.174l2.413-14.335c.156-.902.903-1.197 1.775-.692.872.506 1.619 1.657 1.775 2.738l2.413 17.127c.459 3.259-1.541 4.861-4.188 3.336z" fill="#BEFECD" stroke="#170728" stroke-miterlimit="10" stroke-linecap="round" stroke-linejoin="round"/><path d="M184.927 142.255c.722-.416.72-1.77-.004-3.024-.725-1.253-1.897-1.932-2.619-1.515-.723.416-.721 1.77.003 3.024.725 1.254 1.898 1.932 2.62 1.515zm29.306 101.097l-54.47-31.422c-2.903-1.68-5.262-6.176-5.262-10.049v-43.26c0-3.874 2.359-5.655 5.262-3.975l54.47 31.422c2.903 1.68 5.262 6.176 5.262 10.049v43.26c0 3.866-2.359 5.647-5.262 3.975z" fill="#fff" stroke="#170728" stroke-miterlimit="10" stroke-linecap="round" stroke-linejoin="round"/><path d="M169.586 170.948v-1.68c0-1.003-.708-2.232-1.58-2.73l-5.667-3.266c-.871-.506-1.579-.094-1.579.91v11.869c0 1.003.708 2.232 1.579 2.73l14.494 8.361c.871.505 1.58.093 1.58-.91v-6.541c0-1.004-.709-2.233-1.58-2.73l-5.667-3.267c-.872-.514-1.58-1.742-1.58-2.746z" fill="#F2FFF5" stroke="#170728" stroke-miterlimit="10" stroke-linecap="round" stroke-linejoin="round"/><path d="M204.41 191.038v-1.68c0-1.003-.708-2.232-1.58-2.73l-5.667-3.266c-.871-.506-1.58-.094-1.58.91v11.869c0 1.003.709 2.232 1.58 2.73l14.494 8.361c.871.505 1.58.093 1.58-.91v-6.541c0-1.004-.709-2.233-1.58-2.73l-5.667-3.267c-.872-.513-1.58-1.734-1.58-2.746z" fill="#ABE5B9" stroke="#170728" stroke-miterlimit="10" stroke-linecap="round" stroke-linejoin="round"/><path d="M184.25 186.092l5.496 3.173m-1.409.809l1.409-.809-1.409-2.442m20.915 27.012l3.985 2.295m-24.9-14.366l16.501 9.52m-33.617-19.39l12.36 7.124m-22.821-13.16l4.343 2.505m34.839 28.094l13.295 7.668m-33.805-19.499l15.56 8.968m-34.232-19.748l13.854 7.996m35.183 28.287l3.44 1.991m-24.9-14.365l16.976 9.793m-35.727-20.612l13.995 8.074m-22.821-13.168l3.595 2.077" stroke="#170728" stroke-miterlimit="10" stroke-linecap="round" stroke-linejoin="round"/><path d="M326.38 169.549l-82.763 47.747v-7.326l76.412-44.085 6.351 3.664z" fill="#ABE5B9" stroke="#170728" stroke-miterlimit="10" stroke-linecap="round" stroke-linejoin="round"/><path d="M326.38 162.222v7.327l-6.351-3.664 6.351-3.663z" fill="#72987B" stroke="#170728" stroke-miterlimit="10" stroke-linecap="round" stroke-linejoin="round"/><path d="M326.38 143.555l-22.526 12.997-60.237 34.751v-7.319l76.419-44.1 6.344 3.671z" fill="#ABE5B9" stroke="#170728" stroke-miterlimit="10" stroke-linecap="round" stroke-linejoin="round"/><path d="M326.38 136.236v7.319l-6.344-3.671 6.344-3.648z" fill="#72987B" stroke="#170728" stroke-miterlimit="10" stroke-linecap="round" stroke-linejoin="round"/><path d="M326.38 117.57l-22.518 12.981-60.245 34.766v-7.326l76.412-44.085 6.351 3.664z" fill="#ABE5B9" stroke="#170728" stroke-miterlimit="10" stroke-linecap="round" stroke-linejoin="round"/><path d="M326.38 110.243v7.327l-6.351-3.664 6.351-3.663z" fill="#72987B" stroke="#170728" stroke-miterlimit="10" stroke-linecap="round" stroke-linejoin="round"/><path d="M326.38 91.576l-22.526 12.997-60.237 34.751v-14.07a6.232 6.232 0 013.113-5.39l41.822-24.119 22.525-12.996 15.303 8.827z" fill="#ABE5B9" stroke="#170728" stroke-miterlimit="10" stroke-linecap="round" stroke-linejoin="round"/><path d="M326.38 77.965v13.611l-15.303-8.828 11.8-6.805c1.557-.903 3.503.225 3.503 2.022z" fill="#72987B" stroke="#170728" stroke-miterlimit="10" stroke-linecap="round" stroke-linejoin="round"/><path d="M303.854 104.573l22.526-12.997v18.667l-6.352 3.663-76.412 44.085v-18.667l60.238-34.751zm.008 25.977l22.518-12.981v18.667l-6.344 3.648-76.419 44.1v-18.667l60.245-34.767zm-.008 26.002l22.526-12.997v18.667l-6.352 3.663-76.412 44.084v-18.666l60.238-34.751z" fill="#6CB597" stroke="#4C917E" stroke-miterlimit="10" stroke-linecap="round" stroke-linejoin="round"/><path d="M243.617 217.296l82.763-47.748v32.737a6.215 6.215 0 01-3.113 5.39l-76.148 43.921c-1.556.902-3.502-.225-3.502-2.022v-32.278z" fill="#72987B" stroke="#170728" stroke-miterlimit="10" stroke-linecap="round" stroke-linejoin="round"/><path d="M326.38 91.576v18.667l-6.352 3.663-76.412 44.085v-18.667l60.238-34.751 22.526-12.997z" fill="#fff" stroke="#170728" stroke-miterlimit="10" stroke-linecap="round" stroke-linejoin="round"/><path d="M268.812 138.188l-16.571 9.559c-1.113.646-2.024-.039-2.024-1.524v-2.746c0-1.485.903-3.22 2.024-3.858l16.571-9.558c1.121-.646 2.024.038 2.024 1.524v2.746c0 1.485-.911 3.212-2.024 3.857z" fill="#BEFECD" stroke="#170728" stroke-miterlimit="10" stroke-linecap="round" stroke-linejoin="round"/><path d="M259.744 139.355l6.912-3.99m-12.913 7.452l1.954-1.129" stroke="#170728" stroke-miterlimit="10" stroke-linecap="round" stroke-linejoin="round"/><path d="M316.712 104.905c.522-.904.523-1.881.002-2.181-.521-.301-1.367.188-1.89 1.092-.522.904-.523 1.881-.002 2.181.522.301 1.368-.188 1.89-1.092zm-5.347 3.085c.522-.904.523-1.88.002-2.181-.521-.301-1.367.188-1.889 1.092-.523.904-.524 1.881-.002 2.181.521.301 1.367-.188 1.889-1.092zm-16.051 9.258c.523-.904.524-1.88.002-2.181-.521-.301-1.367.188-1.889 1.092-.522.904-.523 1.881-.002 2.182.521.3 1.367-.189 1.889-1.093zm21.396-6.921c.522-.903.523-1.88.002-2.181-.522-.3-1.367.189-1.89 1.093-.522.904-.523 1.88-.002 2.181.521.301 1.367-.189 1.89-1.093zm-10.694 6.171c.522-.904.523-1.881.002-2.181-.521-.301-1.367.188-1.89 1.092-.522.904-.523 1.881-.002 2.181.522.301 1.368-.188 1.89-1.092zm-5.347 3.085c.522-.904.523-1.881.002-2.181-.521-.301-1.367.188-1.889 1.092-.523.904-.524 1.88-.002 2.181.521.301 1.367-.188 1.889-1.092zm-5.357 3.088c.522-.904.523-1.881.002-2.182-.521-.3-1.367.189-1.889 1.093-.523.904-.524 1.88-.003 2.181.522.301 1.368-.189 1.89-1.092z" fill="#4C917E"/><path d="M326.38 117.569v18.667l-6.344 3.648-76.419 44.1v-18.667l60.245-34.767 22.518-12.981z" fill="#fff" stroke="#170728" stroke-miterlimit="10" stroke-linecap="round" stroke-linejoin="round"/><path d="M268.812 164.174l-16.571 9.559c-1.113.646-2.024-.039-2.024-1.524v-2.746c0-1.485.903-3.22 2.024-3.858l16.571-9.559c1.121-.645 2.024.039 2.024 1.525v2.745c0 1.486-.911 3.22-2.024 3.858z" fill="#BEFECD" stroke="#170728" stroke-miterlimit="10" stroke-linecap="round" stroke-linejoin="round"/><path d="M259.744 165.341l6.912-3.99m-12.913 7.452l1.954-1.129" stroke="#170728" stroke-miterlimit="10" stroke-linecap="round" stroke-linejoin="round"/><path d="M316.708 130.892c.523-.904.524-1.88.002-2.181-.521-.301-1.367.188-1.889 1.092-.522.904-.523 1.881-.002 2.181.521.301 1.367-.188 1.889-1.092zm-10.693 6.171c.522-.904.523-1.881.002-2.182-.521-.3-1.367.189-1.89 1.093-.522.904-.523 1.88-.002 2.181.521.301 1.367-.188 1.89-1.092zm-5.347 3.085c.522-.904.523-1.881.002-2.181-.521-.301-1.367.188-1.889 1.092-.523.904-.524 1.88-.002 2.181.521.301 1.367-.188 1.889-1.092zm16.044-3.829c.523-.904.524-1.881.002-2.182-.521-.3-1.367.189-1.889 1.093-.522.904-.523 1.88-.002 2.181.521.301 1.367-.189 1.889-1.092zm-5.346 3.085c.522-.904.523-1.881.002-2.181-.521-.301-1.367.188-1.89 1.092-.522.904-.523 1.88-.002 2.181.522.301 1.367-.188 1.89-1.092zm-10.701 6.166c.523-.904.524-1.88.002-2.181-.521-.3-1.367.189-1.889 1.092-.522.904-.523 1.881-.002 2.182.521.3 1.367-.189 1.889-1.093zm-5.35 3.092c.522-.903.523-1.88.002-2.181-.522-.3-1.367.189-1.89 1.093-.522.904-.523 1.88-.002 2.181.521.301 1.367-.189 1.89-1.093z" fill="#4C917E"/><path d="M326.38 143.555v18.667l-6.352 3.663-76.412 44.084v-18.666l60.238-34.751 22.526-12.997z" fill="#fff" stroke="#170728" stroke-miterlimit="10" stroke-linecap="round" stroke-linejoin="round"/><path d="M268.812 190.167l-16.571 9.559c-1.113.646-2.024-.039-2.024-1.524v-2.746c0-1.485.903-3.22 2.024-3.858l16.571-9.558c1.121-.646 2.024.038 2.024 1.524v2.746c0 1.485-.911 3.212-2.024 3.857z" fill="#BEFECD" stroke="#170728" stroke-miterlimit="10" stroke-linecap="round" stroke-linejoin="round"/><path d="M259.744 191.326l6.912-3.982m-12.913 7.452l1.954-1.136" stroke="#170728" stroke-miterlimit="10" stroke-linecap="round" stroke-linejoin="round"/><path d="M316.711 156.883c.523-.904.524-1.88.002-2.181-.521-.3-1.367.189-1.889 1.093-.522.903-.523 1.88-.002 2.181.521.301 1.367-.189 1.889-1.093zm-16.047 9.252c.522-.904.523-1.881.002-2.181-.521-.301-1.367.188-1.889 1.092-.523.904-.524 1.88-.002 2.181.521.301 1.367-.188 1.889-1.092zm-5.351 3.092c.523-.904.524-1.881.002-2.181-.521-.301-1.367.188-1.889 1.092-.522.904-.523 1.88-.002 2.181.521.301 1.367-.188 1.889-1.092zm21.396-6.921c.522-.904.523-1.88.002-2.181-.522-.301-1.367.188-1.89 1.092-.522.904-.523 1.881-.002 2.181.521.301 1.367-.188 1.89-1.092zm-5.347 3.085c.522-.904.523-1.881.002-2.181-.521-.301-1.367.188-1.89 1.092-.522.904-.523 1.88-.001 2.181.521.301 1.367-.188 1.889-1.092zm-5.347 3.085c.522-.904.523-1.88.002-2.181-.521-.301-1.367.188-1.889 1.092-.523.904-.524 1.881-.002 2.181.521.301 1.367-.188 1.889-1.092zm-10.704 6.173c.522-.904.523-1.88.002-2.181-.521-.301-1.367.188-1.889 1.092-.523.904-.524 1.881-.003 2.182.522.3 1.368-.189 1.89-1.093z" fill="#4C917E"/><path d="M326.38 169.548v18.667l-82.763 47.748v-18.667l82.763-47.748z" fill="#fff" stroke="#170728" stroke-miterlimit="10" stroke-linecap="round" stroke-linejoin="round"/><path d="M268.812 216.153l-16.571 9.559c-1.113.645-2.024-.039-2.024-1.525v-2.745c0-1.486.903-3.22 2.024-3.858l16.571-9.559c1.121-.646 2.024.039 2.024 1.524v2.746c0 1.485-.911 3.22-2.024 3.858z" fill="#BEFECD" stroke="#170728" stroke-miterlimit="10" stroke-linecap="round" stroke-linejoin="round"/><path d="M259.744 217.32l6.912-3.99m-12.913 7.451l1.954-1.128" stroke="#170728" stroke-miterlimit="10" stroke-linecap="round" stroke-linejoin="round"/><path d="M316.708 182.871c.522-.904.523-1.881.002-2.181-.522-.301-1.367.188-1.89 1.092-.522.904-.523 1.88-.002 2.181.521.301 1.367-.188 1.89-1.092zm-10.694 6.17c.522-.904.523-1.881.002-2.181-.521-.301-1.367.188-1.889 1.092-.523.904-.524 1.881-.002 2.181.521.301 1.367-.188 1.889-1.092zm-5.346 3.085c.522-.904.523-1.88.002-2.181-.522-.301-1.368.188-1.89 1.092-.522.904-.523 1.881-.002 2.182.521.3 1.367-.189 1.89-1.093zm10.697-.744c.523-.904.523-1.88.002-2.181-.521-.3-1.367.189-1.889 1.092-.522.904-.523 1.881-.002 2.182.521.3 1.367-.189 1.889-1.093zm-5.353 3.082c.522-.904.523-1.881.002-2.181-.522-.301-1.367.188-1.89 1.092-.522.904-.523 1.88-.002 2.181.521.301 1.367-.188 1.89-1.092zm-10.698 6.177c.523-.904.523-1.881.002-2.181-.521-.301-1.367.188-1.889 1.092-.522.904-.523 1.88-.002 2.181.521.301 1.367-.188 1.889-1.092z" fill="#4C917E"/><path d="M246.706 28.763l7.963-4.597m30.356 26.701l7.971-4.596m-12.758 1.835l7.963-4.596m-12.75 1.835l7.963-4.597m-12.757 1.828l7.962-4.596m-12.749 1.835l7.962-4.596m-12.757 1.835l7.97-4.597m-12.757 1.828l7.963-4.589m-12.758 1.828l7.971-4.597m-80.46 40.896l7.963-4.597m30.356 26.701l7.963-4.596m-12.75 1.835l7.963-4.596m-12.758 1.835l7.971-4.596m-12.757 1.827l7.962-4.596m-12.757 1.835l7.97-4.597m-12.757 1.836l7.963-4.596m-12.758 1.827l7.971-4.589m-12.758 1.828l7.963-4.597m54.952-37.224l7.963-4.597m30.356 26.701l7.971-4.596m-12.758 1.835l7.963-4.596m-12.75 1.835l7.963-4.597m-12.757 1.828l7.962-4.596m-12.749 1.835l7.962-4.596m-12.757 1.835l7.97-4.597m-12.757 1.828l7.963-4.589m-12.758 1.828l7.971-4.597m-80.46 40.896l7.963-4.597m30.356 26.701l7.963-4.596m-12.75 1.835l7.963-4.596m-12.758 1.835l7.971-4.596m-12.757 1.827l7.962-4.596m-12.757 1.835l7.97-4.597m-12.757 1.836l7.963-4.596m-12.758 1.827l7.971-4.589m-12.758 1.828l7.963-4.597" stroke="#170728" stroke-miterlimit="10" stroke-linecap="round" stroke-linejoin="round"/><path d="M290.201 50.844c0 .801-.49 1.579-1.486 2.154l-.039.024-51.738 29.843c-2.203 1.268-6.04 1.112-8.586-.35L183.9 56.864a9.357 9.357 0 01-.576-.373c-1.012-.731-1.526-1.595-1.526-2.427 0-.801.491-1.571 1.487-2.147l51.777-29.866c2.203-1.268 6.04-1.113 8.585.35L288.1 48.05c1.385.794 2.101 1.813 2.101 2.793z" fill="#D8FEE1" stroke="#170728" stroke-miterlimit="10" stroke-linecap="round" stroke-linejoin="round"/><path d="M290.201 50.844v4.597c0 .8-.49 1.579-1.487 2.154l-51.776 29.867c-2.203 1.267-6.04 1.112-8.586-.35L183.9 61.46c-1.385-.794-2.102-1.82-2.102-2.8v-4.597c0 .832.514 1.703 1.526 2.427.179.132.366.248.576.373l44.452 25.651c2.546 1.462 6.383 1.626 8.586.35l51.738-29.843.038-.023c.997-.584 1.487-1.354 1.487-2.155z" fill="#ABE5B9" stroke="#170728" stroke-miterlimit="10" stroke-linecap="round" stroke-linejoin="round"/><path d="M203.188 53.768c1.26 0 2.281-.589 2.281-1.314 0-.726-1.021-1.315-2.281-1.315-1.26 0-2.281.589-2.281 1.315 0 .725 1.021 1.314 2.281 1.314zm8.204-4.736c1.26 0 2.281-.59 2.281-1.315 0-.726-1.021-1.314-2.281-1.314-1.259 0-2.28.588-2.28 1.314 0 .726 1.021 1.315 2.28 1.315zm8.204-4.729c1.26 0 2.281-.588 2.281-1.314 0-.726-1.021-1.315-2.281-1.315-1.26 0-2.281.589-2.281 1.315s1.021 1.314 2.281 1.314zm8.196-4.729c1.26 0 2.281-.589 2.281-1.315s-1.021-1.314-2.281-1.314c-1.26 0-2.281.588-2.281 1.314 0 .726 1.021 1.315 2.281 1.315zm8.204-4.737c1.26 0 2.281-.588 2.281-1.314 0-.726-1.021-1.315-2.281-1.315-1.259 0-2.28.589-2.28 1.315s1.021 1.314 2.28 1.314zm-24.604 23.66c1.26 0 2.281-.588 2.281-1.314 0-.726-1.021-1.315-2.281-1.315-1.259 0-2.28.589-2.28 1.315s1.021 1.314 2.28 1.314zm8.204-4.729c1.26 0 2.281-.589 2.281-1.314 0-.726-1.021-1.315-2.281-1.315-1.26 0-2.281.589-2.281 1.315 0 .725 1.021 1.314 2.281 1.314zm8.196-4.736c1.26 0 2.281-.59 2.281-1.315 0-.726-1.021-1.314-2.281-1.314-1.26 0-2.281.588-2.281 1.314 0 .726 1.021 1.315 2.281 1.315zm8.204-4.729c1.26 0 2.281-.588 2.281-1.314 0-.726-1.021-1.315-2.281-1.315-1.259 0-2.28.589-2.28 1.315s1.021 1.314 2.28 1.314zm8.204-4.729c1.26 0 2.281-.589 2.281-1.315s-1.021-1.314-2.281-1.314c-1.259 0-2.281.588-2.281 1.314 0 .726 1.022 1.315 2.281 1.315zm-24.604 23.66c1.26 0 2.281-.589 2.281-1.315s-1.021-1.314-2.281-1.314c-1.26 0-2.281.588-2.281 1.314 0 .726 1.021 1.315 2.281 1.315zm8.196-4.737c1.26 0 2.281-.588 2.281-1.314 0-.726-1.021-1.315-2.281-1.315-1.26 0-2.281.589-2.281 1.315s1.021 1.314 2.281 1.314zm8.204-4.729c1.26 0 2.281-.589 2.281-1.314 0-.726-1.021-1.315-2.281-1.315-1.259 0-2.28.589-2.28 1.315 0 .725 1.021 1.314 2.28 1.314zm8.204-4.736c1.26 0 2.281-.59 2.281-1.315 0-.726-1.021-1.314-2.281-1.314-1.259 0-2.281.588-2.281 1.314 0 .726 1.022 1.315 2.281 1.315zm8.204-4.729c1.26 0 2.281-.588 2.281-1.314 0-.726-1.021-1.315-2.281-1.315-1.26 0-2.281.589-2.281 1.315s1.021 1.314 2.281 1.314zm-24.612 23.66c1.26 0 2.281-.589 2.281-1.315s-1.021-1.314-2.281-1.314c-1.26 0-2.281.588-2.281 1.314 0 .726 1.021 1.315 2.281 1.315zm8.204-4.729c1.26 0 2.281-.589 2.281-1.315s-1.021-1.314-2.281-1.314c-1.259 0-2.28.588-2.28 1.314 0 .726 1.021 1.315 2.28 1.315zm8.204-4.737c1.26 0 2.281-.588 2.281-1.314 0-.726-1.021-1.315-2.281-1.315-1.259 0-2.281.589-2.281 1.315s1.022 1.314 2.281 1.314zm8.204-4.729c1.26 0 2.281-.589 2.281-1.314 0-.726-1.021-1.315-2.281-1.315-1.26 0-2.281.589-2.281 1.315 0 .725 1.021 1.314 2.281 1.314zm8.204-4.736c1.259 0 2.281-.59 2.281-1.315 0-.726-1.022-1.314-2.281-1.314-1.26 0-2.281.588-2.281 1.314 0 .726 1.021 1.315 2.281 1.315zM235.996 72.7c1.26 0 2.281-.589 2.281-1.315s-1.021-1.314-2.281-1.314c-1.259 0-2.28.588-2.28 1.314 0 .726 1.021 1.314 2.28 1.314zm8.204-4.737c1.26 0 2.281-.589 2.281-1.315s-1.021-1.314-2.281-1.314c-1.259 0-2.281.588-2.281 1.314 0 .726 1.022 1.315 2.281 1.315zm8.204-4.729c1.26 0 2.281-.589 2.281-1.315s-1.021-1.314-2.281-1.314c-1.26 0-2.281.588-2.281 1.314 0 .726 1.021 1.315 2.281 1.315zm8.204-4.737c1.259 0 2.281-.588 2.281-1.314 0-.726-1.022-1.315-2.281-1.315-1.26 0-2.281.589-2.281 1.315s1.021 1.314 2.281 1.314zm8.204-4.729c1.259 0 2.281-.589 2.281-1.314 0-.726-1.022-1.315-2.281-1.315-1.26 0-2.281.589-2.281 1.315 0 .725 1.021 1.314 2.281 1.314z" fill="#170728"/><path d="M259.876 261.357v5.927m5.2-8.929v5.934m5.199-8.928v5.927m5.192-8.93v5.927m5.199-8.921v5.926m5.2-8.928v5.926m5.2-8.921v5.927m-78.234 12.063v5.927m-5.199-8.929v5.934m-5.2-8.928v5.927m-5.2-8.93v5.927m-5.191-8.921v5.926m-5.2-8.928v5.926m-5.199-8.921v5.927m113.524 28.117l-19.7 11.363m34.832-20.09l-7.675 4.433" stroke="#170728" stroke-miterlimit="10" stroke-linecap="round" stroke-linejoin="round"/><path d="M176.89 279.855c.759-.438.758-1.861-.003-3.177-.761-1.317-1.993-2.03-2.753-1.591-.759.438-.758 1.86.003 3.177s1.993 2.029 2.753 1.591zm-10.358-5.973c.759-.438.758-1.861-.003-3.178-.761-1.316-1.993-2.029-2.753-1.591-.759.439-.758 1.861.003 3.178s1.993 2.029 2.753 1.591zm-10.362-5.98c.759-.438.758-1.861-.003-3.178s-1.993-2.029-2.753-1.591c-.759.438-.758 1.861.003 3.178s1.993 2.029 2.753 1.591z" fill="#170728"/><path d="M14.447 280.936c0 1.273.63 2.547 1.89 3.277l54.209 31.267a11.364 11.364 0 0011.356 0l54.209-31.267a3.75 3.75 0 001.889-3.269v-.008c0-1.274-.63-2.547-1.889-3.27l-54.209-31.274a11.403 11.403 0 00-11.356 0l-54.21 31.274a3.742 3.742 0 00-1.889 3.27z" fill="#211737"/><path d="M14.447 241.453c0 1.274.63 2.547 1.89 3.277l54.209 31.267a11.364 11.364 0 0011.356 0l54.209-31.267a3.75 3.75 0 001.889-3.269v-.008c0-1.274-.63-2.547-1.889-3.27l-54.209-31.274a11.403 11.403 0 00-11.356 0l-54.21 31.274a3.742 3.742 0 00-1.889 3.27z" fill="#D8FEE1" stroke="#170728" stroke-miterlimit="10" stroke-linecap="round" stroke-linejoin="round"/><path d="M14.447 241.46v20.705c0 1.266.638 2.547 1.89 3.27l54.209 31.274a11.403 11.403 0 0011.356 0l54.209-31.274a3.708 3.708 0 001.423-1.437 3.824 3.824 0 00.466-1.833V241.46c0 1.266-.63 2.548-1.889 3.27l-54.209 31.267a11.364 11.364 0 01-11.356 0l-54.21-31.267a3.75 3.75 0 01-1.889-3.27z" fill="#ABE5B9" stroke="#170728" stroke-miterlimit="10" stroke-linecap="round" stroke-linejoin="round"/><path d="M41.086 211.809c0 .723.357 1.453 1.072 1.864l14.886 8.582 15.942 9.195a6.483 6.483 0 006.46 0l15.942-9.195 14.885-8.582a2.13 2.13 0 001.073-1.864c0-.73-.357-1.452-1.073-1.864l-30.827-17.784a6.478 6.478 0 00-6.46 0l-30.828 17.784a2.16 2.16 0 00-1.072 1.864z" fill="#fff" stroke="#170728" stroke-miterlimit="10" stroke-linecap="round" stroke-linejoin="round"/><path d="M33.5 237.36c0 .878.435 1.763 1.305 2.268l37.49 21.621a7.833 7.833 0 007.85 0l37.49-21.621a2.595 2.595 0 001.306-2.268l-.42-1.421-7.167-24.122c0 .722-.357 1.452-1.073 1.864l-14.885 8.582-15.942 9.195a6.483 6.483 0 01-6.46 0l-15.942-9.195-14.886-8.582a2.134 2.134 0 01-1.072-1.864l-7.167 24.122-.428 1.421z" fill="#ABE5B9" stroke="#170728" stroke-miterlimit="10" stroke-linecap="round" stroke-linejoin="round"/><path d="M61.04 210.225c0 .629.116 1.266.357 1.887.598 1.576 1.966 3.083 4.096 4.31 5.93 3.417 15.546 3.417 21.47 0 2.129-1.227 3.49-2.726 4.096-4.31a5.374 5.374 0 00.357-1.887c0-2.237-1.485-4.481-4.446-6.19-5.931-3.417-15.546-3.417-21.47 0-2.976 1.709-4.46 3.953-4.46 6.19z" fill="#F2FFF5" stroke="#170728" stroke-miterlimit="10" stroke-linecap="round" stroke-linejoin="round"/><path d="M71.727 183.936V210.1c0 .148.039.295.109.435.179.365.583.715 1.213.994 1.756.785 4.601.785 6.358 0 .63-.279 1.034-.629 1.205-.994a.972.972 0 00.109-.435v-26.164a.972.972 0 01-.11.435c-.17.365-.575.707-1.204.994-1.757.784-4.602.784-6.358 0-.63-.287-1.034-.629-1.213-.994a.974.974 0 01-.109-.435z" fill="#D8FEE1" stroke="#170728" stroke-miterlimit="10" stroke-linecap="round" stroke-linejoin="round"/><path d="M71.727 155.147v28.789c0 .148.039.295.109.435.179.365.583.707 1.213.994 1.756.785 4.601.785 6.358 0 .63-.287 1.034-.629 1.205-.994a.972.972 0 00.109-.435v-28.789h-8.994z" fill="#72987B" stroke="#170728" stroke-miterlimit="10" stroke-linecap="round" stroke-linejoin="round"/><path d="M18.894 157.811c.202.256.427.497.653.745 9.833 11.106 24.19 18.111 40.194 18.111 29.623 0 53.642-23.997 53.642-53.61a53.33 53.33 0 00-12.204-34.039c-.008-.023-.031-.031-.039-.054a50.157 50.157 0 00-1.686-1.942 1.03 1.03 0 01-.125-.14c-4.228-4.38-9.957-7.51-17.007-8.907-23.42-4.614-52.523 11.82-64.99 36.718-8.333 16.627-7.136 32.82 1.562 43.118z" fill="#D8FEE1" stroke="#170728" stroke-miterlimit="10" stroke-linecap="round" stroke-linejoin="round"/><path d="M18.894 157.811c-8.698-10.298-9.895-26.491-1.57-43.118 12.46-24.89 41.562-41.324 64.99-36.719 7.05 1.398 12.772 4.528 17.008 8.908.039.054.085.093.124.14a26.52 26.52 0 011.687 1.941c.008.024.031.032.039.055 8.154 10.321 9.118 26.149.979 42.395-12.475 24.907-41.562 41.348-64.99 36.727-7.4-1.46-13.347-4.839-17.622-9.576-.217-.256-.443-.497-.645-.753z" fill="#fff" stroke="#170728" stroke-miterlimit="10" stroke-linecap="round" stroke-linejoin="round"/><path d="M63.745 104.317c1.795-.171 3.56-.108 5.262.225 2.891.575 5.247 1.864 6.988 3.658.015.031.03.039.054.055.241.264.474.536.684.8 0 .015.016.015.016.031 3.35 4.232 3.746 10.733.404 17.404-5.122 10.22-17.07 16.977-26.685 15.082-3.047-.606-5.488-1.989-7.237-3.938a2.508 2.508 0 01-.264-.311c-3.016-3.549-3.832-8.83-1.966-14.476a20.74 20.74 0 011.32-3.223c4.23-8.41 13.068-14.484 21.424-15.307z" fill="#D8FEE1" stroke="#170728" stroke-miterlimit="10" stroke-linecap="round" stroke-linejoin="round"/><path d="M58.506 104.294c1.391-.132 2.759-.086 4.073.171 2.238.442 4.057 1.444 5.41 2.834.007.024.023.031.046.047.187.21.366.412.529.621 0 .008.008.008.008.024 2.596 3.277 2.899 8.309.318 13.474-3.964 7.906-13.214 13.14-20.653 11.672-2.355-.466-4.244-1.537-5.604-3.052-.078-.077-.14-.155-.21-.24-2.332-2.742-2.962-6.835-1.523-11.207.264-.823.598-1.662 1.018-2.493 3.28-6.516 10.12-11.214 16.588-11.851z" fill="#fff" stroke="#170728" stroke-miterlimit="10" stroke-linecap="round" stroke-linejoin="round"/><path d="M3.519 60.524l10.369 13.56 35.422 46.278c1.788 2.346 5.145 2.788 7.493 1.002a5.352 5.352 0 00.995-7.486 4.36 4.36 0 00-.435-.497l-40.925-41.51L4.452 59.715a7.729 7.729 0 00-.933.808z" fill="#98CBA4" stroke="#170728" stroke-miterlimit="10" stroke-linecap="round" stroke-linejoin="round"/><path d="M1 66.613c0 4.753 3.856 8.605 8.613 8.605a8.563 8.563 0 004.275-1.127 8.622 8.622 0 002.55-2.213c.373-.458.684-.97.948-1.499a8.715 8.715 0 00.855-3.759A8.615 8.615 0 009.613 58a8.63 8.63 0 00-3.762.862c-.49.249-.972.536-1.4.862a7.249 7.249 0 00-.94.808 8.597 8.597 0 00-2.51 6.08z" fill="#BEFECD" stroke="#170728" stroke-miterlimit="10" stroke-linecap="round" stroke-linejoin="round"/><path d="M13.74 66.605a4.115 4.115 0 00-4.119-4.117M55.07 228.149l-4.236 14.181m-4.983-14.911l7.034 7.906" stroke="#170728" stroke-miterlimit="10" stroke-linecap="round" stroke-linejoin="round"/><path d="M45.851 230.533a3.115 3.115 0 110-6.228 3.115 3.115 0 110 6.228z" fill="#BEFECD" stroke="#170728" stroke-miterlimit="10" stroke-linecap="round" stroke-linejoin="round"/><path d="M30.623 264.767c0 1.631-.497 2.796-1.313 3.37l-.016.016-.342.194-4.617 2.648c.583-.404 1.003-1.118 1.197-2.073.085-.396.124-.839.124-1.313 0-3.168-1.935-6.857-4.314-8.24a3.638 3.638 0 00-.42-.217c-.839-.373-1.616-.396-2.238-.086l4.804-2.772.077-.039c.739-.381 1.695-.318 2.736.28 2.387 1.366 4.322 5.055 4.322 8.232z" fill="#F2FFF5" stroke="#170728" stroke-miterlimit="10" stroke-linecap="round" stroke-linejoin="round"/><path d="M25.664 267.609c0 .474-.039.917-.124 1.313-.195.955-.614 1.67-1.197 2.073-.024.024-.055.055-.086.063l-.218.124c-.738.357-1.67.279-2.689-.303-2.394-1.39-4.314-5.079-4.314-8.24 0-1.631.513-2.811 1.321-3.386a.164.164 0 01.055-.039l.28-.155c.621-.303 1.399-.28 2.238.085.14.062.28.124.42.218 2.378 1.39 4.314 5.079 4.314 8.247z" fill="#FDFBFF" stroke="#170728" stroke-miterlimit="10" stroke-linecap="round" stroke-linejoin="round"/><path d="M46.006 273.69c0 1.631-.497 2.796-1.313 3.37l-.016.016-.342.194-4.617 2.648c.583-.403 1.002-1.118 1.197-2.073.085-.396.124-.839.124-1.313 0-3.168-1.935-6.857-4.314-8.24a3.645 3.645 0 00-.42-.217c-.84-.373-1.617-.396-2.238-.086l4.803-2.772.078-.039c.739-.38 1.695-.318 2.736.28 2.387 1.367 4.322 5.056 4.322 8.232z" fill="#F2FFF5" stroke="#170728" stroke-miterlimit="10" stroke-linecap="round" stroke-linejoin="round"/><path d="M41.047 276.525a6.3 6.3 0 01-.125 1.312c-.194.956-.614 1.67-1.197 2.074-.023.023-.054.054-.085.062l-.218.124c-.738.358-1.671.28-2.69-.303-2.393-1.39-4.313-5.079-4.313-8.239 0-1.631.513-2.812 1.321-3.387.016-.015.023-.023.054-.038l.28-.156c.622-.303 1.4-.279 2.239.086.14.062.28.124.42.217 2.378 1.39 4.314 5.079 4.314 8.248z" fill="#FDFBFF" stroke="#170728" stroke-miterlimit="10" stroke-linecap="round" stroke-linejoin="round"/><path d="M113.103 265.66l17.544-10.127m-9.188 11.556l9.188-5.297" stroke="#170728" stroke-miterlimit="10" stroke-linecap="round" stroke-linejoin="round"/><path d="M52.248 213.634c-1.742 0-3.155-.817-3.155-1.825s1.413-1.825 3.155-1.825c1.743 0 3.156.817 3.156 1.825s-1.413 1.825-3.156 1.825zm23.972 13.273c-1.742 0-3.155-.817-3.155-1.825s1.413-1.825 3.155-1.825c1.743 0 3.156.817 3.156 1.825s-1.413 1.825-3.156 1.825zm25.301-13.273c-1.742 0-3.155-.817-3.155-1.825s1.413-1.825 3.155-1.825c1.743 0 3.156.817 3.156 1.825s-1.413 1.825-3.156 1.825z" fill="#170728"/><path d="M96.197 232.017c0 .807.108 1.646.326 2.485.513 1.918 1.524 3.44 2.76 4.38 1.235.932 2.689 1.266 4.073.777 1.375-.49 2.417-1.701 2.992-3.278.575-1.576.676-3.494.171-5.413-.513-1.918-1.523-3.448-2.767-4.38-1.236-.94-2.689-1.266-4.065-.784-1.384.489-2.418 1.708-2.993 3.285a8.509 8.509 0 00-.497 2.928z" fill="#ACE4C2" stroke="#170728" stroke-miterlimit="10" stroke-linecap="round" stroke-linejoin="round"/><path d="M102.967 232.949l-4.197-.87" stroke="#170728" stroke-miterlimit="10" stroke-linecap="round" stroke-linejoin="round"/></svg>