<svg width="362" height="382" fill="none" xmlns="http://www.w3.org/2000/svg"><path d="M352.911 340.948l-68.706 39.861a1.716 1.716 0 01-1.73 0l-37.887-21.918a1.718 1.718 0 00-1.731 0l-31.251 18.056a1.711 1.711 0 01-1.739-.009L6.753 258.065c-1.185-.693-1.133-2.425.096-3.04l31.078-15.726-32.03-21.286 61.342-41.29 285.429 151.4c5.079 2.702 5.218 9.941.243 12.825z" fill="#211737"/><path d="M1 181.876v14.549l282.34 163.159v-14.548L1 181.876z" fill="#D8FEE1" stroke="#170728" stroke-miterlimit="10" stroke-linecap="round" stroke-linejoin="round"/><path d="M1 46.324v135.552l282.34 163.159V209.484c0-14.419-10.105-31.955-22.59-39.16L66.314 57.962 23.582 33.266c-5.72-3.3-10.945-3.871-14.916-2.113-.727.32-1.41.71-2.05 1.186C3.12 34.91 1 39.716 1 46.324z" fill="#fff" stroke="#170728" stroke-miterlimit="10" stroke-linecap="round" stroke-linejoin="round"/><path d="M280.969 196.442c1.523 4.382 2.371 8.841 2.371 13.033v135.552l77.504-44.78a21.106 21.106 0 00-.328-1.923c-6.403-28.768-18.213-82.103-24.468-108.36-1.48-6.209-2.976-14.107-5.762-22.03l-49.317 28.508zm32.93-53.267c3.426 2.719 6.255 5.846 8.626 9.206 3.417 4.858 5.875 10.209 7.743 15.561l-49.307 28.5c-1.869-5.395-4.742-10.695-8.263-15.276-2.682-3.499-5.753-6.573-9.05-8.963l50.251-29.028z" fill="#F2FFF5" stroke="#170728" stroke-miterlimit="10" stroke-linecap="round" stroke-linejoin="round"/><path d="M284.327 177.208l29.572-17.094" stroke="#170728" stroke-miterlimit="10" stroke-linecap="round" stroke-linejoin="round"/><path d="M8.665 31.152c3.98-1.758 9.198-1.187 14.916 2.113l27.54 15.908 5.624 3.247 9.577 5.534 164.613 95.128 2.812 1.628 2.812 1.619 24.199 13.986a31.942 31.942 0 012.899 1.897l50.25-29.037a37.5 37.5 0 00-2.716-1.983l-24.209-13.994-2.811-1.628-2.812-1.62L107.16 23.28l-2.812-1.628-2.812-1.62L74.023 4.125C68.303.825 63.078.262 59.107 2.02l-2.025 1.17L8.666 31.151z" fill="#fff" stroke="#170728" stroke-miterlimit="10" stroke-linecap="round" stroke-linejoin="round"/><path d="M36.36 71.22v78.103c0 4.677 2.847 3.664 6.343 5.69L237.38 267.504c3.504 2.027 6.342 5.196 6.342.52v-76.969c0-4.676-2.847-10.114-6.342-12.141L45.116 67.809l-2.405-1.395c-3.504-2.026-6.35.13-6.35 4.807z" fill="#F2FFF5" stroke="#170728" stroke-miterlimit="10" stroke-linecap="round" stroke-linejoin="round"/><path d="M45.108 67.809v70.343c0 4.677 2.846 10.115 6.342 12.141l192.264 111.106v-70.344c0-4.676-2.846-10.115-6.342-12.141L45.108 67.809z" fill="#F2FFF5" stroke="#170728" stroke-miterlimit="10" stroke-linecap="round" stroke-linejoin="round"/><path d="M45.108 90.108v49.179c0 4.053 2.846 8.98 6.342 11.006l192.264 111.106v-34.587c-27.825-3.949-42.438-64.603-63.064-55.172-11.828 4.2-20.047 10.955-32.212-10.331-12.164-21.286-25.895-45.655-38.38-36.285-9.829 7.387-19.233 8.357-28.43-5.629-8.393-12.782-14.388-29.816-36.52-29.287z" fill="#BEFECD" stroke="#170728" stroke-miterlimit="10" stroke-linecap="round" stroke-linejoin="round"/><path d="M45.108 107.427v31.868c0 4.053 2.846 8.98 6.342 11.007l192.264 111.105v-14.089c-7.847-.624-19.787-4.997-30.715-22.793-18.013-29.339-24.407-36.821-43.242-27.746-16.275 7.837-31.113-30.179-43.736-39.93-12.614-9.751-25.367 13.457-44.549-11.085-18.17-23.277-19.536-38.389-36.364-38.337z" fill="#ABE5B9" stroke="#170728" stroke-miterlimit="10" stroke-linecap="round" stroke-linejoin="round"/><path d="M15.352 72.296c-.866-2.038-.634-4.088.518-4.579 1.152-.49 2.788.764 3.654 2.802.867 2.037.635 4.087-.517 4.578-1.152.49-2.788-.764-3.655-2.801zm244.69 141.557c-.866-2.038-.635-4.088.517-4.578 1.152-.491 2.788.763 3.655 2.801.866 2.037.635 4.087-.517 4.578-1.152.491-2.789-.764-3.655-2.801zm-.003 98.303c-.866-2.037-.634-4.087.518-4.578 1.152-.49 2.788.764 3.654 2.801.866 2.038.635 4.088-.517 4.578-1.152.491-2.788-.763-3.655-2.801zM15.35 166.606c-.867-2.037-.635-4.087.517-4.578 1.152-.49 2.788.764 3.655 2.801.866 2.038.634 4.088-.518 4.578-1.152.491-2.788-.763-3.654-2.801zm188.686 147.99c.623.364 1.462.069 1.877-.667l.753-1.316c.416-.727.251-1.611-.372-1.974l-5.632-3.291c-.623-.364-1.462-.069-1.878.658l-.752 1.316c-.416.728-.251 1.62.372 1.983l5.632 3.291zm-11.256-6.59c.623.364 1.462.07 1.877-.667l.753-1.316c.415-.727.251-1.611-.372-1.974l-5.632-3.291c-.623-.364-1.463-.069-1.878.658l-.753 1.316c-.415.728-.251 1.62.372 1.984l5.633 3.29zm-11.256-6.59c.614.364 1.462.069 1.877-.667l.753-1.316c.415-.728.242-1.611-.372-1.975l-16.889-9.889c-.614-.364-1.462-.069-1.877.658l-.753 1.316c-.415.728-.242 1.62.372 1.984l16.889 9.889zm-22.521-13.18c.622.364 1.47.069 1.886-.658l.752-1.317c.416-.727.243-1.61-.38-1.974l-5.633-3.291c-.623-.364-1.462-.069-1.877.658l-.753 1.317c-.415.727-.251 1.619.372 1.983l5.633 3.282zm-11.257-6.591c.623.364 1.462.07 1.878-.666l.752-1.317c.416-.727.251-1.61-.372-1.974l-5.632-3.291c-.623-.363-1.462-.069-1.878.658l-.752 1.317c-.416.727-.251 1.619.372 1.983l5.632 3.29zm-11.265-6.581c.623.364 1.462.069 1.878-.667l.752-1.316c.416-.727.251-1.611-.372-1.974l-5.632-3.291c-.623-.364-1.462-.069-1.877.658l-.753 1.316c-.416.728-.251 1.62.372 1.983l5.632 3.291zm-11.256-6.59c.614.364 1.462.069 1.878-.667l.752-1.316c.416-.727.243-1.611-.372-1.975l-5.632-3.29c-.623-.364-1.471-.069-1.878.658l-.752 1.316c-.416.728-.251 1.62.38 1.983l5.624 3.291zm-11.265-6.59c.623.364 1.471.069 1.886-.658l.753-1.316c.415-.728.242-1.611-.381-1.975l-16.888-9.881c-.623-.363-1.462-.069-1.878.658l-.752 1.317c-.416.727-.252 1.619.371 1.983l16.889 9.872zm-22.512-13.18c.623.363 1.462.069 1.877-.667l.753-1.316c.415-.728.25-1.611-.372-1.975l-5.633-3.291c-.623-.363-1.462-.069-1.877.659l-.753 1.316c-.415.727-.25 1.619.372 1.983l5.633 3.291zm-11.256-6.59c.614.363 1.462.069 1.877-.667l.753-1.316c.415-.728.242-1.611-.372-1.975l-5.633-3.291c-.623-.363-1.47-.069-1.877.658l-.753 1.317c-.415.727-.242 1.619.38 1.983l5.625 3.291zM57.67 228.933c.623.364 1.471.07 1.887-.658l.752-1.316c.416-.727.243-1.611-.38-1.975l-5.633-3.29c-.623-.364-1.462-.07-1.877.658l-.753 1.316c-.415.728-.25 1.62.372 1.983l5.633 3.282zm-11.256-6.59c.623.364 1.462.069 1.877-.667l.753-1.316c.415-.727.251-1.611-.372-1.974l-5.632-3.291c-.623-.364-1.462-.069-1.878.658l-.752 1.317c-.416.727-.251 1.619.372 1.982l5.632 3.291zm-11.264-6.59c.622.364 1.461.069 1.877-.667l.752-1.316c.416-.727.251-1.611-.372-1.974l-5.632-3.291c-.623-.364-1.462-.07-1.877.658l-.753 1.316c-.416.728-.251 1.62.372 1.983l5.632 3.291zm-11.257-6.581c.614.364 1.462.069 1.877-.667l.753-1.316c.416-.728.242-1.611-.372-1.975l-5.632-3.29c-.623-.364-1.471-.07-1.878.658l-.752 1.316c-.416.727-.243 1.619.38 1.983l5.624 3.291zm184.651 97.509c.622.364 1.462.069 1.877-.658l.753-1.316c.415-.728.251-1.611-.372-1.975l-5.633-3.29c-.623-.364-1.462-.07-1.877.658l-.753 1.316c-.415.727-.251 1.611.372 1.974l5.633 3.291zm-11.257-6.59c.623.364 1.462.069 1.878-.658l.753-1.317c.415-.727.251-1.61-.372-1.974l-5.633-3.291c-.623-.363-1.462-.069-1.878.658l-.752 1.317c-.415.727-.251 1.61.372 1.974l5.632 3.291zm-11.256-6.582c.615.364 1.462.07 1.878-.658l.752-1.316c.416-.727.243-1.611-.371-1.974l-5.633-3.291c-.623-.364-1.462-.078-1.878.658l-.752 1.316c-.415.728-.242 1.611.38 1.975l5.624 3.29zm-11.265-6.589c.615.363 1.463.069 1.878-.659l.752-1.316c.416-.727.243-1.611-.372-1.974l-5.632-3.3c-.614-.363-1.462-.069-1.877.658l-.753 1.317c-.415.727-.243 1.61.372 1.974l5.632 3.3zm-11.256-6.591c.623.364 1.462.078 1.878-.658l.752-1.316c.416-.728.243-1.611-.38-1.975l-16.889-9.881c-.623-.363-1.462-.069-1.877.659l-.753 1.316c-.416.727-.251 1.611.372 1.974l16.897 9.881zm-22.521-13.18c.623.364 1.462.069 1.877-.658l.753-1.316c.415-.728.251-1.611-.372-1.975l-5.632-3.29c-.623-.364-1.462-.07-1.878.658l-.753 1.316c-.415.727-.251 1.611.372 1.974l5.633 3.291zm-11.256-6.59c.614.363 1.462.069 1.877-.658l.753-1.317c.415-.727.242-1.61-.372-1.974l-5.633-3.291c-.622-.364-1.462-.078-1.877.658l-.753 1.317c-.415.727-.242 1.61.381 1.974l5.624 3.291zm-11.265-6.59c.623.364 1.462.078 1.877-.658l.753-1.317c.415-.727.242-1.61-.381-1.974l-5.632-3.291c-.614-.363-1.462-.069-1.877.659l-.753 1.316c-.416.727-.242 1.61.372 1.974l5.641 3.291zm-11.256-6.59c.623.363 1.462.069 1.877-.658l.753-1.317c.415-.727.251-1.61-.372-1.974l-5.633-3.291c-.623-.364-1.462-.069-1.877.658l-.753 1.316c-.415.728-.251 1.611.372 1.975l5.633 3.291zm-11.257-6.59c.623.363 1.463.069 1.878-.659l.752-1.316c.416-.727.251-1.611-.372-1.974l-5.632-3.291c-.623-.364-1.462-.069-1.877.658l-.753 1.316c-.416.728-.251 1.611.372 1.975l5.632 3.291zM84.7 234.207c.614.364 1.461.069 1.877-.658l.752-1.316c.416-.728.243-1.611-.372-1.975l-5.632-3.291c-.623-.363-1.462-.077-1.877.659l-.753 1.316c-.416.727-.242 1.611.38 1.974l5.624 3.291zm-15.765 1.316c.615.364 1.462.07 1.878-.667l5.251-9.222c.416-.728.243-1.611-.372-1.975l-5.632-3.299c-.614-.364-1.462-.069-1.877.658l-5.252 9.223c-.416.727-.251 1.619.372 1.983l5.632 3.299zm-6.757-14.496c.623.364 1.462.078 1.877-.658l.753-1.317c.416-.727.242-1.61-.38-1.974l-5.633-3.291c-.623-.363-1.462-.069-1.877.659l-.753 1.316c-.415.727-.25 1.61.372 1.974l5.641 3.291zm-11.265-6.59c.623.364 1.462.069 1.878-.658l.753-1.317c.415-.727.25-1.61-.373-1.974l-5.632-3.291c-.623-.364-1.462-.069-1.878.658l-.752 1.317c-.416.727-.251 1.61.372 1.974l5.632 3.291zm-11.256-6.59c.623.363 1.462.069 1.877-.659l.753-1.316c.415-.727.25-1.611-.372-1.974l-16.889-9.881c-.622-.364-1.462-.078-1.877.658l-.753 1.316c-.415.728-.242 1.611.38 1.975l16.88 9.881zm173.386 90.928c.622.363 1.462.069 1.877-.659l.753-1.316c.415-.727.251-1.619-.372-1.983l-16.889-9.881c-.623-.364-1.462-.069-1.877.667l-.753 1.316c-.415.728-.251 1.611.372 1.975l16.889 9.881zm-22.513-13.172c.614.364 1.462.069 1.878-.658l.752-1.316c.416-.728.251-1.62-.372-1.983l-5.632-3.291c-.623-.364-1.471-.069-1.886.658l-.753 1.316c-.415.728-.242 1.611.381 1.975l5.632 3.299zm-11.256-6.59c.614.364 1.462.069 1.878-.658l.752-1.316c.416-.728.243-1.62-.372-1.983l-5.632-3.3c-.614-.363-1.462-.069-1.878.667l-.752 1.316c-.416.728-.243 1.611.372 1.975l5.632 3.299zm-22.521-13.18c.623.363 1.462.069 1.877-.658l.753-1.317c.415-.727.251-1.619-.372-1.983l-5.632-3.29c-.623-.364-1.463-.07-1.878.666l-.753 1.317c-.415.727-.25 1.61.373 1.974l5.632 3.291zm-11.256-6.59c.623.363 1.462.069 1.877-.659l.753-1.316c.415-.727.251-1.619-.372-1.983l-5.633-3.291c-.623-.363-1.462-.069-1.877.667l-.753 1.316c-.415.728-.251 1.611.372 1.975l5.633 3.291zm-11.265-6.59c.614.363 1.462.069 1.877-.659l.753-1.316c.415-.727.242-1.619-.372-1.983l-5.632-3.291c-.623-.363-1.471-.069-1.887.659l-.752 1.316c-.416.727-.242 1.61.38 1.974l5.633 3.3zm-11.256-6.59c.623.363 1.462.078 1.877-.658l.753-1.317c.415-.727.251-1.619-.381-1.983l-5.632-3.291c-.615-.363-1.462-.069-1.878.667l-.753 1.316c-.415.728-.242 1.611.373 1.975l5.641 3.291zm-11.265-6.591c.623.364 1.462.07 1.877-.658l.753-1.316c.415-.727.251-1.619-.372-1.983l-5.633-3.291c-.623-.363-1.462-.069-1.877.667l-.753 1.316c-.415.728-.251 1.611.372 1.975l5.633 3.29zm-11.257-6.581c.623.364 1.463.069 1.878-.658l.753-1.316c.415-.728.25-1.62-.372-1.984l-5.633-3.29c-.623-.364-1.462-.07-1.877.667l-.753 1.316c-.415.727-.25 1.611.372 1.974l5.632 3.291zm-11.256-6.59c.615.364 1.462.069 1.878-.658l.753-1.317c.415-.727.25-1.619-.373-1.983l-16.888-9.889c-.615-.364-1.462-.07-1.878.667l-.752 1.316c-.416.727-.243 1.611.372 1.974l16.888 9.89zm-22.521-13.18c.623.363 1.462.078 1.877-.659l.753-1.316c.416-.727.251-1.619-.38-1.983l-5.633-3.291c-.623-.364-1.462-.069-1.877.667l-.753 1.316c-.415.728-.251 1.611.372 1.975l5.641 3.291zm-11.257-6.59c.624.363 1.463.069 1.878-.659l.753-1.316c.415-.727.25-1.619-.372-1.983l-5.633-3.291c-.622-.363-1.462-.069-1.877.667l-.753 1.316c-.415.728-.25 1.611.372 1.975l5.633 3.291zm-11.255-6.591c.623.364 1.462.07 1.877-.658l.753-1.316c.415-.727.25-1.619-.372-1.983l-5.633-3.291c-.623-.364-1.462-.069-1.877.667l-.753 1.316c-.415.728-.25 1.611.372 1.975l5.633 3.29zM32.9 193.35c.614.364 1.462.069 1.877-.658l.753-1.316c.415-.728.25-1.62-.372-1.984l-5.633-3.29c-.622-.364-1.47-.069-1.886.658l-.752 1.316c-.416.728-.243 1.611.38 1.975l5.633 3.299zm184.65 97.527c.623.364 1.462.069 1.878-.667l.752-1.316c.416-.727.251-1.611-.372-1.974l-5.632-3.291c-.623-.364-1.462-.069-1.877.658l-.753 1.316c-.416.728-.251 1.62.372 1.983l5.632 3.291zm-11.256-6.59c.623.364 1.462.069 1.878-.667l.752-1.316c.416-.728.251-1.611-.372-1.975l-5.632-3.29c-.623-.364-1.462-.07-1.878.658l-.752 1.316c-.416.727-.251 1.619.372 1.983l5.632 3.291zm-11.265-6.59c.615.364 1.463.069 1.878-.667l.752-1.316c.416-.728.243-1.611-.372-1.975l-5.632-3.29c-.623-.364-1.471-.07-1.877.658l-.753 1.316c-.416.727-.242 1.619.381 1.983l5.623 3.291zm-11.256-6.59c.615.363 1.462.069 1.878-.667l.752-1.316c.416-.728.243-1.611-.372-1.975l-5.632-3.299c-.614-.364-1.462-.07-1.878.658l-.752 1.316c-.416.728-.251 1.62.372 1.983l5.632 3.3zm-15.764 1.316c.623.364 1.462.078 1.878-.658l5.251-9.232c.416-.727.243-1.61-.38-1.974l-5.633-3.291c-.623-.364-1.462-.069-1.877.658l-5.252 9.232c-.415.727-.251 1.61.372 1.974l5.641 3.291zm-6.757-14.497c.623.364 1.462.069 1.877-.667l.753-1.316c.415-.727.251-1.611-.372-1.974l-5.632-3.291c-.623-.364-1.463-.069-1.878.658l-.753 1.316c-.415.728-.25 1.62.373 1.983l5.632 3.291zm-11.256-6.59c.623.364 1.462.069 1.877-.667l.753-1.316c.415-.727.251-1.611-.372-1.974l-5.633-3.291c-.623-.364-1.462-.069-1.877.658l-.753 1.316c-.415.728-.251 1.62.372 1.983l5.633 3.291zm-11.257-6.59c.615.364 1.463.07 1.878-.667l.753-1.316c.415-.727.242-1.611-.373-1.974l-16.888-9.89c-.614-.363-1.462-.069-1.878.658l-.752 1.317c-.416.727-.251 1.619.372 1.983l16.888 9.889zm-22.521-13.171c.623.363 1.463.069 1.878-.667l.753-1.316c.415-.728.25-1.611-.373-1.975l-5.632-3.291c-.623-.363-1.462-.069-1.877.658l-.753 1.317c-.415.727-.251 1.619.372 1.983l5.632 3.291zm-11.256-6.591c.623.364 1.462.07 1.877-.667l.753-1.316c.416-.727.251-1.611-.372-1.974l-5.632-3.291c-.623-.364-1.463-.069-1.878.658l-.752 1.316c-.416.728-.251 1.62.371 1.984l5.633 3.29zm-11.265-6.59c.615.364 1.462.07 1.878-.666l.752-1.317c.416-.727.243-1.61-.371-1.974l-5.633-3.291c-.623-.364-1.47-.069-1.877.658l-.753 1.317c-.415.727-.251 1.619.38 1.983l5.624 3.29zm-11.256-6.59c.614.364 1.462.07 1.877-.667l.753-1.316c.416-.727.243-1.611-.372-1.974l-5.632-3.3c-.614-.363-1.462-.069-1.878.658l-.752 1.317c-.416.727-.243 1.619.372 1.983l5.632 3.299zm-11.265-6.59c.623.364 1.471.069 1.886-.658l.753-1.316c.415-.728.242-1.611-.38-1.975l-16.89-9.881c-.622-.363-1.462-.069-1.877.659l-.752 1.316c-.416.727-.251 1.619.372 1.983l16.888 9.872zm-22.513-13.18c.623.363 1.463.069 1.878-.667l.753-1.316c.415-.728.25-1.611-.372-1.975l-5.633-3.29c-.623-.364-1.462-.07-1.877.658l-.753 1.316c-.415.727-.25 1.619.372 1.983l5.633 3.291zm-11.256-6.59c.615.364 1.463.069 1.878-.667l.753-1.316c.415-.728.242-1.611-.372-1.975l-5.633-3.291c-.623-.363-1.47-.069-1.877.659l-.753 1.316c-.415.727-.25 1.619.38 1.983l5.624 3.291zm184.651 97.518c.623.363 1.462.069 1.878-.658l.752-1.317c.415-.727.251-1.61-.372-1.974l-5.632-3.291c-.623-.363-1.462-.069-1.878.658l-.752 1.317c-.416.727-.251 1.61.372 1.974l5.632 3.291zm-11.265-6.59c.623.364 1.462.069 1.878-.658l.752-1.316c.416-.728.251-1.611-.372-1.975l-5.632-3.291c-.623-.363-1.462-.069-1.878.659l-.752 1.316c-.416.727-.251 1.611.372 1.974l5.632 3.291zm-11.256-6.591c.614.364 1.462.07 1.877-.658l.753-1.316c.415-.727.242-1.611-.372-1.974l-5.632-3.291c-.623-.364-1.463-.078-1.878.658l-.753 1.316c-.415.728-.242 1.611.381 1.975l5.624 3.29zm-11.256-6.581c.614.364 1.462.07 1.877-.658l.753-1.316c.415-.728.242-1.611-.372-1.975l-5.633-3.299c-.614-.364-1.462-.069-1.877.658l-.753 1.316c-.415.728-.242 1.611.372 1.975l5.633 3.299zm-11.265-6.598c.623.363 1.462.077 1.877-.659l.753-1.316c.415-.727.242-1.611-.381-1.974l-16.888-9.881c-.623-.364-1.463-.069-1.878.658l-.753 1.316c-.415.728-.251 1.611.372 1.975l16.898 9.881zm-22.513-13.172c.623.363 1.463.069 1.878-.658l.753-1.317c.415-.727.25-1.61-.373-1.974l-5.632-3.291c-.623-.364-1.462-.069-1.877.658l-.753 1.317c-.415.727-.251 1.61.372 1.974l5.632 3.291zm-11.256-6.591c.614.364 1.462.07 1.878-.658l.752-1.316c.416-.728.243-1.611-.372-1.975l-5.632-3.29c-.623-.364-1.462-.078-1.878.658l-.752 1.316c-.416.728-.243 1.611.38 1.975l5.624 3.29zm-11.265-6.589c.623.363 1.462.078 1.878-.659l.753-1.316c.415-.727.242-1.611-.381-1.974l-5.632-3.291c-.615-.364-1.463-.069-1.878.658l-.753 1.316c-.415.728-.242 1.611.372 1.975l5.641 3.291zm-11.256-6.59c.623.363 1.462.069 1.877-.659l.753-1.316c.415-.727.251-1.611-.372-1.974l-5.632-3.291c-.623-.364-1.463-.069-1.878.658l-.753 1.316c-.415.728-.25 1.611.372 1.975l5.633 3.291zm-11.265-6.591c.623.364 1.462.07 1.877-.658l.753-1.316c.416-.727.251-1.611-.372-1.975l-5.632-3.29c-.623-.364-1.463-.07-1.878.658l-.752 1.316c-.416.728-.251 1.611.372 1.975l5.632 3.29zm-11.256-6.59c.614.364 1.462.07 1.878-.658l.752-1.316c.415-.727.243-1.611-.372-1.975l-5.632-3.29c-.623-.364-1.463-.078-1.878.658l-.752 1.316c-.416.728-.243 1.611.38 1.975l5.624 3.29zm-22.521-13.18c.623.364 1.462.078 1.877-.658l.753-1.316c.415-.728.242-1.611-.38-1.975l-5.633-3.291c-.623-.363-1.462-.069-1.877.659l-.753 1.316c-.416.727-.251 1.611.372 1.974l5.64 3.291zm-11.257-6.582c.623.364 1.463.07 1.878-.658l.753-1.316c.415-.728.25-1.611-.372-1.974l-5.633-3.291c-.623-.364-1.462-.069-1.877.658l-.753 1.316c-.415.728-.251 1.611.372 1.975l5.632 3.29zm-11.256-6.589c.623.363 1.462.069 1.878-.659l.752-1.316c.416-.727.251-1.611-.372-1.974l-16.888-9.881c-.623-.364-1.462-.078-1.878.658l-.752 1.316c-.416.727-.243 1.611.38 1.975l16.88 9.881zm173.386 90.928c.623.363 1.462.069 1.878-.659l.752-1.316c.416-.727.251-1.619-.372-1.983l-5.632-3.291c-.623-.363-1.462-.069-1.878.667l-.752 1.316c-.416.728-.251 1.611.372 1.975l5.632 3.291zm-11.256-6.591c.623.364 1.462.07 1.877-.658l.753-1.316c.415-.728.251-1.62-.372-1.983l-5.632-3.291c-.623-.364-1.463-.069-1.878.667l-.753 1.316c-.415.728-.25 1.611.372 1.975l5.633 3.29zm-11.256-6.581c.614.364 1.462.069 1.877-.658l.753-1.316c.415-.728.242-1.62-.372-1.984l-16.889-9.889c-.614-.364-1.462-.069-1.877.667l-.753 1.316c-.415.727-.242 1.611.372 1.974l16.889 9.89zm-22.522-13.18c.623.363 1.463.078 1.878-.659l.753-1.316c.415-.727.251-1.619-.381-1.983l-5.632-3.291c-.623-.363-1.463-.069-1.878.667l-.753 1.317c-.415.727-.251 1.61.372 1.974l5.641 3.291zm-11.265-6.59c.623.363 1.463.069 1.878-.658l.753-1.317c.415-.727.251-1.619-.372-1.983l-5.633-3.291c-.623-.363-1.462-.069-1.877.667l-.753 1.317c-.415.727-.251 1.61.372 1.974l5.632 3.291zm-11.256-6.591c.623.364 1.462.069 1.878-.658l.753-1.316c.415-.728.25-1.619-.372-1.983l-5.633-3.291c-.623-.364-1.462-.069-1.878.667l-.752 1.316c-.415.728-.251 1.611.372 1.975l5.632 3.29zm-11.256-6.59c.615.364 1.462.07 1.878-.658l.752-1.316c.416-.728.243-1.62-.372-1.983l-5.632-3.291c-.623-.364-1.471-.069-1.886.658l-.753 1.316c-.415.728-.242 1.611.381 1.975l5.632 3.299zm-11.265-6.59c.623.364 1.463.078 1.878-.658l.753-1.316c.415-.728.242-1.62-.381-1.983l-16.889-9.881c-.623-.364-1.462-.069-1.877.667l-.753 1.316c-.415.727-.251 1.611.372 1.974l16.897 9.881zm-22.512-13.18c.623.364 1.462.069 1.877-.658l.753-1.316c.415-.728.251-1.62-.372-1.983l-5.632-3.291c-.623-.364-1.463-.069-1.878.667l-.753 1.316c-.415.727-.251 1.611.372 1.974l5.633 3.291zm-11.257-6.582c.615.364 1.463.07 1.878-.658l.753-1.316c.415-.727.251-1.619-.372-1.983l-5.633-3.291c-.623-.364-1.47-.069-1.886.658l-.753 1.317c-.415.727-.242 1.61.381 1.974l5.632 3.299zm-15.763 1.317c.614.363 1.462.069 1.877-.659l5.252-9.222c.415-.728.25-1.62-.372-1.983l-5.633-3.3c-.614-.363-1.462-.069-1.877.667l-5.252 9.223c-.415.727-.242 1.611.372 1.974l5.633 3.3zm-6.757-14.497c.622.364 1.462.078 1.877-.658l.753-1.316c.415-.728.242-1.619-.38-1.983l-5.633-3.291c-.623-.363-1.462-.069-1.878.667l-.753 1.316c-.415.728-.25 1.611.373 1.975l5.64 3.29zm-11.265-6.59c.622.364 1.462.07 1.877-.658l.753-1.316c.415-.728.25-1.62-.372-1.983l-5.633-3.291c-.623-.364-1.462-.069-1.877.667l-.753 1.316c-.415.727-.25 1.611.372 1.974l5.633 3.291zm-11.257-6.59c.623.364 1.463.069 1.878-.658l.752-1.316c.416-.728.251-1.619-.371-1.983l-5.633-3.291c-.623-.364-1.462-.069-1.877.667l-.753 1.316c-.415.728-.25 1.611.372 1.974l5.632 3.291zm-11.256-6.59c.615.364 1.462.069 1.878-.658l.752-1.317c.416-.727.243-1.619-.372-1.983l-5.632-3.291c-.623-.363-1.47-.069-1.886.659l-.753 1.316c-.415.727-.242 1.611.38 1.974l5.633 3.3z" fill="#170728"/><path d="M4.01 206.375l206.731 120.986 32.324-56.757.658-1.16L36.334 149.618 4.011 206.375z" fill="#fff" stroke="#170728" stroke-miterlimit="10" stroke-linecap="round" stroke-linejoin="round"/><path d="M223.183 267.807l5.632 3.291c.623.364.788 1.247.372 1.983l-.752 1.316c-.416.728-1.255 1.022-1.878.659l-5.632-3.291c-.623-.364-.788-1.247-.372-1.975l.752-1.316c.416-.736 1.255-1.03 1.878-.667zm-11.256-6.59l5.632 3.291c.623.363.787 1.247.372 1.983l-.753 1.316c-.415.728-1.254 1.022-1.877.658l-5.633-3.291c-.622-.363-.787-1.247-.372-1.974l.753-1.316c.415-.727 1.255-1.031 1.878-.667zm-22.522-13.18l16.889 9.889c.614.364.787 1.247.372 1.984l-.753 1.316c-.415.727-1.254 1.022-1.877.658l-16.889-9.89c-.614-.363-.787-1.247-.372-1.974l.753-1.316c.415-.728 1.254-1.031 1.877-.667zm-11.264-6.59l5.632 3.29c.623.364.796 1.256.381 1.983l-.753 1.317c-.415.727-1.255 1.021-1.877.658l-5.633-3.291c-.623-.364-.787-1.247-.372-1.974l.753-1.317c.406-.727 1.246-1.03 1.869-.666zm-11.257-6.582l5.633 3.291c.623.364.787 1.247.372 1.983l-.753 1.316c-.415.728-1.255 1.022-1.878.659l-5.632-3.291c-.623-.364-.787-1.247-.372-1.975l.753-1.316c.415-.736 1.254-1.039 1.877-.667z" fill="#98CBA4" stroke="#170728" stroke-miterlimit="10" stroke-linecap="round" stroke-linejoin="round"/><path d="M155.628 228.275l5.633 3.291c.622.364.787 1.247.372 1.983l-.753 1.316c-.416.727-1.255 1.022-1.878.658l-5.632-3.29c-.623-.364-.787-1.247-.372-1.975l.752-1.316c.416-.736 1.255-1.031 1.878-.667z" fill="#BEFECD" stroke="#170728" stroke-miterlimit="10" stroke-linecap="round" stroke-linejoin="round"/><path d="M144.372 221.685l5.632 3.291c.615.363.788 1.247.372 1.983l-.752 1.316c-.416.728-1.255 1.022-1.878.658l-5.632-3.29c-.623-.364-.796-1.247-.381-1.975l.753-1.316c.415-.736 1.263-1.031 1.886-.667z" fill="#98CBA4" stroke="#170728" stroke-miterlimit="10" stroke-linecap="round" stroke-linejoin="round"/><path d="M121.851 208.505l16.889 9.881c.622.363.795 1.255.38 1.983l-.752 1.316c-.416.727-1.255 1.022-1.878.658l-16.889-9.881c-.623-.363-.787-1.247-.372-1.974l.753-1.316c.407-.736 1.246-1.031 1.869-.667z" fill="#BEFECD" stroke="#170728" stroke-miterlimit="10" stroke-linecap="round" stroke-linejoin="round"/><path d="M110.595 201.915l5.632 3.29c.623.364.787 1.248.372 1.984l-.753 1.316c-.415.727-1.254 1.022-1.877.658l-5.633-3.291c-.623-.363-.787-1.247-.372-1.974l.753-1.316c.415-.728 1.255-1.031 1.878-.667zm-11.265-6.59l5.632 3.29c.615.364.788 1.247.372 1.984l-.752 1.316c-.416.727-1.255 1.022-1.878.658l-5.632-3.291c-.623-.364-.796-1.247-.381-1.974l.753-1.317c.424-.736 1.263-1.03 1.886-.666z" fill="#98CBA4" stroke="#170728" stroke-miterlimit="10" stroke-linecap="round" stroke-linejoin="round"/><path d="M88.073 188.734l5.633 3.3c.614.363.787 1.247.372 1.983l-5.252 9.222c-.415.728-1.254 1.022-1.877.659l-5.633-3.3c-.614-.363-.787-1.247-.372-1.974l5.252-9.223c.415-.727 1.255-1.031 1.877-.667z" fill="#BEFECD" stroke="#170728" stroke-miterlimit="10" stroke-linecap="round" stroke-linejoin="round"/><path d="M76.809 182.144l5.632 3.291c.623.364.796 1.256.38 1.983l-.752 1.316c-.415.728-1.255 1.022-1.877.659l-5.633-3.291c-.623-.364-.787-1.247-.372-1.975l.753-1.316c.407-.727 1.246-1.03 1.869-.667zm-11.257-6.581l5.633 3.291c.623.363.787 1.247.372 1.983l-.753 1.316c-.415.727-1.255 1.022-1.877.658l-5.633-3.291c-.623-.363-.787-1.247-.372-1.974l.753-1.316c.415-.736 1.254-1.04 1.877-.667zm-11.256-6.59l5.633 3.291c.622.364.787 1.247.371 1.983l-.752 1.316c-.415.727-1.255 1.022-1.878.658l-5.632-3.291c-.623-.363-.787-1.246-.372-1.974l.753-1.316c.415-.736 1.254-1.031 1.877-.667zm-11.256-6.591l5.632 3.291c.615.364.788 1.247.372 1.983l-.752 1.317c-.416.727-1.255 1.022-1.878.658l-5.632-3.291c-.623-.364-.796-1.247-.381-1.974l.753-1.317c.415-.736 1.263-1.03 1.886-.667zm175.635 113.34l5.632 3.291c.623.364.788 1.247.372 1.974l-.752 1.317c-.416.727-1.255 1.021-1.878.658l-5.632-3.291c-.623-.364-.788-1.247-.372-1.974l.753-1.317c.415-.736 1.254-1.03 1.877-.658zm-11.256-6.59l5.632 3.291c.623.364.788 1.247.372 1.975l-.752 1.316c-.416.727-1.255 1.022-1.878.658l-5.632-3.291c-.623-.363-.788-1.247-.372-1.974l.752-1.316c.416-.728 1.255-1.022 1.878-.659zm-11.256-6.59l5.632 3.291c.614.363.787 1.247.372 1.974l-.753 1.316c-.415.728-1.254 1.022-1.877.658l-5.633-3.29c-.622-.364-.795-1.247-.38-1.975l.752-1.316c.416-.736 1.264-1.022 1.887-.658zm-11.265-6.59l5.632 3.299c.614.364.788 1.247.372 1.975l-.753 1.316c-.415.728-1.254 1.022-1.877.658l-5.632-3.299c-.615-.364-.788-1.247-.372-1.975l.752-1.316c.416-.727 1.255-1.022 1.878-.658z" fill="#98CBA4" stroke="#170728" stroke-miterlimit="10" stroke-linecap="round" stroke-linejoin="round"/><path d="M162.377 242.772l16.888 9.881c.623.363.796 1.247.381 1.974l-.753 1.316c-.415.728-1.254 1.022-1.877.659l-16.889-9.881c-.623-.364-.787-1.247-.372-1.975l.753-1.316c.415-.727 1.246-1.022 1.869-.658z" fill="#BEFECD" stroke="#170728" stroke-miterlimit="10" stroke-linecap="round" stroke-linejoin="round"/><path d="M151.121 236.182l5.632 3.291c.623.363.787 1.247.372 1.974l-.753 1.316c-.415.728-1.254 1.022-1.877.658l-5.633-3.29c-.623-.364-.787-1.247-.372-1.975l.753-1.316c.424-.728 1.255-1.022 1.878-.658zm-11.257-6.591l5.633 3.291c.614.364.787 1.247.372 1.974l-.753 1.317c-.415.727-1.255 1.022-1.877.658l-5.633-3.291c-.623-.364-.796-1.247-.381-1.974l.753-1.316c.424-.728 1.263-1.022 1.886-.659zm-11.264-6.59l5.632 3.291c.623.364.796 1.247.381 1.974l-.753 1.317c-.416.727-1.255 1.022-1.878.658l-5.632-3.291c-.614-.364-.787-1.247-.372-1.974l.753-1.317c.415-.727 1.254-1.013 1.869-.658zm-11.257-6.59l5.633 3.291c.623.364.787 1.247.372 1.974l-.753 1.317c-.416.727-1.255 1.021-1.878.658l-5.632-3.291c-.623-.364-.787-1.247-.372-1.975l.753-1.316c.415-.727 1.254-1.021 1.877-.658zm-11.256-6.581l5.632 3.29c.623.364.788 1.247.372 1.975l-.753 1.316c-.415.728-1.254 1.022-1.877.658l-5.632-3.291c-.623-.363-.788-1.247-.372-1.974l.752-1.316c.415-.736 1.255-1.022 1.878-.658zm-11.257-6.59l5.633 3.29c.615.364.787 1.248.372 1.975l-.752 1.316c-.416.728-1.255 1.022-1.878.658l-5.632-3.29c-.623-.364-.796-1.247-.381-1.975l.753-1.316c.415-.736 1.263-1.022 1.886-.658zm-22.52-13.181l5.632 3.291c.623.364.796 1.247.38 1.975l-.752 1.316c-.415.727-1.255 1.022-1.877.658l-5.633-3.291c-.623-.363-.787-1.247-.372-1.974l.753-1.316c.406-.728 1.246-1.022 1.869-.659zm-11.265-6.59l5.632 3.291c.623.364.787 1.247.372 1.974l-.753 1.316c-.415.728-1.254 1.022-1.877.659l-5.633-3.291c-.623-.364-.787-1.247-.372-1.974l.753-1.317c.424-.727 1.255-1.022 1.878-.658z" fill="#98CBA4" stroke="#170728" stroke-miterlimit="10" stroke-linecap="round" stroke-linejoin="round"/><path d="M38.532 170.289l16.889 9.881c.623.364.787 1.247.372 1.974l-.753 1.317c-.415.727-1.255 1.022-1.877.658l-16.889-9.881c-.623-.364-.796-1.247-.38-1.974l.752-1.317c.424-.727 1.263-1.022 1.886-.658z" fill="#BEFECD" stroke="#170728" stroke-miterlimit="10" stroke-linecap="round" stroke-linejoin="round"/><path d="M34.033 178.195l5.633 3.291c.614.364.787 1.247.372 1.975l-.753 1.316c-.415.727-1.263 1.022-1.877.667l-5.633-3.291c-.623-.364-.796-1.256-.38-1.983l.752-1.316c.416-.728 1.255-1.022 1.886-.659zm11.257 6.59l5.632 3.291c.623.364.787 1.247.372 1.974l-.753 1.317c-.415.727-1.255 1.03-1.877.667l-5.633-3.291c-.623-.364-.787-1.247-.372-1.983l.753-1.316c.415-.719 1.254-1.022 1.877-.659zm11.256 6.591l16.889 9.881c.622.363.795 1.255.38 1.974l-.753 1.316c-.415.728-1.263 1.022-1.886.658l-16.889-9.881c-.622-.363-.787-1.247-.371-1.983l.752-1.316c.416-.719 1.255-1.013 1.878-.649zm22.512 13.18l5.633 3.299c.614.364.787 1.247.372 1.975l-.753 1.316c-.416.728-1.263 1.022-1.878.667l-5.632-3.299c-.614-.364-.787-1.247-.372-1.984l.753-1.316c.415-.727 1.263-1.022 1.877-.658zm11.265 6.59l5.633 3.291c.614.364.787 1.247.371 1.974l-.752 1.317c-.416.727-1.263 1.021-1.878.666l-5.632-3.29c-.623-.364-.796-1.256-.38-1.983l.752-1.317c.424-.727 1.263-1.022 1.886-.658zm11.256 6.59l5.633 3.291c.623.363.787 1.247.372 1.974l-.753 1.316c-.415.728-1.255 1.031-1.878.667l-5.632-3.291c-.623-.363-.787-1.247-.372-1.983l.753-1.316c.415-.727 1.254-1.031 1.877-.658zm11.265 6.581l5.632 3.291c.623.364.788 1.247.373 1.975l-.753 1.316c-.415.727-1.255 1.03-1.878.667l-5.632-3.291c-.623-.364-.787-1.247-.372-1.983l.753-1.316c.415-.719 1.254-1.022 1.877-.659zm11.256 6.591l16.889 9.889c.614.364.787 1.247.372 1.975l-.753 1.316c-.415.727-1.263 1.022-1.877.667l-16.889-9.89c-.614-.364-.787-1.247-.372-1.983l.753-1.316c.415-.719 1.254-1.022 1.877-.658zm22.521 13.18l5.633 3.291c.623.363.787 1.247.372 1.974l-.753 1.316c-.415.728-1.254 1.031-1.877.667l-5.633-3.291c-.623-.363-.787-1.247-.372-1.983l.753-1.316c.415-.719 1.254-1.022 1.877-.658zm11.257 6.59l5.632 3.291c.623.363.787 1.247.372 1.974l-.753 1.316c-.415.728-1.254 1.031-1.877.667l-5.632-3.291c-.623-.363-.788-1.247-.373-1.983l.753-1.316c.415-.727 1.255-1.022 1.878-.658z" fill="#98CBA4" stroke="#170728" stroke-miterlimit="10" stroke-linecap="round" stroke-linejoin="round"/><path d="M169.134 257.268l5.632 3.291c.623.364.796 1.256.381 1.974l-5.252 9.232c-.415.727-1.254 1.022-1.877.658l-5.633-3.291c-.623-.364-.787-1.247-.372-1.974l5.252-9.232c.407-.727 1.246-1.022 1.869-.658z" fill="#BEFECD" stroke="#170728" stroke-miterlimit="10" stroke-linecap="round" stroke-linejoin="round"/><path d="M180.39 263.858l5.633 3.299c.614.364.787 1.247.372 1.975l-.753 1.316c-.415.728-1.263 1.022-1.878.667l-5.632-3.299c-.614-.364-.787-1.247-.372-1.984l.753-1.316c.415-.727 1.263-1.022 1.877-.658zm11.265 6.591l5.632 3.29c.615.364.788 1.247.372 1.975l-.752 1.316c-.415.728-1.263 1.022-1.878.667l-5.632-3.291c-.623-.364-.796-1.256-.381-1.983l.753-1.316c.424-.728 1.263-1.022 1.886-.658zm11.256 6.59l5.632 3.29c.623.364.788 1.247.372 1.975l-.752 1.316c-.415.728-1.255 1.031-1.878.667l-5.632-3.291c-.623-.364-.787-1.247-.372-1.983l.753-1.316c.415-.727 1.254-1.031 1.877-.658zm11.265 6.581l5.632 3.291c.623.364.788 1.247.372 1.974l-.752 1.317c-.416.727-1.255 1.03-1.878.667l-5.632-3.291c-.623-.364-.788-1.247-.372-1.983l.753-1.317c.415-.718 1.254-1.022 1.877-.658zm-184.65-97.518l5.632 3.291c.614.363.787 1.247.372 1.983l-.753 1.316c-.415.727-1.254 1.022-1.877.658l-5.633-3.291c-.623-.363-.796-1.247-.38-1.974l.752-1.316c.424-.736 1.264-1.031 1.887-.667zm11.256 6.59l5.632 3.291c.623.364.788 1.247.372 1.983l-.753 1.316c-.415.728-1.254 1.022-1.877.658l-5.633-3.29c-.622-.364-.787-1.247-.372-1.975l.753-1.316c.415-.736 1.255-1.031 1.878-.667z" fill="#98CBA4" stroke="#170728" stroke-miterlimit="10" stroke-linecap="round" stroke-linejoin="round"/><path d="M52.047 199.282l5.632 3.291c.623.364.787 1.247.372 1.983l-.753 1.316c-.415.728-1.254 1.022-1.877.659l-5.633-3.291c-.623-.364-.787-1.247-.372-1.975l.753-1.316c.415-.736 1.255-1.03 1.878-.667z" fill="#BEFECD" stroke="#170728" stroke-miterlimit="10" stroke-linecap="round" stroke-linejoin="round"/><path d="M63.303 205.872l5.633 3.291c.622.364.795 1.256.38 1.983l-.753 1.316c-.415.728-1.254 1.022-1.877.658l-5.633-3.29c-.622-.364-.787-1.247-.372-1.975l.753-1.316c.407-.736 1.246-1.039 1.869-.667zm11.257 6.582l16.888 9.889c.614.364.787 1.247.372 1.983l-.753 1.317c-.415.727-1.254 1.022-1.877.658l-16.89-9.89c-.614-.363-.786-1.247-.371-1.974l.752-1.316c.416-.728 1.264-1.022 1.878-.667zm22.52 13.18l5.633 3.291c.622.363.787 1.247.372 1.983l-.753 1.316c-.415.727-1.255 1.022-1.878.658l-5.632-3.291c-.623-.363-.787-1.247-.372-1.974l.753-1.316c.415-.728 1.254-1.031 1.877-.667zm11.256 6.59l5.633 3.291c.623.363.787 1.247.372 1.983l-.753 1.316c-.415.728-1.254 1.022-1.877.658l-5.633-3.29c-.623-.364-.787-1.247-.372-1.975l.753-1.316c.415-.728 1.254-1.03 1.877-.667zm11.257 6.59l5.632 3.291c.623.364.796 1.256.381 1.983l-.753 1.317c-.415.727-1.254 1.021-1.877.658l-5.633-3.291c-.614-.364-.787-1.247-.372-1.975l.753-1.316c.406-.736 1.254-1.03 1.869-.667zm11.265 6.59l5.632 3.291c.614.364.787 1.247.372 1.983l-.753 1.316c-.415.728-1.254 1.022-1.877.659l-5.633-3.291c-.622-.364-.796-1.247-.38-1.974l.752-1.317c.424-.736 1.264-1.03 1.887-.667zm11.256 6.59l5.632 3.291c.623.364.787 1.247.372 1.983l-.753 1.316c-.415.728-1.254 1.022-1.877.659l-5.632-3.291c-.623-.364-.788-1.247-.373-1.975l.753-1.316c.416-.736 1.255-1.03 1.878-.667zm11.265 6.591l5.632 3.29c.623.364.787 1.247.372 1.983l-.753 1.317c-.415.727-1.254 1.021-1.877.658l-5.632-3.291c-.623-.364-.788-1.247-.373-1.974l.753-1.317c.415-.736 1.255-1.03 1.878-.666zm22.512 13.171l5.633 3.3c.614.363.787 1.247.371 1.983l-.752 1.316c-.415.727-1.255 1.022-1.878.658l-5.632-3.299c-.614-.364-.787-1.247-.372-1.975l.753-1.316c.415-.727 1.263-1.022 1.877-.667zm11.265 6.599l5.633 3.291c.614.363.787 1.247.372 1.983l-.753 1.316c-.415.727-1.255 1.022-1.878.658l-5.632-3.291c-.623-.363-.796-1.247-.381-1.974l.753-1.316c.415-.736 1.263-1.04 1.886-.667z" fill="#98CBA4" stroke="#170728" stroke-miterlimit="10" stroke-linecap="round" stroke-linejoin="round"/><path d="M198.412 284.936l16.889 9.881c.623.364.787 1.247.372 1.983l-.753 1.316c-.415.728-1.255 1.022-1.877.658l-16.889-9.88c-.623-.364-.787-1.247-.372-1.975l.753-1.316c.415-.728 1.254-1.031 1.877-.667z" fill="#BEFECD" stroke="#170728" stroke-miterlimit="10" stroke-linecap="round" stroke-linejoin="round"/><path d="M200.662 307.348l5.632 3.29c.623.364.788 1.248.372 1.975l-.753 1.316c-.415.728-1.254 1.031-1.877.667l-5.632-3.291c-.623-.363-.788-1.247-.372-1.983l.752-1.316c.416-.727 1.255-1.03 1.878-.658zm-11.256-6.59l5.632 3.291c.623.363.787 1.247.372 1.974l-.753 1.316c-.415.728-1.254 1.031-1.877.667l-5.633-3.29c-.623-.364-.787-1.248-.372-1.984l.753-1.316c.415-.727 1.255-1.022 1.878-.658zm-22.522-13.18l16.889 9.889c.614.364.787 1.247.372 1.974l-.753 1.317c-.415.727-1.263 1.022-1.877.667l-16.889-9.89c-.614-.364-.787-1.247-.372-1.983l.753-1.316c.415-.728 1.255-1.022 1.877-.658zm-11.256-6.591l5.633 3.291c.623.364.796 1.256.38 1.975l-.752 1.316c-.416.727-1.264 1.022-1.886.658l-5.633-3.291c-.623-.363-.787-1.247-.372-1.983l.753-1.316c.415-.719 1.254-1.013 1.877-.65zm-11.265-6.59l5.633 3.291c.623.364.787 1.247.372 1.974l-.753 1.317c-.415.727-1.255 1.03-1.878.666l-5.632-3.29c-.623-.364-.787-1.247-.372-1.983l.753-1.317c.415-.718 1.254-1.021 1.877-.658zm-11.256-6.59l5.632 3.291c.623.364.788 1.247.372 1.974l-.752 1.317c-.416.727-1.255 1.03-1.878.667l-5.632-3.291c-.623-.364-.788-1.247-.372-1.983l.753-1.317c.415-.718 1.254-1.022 1.877-.658z" fill="#98CBA4" stroke="#170728" stroke-miterlimit="10" stroke-linecap="round" stroke-linejoin="round"/><path d="M121.851 261.226l5.632 3.29c.615.364.788 1.247.372 1.975l-.752 1.316c-.416.728-1.264 1.022-1.878.667l-5.632-3.291c-.623-.363-.796-1.255-.381-1.983l.753-1.316c.415-.727 1.263-1.031 1.886-.658z" fill="#BEFECD" stroke="#170728" stroke-miterlimit="10" stroke-linecap="round" stroke-linejoin="round"/><path d="M99.33 248.045l16.888 9.881c.623.364.796 1.256.381 1.975l-.753 1.316c-.415.728-1.263 1.022-1.886.658l-16.888-9.881c-.624-.363-.788-1.247-.373-1.983l.753-1.316c.416-.719 1.255-1.022 1.878-.65zm-11.257-6.59l5.633 3.291c.623.364.787 1.247.372 1.975l-.753 1.316c-.415.727-1.255 1.03-1.877.667l-5.633-3.291c-.623-.364-.787-1.247-.372-1.983l.753-1.316c.415-.728 1.254-1.022 1.877-.659zm-11.256-6.59l5.633 3.291c.614.364.787 1.247.372 1.975l-.753 1.316c-.415.727-1.263 1.022-1.877.667l-5.633-3.291c-.623-.364-.796-1.256-.38-1.983l.752-1.317c.416-.727 1.263-1.021 1.886-.658zm-6.766-14.496l5.633 3.299c.614.364.787 1.247.372 1.974l-5.252 9.223c-.415.727-1.263 1.022-1.877.667l-5.633-3.299c-.614-.364-.787-1.247-.372-1.983l5.252-9.223c.424-.728 1.263-1.022 1.877-.658zm-15.755 1.316l5.633 3.291c.623.363.796 1.255.38 1.974l-.752 1.316c-.416.728-1.264 1.022-1.886.659l-5.633-3.291c-.623-.364-.787-1.247-.372-1.983l.753-1.317c.415-.718 1.254-1.013 1.877-.649zm-11.265-6.59l5.633 3.291c.623.363.787 1.247.372 1.974l-.753 1.316c-.415.728-1.254 1.031-1.877.667l-5.633-3.291c-.623-.363-.787-1.246-.372-1.983l.753-1.316c.415-.719 1.254-1.022 1.877-.658zm-11.256-6.59l5.632 3.29c.623.364.788 1.247.373 1.975l-.753 1.316c-.416.728-1.255 1.031-1.878.667l-5.632-3.291c-.623-.363-.788-1.247-.372-1.983l.753-1.316c.415-.719 1.254-1.022 1.877-.658zm-11.256-6.59l5.632 3.29c.614.364.788 1.247.372 1.975l-.753 1.316c-.415.728-1.263 1.022-1.877.667l-5.632-3.291c-.623-.364-.796-1.256-.381-1.983l.753-1.316c.415-.719 1.263-1.022 1.886-.658zm184.642 97.527l5.632 3.29c.623.364.787 1.247.372 1.975l-.753 1.316c-.415.727-1.254 1.022-1.877.658l-5.633-3.291c-.623-.363-.787-1.247-.372-1.974l.753-1.316c.424-.728 1.255-1.022 1.878-.658zm-11.257-6.591l5.633 3.291c.623.364.787 1.247.372 1.974l-.753 1.317c-.415.727-1.254 1.022-1.877.658l-5.633-3.291c-.623-.364-.787-1.247-.372-1.974l.753-1.317c.424-.727 1.255-1.021 1.877-.658zm-11.256-6.59l5.633 3.291c.614.364.787 1.247.372 1.974l-.753 1.317c-.415.727-1.254 1.022-1.877.658l-5.633-3.291c-.623-.364-.796-1.247-.381-1.974l.753-1.317c.424-.727 1.263-1.022 1.886-.658zm-11.264-6.59l5.632 3.3c.614.363.787 1.247.372 1.974l-.753 1.316c-.415.728-1.254 1.022-1.877.659l-5.633-3.3c-.614-.364-.787-1.247-.372-1.974l.753-1.317c.424-.727 1.263-1.021 1.878-.658zm-22.513-13.18l16.889 9.881c.623.364.796 1.247.38 1.975l-.752 1.316c-.416.727-1.255 1.021-1.878.658l-16.889-9.881c-.623-.364-.787-1.247-.372-1.974l.753-1.317c.407-.727 1.246-1.022 1.869-.658zm-11.256-6.59l5.632 3.291c.623.363.787 1.247.372 1.974l-.753 1.316c-.415.728-1.254 1.022-1.877.658l-5.633-3.29c-.623-.364-.787-1.247-.372-1.975l.753-1.316c.416-.727 1.255-1.022 1.878-.658zm-11.265-6.582l5.632 3.291c.615.364.788 1.247.372 1.974l-.752 1.317c-.416.727-1.255 1.021-1.878.658l-5.632-3.291c-.623-.364-.796-1.247-.381-1.974l.753-1.317c.424-.736 1.263-1.022 1.886-.658zm-11.256-6.59l5.632 3.291c.623.363.796 1.247.381 1.974l-.753 1.317c-.415.727-1.255 1.021-1.877.658l-5.633-3.291c-.614-.364-.787-1.247-.372-1.975l.753-1.316c.407-.736 1.246-1.021 1.869-.658zm-11.265-6.59l5.632 3.291c.623.364.787 1.247.372 1.974l-.753 1.317c-.415.727-1.254 1.021-1.877.658l-5.633-3.291c-.622-.364-.787-1.247-.372-1.975l.753-1.316c.424-.727 1.255-1.022 1.878-.658z" fill="#98CBA4" stroke="#170728" stroke-miterlimit="10" stroke-linecap="round" stroke-linejoin="round"/><path d="M92.572 233.549l5.633 3.291c.623.363.787 1.247.372 1.974l-.753 1.316c-.415.728-1.254 1.022-1.877.659l-5.633-3.291c-.623-.364-.787-1.247-.372-1.975l.753-1.316c.424-.727 1.255-1.022 1.877-.658z" fill="#BEFECD" stroke="#170728" stroke-miterlimit="10" stroke-linecap="round" stroke-linejoin="round"/><path d="M81.316 226.959l5.632 3.291c.615.363.788 1.247.373 1.974l-.753 1.316c-.415.728-1.255 1.022-1.877.658l-5.633-3.29c-.623-.364-.796-1.247-.38-1.975l.752-1.316c.424-.727 1.263-1.022 1.886-.658zm-22.521-13.18l5.632 3.29c.623.364.797 1.247.381 1.975l-.753 1.316c-.415.727-1.254 1.022-1.877.658l-5.632-3.29c-.623-.364-.788-1.247-.372-1.975l.752-1.316c.407-.728 1.246-1.022 1.87-.658zm-11.256-6.591l5.632 3.291c.623.364.788 1.247.373 1.975l-.753 1.316c-.416.727-1.255 1.022-1.878.658l-5.632-3.291c-.623-.363-.788-1.247-.372-1.974l.752-1.317c.416-.727 1.255-1.021 1.878-.658zm-22.521-13.171l16.888 9.881c.623.363.788 1.247.373 1.974l-.753 1.316c-.416.728-1.255 1.022-1.878.659l-16.888-9.881c-.623-.364-.796-1.247-.381-1.975l.753-1.316c.424-.736 1.263-1.022 1.886-.658z" fill="#98CBA4" stroke="#170728" stroke-miterlimit="10" stroke-linecap="round" stroke-linejoin="round"/><path d="M243.065 270.604l.658-1.16v67.217l-32.982 19.061v-28.361l32.324-56.757z" fill="#ABE5B9" stroke="#170728" stroke-miterlimit="10" stroke-linecap="round" stroke-linejoin="round"/><path d="M210.741 341.173v14.549l32.982-19.061v-14.548l-32.982 19.06z" fill="#ABE5B9" stroke="#170728" stroke-miterlimit="10" stroke-linecap="round" stroke-linejoin="round"/><path d="M210.741 355.722L4.011 234.735v-28.36l206.73 120.986v28.361z" fill="#F2FFF5" stroke="#170728" stroke-miterlimit="10" stroke-linecap="round" stroke-linejoin="round"/><path d="M283.34 345.035v14.558l67.347-38.892a20.612 20.612 0 0010.149-20.437l-77.496 44.771z" fill="#ABE5B9" stroke="#170728" stroke-miterlimit="10" stroke-linecap="round" stroke-linejoin="round"/><path d="M13.312 110.813l8.695 5.023m-8.695 1.091l8.695 5.023m-8.695 1.091l8.695 5.023m-8.695 1.1l8.695 5.022m235.991 120.467l8.696 5.023m-8.696 1.091l8.696 5.023m-8.696 1.091l8.696 5.022m-8.696 1.1l8.696 5.023" stroke="#170728" stroke-miterlimit="10" stroke-linecap="round" stroke-linejoin="round"/><path d="M301.085 299.294c0 5.109 1.307 9.102 3.556 11.786a10.706 10.706 0 002.596 2.26l.553.321c3.954 2.13 9.327 1.74 15.254-1.68 12.121-7.006 21.95-24.049 21.95-38.051 0-6.946-2.422-11.847-6.342-14.168a10.767 10.767 0 00-3.625-1.325c-3.444-.615-7.562.26-11.992 2.814-12.121 6.998-21.95 24.032-21.95 38.043z" fill="#fff" stroke="#170728" stroke-miterlimit="10" stroke-linecap="round" stroke-linejoin="round"/><path d="M311.49 306.709c-5.553-3.209-4.857-14.822 1.556-25.939 6.412-11.117 16.113-17.527 21.666-14.318 5.553 3.21 4.857 14.823-1.556 25.939-6.412 11.117-16.113 17.527-21.666 14.318z" fill="#D8FEE1" stroke="#170728" stroke-miterlimit="10" stroke-linecap="round" stroke-linejoin="round"/><path d="M294.674 295.588c0 6.833 2.336 11.682 6.135 14.055l.527.312 5.884 3.394a10.838 10.838 0 01-2.596-2.26c-2.241-2.685-3.556-6.677-3.556-11.786 0-14.012 9.829-31.054 21.95-38.051 4.421-2.555 8.548-3.43 11.992-2.815 1.306.234 2.518.676 3.625 1.325l-6.299-3.646-.225-.129c-3.971-2.287-9.448-1.949-15.495 1.541-12.113 7.015-21.942 24.048-21.942 38.06z" fill="#ABE5B9" stroke="#170728" stroke-miterlimit="10" stroke-linecap="round" stroke-linejoin="round"/><path d="M323.035 297.701c2.561-1.481 4.499-5.274 4.058-7.933l-2.336-13.899c-.147-.874-.874-1.16-1.713-.666-.848.485-1.566 1.61-1.713 2.65l-2.336 16.609c-.459 3.169 1.479 4.72 4.04 3.239z" fill="#BEFECD" stroke="#170728" stroke-miterlimit="10" stroke-linecap="round" stroke-linejoin="round"/><path d="M321.837 295.239c-.7-.404-.699-1.715.001-2.929.7-1.214 1.834-1.87 2.534-1.466.699.405.698 1.716-.002 2.929-.7 1.214-1.834 1.87-2.533 1.466z" fill="#fff" stroke="#170728" stroke-miterlimit="10" stroke-linecap="round" stroke-linejoin="round"/><path d="M46.708 23.401h19.459a7.544 7.544 0 012.162 0h19.459v7.742a2.8 2.8 0 01-1.41 2.45L71.02 42.47a7.513 7.513 0 01-7.535 0l-15.358-8.876a2.801 2.801 0 01-1.41-2.451v-7.742h-.009z" fill="#D8FEE1" stroke="#170728" stroke-miterlimit="10" stroke-linecap="round" stroke-linejoin="round"/><path d="M71.003 34.728l15.357-8.876c1.886-1.091 1.886-3.81 0-4.902l-15.357-8.876a7.513 7.513 0 00-7.536 0L48.11 20.95c-1.886 1.091-1.886 3.81 0 4.902l15.357 8.876a7.554 7.554 0 007.536 0z" fill="#F2FFF5" stroke="#170728" stroke-miterlimit="10" stroke-linecap="round" stroke-linejoin="round"/><path d="M76.16 23.549l-9.171-5.3m4.836 7.802l-9.171-5.3m4.836 7.803l-9.17-5.3m154.628 87.689l63.6 36.744" stroke="#170728" stroke-miterlimit="10" stroke-linecap="round" stroke-linejoin="round"/><path d="M198.983 113.541c0 .424.26.832.779 1.135l1.869 1.082 8.66 5.005c1.151.667 3.158.581 4.491-.19l17.079-9.864 1.557-.9c.701-.407 1.073-.91 1.099-1.403v-.147c-.026-.39-.285-.762-.779-1.048l-10.538-6.088c-1.151-.667-3.166-.58-4.49.19l-18.637 10.765c-.718.407-1.09.952-1.09 1.463z" fill="#D8FEE1" stroke="#170728" stroke-miterlimit="10" stroke-linecap="round" stroke-linejoin="round"/><path d="M198.983 113.541v4.581c0 .425.26.831.779 1.135l10.538 6.087c1.151.667 3.158.589 4.49-.19l18.637-10.764c.701-.407 1.073-.91 1.099-1.403v-4.581c-.026.493-.398 1.004-1.099 1.403l-1.558.9-17.079 9.864c-1.332.771-3.339.857-4.49.19l-8.661-5.005-1.868-1.082c-.528-.303-.788-.719-.788-1.135z" fill="#ABE5B9" stroke="#170728" stroke-miterlimit="10" stroke-linecap="round" stroke-linejoin="round"/><path d="M224.152 128.142c0 .424.259.831.778 1.134l1.869 1.082 8.661 5.006c1.151.667 3.158.589 4.49-.191l17.079-9.863 1.558-.901c.701-.407 1.073-.909 1.099-1.403v-.147c-.026-.39-.286-.762-.779-1.048l-10.538-6.088c-1.151-.666-3.167-.58-4.491.191l-18.636 10.764c-.718.416-1.09.953-1.09 1.464z" fill="#D8FEE1" stroke="#170728" stroke-miterlimit="10" stroke-linecap="round" stroke-linejoin="round"/><path d="M224.152 128.142v4.581c0 .424.259.831.779 1.134l10.538 6.088c1.15.667 3.158.589 4.49-.19l18.637-10.765c.7-.407 1.072-.909 1.098-1.403v-4.581c-.026.494-.398 1.005-1.098 1.403l-1.558.901-17.079 9.863c-1.332.771-3.34.858-4.49.191l-8.661-5.005-1.869-1.083c-.528-.303-.787-.71-.787-1.134z" fill="#ABE5B9" stroke="#170728" stroke-miterlimit="10" stroke-linecap="round" stroke-linejoin="round"/><path d="M249.321 142.742c0 .424.259.831.778 1.134l1.869 1.083 8.661 5.005c1.15.667 3.158.589 4.49-.19l17.079-9.864 1.557-.9c.701-.407 1.073-.91 1.099-1.403v-.148c-.026-.389-.285-.762-.778-1.047l-10.539-6.097c-1.15-.667-3.166-.58-4.49.191l-18.636 10.764c-.718.424-1.09.97-1.09 1.472z" fill="#D8FEE1" stroke="#170728" stroke-miterlimit="10" stroke-linecap="round" stroke-linejoin="round"/><path d="M249.321 142.742v4.581c0 .425.259.831.778 1.134l10.538 6.088c1.151.667 3.158.581 4.491-.19l18.636-10.764c.701-.407 1.073-.91 1.099-1.403v-4.581c-.026.494-.398 1.004-1.099 1.403l-1.557.9-17.079 9.864c-1.333.771-3.34.857-4.491.191l-8.66-5.006-1.869-1.082c-.528-.303-.787-.711-.787-1.135z" fill="#ABE5B9" stroke="#170728" stroke-miterlimit="10" stroke-linecap="round" stroke-linejoin="round"/></svg>