<svg width="442" height="405" fill="none" xmlns="http://www.w3.org/2000/svg"><path d="M200.853 33.594l92.693 53.414 30.446-32.587L231.299 1l-30.446 32.594z" fill="#ABE5B9" stroke="#170728" stroke-width=".872" stroke-miterlimit="10" stroke-linecap="round" stroke-linejoin="round"/><path d="M316.707 62.221l-92.7-53.414m85.06 61.591l-92.693-53.429m85.061 61.591L208.75 25.131m104.693 23.225L283.57 81.26m20.631-38.237l-29.88 32.904m20.63-38.237l-29.872 32.92m20.615-38.253l-29.872 32.92m20.622-38.253l-29.872 32.919m20.615-38.252L237.33 54.61m20.615-38.252l-29.88 32.919m20.63-38.252L218.823 43.96m20.63-38.268l-29.88 32.934" stroke="#170728" stroke-width=".872" stroke-miterlimit="10" stroke-linecap="round" stroke-linejoin="round"/><path d="M363.363 67.562v.06l-4.98.377-7.254.558-5.736-9.157 4.406-6.352 2.977-4.284c5.895 3.658 10.587 11.948 10.587 18.798z" fill="#D8FEE1" stroke="#170728" stroke-width=".872" stroke-miterlimit="10" stroke-linecap="round" stroke-linejoin="round"/><path d="M370.029 63.119c0 .852-.083 1.637-.234 2.353a2.27 2.27 0 01-2.055 1.818l-4.376.332v-.06c0-6.85-4.693-15.14-10.587-18.798l2.32-3.342c.544-.792 1.541-1.176 2.456-.897a11.16 11.16 0 012.32 1.026c5.607 3.236 10.156 11.096 10.156 17.568z" fill="#fff" stroke="#170728" stroke-width=".872" stroke-miterlimit="10" stroke-linecap="round" stroke-linejoin="round"/><path d="M351.111 68.53c1.5-.864 1.501-3.665.003-6.255s-3.929-3.99-5.429-3.125c-1.5.864-1.501 3.665-.003 6.255s3.929 3.99 5.429 3.125z" fill="#fff" stroke="#170728" stroke-miterlimit="10" stroke-linecap="round" stroke-linejoin="round"/><path d="M284.455 82.437c1.957-.943 4.549-.709 7.406.92.022.016.037.016.06.038 6.106 3.508 11.033 12.04 11.033 19.062v.06c-.022 3.342-1.164 5.741-3.015 6.94l55.029-31.817a3.713 3.713 0 001.746-2.331c.219-.905.34-1.916.348-3.017v-.076c0-7.611-5.343-16.844-11.948-20.653-.023-.023-.038-.023-.075-.038a12.984 12.984 0 00-2.91-1.245c-.922-.256-1.904-.09-2.735.393l-54.939 31.764z" fill="#72987B" stroke="#170728" stroke-miterlimit="10" stroke-linecap="round" stroke-linejoin="round"/><path d="M312.763 100.73c0 6.132-2.94 9.776-7.278 10.055v.015l-1.7.128c.703-1.524 1.088-3.425 1.088-5.642 0-9.014-6.332-19.967-14.146-24.478-1.942-1.124-3.794-1.72-5.464-1.886l1.066-1.524.015.023c2.441-3.523 7.02-4.194 12.287-1.162 7.799 4.504 14.132 15.457 14.132 24.471z" fill="#BEFECD" stroke="#170728" stroke-miterlimit="10" stroke-linecap="round" stroke-linejoin="round"/><path d="M323.38 59.92c.431.204.869.43 1.315.687 7.821 4.503 14.154 15.456 14.154 24.47 0 .672-.038 1.32-.106 1.931" fill="#72987B"/><path d="M323.38 59.92c.431.204.869.43 1.315.687 7.821 4.503 14.154 15.456 14.154 24.47 0 .672-.038 1.32-.106 1.931m-26.887-20.442c.43.204.869.43 1.315.686 7.821 4.504 14.154 15.457 14.154 24.47 0 .672-.038 1.32-.106 1.932" stroke="#170728" stroke-miterlimit="10" stroke-linecap="round" stroke-linejoin="round"/><path d="M304.866 105.278c0 2.225-.385 4.119-1.088 5.642l-15.122 1.147-10.111.777-7.995-12.748 6.144-8.856 8.554-12.326c1.678.166 3.529.762 5.464 1.886 7.821 4.511 14.154 15.456 14.154 24.478z" fill="#F2FFF5" stroke="#170728" stroke-miterlimit="10" stroke-linecap="round"/><path d="M278.527 112.817c2.089-1.204 2.091-5.105.004-8.713-2.086-3.607-5.472-5.556-7.561-4.352-2.089 1.204-2.091 5.105-.004 8.712 2.087 3.608 5.472 5.557 7.561 4.353z" fill="#fff" stroke="#170728" stroke-width=".872" stroke-miterlimit="10" stroke-linecap="round" stroke-linejoin="round"/><path d="M258.512 115.68l16.255-9.368" stroke="#170728" stroke-miterlimit="10" stroke-linecap="round" stroke-linejoin="round"/><path d="M317.713 100.579L410.406 154l30.447-32.587-92.693-53.421-30.447 32.587z" fill="#ABE5B9" stroke="#170728" stroke-miterlimit="10" stroke-linecap="round" stroke-linejoin="round"/><path d="M433.568 129.205l-92.701-53.406m85.06 61.583l-92.693-53.421m85.061 61.583L325.61 92.123m104.693 23.218l-29.873 32.911m20.631-38.244l-29.873 32.911m20.623-38.244l-29.873 32.926m20.616-38.259l-29.873 32.926m20.623-38.26l-29.872 32.927m20.615-38.252l-29.858 32.919m20.616-38.252l-29.88 32.919m20.63-38.252l-29.872 32.933m20.63-38.266l-29.88 32.933" stroke="#170728" stroke-miterlimit="10" stroke-linecap="round" stroke-linejoin="round"/><path d="M390.652 245.387l-4.414-2.545v-9.044c0-2.189-1.506-4.281-4.187-5.832l-45.954-26.479c-2.688-1.544-6.325-2.415-10.121-2.415h-15.703l-7.528-4.337c-2.661-1.53-6.683-1.701-8.986-.37L101.107 305.371l-2.111-1.214-9.949-5.737c-.838-.48-2.193-.48-3.032 0l-22.317 12.866c-.557.315-.832.734-.832 1.153h-.007v26.959h.014c.028.391.303.782.825 1.084l7.426 4.275c.625.356 1.464.521 2.275.473.647-.034 1.272-.185 1.767-.473l12.369-7.123 116.288 67.003c.468.268 1.1.391 1.719.357.481-.027.949-.144 1.306-.357l8.436-4.858c.413-.233.619-.555.626-.864h.007v-26.911h-.007c-.014-.302-.22-.604-.626-.844l-1.086-.625 28.409-16.371 2.386 1.379c3.417 1.969 8.587 2.182 11.543.48l119.046-68.595c2.956-1.708 2.592-4.686-.832-6.656l-2.386-1.372 18.934-10.91c1.046-.597 1.554-1.406 1.554-2.243v-17.923c0-1.022-.742-2.093-2.2-2.937z" fill="#211737"/><path d="M198.344 345.278v17.916l-97.539-56.197v-17.922l15.551 8.961 81.988 47.242z" fill="#170728" stroke="#170728" stroke-miterlimit="10" stroke-linecap="round" stroke-linejoin="round"/><path d="M379.921 240.66L198.344 345.278l-81.987-47.242L293.76 195.813c2.303-1.325 6.325-1.16 8.986.37l77.175 44.477z" fill="#D8FEE1" stroke="#170728" stroke-miterlimit="10" stroke-linecap="round" stroke-linejoin="round"/><path d="M392.852 231.85c0 .844-.508 1.647-1.553 2.25l-11.379 6.56-181.576 104.618-81.988-47.242-15.552-8.961 192.955-111.178c2.303-1.331 6.325-1.159 8.986.371l87.907 50.652c1.458.844 2.2 1.914 2.2 2.93z" fill="#D8FEE1" stroke="#170728" stroke-miterlimit="10" stroke-linecap="round" stroke-linejoin="round"/><path d="M392.853 231.85v17.922c0 .837-.509 1.647-1.554 2.244L198.344 363.194v-17.916L379.92 240.66l11.379-6.56c1.045-.604 1.554-1.406 1.554-2.25z" fill="#72987B" stroke="#170728" stroke-miterlimit="10" stroke-linecap="round" stroke-linejoin="round"/><path d="M375.582 270.954l-119.045 68.595c-2.957 1.708-8.127 1.489-11.544-.481l-7.755-4.467 129.764-74.77 7.755 4.467c3.41 1.976 3.782 4.954.825 6.656z" fill="#ABE5B9" stroke="#170728" stroke-miterlimit="10" stroke-linecap="round" stroke-linejoin="round"/><path d="M360.821 263.392l13.936 8.035m-20.116-4.474l13.943 8.035m-20.125-4.474l13.944 8.035m-20.125-4.474l13.943 8.035m-20.116-4.473l13.936 8.035m-20.117-4.474l13.943 8.035m-20.124-4.474l13.943 8.035m-20.124-4.474l13.943 8.028m-20.117-4.467l13.936 8.028m-20.117-4.466l13.943 8.028m-20.124-4.474l13.943 8.035m-20.124-4.474l13.943 8.035m-20.117-4.474l13.937 8.035m-20.118-4.474l13.943 8.035m-20.123-4.474l13.943 8.035m-20.124-4.474l13.943 8.035m-20.117-4.473l13.936 8.035m-20.117-4.474l13.943 8.028m-20.124-4.467l13.943 8.028m-20.124-4.474l13.943 8.035" stroke="#170728" stroke-miterlimit="10" stroke-linecap="round" stroke-linejoin="round"/><path d="M386.238 224.192v7.287c0 2.189-1.506 4.289-4.187 5.832l-162.875 93.846c-4.6 2.655-12.066 2.655-16.666 0l-74.088-42.686a8.939 8.939 0 01-1.842-1.372 8.939 8.939 0 011.842-1.372l162.869-93.846c2.681-1.544 6.325-2.415 10.12-2.415h24.565c3.796 0 7.433.871 10.121 2.415l45.954 26.479c2.681 1.551 4.187 3.643 4.187 5.832z" fill="#fff" stroke="#170728" stroke-miterlimit="10" stroke-linecap="round" stroke-linejoin="round"/><path d="M386.238 217.331v14.148c0 2.189-1.506 4.289-4.187 5.832l-162.875 93.846c-4.6 2.655-12.066 2.655-16.666 0l-74.088-42.686a8.939 8.939 0 01-1.842-1.372c-1.073-1.057-1.609-2.244-1.609-3.431 0-1.736 1.148-3.479 3.451-4.803l162.869-93.845c2.681-1.544 6.325-2.416 10.12-2.416h24.565c3.796 0 7.433.872 10.121 2.416l45.954 26.478c2.681 1.551 4.187 3.644 4.187 5.833z" fill="#fff" stroke="#170728" stroke-width=".872" stroke-miterlimit="10" stroke-linecap="round" stroke-linejoin="round"/><path d="M171.386 289.267l-9.942 5.73c-1.073.617-2.95.542-4.187-.172-1.238-.713-1.375-1.79-.303-2.415l9.942-5.729c1.073-.618 2.95-.542 4.187.171 1.238.714 1.375 1.798.303 2.415z" fill="#98CBA4" stroke="#170728" stroke-miterlimit="10" stroke-linecap="round" stroke-linejoin="round"/><path d="M179.938 294.194l-9.941 5.73c-1.073.617-2.95.542-4.187-.172-1.238-.714-1.375-1.798-.303-2.415l9.942-5.73c1.072-.617 2.949-.542 4.187.172 1.244.72 1.382 1.798.302 2.415z" fill="#BEFECD" stroke="#170728" stroke-miterlimit="10" stroke-linecap="round" stroke-linejoin="round"/><path d="M188.498 299.128l-9.941 5.729c-1.073.617-2.95.542-4.187-.172-1.238-.713-1.375-1.797-.303-2.415l9.942-5.729c1.072-.618 2.949-.542 4.187.171 1.244.721 1.375 1.798.302 2.416z" fill="#98CBA4" stroke="#170728" stroke-miterlimit="10" stroke-linecap="round" stroke-linejoin="round"/><path d="M197.058 304.061l-9.942 5.729c-1.073.618-2.95.542-4.187-.171-1.238-.714-1.375-1.791-.303-2.415l9.942-5.73c1.073-.617 2.949-.542 4.187.172 1.244.713 1.375 1.797.303 2.415z" fill="#BEFECD" stroke="#170728" stroke-miterlimit="10" stroke-linecap="round" stroke-linejoin="round"/><path d="M205.617 308.988l-9.941 5.729c-1.073.618-2.95.542-4.187-.171-1.238-.714-1.375-1.798-.303-2.416l9.942-5.729c1.072-.618 2.949-.542 4.187.171 1.238.721 1.375 1.798.302 2.416z" fill="#98CBA4" stroke="#170728" stroke-miterlimit="10" stroke-linecap="round" stroke-linejoin="round"/><path d="M236.22 233.098c1.86 0 3.368-.869 3.368-1.942 0-1.072-1.508-1.941-3.368-1.941-1.861 0-3.369.869-3.369 1.941 0 1.073 1.508 1.942 3.369 1.942zm65.762 37.89c1.86 0 3.369-.869 3.369-1.942 0-1.072-1.509-1.942-3.369-1.942-1.861 0-3.369.87-3.369 1.942 0 1.073 1.508 1.942 3.369 1.942zm-153.58 12.708c1.86 0 3.369-.87 3.369-1.942 0-1.073-1.509-1.942-3.369-1.942-1.861 0-3.369.869-3.369 1.942 0 1.072 1.508 1.942 3.369 1.942zm65.769 37.889c1.86 0 3.368-.869 3.368-1.942 0-1.072-1.508-1.941-3.368-1.941-1.861 0-3.369.869-3.369 1.941 0 1.073 1.508 1.942 3.369 1.942zM369.84 218.168c1.861 0 3.369-.87 3.369-1.942s-1.508-1.942-3.369-1.942c-1.86 0-3.368.87-3.368 1.942s1.508 1.942 3.368 1.942z" fill="#170728"/><path d="M354.522 218.278a15.559 15.559 0 01-.667 4.522c-1.554 5.194-5.809 10.168-12.767 14.175-17.917 10.327-46.979 10.327-64.889 0-1.526-.878-2.929-1.797-4.187-2.772a29.725 29.725 0 01-4.4-4.068c-2.028-2.333-3.424-4.804-4.18-7.322a15.539 15.539 0 01-.674-4.528c0-6.773 4.483-13.538 13.441-18.698 7.515-4.33 16.968-6.855 26.738-7.548 11.221-.782 22.847.789 32.396 4.735a48.077 48.077 0 015.755 2.813c8.958 5.16 13.434 11.918 13.434 18.691z" fill="#ABE5B9" stroke="#170728" stroke-miterlimit="10" stroke-linecap="round" stroke-linejoin="round"/><path d="M335.368 202.887c14.754 8.502 14.754 22.3 0 30.802-14.754 8.501-38.694 8.501-53.455 0a30.541 30.541 0 01-3.445-2.285 23.523 23.523 0 01-3.623-3.348c-7.109-8.159-4.737-18.362 7.068-25.169 6.194-3.568 13.984-5.647 22.028-6.216 9.24-.645 18.818.652 26.69 3.904a37.879 37.879 0 014.737 2.312z" fill="#98CBA4" stroke="#170728" stroke-miterlimit="10" stroke-linecap="round" stroke-linejoin="round"/><path d="M318.138 201.645c.935 3.987-.22 8.104-3.458 11.768-2.159-.892-4.792-1.249-7.336-1.07.55-3.548-1.533-7.205-6.243-9.915a19.175 19.175 0 00-1.127-.604c-.949-.474-.591-1.366.625-1.544a55.576 55.576 0 0115.161-.124c1.258.158 2.206.762 2.378 1.489zm-29.756 3.582c6.463 1.53 12.073 4.158 15.958 7.61-2.421.631-4.277 1.77-5.281 3.122-5.053-2.045-11.591-2.834-18.027-1.846-.501.075-.99.165-1.471.261-1.189.233-2.344-.385-2.008-1.084 1.382-2.848 3.919-5.462 7.391-7.63.88-.536 2.256-.714 3.438-.433zm-9.495 16.639c5.528-2.463 12.293-3.945 19.416-4.158-.261 1.524.522 3.019 2.056 4.193-5.604 1.496-10.059 4.364-11.785 8.076a9.12 9.12 0 00-.343.864c-.241.707-1.754.975-2.634.46-3.582-2.113-6.249-4.686-7.769-7.5-.385-.713.042-1.489 1.059-1.935zm20.255 13.058c-.935-3.987.22-8.103 3.458-11.768 2.159.892 4.792 1.249 7.336 1.071-.55 3.547 1.534 7.205 6.243 9.915.365.213.743.411 1.128.604.948.473.591 1.365-.626 1.543a55.49 55.49 0 01-15.16.124c-1.258-.158-2.207-.762-2.379-1.489zm29.756-3.582c-6.462-1.53-12.073-4.158-15.957-7.609 2.42-.632 4.276-1.77 5.28-3.122 5.053 2.045 11.592 2.834 18.027 1.846.502-.076.99-.165 1.471-.261 1.19-.234 2.345.384 2.008 1.084-1.382 2.847-3.919 5.462-7.391 7.63-.88.535-2.255.714-3.438.432zm9.495-16.639c-5.528 2.463-12.293 3.945-19.416 4.158.261-1.523-.522-3.019-2.056-4.193 5.604-1.495 10.059-4.363 11.785-8.076a9.12 9.12 0 00.343-.864c.241-.707 1.754-.974 2.634-.46 3.582 2.114 6.249 4.687 7.769 7.507.385.706-.042 1.482-1.059 1.928z" fill="#BEFECD" stroke="#170728" stroke-miterlimit="10" stroke-linecap="round" stroke-linejoin="round"/><path d="M315.986 214.051c4.057 2.34 4.057 6.128 0 8.461-4.056 2.339-10.636 2.339-14.685 0a9.01 9.01 0 01-.949-.625 6.873 6.873 0 01-.997-.919c-1.953-2.244-1.299-5.044 1.946-6.917 1.705-.981 3.843-1.55 6.05-1.708 2.537-.179 5.17.178 7.336 1.07.454.192.887.405 1.299.638z" fill="#fff" stroke="#170728" stroke-width=".872" stroke-miterlimit="10" stroke-linecap="round" stroke-linejoin="round"/><path d="M354.529 218.278v9.037h-.007c0 6.765-4.476 13.531-13.434 18.697-17.917 10.32-46.979 10.32-64.889 0-1.526-.878-2.929-1.797-4.187-2.772a29.73 29.73 0 01-4.4-4.069c-3.238-3.712-4.854-7.774-4.854-11.836v-9.05c0 1.516.22 3.033.674 4.528.756 2.519 2.152 4.989 4.18 7.322a29.725 29.725 0 004.4 4.068c1.258.975 2.661 1.894 4.187 2.773 17.91 10.326 46.972 10.326 64.889 0 6.958-4.008 11.213-8.982 12.767-14.176a15.81 15.81 0 00.674-4.522z" fill="#98CBA4" stroke="#170728" stroke-miterlimit="10" stroke-linecap="round" stroke-linejoin="round"/><path d="M275.436 263.495c.007 1.51-.22 3.019-.667 4.522-1.554 5.194-5.809 10.169-12.767 14.176-17.917 10.327-46.979 10.327-64.889 0-1.526-.878-2.929-1.798-4.187-2.772a29.73 29.73 0 01-4.4-4.069c-2.029-2.333-3.424-4.803-4.18-7.321a15.54 15.54 0 01-.674-4.529c0-6.772 4.482-13.538 13.441-18.698 7.515-4.329 16.968-6.854 26.738-7.547 11.22-.783 22.846.789 32.396 4.734a48.077 48.077 0 015.755 2.813c8.958 5.16 13.434 11.919 13.434 18.691z" fill="#ABE5B9" stroke="#170728" stroke-miterlimit="10" stroke-linecap="round" stroke-linejoin="round"/><path d="M256.281 248.098c14.755 8.501 14.755 22.3 0 30.802-14.754 8.501-38.694 8.501-53.455 0a30.861 30.861 0 01-3.445-2.285 23.527 23.527 0 01-3.623-3.349c-7.109-8.158-4.737-18.361 7.068-25.168 6.195-3.568 13.984-5.647 22.028-6.216 9.241-.645 18.818.651 26.69 3.904a39.772 39.772 0 014.737 2.312z" fill="#98CBA4" stroke="#170728" stroke-miterlimit="10" stroke-linecap="round" stroke-linejoin="round"/><path d="M239.052 246.863c.935 3.986-.22 8.103-3.458 11.767-2.159-.892-4.792-1.248-7.336-1.07.55-3.547-1.533-7.205-6.243-9.915a19.175 19.175 0 00-1.127-.604c-.949-.473-.591-1.365.626-1.544a55.53 55.53 0 0115.16-.123c1.258.158 2.207.755 2.378 1.489zm-29.749 3.575c6.463 1.53 12.073 4.158 15.958 7.609-2.42.632-4.277 1.771-5.281 3.122-5.053-2.044-11.591-2.833-18.027-1.845-.495.075-.99.164-1.471.26-1.189.234-2.345-.384-2.008-1.084 1.382-2.847 3.919-5.462 7.391-7.63.873-.535 2.249-.706 3.438-.432zm-9.502 16.639c5.528-2.463 12.293-3.946 19.416-4.158-.261 1.523.523 3.019 2.056 4.192-5.604 1.496-10.059 4.364-11.784 8.076a8.787 8.787 0 00-.344.865c-.241.706-1.753.974-2.633.459-3.582-2.113-6.25-4.686-7.769-7.499-.379-.707.048-1.482 1.058-1.935zm20.255 13.058c-.936-3.987.22-8.104 3.458-11.768 2.159.892 4.792 1.249 7.336 1.07-.55 3.548 1.533 7.205 6.242 9.915.365.213.743.412 1.128.604.949.474.591 1.366-.626 1.544a55.57 55.57 0 01-15.16.124c-1.251-.158-2.207-.755-2.378-1.489zm29.756-3.575c-6.463-1.531-12.073-4.158-15.958-7.61 2.421-.631 4.277-1.77 5.281-3.122 5.053 2.045 11.591 2.834 18.027 1.846.502-.076.99-.165 1.471-.261 1.189-.233 2.344.384 2.008 1.084-1.382 2.848-3.919 5.462-7.391 7.63-.874.536-2.249.714-3.438.433zm9.501-16.64c-5.527 2.463-12.293 3.946-19.416 4.158.262-1.523-.522-3.019-2.055-4.192 5.603-1.496 10.058-4.364 11.784-8.076.131-.288.248-.577.344-.865.241-.706 1.753-.974 2.633-.46 3.582 2.114 6.25 4.687 7.769 7.507.378.7-.048 1.475-1.059 1.928z" fill="#BEFECD" stroke="#170728" stroke-miterlimit="10" stroke-linecap="round" stroke-linejoin="round"/><path d="M236.9 259.269c4.057 2.34 4.057 6.127 0 8.46-4.056 2.34-10.636 2.34-14.685 0a9.167 9.167 0 01-.949-.624 6.822 6.822 0 01-.997-.92c-1.953-2.243-1.3-5.043 1.946-6.916 1.705-.981 3.843-1.551 6.05-1.709 2.537-.178 5.17.179 7.336 1.071.454.192.887.398 1.299.638z" fill="#fff" stroke="#170728" stroke-width=".872" stroke-miterlimit="10" stroke-linecap="round" stroke-linejoin="round"/><path d="M275.443 263.495v9.037h-.007c0 6.765-4.476 13.531-13.434 18.698-17.917 10.32-46.979 10.32-64.889 0-1.526-.879-2.929-1.798-4.187-2.772a29.783 29.783 0 01-4.4-4.069c-3.239-3.712-4.854-7.774-4.854-11.836v-9.051c0 1.517.22 3.033.674 4.529.756 2.518 2.151 4.988 4.18 7.321a29.73 29.73 0 004.4 4.069c1.258.974 2.661 1.894 4.187 2.772 17.91 10.327 46.972 10.327 64.889 0 6.958-4.007 11.213-8.982 12.767-14.176.447-1.503.674-3.012.674-4.522z" fill="#98CBA4" stroke="#170728" stroke-miterlimit="10" stroke-linecap="round" stroke-linejoin="round"/><path d="M386.238 231.479v6.862c0 2.189-1.506 4.288-4.187 5.832l-162.875 93.846c-4.6 2.655-12.066 2.655-16.666 0l-74.088-42.686c-2.303-1.324-3.451-3.067-3.451-4.803v-6.862c0 1.187.536 2.374 1.609 3.431a8.939 8.939 0 001.842 1.372l74.088 42.686c4.6 2.656 12.066 2.656 16.666 0l162.875-93.845c2.681-1.544 4.187-3.644 4.187-5.833z" fill="#D8FEE1" stroke="#170728" stroke-width=".872" stroke-miterlimit="10" stroke-linecap="round" stroke-linejoin="round"/><path d="M215.903 355.536c.021.329-.192.659-.625.906l-8.436 4.858c-.358.212-.825.329-1.307.357-.618.034-1.251-.083-1.719-.357L87.528 294.297l-12.369 7.129c-.495.288-1.12.439-1.767.473-.81.042-1.65-.116-2.275-.473l-7.426-4.282c-.556-.322-.838-.748-.832-1.173 0-.419.276-.837.832-1.153l22.318-12.865c.838-.481 2.193-.481 3.032 0l9.948 5.736 116.289 67.003c.405.24.612.542.625.844z" fill="#fff" stroke="#170728" stroke-width=".872" stroke-miterlimit="10" stroke-linecap="round" stroke-linejoin="round"/><path d="M215.91 355.536v26.911h-.007c-.006.309-.213.632-.625.865l-8.436 4.858c-.358.213-.825.329-1.307.357v-26.87c.482-.028.949-.144 1.307-.357l8.436-4.858c.433-.247.646-.576.625-.906h.007z" fill="#D8FEE1" stroke="#170728" stroke-width=".872" stroke-miterlimit="10" stroke-linecap="round" stroke-linejoin="round"/><path d="M210.719 365.664v12.728" stroke="#170728" stroke-miterlimit="10" stroke-linecap="round" stroke-linejoin="round"/><path d="M205.535 361.657v26.869c-.618.035-1.251-.089-1.719-.356L87.528 321.166v-26.869L203.816 361.3c.468.274 1.101.391 1.719.357z" fill="#ABE5B9" stroke="#170728" stroke-miterlimit="10" stroke-linecap="round" stroke-linejoin="round"/><path d="M87.528 294.297v26.869l-12.368 7.123c-.495.288-1.121.439-1.767.473v-26.863c.646-.034 1.272-.185 1.767-.473l12.368-7.129z" fill="#D8FEE1" stroke="#170728" stroke-width=".872" stroke-miterlimit="10" stroke-linecap="round" stroke-linejoin="round"/><path d="M73.392 301.899v26.863c-.81.048-1.65-.116-2.275-.473l-7.426-4.275c-.522-.302-.797-.693-.825-1.084h-.014v-26.959h.007c-.007.425.276.851.832 1.173l7.426 4.282c.625.356 1.464.514 2.275.473z" fill="#ABE5B9" stroke="#170728" stroke-miterlimit="10" stroke-linecap="round" stroke-linejoin="round"/><path d="M87.528 321.318v-.151M73.393 301.9v-.007" stroke="#170728" stroke-miterlimit="10" stroke-linecap="round" stroke-linejoin="round"/><path d="M121.712 331.582l-11.173-6.436c-1.56-.899-2.825-3.087-2.825-4.885 0-1.798 1.265-2.525 2.825-1.626l11.173 6.436c1.56.899 2.826 3.087 2.826 4.885 0 1.798-1.266 2.525-2.826 1.626z" fill="#98CBA4" stroke="#170728" stroke-miterlimit="10" stroke-linecap="round" stroke-linejoin="round"/><path d="M100.337 319.266c-1.561-.899-2.826-3.088-2.826-4.886 0-1.797 1.265-2.525 2.826-1.626 1.56.899 2.825 3.088 2.825 4.886 0 1.797-1.265 2.532-2.825 1.626zm31.578 18.197c-1.561-.899-2.826-3.088-2.826-4.886 0-1.797 1.265-2.525 2.826-1.626 1.56.899 2.825 3.088 2.825 4.886 0 1.797-1.265 2.525-2.825 1.626z" fill="#fff" stroke="#170728" stroke-miterlimit="10" stroke-linecap="round" stroke-linejoin="round"/><path d="M178.398 363.99l-11.172-6.436c-1.561-.899-2.826-3.088-2.826-4.886 0-1.797 1.265-2.525 2.826-1.626l11.172 6.436c1.561.899 2.826 3.088 2.826 4.886 0 1.797-1.265 2.525-2.826 1.626z" fill="#98CBA4" stroke="#170728" stroke-miterlimit="10" stroke-linecap="round" stroke-linejoin="round"/><path d="M157.024 351.673c-1.561-.899-2.826-3.088-2.826-4.885 0-1.798 1.265-2.525 2.826-1.626 1.56.899 2.825 3.087 2.825 4.885.007 1.798-1.265 2.525-2.825 1.626zm31.577 18.197c-1.56-.899-2.825-3.088-2.825-4.885 0-1.798 1.265-2.525 2.825-1.627 1.561.899 2.826 3.088 2.826 4.886 0 1.791-1.265 2.525-2.826 1.626z" fill="#fff" stroke="#170728" stroke-miterlimit="10" stroke-linecap="round" stroke-linejoin="round"/><path d="M67.741 308.164c-.894-.515-1.623-1.77-1.623-2.806 0-1.037.73-1.455 1.623-.934.894.515 1.623 1.771 1.623 2.807.007 1.036-.722 1.454-1.623.933zm0 13.648c-.894-.515-1.623-1.771-1.623-2.807s.73-1.454 1.623-.933c.894.515 1.623 1.77 1.623 2.806.007 1.03-.722 1.448-1.623.934z" fill="#170728"/><path d="M180.863 205.747c0 1.349-.733 2.703-2.172 3.851a8.97 8.97 0 01-1.147.768c-2.206 1.275-5.099 1.922-8.005 1.922-2.906 0-5.792-.647-8.004-1.922a306.499 306.499 0 01-15.464-9.551l-24.58-16.245c-2.433-1.609-6.319-2.23-9.785-1.502-6.985 1.488-14.703 1.488-21.681 0-3.466-.734-7.359-.114-9.785 1.502l-24.594 16.245a303.092 303.092 0 01-15.45 9.551c-4.605 2.663-12.163 2.556-16.522-.314-.214-.14-.414-.287-.6-.427-1.434-1.128-2.12-2.463-2.12-3.798 0-1.768 1.2-3.544 3.506-4.878a319.516 319.516 0 0115.963-8.624l28.393-14.363c2.773-1.408 3.853-3.658 2.586-5.666-1.986-3.117-2.44-6.488-1.346-9.718.313-.955.766-1.896 1.346-2.817 1.267-2.009.187-4.258-2.586-5.666L40.71 139.878a336.723 336.723 0 01-16.517-8.93 9.912 9.912 0 01-1.153-.774c-1.44-1.148-2.16-2.497-2.16-3.851 0-1.803 1.287-3.611 3.847-4.913 4.538-2.322 11.504-2.015 15.783.461a300.253 300.253 0 0115.15 9.377l24.594 16.246c2.432 1.608 6.318 2.229 9.784 1.501 6.978-1.481 14.696-1.481 21.681 0 3.466.734 7.359.114 9.785-1.501l24.581-16.246a306.501 306.501 0 0110.877-6.848c1.513-.907 3.04-1.815 4.586-2.703 4.585-2.656 12.137-2.556 16.496.307 1.726 1.128 2.613 2.53 2.719 3.931v.454c-.046 1.315-.766 2.637-2.106 3.758a9.53 9.53 0 01-1.413.981c-.906.521-1.813 1.035-2.726 1.555a325.317 325.317 0 01-13.483 7.202l-28.094 14.216c-2.779 1.409-3.865 3.658-2.586 5.667.58.914 1.033 1.862 1.34 2.816 1.093 3.231.64 6.601-1.34 9.718-1.273 2.009-.193 4.258 2.586 5.667l28.094 14.216a336.888 336.888 0 0116.522 8.93c2.193 1.282 3.306 2.957 3.306 4.632z" fill="#fff" stroke="#170728" stroke-width=".872" stroke-miterlimit="10" stroke-linecap="round" stroke-linejoin="round"/><path d="M120.491 165.367c0 .821-.153 1.642-.46 2.45-.779 2.049-2.539 3.991-5.292 5.58-7.665 4.431-20.102 4.431-27.767 0-2.752-1.589-4.518-3.538-5.291-5.58a6.847 6.847 0 01-.46-2.45c0-2.903 1.912-5.806 5.751-8.022 7.665-4.432 20.102-4.432 27.767 0 3.833 2.216 5.752 5.119 5.752 8.022z" fill="#98CBA4" stroke="#170728" stroke-miterlimit="10" stroke-linecap="round" stroke-linejoin="round"/><path d="M110.947 165.367c0 .374-.08.748-.233 1.115-.4.928-1.307 1.815-2.72 2.536-3.939 2.016-10.324 2.016-14.27 0-1.413-.721-2.319-1.608-2.719-2.536a2.766 2.766 0 01-.233-1.115c0-1.321.986-2.636 2.952-3.644 3.94-2.015 10.325-2.015 14.27 0 1.967 1.008 2.953 2.323 2.953 3.644z" fill="#BEFECD" stroke="#170728" stroke-miterlimit="10" stroke-linecap="round" stroke-linejoin="round"/><path d="M180.751 126.396v7.709c-.067 1.722-1.273 3.444-3.519 4.738a341.067 341.067 0 01-16.21 8.757l-28.107 14.217c-.46.233-.879.487-1.239.767a12.479 12.479 0 00-1.34-2.816c-1.273-2.009-.193-4.259 2.586-5.667l28.094-14.216a335.195 335.195 0 0016.209-8.757c.526-.307 1-.628 1.413-.981 1.346-1.115 2.066-2.436 2.113-3.751zM71.39 159.768a12.642 12.642 0 00-1.347 2.816 7.383 7.383 0 00-1.24-.767L40.698 147.6a339.208 339.208 0 01-16.523-8.93c-2.206-1.275-3.306-2.95-3.306-4.625v-7.709c0 1.348.72 2.703 2.16 3.851.34.267.733.527 1.153.774a335.885 335.885 0 0016.516 8.931l28.107 14.216c2.772 1.402 3.852 3.651 2.586 5.66zm109.474 45.979v7.703c0 1.675-1.107 3.35-3.32 4.625-2.219 1.275-5.112 1.916-8.004 1.916-2.9 0-5.792-.641-8.005-1.916a300.317 300.317 0 01-15.463-9.551l-8.158-5.393a56.177 56.177 0 00-2.8-1.849 64.45 64.45 0 00-29.573-9.591 60.502 60.502 0 00-4.685-.173c-1.573 0-3.133.053-4.68.173a64.356 64.356 0 00-29.572 9.591 58.49 58.49 0 00-2.966 1.963l-7.992 5.286a298.531 298.531 0 01-15.463 9.551c-4.592 2.656-12.163 2.556-16.516-.314-1.84-1.201-2.72-2.71-2.72-4.218v-7.709c0 1.335.687 2.663 2.12 3.798.187.14.387.287.6.427 4.36 2.87 11.924 2.977 16.523.313a299.526 299.526 0 0015.45-9.551l24.594-16.245c2.433-1.608 6.319-2.229 9.784-1.502 6.979 1.489 14.697 1.489 21.682 0 3.466-.734 7.358-.113 9.784 1.502l24.581 16.245a305.742 305.742 0 0015.463 9.551c2.206 1.275 5.099 1.923 8.005 1.923 2.906 0 5.792-.648 8.005-1.923.426-.24.806-.5 1.146-.767 1.447-1.161 2.18-2.516 2.18-3.865z" fill="#D8FEE1" stroke="#170728" stroke-width=".872" stroke-miterlimit="10" stroke-linecap="round" stroke-linejoin="round"/><path d="M165.647 107.521v17.981c0 .106.027.207.074.307.126.26.413.507.86.707 1.246.561 3.273.561 4.519 0 .447-.2.734-.447.86-.707a.734.734 0 00.073-.307v-17.981h-6.386z" fill="#98CBA4" stroke="#170728" stroke-miterlimit="10" stroke-linecap="round" stroke-linejoin="round"/><path d="M200.852 123.412c0 .541-.293 1.082-.866 1.542-.14.107-.287.214-.46.307-.886.514-2.039.768-3.206.768-1.166 0-2.319-.261-3.206-.768a121.724 121.724 0 01-6.185-3.824l-9.838-6.501c-.973-.647-2.532-.894-3.919-.601a21.353 21.353 0 01-8.678 0c-1.386-.293-2.946-.046-3.919.601l-9.844 6.501a121.724 121.724 0 01-6.185 3.824c-1.84 1.068-4.866 1.021-6.612-.127a2.106 2.106 0 01-.24-.173c-.573-.454-.846-.988-.846-1.522 0-.707.479-1.422 1.399-1.949a128.7 128.7 0 016.385-3.45l11.364-5.747c1.107-.561 1.54-1.462 1.033-2.269-.793-1.248-.973-2.597-.539-3.892.126-.38.306-.76.539-1.127.507-.801.074-1.702-1.033-2.27l-11.244-5.686a140.288 140.288 0 01-6.611-3.571 3.608 3.608 0 01-.46-.314c-.58-.46-.867-1-.867-1.542 0-.72.513-1.441 1.54-1.969 1.813-.927 4.605-.807 6.318.187a116.439 116.439 0 016.059 3.751l9.844 6.501c.973.648 2.533.895 3.919.601a21.353 21.353 0 018.678 0c1.387.294 2.946.047 3.919-.601l9.838-6.5a124.827 124.827 0 016.185-3.825c1.833-1.061 4.859-1.021 6.605.12.694.454 1.047 1.008 1.087 1.575v.18c-.02.528-.307 1.055-.847 1.502-.166.14-.353.274-.566.394a135.482 135.482 0 01-6.485 3.504l-11.244 5.687c-1.113.56-1.547 1.461-1.033 2.269.233.367.413.747.533 1.128.433 1.295.253 2.643-.533 3.891-.514.801-.08 1.702 1.033 2.269l11.244 5.687a136.982 136.982 0 016.611 3.571c.894.527 1.333 1.201 1.333 1.868z" fill="#fff" stroke="#170728" stroke-width=".872" stroke-miterlimit="10" stroke-linecap="round" stroke-linejoin="round"/><path d="M172.726 100.059l-2.526-2.53a1.91 1.91 0 00-2.713 0l-2.526 2.53a5.508 5.508 0 000 7.782 5.49 5.49 0 007.772 0 5.514 5.514 0 00-.007-7.782z" fill="#BEFECD" stroke="#170728" stroke-miterlimit="10" stroke-linecap="round" stroke-linejoin="round"/><path d="M165.647 186.645v17.981c0 .107.027.207.073.307.127.26.414.507.86.708 1.247.56 3.273.56 4.52 0 .447-.201.733-.448.86-.708a.734.734 0 00.073-.307v-17.981h-6.386z" fill="#98CBA4" stroke="#170728" stroke-miterlimit="10" stroke-linecap="round" stroke-linejoin="round"/><path d="M197.653 200.949c0 .487-.26.974-.78 1.388-.12.093-.26.187-.413.274-.793.46-1.839.694-2.879.694s-2.086-.234-2.88-.694a110.665 110.665 0 01-5.572-3.438l-8.851-5.847c-.873-.58-2.279-.8-3.526-.54a19.243 19.243 0 01-7.811 0c-1.247-.26-2.653-.04-3.526.54l-8.858 5.847a107.373 107.373 0 01-5.565 3.438c-1.66.961-4.379.921-5.952-.114a2.578 2.578 0 01-.214-.153c-.513-.408-.759-.888-.759-1.369 0-.634.433-1.275 1.259-1.755a114.585 114.585 0 015.746-3.104l10.224-5.172c1-.508 1.386-1.315.933-2.043-.713-1.121-.88-2.336-.487-3.497.114-.34.274-.681.487-1.015.453-.72.067-1.535-.933-2.042l-10.124-5.119a122.245 122.245 0 01-5.946-3.217 2.837 2.837 0 01-.413-.28c-.52-.414-.78-.901-.78-1.389 0-.647.46-1.301 1.387-1.768 1.633-.835 4.145-.728 5.685.166a108.982 108.982 0 015.459 3.378l8.858 5.846c.873.581 2.279.801 3.525.541a19.247 19.247 0 017.812 0c1.246.26 2.653.04 3.526-.541l8.851-5.846a107.602 107.602 0 015.572-3.438c1.653-.954 4.372-.921 5.939.107.62.407.94.908.98 1.415v.16c-.014.474-.274.948-.76 1.355a3.8 3.8 0 01-.507.354 114.77 114.77 0 01-5.839 3.15l-10.117 5.119c-1 .508-1.393 1.315-.933 2.043.206.327.373.667.48 1.014.393 1.162.226 2.376-.48 3.498-.46.721-.067 1.535.933 2.042l10.117 5.119a122.002 122.002 0 015.952 3.217c.78.468 1.18 1.075 1.18 1.676z" fill="#fff" stroke="#170728" stroke-width=".872" stroke-miterlimit="10" stroke-linecap="round" stroke-linejoin="round"/><path d="M172.725 179.184l-2.526-2.53a1.909 1.909 0 00-2.712 0l-2.526 2.53a5.508 5.508 0 000 7.782 5.49 5.49 0 007.771 0c2.14-2.143 2.14-5.633-.007-7.782z" fill="#BEFECD" stroke="#170728" stroke-miterlimit="10" stroke-linecap="round" stroke-linejoin="round"/><path d="M36.059 186.645v17.981a.715.715 0 01-.073.307c-.127.26-.414.507-.86.708-1.247.56-3.273.56-4.52 0-.447-.201-.733-.448-.86-.708a.739.739 0 01-.073-.307v-17.981h6.386z" fill="#98CBA4" stroke="#170728" stroke-miterlimit="10" stroke-linecap="round" stroke-linejoin="round"/><path d="M.853 202.537c0 .541.293 1.081.866 1.542.14.106.287.213.46.307.886.514 2.04.767 3.206.767s2.32-.26 3.206-.767a121.293 121.293 0 006.185-3.825l9.838-6.501c.973-.647 2.532-.894 3.919-.6 2.8.594 5.885.594 8.678 0 1.386-.294 2.946-.047 3.919.6l9.844 6.501a121.435 121.435 0 006.185 3.825c1.84 1.068 4.866 1.021 6.612-.127.087-.054.167-.114.24-.174.573-.454.847-.988.847-1.521 0-.708-.48-1.422-1.4-1.949a128.406 128.406 0 00-6.385-3.451l-11.364-5.747c-1.107-.56-1.54-1.461-1.033-2.269.793-1.248.973-2.596.54-3.891a5.139 5.139 0 00-.54-1.128c-.507-.801-.074-1.702 1.033-2.269l11.25-5.687a139.838 139.838 0 006.612-3.571c.173-.1.327-.207.46-.313.58-.461.866-1.001.866-1.542 0-.721-.513-1.442-1.539-1.969-1.813-.928-4.606-.808-6.319.187a119.72 119.72 0 00-6.065 3.751l-9.844 6.501c-.973.647-2.533.894-3.92.6a21.352 21.352 0 00-8.677 0c-1.387.294-2.946.047-3.92-.6l-9.837-6.501a124.472 124.472 0 00-6.185-3.825c-1.833-1.061-4.86-1.021-6.605.121-.694.453-1.047 1.007-1.087 1.575v.18c.02.527.307 1.055.847 1.502.166.14.353.273.566.393a134.55 134.55 0 006.485 3.505l11.244 5.686c1.113.561 1.547 1.462 1.033 2.269a4.823 4.823 0 00-.533 1.128c-.44 1.295-.253 2.643.533 3.891.514.801.08 1.702-1.033 2.27l-11.244 5.686a137.505 137.505 0 00-6.611 3.571c-.894.527-1.333 1.201-1.333 1.869z" fill="#fff" stroke="#170728" stroke-width=".872" stroke-miterlimit="10" stroke-linecap="round" stroke-linejoin="round"/><path d="M28.98 179.183l2.525-2.529a1.91 1.91 0 012.713 0l2.526 2.529a5.509 5.509 0 010 7.783 5.49 5.49 0 01-7.772 0c-2.14-2.143-2.14-5.633.007-7.783z" fill="#BEFECD" stroke="#170728" stroke-miterlimit="10" stroke-linecap="round" stroke-linejoin="round"/><path d="M36.079 107.521v17.981a.72.72 0 01-.073.307c-.127.26-.414.507-.86.707-1.247.561-3.273.561-4.52 0-.447-.2-.733-.447-.86-.707a.739.739 0 01-.073-.307v-17.981h6.386z" fill="#98CBA4" stroke="#170728" stroke-miterlimit="10" stroke-linecap="round" stroke-linejoin="round"/><path d="M.866 123.412c0 .541.293 1.082.866 1.542.14.107.287.214.46.307.887.514 2.04.768 3.206.768 1.167 0 2.32-.261 3.206-.768a121.454 121.454 0 006.185-3.824l9.838-6.501c.973-.647 2.533-.894 3.92-.601 2.799.594 5.884.594 8.677 0 1.386-.293 2.946-.046 3.92.601l9.844 6.501a121.466 121.466 0 006.185 3.824c1.84 1.068 4.865 1.021 6.611-.127.087-.053.167-.113.24-.173.574-.454.847-.988.847-1.522 0-.707-.48-1.422-1.4-1.949a128.438 128.438 0 00-6.385-3.45l-11.364-5.747c-1.106-.561-1.54-1.462-1.033-2.269.793-1.248.973-2.597.54-3.892a5.132 5.132 0 00-.54-1.127c-.507-.801-.073-1.702 1.033-2.27l11.25-5.686a140.664 140.664 0 006.612-3.571c.174-.1.327-.207.46-.314.58-.46.867-1 .867-1.542 0-.72-.513-1.441-1.54-1.969-1.813-.927-4.605-.807-6.318.187a116.591 116.591 0 00-6.059 3.751l-9.844 6.501c-.973.648-2.533.895-3.92.601a21.353 21.353 0 00-8.677 0c-1.387.294-2.946.047-3.92-.601l-9.837-6.5a124.392 124.392 0 00-6.185-3.825c-1.833-1.061-4.86-1.021-6.605.12-.693.454-1.047 1.008-1.087 1.575v.18c.02.528.307 1.055.847 1.502.166.14.353.274.566.394a135.338 135.338 0 006.485 3.504l11.244 5.687c1.113.56 1.547 1.461 1.034 2.269a4.805 4.805 0 00-.534 1.128c-.44 1.295-.253 2.643.534 3.891.513.801.08 1.702-1.034 2.269l-11.244 5.687a137.5 137.5 0 00-6.611 3.571c-.893.527-1.34 1.201-1.34 1.868z" fill="#fff" stroke="#170728" stroke-width=".872" stroke-miterlimit="10" stroke-linecap="round" stroke-linejoin="round"/><path d="M29 100.059l2.525-2.53a1.909 1.909 0 012.713 0l2.526 2.53a5.508 5.508 0 010 7.782 5.49 5.49 0 01-7.772 0 5.514 5.514 0 01.007-7.782z" fill="#BEFECD" stroke="#170728" stroke-miterlimit="10" stroke-linecap="round" stroke-linejoin="round"/><path d="M139.78 144.944c1.495 0 2.707-.702 2.707-1.569 0-.866-1.212-1.568-2.707-1.568-1.494 0-2.706.702-2.706 1.568 0 .867 1.212 1.569 2.706 1.569zm-77.835 0c1.495 0 2.707-.702 2.707-1.569 0-.866-1.212-1.568-2.707-1.568-1.495 0-2.706.702-2.706 1.568 0 .867 1.212 1.569 2.706 1.569zm77.835 45.319c1.495 0 2.707-.702 2.707-1.569 0-.866-1.212-1.568-2.707-1.568-1.494 0-2.706.702-2.706 1.568 0 .867 1.212 1.569 2.706 1.569zm-77.835 0c1.495 0 2.707-.702 2.707-1.569 0-.866-1.212-1.568-2.707-1.568-1.495 0-2.706.702-2.706 1.568 0 .867 1.212 1.569 2.706 1.569z" fill="#170728"/></svg>