<svg width="384" height="800" fill="none" xmlns="http://www.w3.org/2000/svg"><path d="M12 0C5.373 0 0 5.373 0 12v776c0 6.627 5.373 12 12 12h360c6.627 0 12-5.373 12-12V12c0-6.627-5.373-12-12-12H267a12 12 0 00-11.077 7.385l-4.872 11.692A8 8 0 01243.667 24H140.333a8 8 0 01-7.384-4.923l-4.872-11.692A12 12 0 00117 0H12z" fill="url(#paint0_radial_94_88)"/><path d="M200.367 19a7.854 7.854 0 005.406-2.163 8.037 8.037 0 002.483-5.32H211v-1.035h-2.744a8.056 8.056 0 00-1.395-4.047 7.921 7.921 0 00-3.26-2.736 7.819 7.819 0 00-4.188-.641 7.855 7.855 0 00-3.914 1.64 7.818 7.818 0 00-8.101-1 7.921 7.921 0 00-3.26 2.737 8.055 8.055 0 00-1.394 4.047H180v1.035h2.744a8.055 8.055 0 001.394 4.047 7.921 7.921 0 003.26 2.737 7.818 7.818 0 008.101-1A7.814 7.814 0 00200.367 19zm4.868-3.075a6.85 6.85 0 01-4.356 2.02 6.826 6.826 0 01-4.603-1.344 8.014 8.014 0 002.245-5.084h8.71a6.979 6.979 0 01-1.996 4.408zm-11.732-5.443a6.985 6.985 0 011.996-4.41 6.974 6.974 0 011.995 4.41h-3.991zm3.992 1.035a6.978 6.978 0 01-1.994 4.41 6.975 6.975 0 01-1.996-4.41h3.99zm7.74-5.443a6.979 6.979 0 011.996 4.41h-8.71a8.014 8.014 0 00-2.245-5.083 6.825 6.825 0 018.959.675v-.002zm-19.471 0a6.85 6.85 0 014.356-2.021 6.826 6.826 0 014.604 1.345 8.014 8.014 0 00-2.246 5.084h-8.71a6.98 6.98 0 011.996-4.408zm0 9.851a6.98 6.98 0 01-1.996-4.41h8.71a8.014 8.014 0 002.246 5.083 6.825 6.825 0 01-8.96-.673z" fill="#453953"/><defs><radialGradient id="paint0_radial_94_88" cx="0" cy="0" r="1" gradientUnits="userSpaceOnUse" gradientTransform="matrix(0 608.85 -193.759 0 198.122 649.151)"><stop offset="1" stop-color="#170728"/></radialGradient></defs></svg>