<svg width="1568" height="796" fill="none" xmlns="http://www.w3.org/2000/svg"><path d="M12 0C5.373 0 0 5.373 0 12v772c0 6.627 5.373 12 12 12h1544c6.63 0 12-5.373 12-12V12c0-6.627-5.37-12-12-12H859a12 12 0 00-11.077 7.385l-4.872 11.692A8 8 0 01835.667 24H732.333a8 8 0 01-7.384-4.923l-4.872-11.692A12 12 0 00709 0H12z" fill="url(#paint0_linear_356_7253)"/><defs><linearGradient id="paint0_linear_356_7253" x1="784" y1="0" x2="1206.19" y2="486.088" gradientUnits="userSpaceOnUse"><stop stop-color="#170728"/><stop offset="1" stop-color="#250E3E"/></linearGradient></defs></svg>