<svg width="272" height="272" fill="none" xmlns="http://www.w3.org/2000/svg"><path d="M250.272 136c0-29.353-9.411-62.191-24.627-87.7a148.361 148.361 0 00-2.335-3.784C247.662 63.248 263.5 94.946 263.5 136c0 41.054-15.838 72.752-40.19 91.484a147.657 147.657 0 002.335-3.784c15.216-25.509 24.627-58.347 24.627-87.7zM144.552 29.773c.288 5.645 1.342 12.017 2.809 18.887 1.493 6.993 3.43 14.567 5.449 22.46 1.649 6.447 3.353 13.106 4.913 19.837 3.481 15.013 6.275 30.471 6.275 45.043s-2.794 30.03-6.275 45.043c-1.56 6.731-3.264 13.39-4.913 19.837-2.019 7.893-3.956 15.467-5.449 22.46-1.467 6.87-2.521 13.242-2.809 18.887-1.419-.922-2.583-1.983-3.526-3.177-3.864-4.886-4.169-12.158-2.742-21.762.866-5.831 2.354-12.434 4.01-19.785 1.069-4.747 2.209-9.805 3.297-15.169 2.766-13.64 5.179-29.175 5.179-46.334 0-17.159-2.413-32.694-5.179-46.334-1.088-5.364-2.228-10.422-3.297-15.168-1.656-7.352-3.144-13.955-4.01-19.786-1.427-9.604-1.122-16.876 2.742-21.762.943-1.194 2.107-2.255 3.526-3.177zm21.378-5.366c-9.209 0-15.835 1.227-20.442 3.659-.097-4.03.246-7.618 1.162-10.683 1.125-3.763 3.109-6.715 6.198-8.736 3.097-2.026 7.355-3.147 13.082-3.147 20.283 0 38.952 14.083 53.478 34.961-15.4-10.432-33.759-16.054-53.478-16.054zm0 223.186c19.719 0 38.078-5.622 53.478-16.054-14.526 20.878-33.195 34.961-53.478 34.961-5.727 0-9.985-1.121-13.082-3.147-3.089-2.02-5.073-4.973-6.198-8.736-.916-3.065-1.259-6.653-1.162-10.683 4.607 2.432 11.233 3.659 20.442 3.659zM21.728 136c0-29.353 9.41-62.191 24.627-87.7.764-1.28 1.542-2.542 2.335-3.784C24.338 63.248 8.5 94.946 8.5 136c0 41.054 15.838 72.752 40.19 91.484a147.086 147.086 0 01-2.335-3.784C31.14 198.191 21.728 165.353 21.728 136zm105.72-106.227c-.288 5.645-1.342 12.017-2.809 18.887-1.493 6.993-3.43 14.567-5.449 22.46-1.649 6.447-3.353 13.106-4.913 19.837-3.481 15.013-6.275 30.471-6.275 45.043s2.794 30.03 6.275 45.043c1.56 6.731 3.264 13.39 4.913 19.837 2.019 7.893 3.956 15.467 5.449 22.46 1.467 6.87 2.521 13.242 2.809 18.887 1.419-.922 2.583-1.983 3.526-3.177 3.864-4.886 4.169-12.158 2.742-21.762-.866-5.831-2.354-12.434-4.01-19.785-1.069-4.747-2.209-9.805-3.297-15.169-2.766-13.64-5.179-29.175-5.179-46.334 0-17.159 2.413-32.694 5.179-46.334 1.088-5.364 2.228-10.422 3.297-15.168 1.656-7.352 3.144-13.955 4.01-19.786 1.427-9.604 1.122-16.876-2.742-21.762-.943-1.194-2.107-2.255-3.526-3.177zm-21.378-5.366c9.209 0 15.835 1.227 20.442 3.66.097-4.03-.246-7.62-1.162-10.684-1.125-3.763-3.109-6.715-6.198-8.736-3.097-2.026-7.355-3.147-13.082-3.147-20.283 0-38.952 14.083-53.478 34.961 15.4-10.432 33.759-16.054 53.478-16.054zm0 223.186c-19.72 0-38.078-5.622-53.478-16.054C67.118 252.417 85.787 266.5 106.07 266.5c5.727 0 9.985-1.121 13.082-3.147 3.089-2.02 5.073-4.973 6.198-8.736.916-3.065 1.259-6.653 1.162-10.683-4.607 2.432-11.233 3.659-20.442 3.659z" stroke="#170728"/><path d="M79.232 167.053C69.79 158.407 63.5 147.479 63.5 135.636s6.29-22.771 15.732-31.416c-4.664 9.145-7.162 19.908-7.162 31.416s2.498 22.271 7.162 31.417zm113.536 0c9.442-8.646 15.732-19.574 15.732-31.417s-6.29-22.771-15.732-31.416c4.664 9.145 7.163 19.908 7.163 31.416s-2.499 22.271-7.163 31.417z" fill="#BEFECD" stroke="#170728"/></svg>