<svg width="324" height="467" fill="none" xmlns="http://www.w3.org/2000/svg"><path d="M277.969 456h35.387c5.602 0 10.144-4.543 10.144-10.148V11.148C323.5 5.543 318.958 1 313.356 1H195.155m50.69 455l-235.2-.5C5.041 455.5.5 450.957.5 445.352V35.148C.5 29.543 5.042 25 10.644 25h86.691" stroke="#453953"/><path d="M102.325 14.88c0-.37.417-.587.721-.374L118 25l-14.954 10.494a.458.458 0 01-.721-.375c0-3.039-1.342-5.922-3.666-7.88l-2.015-1.696a.71.71 0 010-1.086l2.015-1.696a10.303 10.303 0 003.666-7.88zm170.35 431.001a.458.458 0 00-.721-.375L257 456l14.954 10.494a.458.458 0 00.721-.375c0-3.039 1.342-5.923 3.666-7.88l2.015-1.696a.711.711 0 000-1.086l-2.015-1.696a10.302 10.302 0 01-3.666-7.88z" fill="#2E203E"/></svg>