<svg width="272" height="272" fill="none" xmlns="http://www.w3.org/2000/svg"><path d="M136 246.785c30.498 0 64.602-12.388 91.083-32.403a150.118 150.118 0 004.193-3.285 116.888 116.888 0 01-11.342 15.795C200.078 250.126 171.384 264.5 136 264.5s-64.078-14.374-83.934-37.608a116.924 116.924 0 01-11.343-15.795 151.466 151.466 0 004.194 3.285c26.481 20.015 60.585 32.403 91.083 32.403zm95.276-185.882a151.071 151.071 0 00-4.193-3.285C200.602 37.603 166.498 25.215 136 25.215c-30.498 0-64.602 12.388-91.083 32.403a152.437 152.437 0 00-4.194 3.285 116.9 116.9 0 0111.343-15.795C71.922 21.875 100.616 7.5 136 7.5s64.078 14.375 83.934 37.608a116.864 116.864 0 0111.342 15.795zM251.833 136c0-26.076-5.914-50.366-16.902-70.703C256.723 84.43 271.5 109.107 271.5 136s-14.777 51.57-36.569 70.703c10.988-20.337 16.902-44.627 16.902-70.703zm-231.666 0c0 26.076 5.914 50.366 16.902 70.703C15.277 187.57.5 162.893.5 136s14.777-51.57 36.569-70.703C26.08 85.634 20.167 109.924 20.167 136z" stroke="#170728"/><path d="M136 186.87c14.187 0 30.034-5.738 42.336-15 .247-.186.494-.374.738-.563a53.391 53.391 0 01-4.413 5.942c-9.143 10.657-22.355 17.253-38.661 17.253s-29.519-6.596-38.662-17.253a53.33 53.33 0 01-4.413-5.942c.245.189.49.377.738.563 12.303 9.262 28.15 15 42.337 15zm43.074-87.175a68.305 68.305 0 00-.738-.563c-12.302-9.262-28.149-15-42.336-15-14.187 0-30.034 5.738-42.337 15-.247.186-.493.374-.738.563a53.27 53.27 0 014.413-5.942C106.481 83.096 119.694 76.5 136 76.5c16.306 0 29.518 6.596 38.661 17.253a53.33 53.33 0 014.413 5.942zm10.829 35.806c0-11.507-2.498-22.271-7.162-31.417 9.44 8.643 15.732 19.573 15.732 31.417 0 11.844-6.292 22.774-15.732 31.416 4.664-9.145 7.162-19.909 7.162-31.416zm-107.807 0c0 11.507 2.498 22.271 7.163 31.416-9.44-8.642-15.733-19.572-15.733-31.416 0-11.844 6.293-22.774 15.733-31.417-4.665 9.146-7.163 19.91-7.163 31.417z" fill="#BEFECD" stroke="#170728"/></svg>