<svg width="272" height="272" fill="none" xmlns="http://www.w3.org/2000/svg"><path d="M37.354 245.777v-26.048a101.063 101.063 0 0025.214 26.048H37.354zm-1-29.451C26.936 201.124 21.5 183.197 21.5 164V8.659l73.581 20.564H36.354v187.103zM121 263.5c-20.434 0-39.429-6.16-55.23-16.723h139.46C189.429 257.34 170.434 263.5 150 263.5h-29zm112.646-17.723h-25.214a101.06 101.06 0 0025.214-26.048v26.048zM249.5 164c0 19.197-5.436 37.124-14.854 52.326V29.223h-58.727L249.5 8.66V164zM102.375 30.223h66.25L135.5 39.481l-33.125-9.258z" stroke="#000"/><path d="M135.5 80.006c-12.516 0-26.494 4.993-37.345 13.054a59.11 59.11 0 00-.37.276 46.106 46.106 0 013.685-4.854c8.045-9.253 19.674-14.982 34.03-14.982 14.356 0 25.985 5.73 34.03 14.982a46.034 46.034 0 013.684 4.854 36.915 36.915 0 00-.369-.276C161.994 85 148.016 80.006 135.5 80.006zm-44.579 56.216l.146-.012c2.276-.198 4.808-.731 7.515-1.451 2.707-.719 5.605-1.63 8.614-2.587l.907-.289c2.731-.87 5.548-1.767 8.405-2.592 6.353-1.834 12.866-3.298 18.992-3.298 6.126 0 12.639 1.464 18.992 3.298 2.857.825 5.674 1.722 8.405 2.592l.907.289c3.009.957 5.907 1.868 8.615 2.587 2.706.72 5.238 1.253 7.514 1.451l.146.012a6.88 6.88 0 01-1.14 1.505c-1.955 1.926-4.887 2.115-8.94 1.365-2.012-.372-4.255-.966-6.729-1.654l-1.635-.457c-2.01-.564-4.157-1.167-6.425-1.739-5.791-1.463-12.402-2.743-19.71-2.743-7.308 0-13.919 1.28-19.71 2.743-2.268.572-4.415 1.175-6.425 1.739l-1.635.457c-2.474.688-4.717 1.282-6.729 1.654-4.053.75-6.985.561-8.94-1.365a6.88 6.88 0 01-1.14-1.505zm-2.987-11.484c0 4.656.475 8.096 1.443 10.556-1.524.013-2.868-.173-4.017-.601-1.521-.566-2.72-1.563-3.55-3.142-.836-1.593-1.31-3.806-1.31-6.813 0-10.171 5.423-19.572 13.597-27.044-4.015 7.897-6.163 17.155-6.163 27.044zm95.132 0c0-9.889-2.148-19.147-6.163-27.044 8.174 7.472 13.597 16.873 13.597 27.044 0 3.007-.474 5.22-1.311 6.813-.829 1.579-2.028 2.576-3.549 3.142-1.149.428-2.493.614-4.017.601.968-2.46 1.443-5.9 1.443-10.556zM136.5 200.994c-12.516 0-26.494-4.993-37.345-13.054l-.37-.276a46.11 46.11 0 003.685 4.854c8.045 9.253 19.674 14.982 34.03 14.982 14.356 0 25.985-5.729 34.03-14.982a46.038 46.038 0 003.684-4.854l-.369.276c-10.851 8.061-24.829 13.054-37.345 13.054zm-44.579-56.216l.146.012c2.277.198 4.808.731 7.515 1.451 2.707.719 5.605 1.63 8.614 2.587l.907.289c2.731.87 5.548 1.767 8.405 2.592 6.353 1.834 12.866 3.298 18.992 3.298 6.126 0 12.639-1.464 18.992-3.298 2.857-.825 5.674-1.722 8.405-2.592l.907-.289c3.009-.957 5.907-1.868 8.615-2.587 2.706-.72 5.238-1.253 7.514-1.451l.146-.012a6.88 6.88 0 00-1.14-1.505c-1.955-1.926-4.887-2.115-8.94-1.365-2.012.372-4.255.966-6.729 1.654l-1.635.457c-2.01.564-4.157 1.167-6.425 1.739-5.791 1.463-12.402 2.743-19.71 2.743-7.308 0-13.919-1.28-19.71-2.743-2.268-.572-4.415-1.175-6.425-1.739l-1.635-.457c-2.474-.688-4.717-1.282-6.729-1.654-4.053-.75-6.985-.561-8.94 1.365a6.88 6.88 0 00-1.14 1.505zm-2.987 11.484c0-4.656.475-8.096 1.443-10.556-1.524-.013-2.868.173-4.017.601-1.521.566-2.72 1.563-3.55 3.142-.836 1.593-1.31 3.806-1.31 6.813 0 10.171 5.423 19.572 13.597 27.044-4.015-7.897-6.163-17.155-6.163-27.044zm95.132 0c0 9.889-2.148 19.147-6.163 27.044 8.174-7.472 13.597-16.873 13.597-27.044 0-3.007-.474-5.22-1.311-6.813-.829-1.579-2.028-2.576-3.549-3.142-1.149-.428-2.493-.614-4.017-.601.968 2.46 1.443 5.9 1.443 10.556z" fill="#BEFECD" stroke="#170728"/></svg>