<svg width="272" height="272" fill="none" xmlns="http://www.w3.org/2000/svg"><path d="M138.017 219.606l.418.605.409-.612 62.16-93-55.873 121.614c-2.659 5.788-10.865 5.836-13.593.081l-57.26-120.821 63.739 92.133zM82 41.107h110.94l-54.516 19.221-56.426-19.22zM14.924 19.316l61.038 20.791H31.767l.338.714 36.015 75.992L7.483 29.166c-3.566-5.154 1.509-11.871 7.441-9.85zm226.137 20.791h-42.278l58.548-20.642c5.894-2.078 11.039 4.546 7.566 9.742l-57.729 86.37 34.347-74.761.326-.709h-.78z" stroke="#170728"/><path d="M136.603 160.311l.42.616.411-.623 23.984-36.412-22.301 49.254c-.828 1.83-3.421 1.845-4.271.026l-22.893-49.017 24.65 36.156zm-21.485-75.664h43.049l-21.154 7.568-21.895-7.568zm-30.145-9.362l24.191 8.362H91.93l.332.711 13.554 29.021-23.553-34.548c-1.276-1.87.57-4.286 2.71-3.546zm94.989 8.362h-16.031l23.201-8.301c2.126-.76 3.997 1.621 2.755 3.507l-22.325 33.893 12.856-28.393.319-.706h-.775z" fill="#BEFECD" stroke="#170728"/></svg>