<svg width="273" height="273" fill="none" xmlns="http://www.w3.org/2000/svg"><path d="M248.01 136.868l.32-.32-.286-.35-30.751-37.645c19.638 9.151 38.046 21.805 54.285 37.961L136.143 271.95.707 136.514c16.24-16.156 34.648-28.81 54.285-37.961l-30.75 37.645-.287.35.32.32L135.79 248.382l.354.353.353-.353L248.01 136.868zm-34.188-40.983c-49.378-21.684-105.981-21.684-155.359 0L136.143.79l77.679 95.094z" stroke="#170728"/><path d="M93.172 153.676l-.32.319.287.351 10.878 13.317a72.963 72.963 0 01-19.195-13.635l51.321-51.321 51.321 51.321a72.966 72.966 0 01-19.195 13.635l10.878-13.317.286-.351-.32-.319-42.617-42.617-.353-.354-.354.354-42.617 42.617zm14.321 16.661c18.284 7.658 39.016 7.658 57.3 0l-28.65 35.073-28.65-35.073z" fill="#BEFECD" stroke="#170728"/></svg>