<svg width="510" height="438" fill="none" xmlns="http://www.w3.org/2000/svg"><path d="M456.969 427h41.887c5.602 0 10.144-4.543 10.144-10.148V11.148C509 5.543 504.458 1 498.856 1H374.155m50.69 426h-413.7C5.541 427 1 422.457 1 416.852V35.148C1 29.543 5.542 25 11.144 25h86.691" stroke="#453953"/><path d="M470.675 416.881a.458.458 0 00-.721-.375L455 427l14.954 10.494a.458.458 0 00.721-.375c0-3.039 1.342-5.922 3.666-7.88l2.015-1.696a.711.711 0 000-1.086l-2.015-1.696a10.302 10.302 0 01-3.666-7.88zM83.325 14.88c0-.37.418-.587.72-.374L99 25 84.046 35.494a.458.458 0 01-.721-.375c0-3.039-1.342-5.922-3.666-7.88l-2.015-1.696a.71.71 0 010-1.086l2.015-1.696a10.302 10.302 0 003.666-7.88z" fill="#2E203E"/></svg>