<svg width="74" height="75" fill="none" xmlns="http://www.w3.org/2000/svg"><path d="M22.5 67.8c0 3.7 3 6.7 6.7 6.7h37.6c3.7 0 6.7-3 6.7-6.7V30.2c0-3.7-3-6.7-6.7-6.7H32.243A10.743 10.743 0 0121.5 12.757V7.2c0-3.7-3-6.7-6.7-6.7H7.2C3.5.5.5 3.5.5 7.2v8.6c0 3.7 3 6.7 6.7 6.7h7.098a8.201 8.201 0 018.202 8.2v37.1z" stroke="#5D5169"/><circle cx="11.5" cy="11.5" r="2.5" fill="#5D5169"/><path d="M64.823 40.734l-6.418-3.687a.355.355 0 00-.355 0l-3.5 2.02-1.237-.71a.356.356 0 00-.355 0l-6.99 4.042-2.618-1.505a.354.354 0 00-.484.13.351.351 0 00.13.48l2.796 1.608c.11.063.246.063.355 0l6.99-4.043c.688.396-2.492-1.431 6.726 3.866l-6.637 3.838a.353.353 0 00.002.613l6.682 3.838-6.68 3.864-7.035-4.043a.353.353 0 00-.354 0l-6.99 4.042-6.727-3.865 6.64-3.836a.353.353 0 00-.004-.613l-6.683-3.84 6.68-3.864 1.192.685a.356.356 0 00.484-.13.351.351 0 00-.13-.48l-1.37-.787a.356.356 0 00-.355 0l-7.386 4.272c-.063.037-.177.183-.178.306L31 48.088c0 .126.067.243.177.306l2.223 1.274-2.161 1.25a.353.353 0 00-.176.306c0 .074-.012 5.219-.013 5.147a.35.35 0 00.177.306l7.43 4.272a.355.355 0 00.358.003l6.989-4.042 7.035 4.042c.11.064.244.063.354.001.005-.003.007-.008.011-.011l7.375-4.265a.353.353 0 00.176-.304l.015-5.145.001-.006a.352.352 0 00-.177-.304l-2.218-1.275 2.154-1.25a.352.352 0 00.176-.303l.006-1.44 3.905-2.253a.353.353 0 00.176-.305L65 41.04a.362.362 0 00-.177-.305zm-33.114 7.15l.012-4.339 6.155 3.535-3.77 2.18-2.397-1.375zM53.584 55.7l5.104-2.951-.006 2.631-5.105 2.958.008-2.638zm-20.347-3.018l5.257 3.02-.007 2.71-5.256-3.018.006-2.712zm-1.466-.845l.759.436-.007 3.323c0 .126.067.243.177.306l5.785 3.323-.002.81-6.724-3.866.012-4.332zm7.434 3.862l6.457-3.735-.013 4.336-6.456 3.734.012-4.335zm7.165-3.74l6.503 3.737-.012 4.34-6.503-3.736.012-4.34zm13.878 4.21l-6.676 3.86.003-.874 5.639-3.267a.351.351 0 00.176-.304l.007-3.246.863-.499-.012 4.33zm-4.989-16.695l2.97-1.714 5.71 3.28-3.04 1.758c-.003-.006-.01-.009-.013-.015a.347.347 0 00-.136-.152l-.002-.002-5.489-3.155zm2.61 9.764l-3.756-2.159 6.103-3.53-.018 4.337-2.329 1.352zm6.416-5.35l-3.37 1.945.011-2.235 3.364-1.946-.005 2.236z" fill="#170728"/><path d="M59.38 39.437l-1.057-.608a.354.354 0 00-.484.129.351.351 0 00.13.481l1.058.608c.167.098.385.04.483-.129a.351.351 0 00-.13-.481zm2.493 1.839a.351.351 0 00-.13-.481l-1.057-.608a.353.353 0 10-.355.61l1.058.608c.168.097.386.04.484-.13zM43 41.479c.098-.17.67-.401.5-.498L40 38.99c-.17-.1.097.328 0 .497-.098.169-.67-.097-.5 0l3.5 1.99z" fill="#170728"/><path d="M38.581 40.386l-3.87 2.238a.353.353 0 00.002.61l6.684 3.84-6.638 3.84a.353.353 0 00.001.61l3.912 2.247a.356.356 0 00.355 0l6.989-4.042 7.035 4.042c.11.063.245.063.355 0l3.87-2.238a.353.353 0 00-.002-.61l-6.684-3.84 6.638-3.84a.353.353 0 000-.61l-3.912-2.247a.353.353 0 00-.355 0l-6.99 4.041-7.035-4.041a.354.354 0 00-.355 0z" fill="#BEFECD"/><path d="M38.581 40.386l-3.87 2.238a.353.353 0 00.002.61l6.684 3.84-6.638 3.84a.353.353 0 00.001.61l3.912 2.247a.356.356 0 00.355 0l6.989-4.042 7.035 4.042c.11.063.245.063.355 0l3.87-2.238a.353.353 0 00-.002-.61l-6.684-3.84 6.638-3.84a.353.353 0 000-.61l-3.912-2.247a.353.353 0 00-.355 0l-6.99 4.041-7.035-4.041a.354.354 0 00-.355 0zm7.57 4.754l6.988-4.042 3.204 1.841-6.637 3.84a.353.353 0 000 .61l6.684 3.84-3.163 1.83-7.035-4.043a.353.353 0 00-.355 0l-6.989 4.043-3.204-1.841 6.637-3.84a.353.353 0 000-.61l-6.684-3.84 3.163-1.83 7.035 4.042a.355.355 0 00.355 0z" fill="#170728"/></svg>