<svg width="385" height="550" fill="none" xmlns="http://www.w3.org/2000/svg"><path d="M367.289 10c4.259 0 7.711 4.688 7.711 10.47v499.06c0 5.783-3.453 10.47-7.711 10.47H8.711C4.452 530 1 525.313 1 519.53V20.47C1 14.688 4.452 10 8.711 10h42.491a7.719 7.719 0 017.379 5.454l3.636 11.85a5.146 5.146 0 004.92 3.636h68.221a5.146 5.146 0 004.919-3.637l3.637-11.849A7.719 7.719 0 01151.293 10h215.996z" fill="#F2FFF5"/><path d="M38.596 530.349H9.057a7.703 7.703 0 01-7.705-7.701V17.994a7.704 7.704 0 017.705-7.702h269.378M62.997 530.35h304.375a7.704 7.704 0 007.706-7.701l-.001-504.654a7.704 7.704 0 00-7.705-7.701H303.8" stroke="#453953"/><path d="M23.99 19.942a7.719 7.719 0 00-7.72 7.718v514.621A7.719 7.719 0 0023.99 550h353.29a7.72 7.72 0 007.719-7.719V27.661a7.719 7.719 0 00-7.719-7.72h-43.097a7.717 7.717 0 00-7.124 4.75l-3.134 7.521a5.146 5.146 0 01-4.75 3.167h-69.041a5.145 5.145 0 01-4.749-3.167l-3.134-7.52a7.72 7.72 0 00-7.125-4.75H23.99z" fill="#ECB9FD"/><path d="M269.153 19.76c0 .348.391.55.675.351l13.98-9.818-13.98-9.819a.429.429 0 00-.675.35 9.644 9.644 0 01-3.429 7.375l-1.882 1.586a.663.663 0 000 1.015l1.882 1.587a9.644 9.644 0 013.429 7.373z" fill="#2E203E"/></svg>