<svg width="711" height="666" fill="none" xmlns="http://www.w3.org/2000/svg"><path d="M571 16c6.627 0 12 5.373 12 12v572c0 6.627-5.373 12-12 12H13c-6.627 0-12-5.373-12-12V28c0-6.628 5.373-12 12-12h67a12 12 0 0111.077 7.385l4.872 11.692A8 8 0 00103.333 40h107.334a8 8 0 007.384-4.923l4.872-11.692A12 12 0 01234 16h337z" fill="#F2FFF5"/><path d="M59 612H13c-6.627 0-12-5.373-12-12V28c0-6.628 5.373-12 12-12h67a12 12 0 0111.077 7.385l4.872 11.692A8 8 0 00103.333 40h107.334a8 8 0 007.384-4.923l4.872-11.692A12 12 0 01234 16h198.5M97 612h474c6.627 0 12-5.373 12-12V28c0-6.627-5.373-12-12-12h-99" stroke="#453953"/><path d="M141 70c-6.627 0-12 5.373-12 12v572c0 6.628 5.373 12 12 12h558c6.627 0 12-5.373 12-12V82c0-6.627-5.373-12-12-12h-67a12 12 0 00-11.077 7.385l-4.872 11.692A8 8 0 01608.667 94H501.333a8 8 0 01-7.384-4.923l-4.872-11.692A12 12 0 00478 70H141z" fill="#ECB9FD"/><path d="M418.2 30.719c0 .54.607.855 1.049.545L441 16 419.249.736a.666.666 0 00-1.049.545c0 4.42-1.952 8.615-5.333 11.462l-2.93 2.468a1.033 1.033 0 000 1.578l2.93 2.468a14.986 14.986 0 015.333 11.462zM103.675 601.881a.458.458 0 00-.721-.375L88 612l14.954 10.494a.458.458 0 00.721-.375c0-3.039 1.342-5.923 3.666-7.88l2.015-1.696a.711.711 0 000-1.086l-2.015-1.696a10.302 10.302 0 01-3.666-7.88z" fill="#2E203E"/></svg>