<svg width="577" height="528" fill="none" xmlns="http://www.w3.org/2000/svg"><g clip-path="url(#clip0_21_15)"><path d="M246.603 265.772c7.924 4.575 7.958 11.989.093 16.555l-104.344 60.632c-7.865 4.575-20.662 4.575-28.586 0L8.741 282.327c-7.916-4.574-7.959-11.989-.094-16.555l104.345-60.632c7.865-4.575 20.662-4.575 28.586 0l105.025 60.632z" fill="#E9EAEB" stroke="#170728" stroke-width=".85" stroke-linecap="round" stroke-linejoin="round"/><path d="M32.642 271.834l93.197 53.806 95.086-54.893-93.189-53.805-95.094 54.892z" fill="#170728" stroke="#170728" stroke-width=".85" stroke-miterlimit="10"/><path d="M128.135 217.469c4.015 0 7.27-1.881 7.27-4.201 0-2.32-3.255-4.2-7.27-4.2-4.014 0-7.269 1.88-7.269 4.2 0 2.32 3.255 4.201 7.269 4.201zM22.991 278.246c4.015 0 7.27-1.881 7.27-4.2 0-2.32-3.255-4.201-7.27-4.201s-7.27 1.881-7.27 4.201c0 2.319 3.255 4.2 7.27 4.2z" stroke="#170728" stroke-width=".85" stroke-linecap="round" stroke-linejoin="round"/><path d="M18.748 137.62v136.426c0 1.352 1.905 2.448 4.243 2.448s4.243-1.096 4.243-2.448V137.62H18.74h.008z" fill="#fff"/><path d="M22.133 137.62h-3.384v136.426c0 1.181 1.454 2.168 3.384 2.398V137.62z" fill="#170728"/><path d="M18.748 137.62v136.426c0 1.352 1.905 2.448 4.243 2.448s4.243-1.096 4.243-2.448V137.62H18.74h.008z" stroke="#170728" stroke-width=".85" stroke-linecap="round" stroke-linejoin="round"/><path d="M61.015 241.158v47.061l40.753-23.535V217.63l-40.753 23.528z" fill="#170728" stroke="#170728" stroke-width=".85" stroke-linecap="round" stroke-linejoin="round"/><path d="M32.642 224.781l28.373 16.377 40.753-23.528-28.373-16.376-40.753 23.527z" fill="#170728" stroke="#170728" stroke-width=".85" stroke-linecap="round" stroke-linejoin="round"/><path d="M32.642 224.781v47.053l28.373 16.385v-47.061l-28.373-16.377z" fill="#777E87" stroke="#170728" stroke-width=".85" stroke-linecap="round" stroke-linejoin="round"/><path d="M35.864 257.235v12.499l10.68 6.165V263.4l-10.68-6.165z" fill="#170728"/><path d="M67.903 202.538v89.661l77.646-44.826v-89.661l-77.647 44.826z" fill="#72987B" stroke="#170728" stroke-width=".85" stroke-linecap="round" stroke-linejoin="round"/><path d="M72.23 225.368v42.624l5.663-3.274v-42.624l-5.663 3.274zm17.61-12.389v42.803l36.892-21.299V191.68l-36.893 21.299z" fill="#170728"/><path d="M92.67 251.76a.807.807 0 10.001-1.615.807.807 0 000 1.615zm5.264-3.375a.807.807 0 01-.808.807.801.801 0 01-.808-.807.808.808 0 111.616 0zm3.656-1.769a.807.807 0 10.001-1.615.807.807 0 00-.001 1.615zm5.263-3.384a.808.808 0 01-.808.808.808.808 0 11.808-.808zm4.464-2.577a.807.807 0 01-.808.808.802.802 0 01-.808-.808c0-.45.357-.807.808-.807.451 0 .808.357.808.807zm4.455-2.575a.807.807 0 01-.807.807.808.808 0 11.807-.807zm4.464-2.577a.807.807 0 11-.807-.808c.45 0 .807.358.807.808zm4.464-2.568a.808.808 0 11-.808-.807c.451 0 .808.356.808.807zm-32.03 13.681a.807.807 0 10.002-1.614.807.807 0 00-.001 1.614zm5.264-3.384a.808.808 0 11-.808-.808c.45 0 .808.357.808.808zm4.464-2.577a.807.807 0 01-.808.808.802.802 0 01-.808-.808c0-.442.357-.807.808-.807.451 0 .808.357.808.807zm4.455-2.575a.807.807 0 01-.808.807.802.802 0 01-.808-.807c0-.451.358-.808.808-.808.451 0 .808.357.808.808zm4.464-2.577a.808.808 0 01-.808.808.802.802 0 01-.808-.808c0-.45.357-.808.808-.808.451 0 .808.358.808.808zm4.455-2.568a.807.807 0 11-.807-.807.8.8 0 01.807.807zm4.464-2.576a.807.807 0 11-.807-.808c.45 0 .807.358.807.808zm3.656-1.768a.808.808 0 100-1.615.808.808 0 000 1.615zm-30.414 12.064a.807.807 0 01-.807.808.802.802 0 01-.808-.808c0-.442.357-.807.808-.807.45 0 .807.357.807.807zm4.456-2.575a.807.807 0 01-.808.807.808.808 0 11.808-.807zm4.464-2.577a.808.808 0 01-.808.808.802.802 0 01-.808-.808c0-.45.357-.808.808-.808.451 0 .808.358.808.808zm4.455-2.568a.808.808 0 01-.808.808.803.803 0 01-.808-.808c0-.451.358-.807.808-.807.451 0 .808.356.808.807zm4.464-2.576a.808.808 0 01-.808.808.802.802 0 01-.808-.808c0-.442.357-.808.808-.808.451 0 .808.358.808.808zm3.656-1.768a.808.808 0 100-1.617.808.808 0 000 1.617zm5.263-3.385a.807.807 0 11-.807-.808c.45 0 .807.357.807.808zm3.656-1.768a.807.807 0 10.002-1.614.807.807 0 00-.002 1.614zm-30.414 12.065a.808.808 0 11-.807-.808c.45 0 .807.358.807.808zm4.456-2.568a.808.808 0 11-1.616 0c0-.451.358-.807.808-.807.45 0 .808.356.808.807zm4.464-2.576a.808.808 0 01-.808.808.802.802 0 01-.808-.808c0-.45.357-.808.808-.808.451 0 .808.358.808.808zm3.656-1.768a.808.808 0 100-1.617.808.808 0 000 1.617zm5.263-3.385a.808.808 0 01-.808.808.802.802 0 01-.808-.808c0-.442.357-.808.808-.808.451 0 .808.357.808.808zm3.656-1.768a.808.808 0 100-1.615.808.808 0 000 1.615zm5.263-3.384a.807.807 0 11-1.615 0c0-.451.357-.808.808-.808.45 0 .807.357.807.808zm3.656-1.76a.808.808 0 100-1.615.808.808 0 000 1.615zm-30.414 12.065a.808.808 0 11-1.615 0c0-.45.357-.808.808-.808.45 0 .807.358.807.808zm3.656-1.768a.808.808 0 100-1.616.808.808 0 000 1.616zm5.264-3.385a.808.808 0 01-.808.808.802.802 0 01-.808-.808c0-.442.357-.808.808-.808.451 0 .808.357.808.808zm3.656-1.768a.808.808 0 100-1.615.808.808 0 000 1.615zm5.263-3.384a.808.808 0 01-.808.808.802.802 0 01-.808-.808c0-.442.357-.808.808-.808.451 0 .808.357.808.808zm3.656-1.76a.808.808 0 100-1.617.808.808 0 000 1.617zm5.263-3.384a.807.807 0 01-.807.807.801.801 0 01-.808-.807c0-.451.357-.808.808-.808.45 0 .807.357.807.808zm4.464-2.577a.807.807 0 01-.808.808.802.802 0 01-.807-.808c0-.442.357-.807.807-.807.451 0 .808.357.808.807zm-31.222 12.873a.808.808 0 11-1.615 0c0-.451.357-.808.808-.808.45 0 .807.357.807.808zm3.656-1.768a.807.807 0 10.001-1.615.807.807 0 000 1.615zm5.264-3.384a.808.808 0 01-.808.808.802.802 0 01-.808-.808c0-.442.357-.808.808-.808.451 0 .808.357.808.808zm3.656-1.76a.808.808 0 100-1.617.808.808 0 000 1.617zm5.263-3.384a.807.807 0 01-.808.807.801.801 0 01-.808-.807c0-.451.357-.808.808-.808.451 0 .808.357.808.808zm4.455-2.577a.807.807 0 01-.807.808.802.802 0 01-.808-.808c0-.45.357-.807.808-.807.45 0 .807.357.807.807zm4.464-2.576a.807.807 0 11-.807-.808c.45 0 .807.357.807.808zm4.464-2.577a.807.807 0 01-.808.808.802.802 0 01-.807-.808c0-.442.357-.807.807-.807.451 0 .808.357.808.807zm-31.222 12.874a.808.808 0 11-.807-.808c.45 0 .807.357.807.808zm3.656-1.76a.808.808 0 100-1.616.808.808 0 000 1.616zm5.264-3.384a.807.807 0 01-.808.807.801.801 0 01-.808-.807c0-.442.357-.808.808-.808.451 0 .808.357.808.808zm4.455-2.577a.807.807 0 01-.808.808.803.803 0 01-.808-.808c0-.45.358-.807.808-.807.451 0 .808.357.808.807zm4.464-2.576a.808.808 0 01-.808.808.802.802 0 01-.808-.808c0-.451.357-.808.808-.808.451 0 .808.357.808.808zm4.455-2.577a.807.807 0 01-.807.808.802.802 0 01-.808-.808c0-.442.357-.807.808-.807.45 0 .807.357.807.807zm3.657-1.767a.807.807 0 100-1.615.807.807 0 000 1.615zm5.271-3.385a.808.808 0 11-.808-.808c.451 0 .808.357.808.808zM93.478 214.91a.807.807 0 01-.807.807.801.801 0 01-.808-.807.808.808 0 111.615 0zm4.456-2.577a.807.807 0 01-.808.808.802.802 0 01-.808-.808c0-.442.358-.807.808-.807.45 0 .808.357.808.807zm4.464-2.576a.808.808 0 01-.808.808.802.802 0 01-.808-.808c0-.451.357-.808.808-.808.451 0 .808.357.808.808zm4.455-2.577a.807.807 0 01-.808.808.803.803 0 01-.808-.808c0-.45.358-.807.808-.807.451 0 .808.357.808.807zm3.656-1.767a.808.808 0 100-1.617.808.808 0 000 1.617zm5.263-3.385a.807.807 0 11-.807-.808c.45 0 .807.357.807.808zm3.657-1.76a.807.807 0 100-1.613.807.807 0 000 1.613zm5.271-3.384a.808.808 0 11-1.615 0c0-.451.357-.808.807-.808.451 0 .808.357.808.808z" fill="#72987B"/><path d="M81.192 242.688c0-6.309 7.83-9.515 0-14.039l-6.13-3.536v38.798l6.13 3.537v-24.769.009z" fill="#BEFECD"/><path d="M84.67 236.073c0-1.378-.868-2.738-3.487-4.243l-6.13-3.538m9.617 11.02c0-1.378-.868-2.737-3.487-4.242l-6.13-3.538m9.617 11.011c0-1.377-.868-2.738-3.487-4.243l-6.13-3.537m9.617 11.02c0-1.378-.868-2.738-3.487-4.243l-6.13-3.538m9.617 11.021c0-1.378-.868-2.738-3.487-4.243l-6.13-3.538m9.617 11.011c0-1.377-.868-2.738-3.487-4.243l-6.13-3.537m9.617 11.02c0-1.378-.868-2.738-3.487-4.243l-6.13-3.537m9.617 11.02c0-1.378-.868-2.738-3.487-4.243l-6.13-3.538m9.617 11.02c0-1.378-.868-2.738-3.487-4.243l-6.13-3.537m9.617 11.011c0-1.378-.868-2.738-3.487-4.243l-6.13-3.537m9.617 11.02c0-1.378-.868-2.738-3.487-4.243l-6.13-3.538" stroke="#170728" stroke-width=".85" stroke-linecap="round" stroke-linejoin="round"/><path d="M81.192 242.688c0-4.209 3.486-7.032 3.486-9.787 0-1.378-.868-2.737-3.486-4.242l-6.13-3.538v38.798l6.13 3.537v-24.768z" stroke="#170728" stroke-width=".85" stroke-linecap="round" stroke-linejoin="round"/><path d="M84.67 232.901c0 2.755-3.487 5.578-3.487 9.787v23.918l3.486 2.006v-35.711z" fill="#170728" stroke="#170728" stroke-width=".85" stroke-linecap="round" stroke-linejoin="round"/><path d="M117.592 243.64l-7.159 4.132c-11.794 6.811-29.241 1.93-29.241-5.093v38.798c0 7.015 17.447 11.895 29.241 5.093l7.159-4.132V243.64z" fill="#BEFECD"/><path d="M117.592 246.82l-7.159 4.132c-11.794 6.811-29.241 1.93-29.241-5.093" stroke="#170728" stroke-width=".85" stroke-linecap="round" stroke-linejoin="round"/><path d="M117.592 250.051l-7.159 4.132c-11.794 6.811-29.241 1.93-29.241-5.093" stroke="#170728" stroke-width=".85" stroke-linecap="round" stroke-linejoin="round"/><path d="M117.592 253.291l-7.159 4.132c-11.794 6.811-29.241 1.93-29.241-5.093" stroke="#170728" stroke-width=".85" stroke-linecap="round" stroke-linejoin="round"/><path d="M117.592 256.53l-7.159 4.132c-11.794 6.811-29.241 1.93-29.241-5.093" stroke="#170728" stroke-width=".85" stroke-linecap="round" stroke-linejoin="round"/><path d="M117.592 259.761l-7.159 4.132c-11.794 6.811-29.241 1.931-29.241-5.092" stroke="#170728" stroke-width=".85" stroke-linecap="round" stroke-linejoin="round"/><path d="M117.592 263l-7.159 4.133c-11.794 6.811-29.241 1.93-29.241-5.093" stroke="#170728" stroke-width=".85" stroke-linecap="round" stroke-linejoin="round"/><path d="M117.592 266.241l-7.159 4.131c-11.794 6.811-29.241 1.93-29.241-5.093" stroke="#170728" stroke-width=".85" stroke-linecap="round" stroke-linejoin="round"/><path d="M117.592 269.471l-7.159 4.132c-11.794 6.811-29.241 1.931-29.241-5.092" stroke="#170728" stroke-width=".85" stroke-linecap="round" stroke-linejoin="round"/><path d="M117.592 272.711l-7.159 4.132c-11.794 6.811-29.241 1.93-29.241-5.093" stroke="#170728" stroke-width=".85" stroke-linecap="round" stroke-linejoin="round"/><path d="M117.592 275.951l-7.159 4.131c-11.794 6.811-29.241 1.93-29.241-5.093" stroke="#170728" stroke-width=".85" stroke-linecap="round" stroke-linejoin="round"/><path d="M117.592 279.181l-7.159 4.132c-11.794 6.811-29.241 1.931-29.241-5.092" stroke="#170728" stroke-width=".85" stroke-linecap="round" stroke-linejoin="round"/><path d="M117.592 243.64l-7.159 4.132c-11.794 6.811-29.241 1.93-29.241-5.093v38.798c0 7.015 17.447 11.895 29.241 5.093l7.159-4.132V243.64zm114.939 34.708c4.015 0 7.27-1.88 7.27-4.2 0-2.32-3.255-4.201-7.27-4.201s-7.27 1.881-7.27 4.201c0 2.32 3.255 4.2 7.27 4.2z" stroke="#170728" stroke-width=".85" stroke-linecap="round" stroke-linejoin="round"/><path d="M228.288 137.722v136.426c0 1.352 1.905 2.448 4.243 2.448s4.243-1.096 4.243-2.448V137.722h-8.494.008z" fill="#fff"/><path d="M231.672 137.722h-3.384v136.426c0 1.182 1.454 2.167 3.384 2.397V137.722z" fill="#170728"/><path d="M228.288 137.722v136.426c0 1.352 1.905 2.448 4.243 2.448s4.243-1.096 4.243-2.448V137.722h-8.494.008z" stroke="#170728" stroke-width=".85" stroke-linecap="round" stroke-linejoin="round"/><path d="M105.068 214.867v9.608l99.056-57.18v-9.609l-99.056 57.181z" fill="#170728" stroke="#170728" stroke-width=".85" stroke-linecap="round" stroke-linejoin="round"/><path d="M40.626 177.659l64.442 37.208 99.056-57.181-64.451-37.207-99.047 57.18z" fill="#170728" stroke="#170728" stroke-width=".85" stroke-linecap="round" stroke-linejoin="round"/><path d="M40.626 177.659l64.442 37.208v9.608l-64.442-37.208v-9.608z" fill="#777E87" stroke="#170728" stroke-width=".85" stroke-linecap="round" stroke-linejoin="round"/><path d="M106.131 214.263l97.993-56.577" stroke="#777E87" stroke-width=".85" stroke-linecap="round" stroke-linejoin="round"/><path d="M236.859 161.649l-26.18-15.118c-1.726-.994-4.106-.859-6.725.655l-81.345 46.96c-5.238 3.027-9.523 10.441-9.523 16.487v93.92c0 3.027 1.071 5.152 2.797 6.147l26.18 15.118 6.232-2.262 80.189-46.296c5.238-3.027 9.523-10.442 9.523-16.487v-92.977l-1.156-6.147h.008z" fill="#170728" stroke="#170728" stroke-width=".85" stroke-linecap="round" stroke-linejoin="round"/><path d="M225.704 241.081c-2.22-1.284-5.068-.306-6.037 2.066a112.973 112.973 0 01-6.692 13.613c-16.453 28.492-42.122 45.157-60.369 40.404a22.54 22.54 0 004.804 3.733c18.23 10.527 47.777-6.538 66.006-38.109 3.478-6.02 6.284-12.133 8.435-18.162l-6.139-3.545h-.008z" fill="#777E87" stroke="#170728" stroke-width=".85" stroke-linecap="round" stroke-linejoin="round"/><path d="M185.741 215.989c-5.986-3.46-15.696 2.151-21.682 12.516-1.785 3.095-3.027 6.267-3.749 9.277-1.693 7.091-.451 13.332 3.749 15.755l15.509 8.97 5.399-9.344 16.283-28.203-15.509-8.971z" fill="#170728" stroke="#170728" stroke-width=".85" stroke-linecap="round" stroke-linejoin="round"/><path d="M198.181 223.183c11.827-20.5 14.293-36.63 14.318-36.817 7.865 2.534 9.71 8.112 9.71 8.112-5.51 8.979-14.48 22.31-24.113 31.408l.085-2.703v0zm-.987 16.401c8.971.162 20.262-4.812 27.693-8.698 0 0 5.281-10.118 5.281-22.464-.119.171-10.85 14.795-27.6 24.428l-.051.026-5.323 6.708zm-8.673 13.893c3.121 9.158 10.059 15.322 15.016 18.749 0 0 12.958-7.397 19.369-22.387-.144.051-12.805 4.531-24.598-2.203l-9.778 5.841h-.009zm-17.855 40.813c.34-8.587 1.641-22.004 6.028-34.775l10.935-.196c.144 18.893 7.261 26.954 7.346 27.047-10.033 9.013-24.309 7.933-24.309 7.933v-.009z" fill="#777E87" stroke="#170728" stroke-width=".85" stroke-linecap="round" stroke-linejoin="round"/><path d="M168.821 253.546c-9.319 9.063-17.932 21.877-23.289 30.601 0 0 4.659 10.186 17.201 12.431.025-.179 2.415-15.807 13.766-35.831l-7.678-7.201v0zm-23.74 20.985c.119-.162 10.518-14.277 26.758-23.927l-1.896-11.547c-8.868.068-19.82 4.89-27.081 8.69 0 0-2.202 13.145 2.211 26.792l.008-.008zm31.528-39.402c-11.7-6.471-24.13-2.075-24.275-2.024l11.878-26.715c4.949 3.418 11.87 9.574 14.999 18.714l-2.602 10.025v0zm20.475-50.795l-16.81 12.261c.085.094 7.27 8.222 7.346 27.319l3.163-3.996c4.609-13.018 5.952-26.809 6.301-35.584v0z" fill="#777E87" stroke="#170728" stroke-width=".85" stroke-linecap="round" stroke-linejoin="round"/><path d="M239.657 167.796c0-6.045-4.286-8.519-9.523-5.492l-81.345 46.959c-5.238 3.027-9.523 10.442-9.523 16.488v93.92c0 6.045 4.285 8.52 9.523 5.493l81.345-46.961c5.237-3.027 9.523-10.441 9.523-16.486v-93.921zm-16.249 94.992c-18.23 31.57-47.777 48.627-66.006 38.109-18.23-10.526-18.23-44.648 0-76.218 18.229-31.571 47.776-48.627 66.006-38.109 18.23 10.526 18.23 44.647 0 76.218z" fill="#777E87" stroke="#170728" stroke-width=".85" stroke-linecap="round" stroke-linejoin="round"/><path d="M234.709 171.518c1.056-1.83 1.056-3.808-.002-4.419-1.057-.61-2.771.378-3.828 2.208-1.056 1.83-1.055 3.809.002 4.419 1.058.611 2.771-.378 3.828-2.208zm-85.811 147.89c1.056-1.83 1.056-3.808-.001-4.419-1.058-.61-2.771.379-3.828 2.209-1.056 1.83-1.056 3.808.001 4.419 1.058.61 2.771-.379 3.828-2.209z" fill="#170728"/><path d="M201.25 249.994c5.987-10.37 5.988-21.579.001-25.035-5.986-3.456-15.692 2.149-21.68 12.519-5.987 10.37-5.988 21.579-.002 25.035 5.987 3.456 15.694-2.149 21.681-12.519z" fill="#777E87" stroke="#170728" stroke-width=".85" stroke-linecap="round" stroke-linejoin="round"/><path d="M127.328 215.394c1.897 0 3.435-.887 3.435-1.981 0-1.095-1.538-1.982-3.435-1.982-1.898 0-3.435.887-3.435 1.982 0 1.094 1.537 1.981 3.435 1.981z" fill="#170728"/><path d="M128.186 338.989c4.015 0 7.27-1.881 7.27-4.201 0-2.32-3.255-4.2-7.27-4.2s-7.269 1.88-7.269 4.2c0 2.32 3.254 4.201 7.269 4.201z" stroke="#170728" stroke-width=".85" stroke-linecap="round" stroke-linejoin="round"/><path d="M123.943 198.364v136.424c0 1.352 1.905 2.45 4.243 2.45s4.243-1.098 4.243-2.45V198.364h-8.494.008z" fill="#fff"/><path d="M127.328 198.364h-3.384v136.424c0 1.182 1.453 2.169 3.384 2.398V198.364z" fill="#170728"/><path d="M123.943 198.364v136.424c0 1.352 1.905 2.45 4.243 2.45s4.243-1.098 4.243-2.45V198.364h-8.494.008z" stroke="#170728" stroke-width=".85" stroke-linecap="round" stroke-linejoin="round"/><path d="M113.681 141.251c7.865 4.575 20.661 4.575 28.586 0l105.024-60.633c7.916-4.574 7.959-11.988.094-16.554L143.04 3.43c-7.865-4.575-20.661-4.575-28.586 0L9.429 64.064c-7.924 4.574-7.958 11.988-.093 16.554l104.345 60.633z" fill="#fff" stroke="#170728" stroke-width=".85" stroke-linecap="round" stroke-linejoin="round"/><path d="M9.344 80.618l104.345 60.633c7.865 4.575 20.661 4.575 28.586 0L247.3 80.618c3.988-2.304 5.977-5.322 5.969-8.332l.085 69.016c.008 3.018-1.981 6.037-5.969 8.332L142.36 210.267c-7.925 4.575-20.713 4.575-28.586 0L9.429 149.634c-3.91-2.27-5.867-5.246-5.875-8.222l-.085-69.016c.008 2.976 1.964 5.952 5.875 8.222z" fill="#fff"/><path d="M131.417 144.457v69.075" stroke="#C2C8CF" stroke-width=".85" stroke-linecap="round" stroke-linejoin="round"/><path d="M128.45 213.685c-5.306.06-10.646-1.071-14.676-3.418L9.429 149.634c-3.91-2.27-5.866-5.246-5.875-8.222l-.085-69.016c.009 2.976 1.964 5.952 5.875 8.222l104.345 60.633c4.056 2.356 9.429 3.495 14.761 3.418v69.016z" fill="#C2C8CF"/><path d="M9.344 80.618l104.345 60.633c7.865 4.575 20.661 4.575 28.586 0L247.3 80.618c3.988-2.304 5.977-5.322 5.969-8.332l.085 69.016c.008 3.018-1.981 6.037-5.969 8.332L142.36 210.267c-7.925 4.575-20.713 4.575-28.586 0L9.429 149.634c-3.91-2.27-5.867-5.246-5.875-8.222l-.085-69.016c.008 2.976 1.964 5.952 5.875 8.222v0z" stroke="#170728" stroke-width=".85" stroke-linecap="round" stroke-linejoin="round"/><path d="M205.025 118.659c-1.837 1.097-3.299 3.75-3.265 5.892l.153 9.09c.034 2.134 1.564 2.984 3.401 1.888l11.13-6.684-.289-16.869-11.13 6.683v0z" fill="#fff" stroke="#170728" stroke-width=".85" stroke-linecap="round" stroke-linejoin="round"/><path d="M216.155 111.976l.289 16.869 14.463-8.681-.298-16.869-14.454 8.681z" fill="#fff" stroke="#170728" stroke-width=".85" stroke-linecap="round" stroke-linejoin="round"/><path d="M230.609 103.295l.289 16.869 11.13-6.682c1.837-1.097 3.299-3.75 3.265-5.893l-.153-9.089c-.034-2.134-1.564-2.984-3.401-1.887l-11.13 6.682v0z" fill="#fff" stroke="#170728" stroke-width=".85" stroke-linecap="round" stroke-linejoin="round"/><path d="M238.449 110.352v.961l-.902.544v-.935c-.433.187-.782.187-1.037 0-.255-.196-.391-.561-.408-1.114l1.003-.604c.034.315.119.511.255.562.136.051.341-.001.621-.162.502-.298.757-.714.757-1.25 0-.238-.051-.391-.153-.459-.102-.068-.264-.059-.485.026l-.425.17c-.493.195-.85.212-1.088.067-.238-.144-.357-.475-.357-.985 0-.511.119-.987.348-1.454.23-.468.553-.868.961-1.209v-.807l.901-.544v.816c.383-.136.68-.11.902.077.221.187.348.519.374 1.003l-1.038.62c-.025-.28-.093-.45-.212-.509-.119-.06-.289-.026-.527.118a1.42 1.42 0 00-.502.502 1.302 1.302 0 00-.179.672c0 .221.06.357.17.408.111.06.29.034.545-.06l.501-.186c.442-.171.766-.17.987-.009.221.162.331.493.331 1.003 0 .544-.119 1.055-.357 1.522a3.83 3.83 0 01-.995 1.233l.009-.017zm-14.999 1.624l-1.955 5.195 3.937-2.278-1.982-2.917zm0 8.563l-1.955-2.449 3.936-2.27-1.981 4.719zm-12.456 1.02c-1.148-.663-2.925.263-3.971 2.074-1.046 1.811-.961 3.809.187 4.473 1.148.663 2.925-.264 3.971-2.075 1.046-1.811.961-3.809-.187-4.472zm-.655 3.987c-.621 1.08-1.683 1.633-2.372 1.242-.689-.391-.731-1.59-.111-2.67.621-1.08 1.684-1.632 2.373-1.241.688.4.731 1.59.11 2.669z" fill="#170728"/><path d="M32.162 277.708l12.922-6.773c.817-.581.256-2.777-1.262-4.91-1.512-2.135-3.4-3.387-4.22-2.812l-10.664 9.958 3.224 4.537z" fill="#777E87" stroke="#170728" stroke-width=".692" stroke-miterlimit="10" stroke-linecap="round"/><path d="M42.622 266.927c-.76-1.068-1.634-1.975-2.462-2.535-.472-.319-.87-.497-1.197-.578l-1.047.978a.473.473 0 00.448-.045c.15-.108.615-.025 1.26.423.74.508 1.53 1.323 2.225 2.305 1.587 2.242 1.774 3.939 1.426 4.189a.445.445 0 00-.192.335l1.273-.667c.085-1.174-.672-2.902-1.734-4.405z" fill="#170728"/><path d="M40.745 268.235c-.694-.982-1.5-1.814-2.264-2.348-.02-.014-.044-.034-.065-.048-.412-.284-.765-.444-1.067-.519l-1.02.951c.11.029.219.02.325-.032.11-.045.314-.041.598.043.158.053.356.15.587.308.675.444 1.426 1.201 2.108 2.151.059.088.124.173.183.26 1.328 1.961 1.492 3.443 1.196 3.672a.475.475 0 00-.193.35l1.254-.66c.065-1.112-.647-2.732-1.633-4.124l-.009-.004z" fill="#170728"/><path d="M38.868 269.543c-.655-.924-1.41-1.709-2.13-2.209-.021-.014-.042-.027-.066-.048a3.25 3.25 0 00-.937-.461l-.987.922a.423.423 0 00.2-.009c.114-.033.315-.019.558.021.135.034.328.118.553.263.607.39 1.323 1.079 1.982 1.994l.17.244c1.247 1.822 1.411 3.214 1.147 3.429a.456.456 0 00-.19.357l1.238-.645c.05-1.055-.62-2.557-1.535-3.852l-.003-.006z" fill="#170728"/><path d="M36.994 270.857c-.616-.865-1.328-1.601-1.998-2.07l-.062-.041a3.244 3.244 0 00-.81-.409l-.961.895s.056.007.077.006c.125-.008.308-.002.517-.007.111.013.297.078.523.224.536.329 1.21.954 1.865 1.84l.16.225c1.168 1.683 1.333 2.985 1.107 3.184a.454.454 0 00-.192.373l1.219-.638c.033-.987-.594-2.387-1.436-3.578l-.009-.004zm-1.87 1.306c-.58-.814-1.24-1.496-1.872-1.928l-.062-.042a2.975 2.975 0 00-.681-.351l-.96.896c.129.021.291.013.453-.032.094-.01.267.045.488.177.469.276 1.107.833 1.74 1.684.05.068.102.137.147.208 1.08 1.547 1.251 2.756 1.064 2.94a.48.48 0 00-.193.387l1.2-.629c.02-.929-.566-2.212-1.335-3.299l.01-.011zm-1.878 1.308c-.533-.758-1.15-1.391-1.738-1.789a2.887 2.887 0 00-.613-.335l-.967.899a.466.466 0 00.33-.078c.205-.086 1.209.445 2.215 1.851 1 1.409 1.17 2.522 1.017 2.698a.457.457 0 00-.188.4l1.174-.618c.009-.865-.532-2.04-1.236-3.026l.006-.002z" fill="#170728"/><path d="M31.875 277.933c.481-.342.15-1.637-.74-2.892s-2.001-1.995-2.483-1.653c-.481.342-.15 1.637.74 2.892s2 1.995 2.483 1.653z" fill="#170728" stroke="#170728" stroke-width=".692" stroke-miterlimit="10" stroke-linecap="round"/><path d="M33.165 275.132l-1.603.91.462.817 1.604-.911-.463-.816zm4.201-2.369l-2.066 1.163.46.818 2.065-1.163-.46-.818zm4-2.247l-2.017 1.135.459.818 2.017-1.136-.46-.817zm3.526-1.984l-1.637.922.46.818 1.637-.922-.46-.818z" fill="#170728"/><path d="M19.271 64.368c-7.226 4.17-7.257 10.931-.085 15.095l95.147 55.288c7.171 4.171 18.84 4.171 26.066 0l95.766-55.288c7.218-4.171 7.257-10.932.086-15.095L141.104 9.08c-7.172-4.17-18.84-4.17-26.066 0L19.271 64.368z" fill="#fff" stroke="#170728" stroke-width=".775" stroke-linecap="round" stroke-linejoin="round"/><path d="M187.39 55.157c-17.723 10.234-16.405.007-26.29 4.388-14.91 6.598-15.042-31.99-25.338-26.043-6.691 3.861-9.063 10.358-11.878 16.778-2.465 5.62-5.403 13.133-11.645 14.862C97.113 69.338 89.972 6.56 76.435 14.375 64.333 21.361 63.27 43.697 58.851 57.878c-5.923 18.995-18.119 34.106-18.119 34.106l41.084 23.872 122.166-70.243-16.584 9.536-.008.008z" fill="#BEFECD" stroke="#170728" stroke-width=".775" stroke-linecap="round" stroke-linejoin="round"/><path d="M187.39 55.157c-17.723 10.234-9.342 12.071-19.227 16.444-14.91 6.598-10.041 14.142-20.337 20.088-9.87 5.7-15.607 2.768-25.446 8.761-10.777 6.575-6.45 19.554-19.987 27.361l-20.585-11.947 105.575-60.707h.007z" fill="#170728"/><path d="M135.762 84.712l45.651 26.353m-45.651-77.563v51.21m60.087-34.688l44.519 25.695m-74.562-8.351l45.65 26.353m-45.65-35.355v9.002m-60.048 34.672l45.643 26.353m-45.643-65.591v39.238M52.757 72.772v26.197m26.5-85.469v100.867" stroke="#170728" stroke-width=".775" stroke-linecap="round" stroke-linejoin="round"/><path d="M76.96 17.478c-1.525-.88-1.733-3.373-.465-5.569 1.267-2.195 3.53-3.262 5.055-2.382 1.524.88 1.731 3.374.464 5.569-1.267 2.195-3.53 3.262-5.055 2.382z" fill="#170728"/><path d="M326.11 460.873l-4.831-2.607c-5.76-3.11-9.722-6.82-6.134-12.302l17.569-26.848-6.604 41.757v0z" fill="#170728" stroke="#170728" stroke-width=".869" stroke-miterlimit="10"/><path d="M576.776 306.65c0-5.23-5.369-10.183-14.153-12.207l-108.912-25.145c-11.425-2.641-24.293.669-28.742 7.386l-103.993 157.02c-1.026 1.555-1.512 3.154-1.521 4.727l-.069 13.041c-.009 5.239 5.36 10.192 14.153 12.225l108.912 25.145c11.425 2.641 24.293-.669 28.742-7.386l103.993-157.02c1.026-1.546 1.512-3.145 1.521-4.718l.069-13.041v-.027zm-.026.618v-.044.044z" fill="#E9EAEB"/><path d="M320.976 433.704c-1.026 1.555-1.512 3.154-1.521 4.727l-.069 13.041c-.009 5.239 5.36 10.192 14.153 12.225l108.912 25.145c4.057.938 8.289 1.121 12.268.669V469.84l-129.295-42.844-4.448 6.717v-.009z" fill="#C2C8CF"/><path d="M562.623 294.443c11.426 2.641 17.082 10.227 12.633 16.943l-103.993 157.02c-4.449 6.716-17.317 10.027-28.742 7.386l-108.912-25.146c-11.425-2.641-17.082-10.226-12.633-16.942l103.994-157.02c4.448-6.717 17.316-10.027 28.742-7.386l108.911 25.145v0z" fill="#fff" stroke="#170728" stroke-width=".869" stroke-miterlimit="10"/><path d="M559 296.71c9.522 2.199 14.24 8.524 10.53 14.119L466.857 465.86c-3.71 5.596-14.44 8.358-23.963 6.16L337.58 447.71c-9.523-2.199-14.241-8.524-10.531-14.119L429.722 278.56c3.71-5.595 14.441-8.358 23.963-6.16L559 296.71z" fill="#170728"/><path d="M576.776 306.65c0-5.23-5.369-10.183-14.153-12.207l-108.912-25.145c-11.425-2.641-24.293.669-28.742 7.386l-103.993 157.02c-1.026 1.555-1.512 3.154-1.521 4.727l-.069 13.041c-.009 5.239 5.36 10.192 14.153 12.225l108.912 25.145c11.425 2.641 24.293-.669 28.742-7.386l103.993-157.02c1.026-1.546 1.512-3.145 1.521-4.718l.069-13.041v-.027zm-.026.618v-.044.044z" stroke="#170728" stroke-width=".869" stroke-miterlimit="10" stroke-linecap="round"/><path d="M413.37 477.468a1.615 1.615 0 10.001-3.23 1.615 1.615 0 00-.001 3.23zm5.57 1.278a1.617 1.617 0 10-.001-3.233 1.617 1.617 0 00.001 3.233zm5.56 1.285a1.616 1.616 0 100-3.232 1.616 1.616 0 000 3.232zm5.56 1.286a1.615 1.615 0 10.001-3.23 1.615 1.615 0 00-.001 3.23zm-93.497-21.695a1.616 1.616 0 100-3.232 1.616 1.616 0 000 3.232zm5.56 1.286a1.616 1.616 0 100-3.232 1.616 1.616 0 000 3.232zm5.561 1.277a1.615 1.615 0 10.001-3.23 1.615 1.615 0 00-.001 3.23zm5.569 1.286a1.615 1.615 0 10.001-3.23 1.615 1.615 0 00-.001 3.23z" fill="#170728"/><path d="M392.639 471.665c0-1.695-1.346-3.389-2.997-3.772l-13.32-3.075c-1.095-.252-2.05.148-2.572.93l-5.752 8.662 18.498 7.377 5.726-8.671c.261-.4.426-.887.426-1.451h-.009z" fill="#E9EAEB" stroke="#170728" stroke-width=".869" stroke-linecap="round" stroke-linejoin="round"/><path d="M386.896 480.327c0 1.694-1.347 2.771-2.998 2.389l-13.319-3.076c-1.651-.382-2.998-2.076-2.998-3.77 0-1.695 1.347-2.772 2.998-2.39l13.319 3.076c1.651.382 2.998 2.076 2.998 3.771z" fill="#E9EAEB" stroke="#170728" stroke-width=".869" stroke-linecap="round" stroke-linejoin="round"/><path d="M437.924 175.592l-4.918 2.259.417.912c-5.977 6.065-7.298 17.108-2.606 27.326s13.936 16.404 22.434 15.813l.417.912 4.917-2.259c9.627-4.422 12.807-18.081 7.099-30.497s-18.142-18.897-27.769-14.466h.009z" fill="#72987B" stroke="#170728" stroke-width=".869" stroke-miterlimit="10"/><path d="M437.681 215.672c4.613 4.292 10.235 6.595 15.57 6.23l.417.912 4.918-2.259c6.481-2.98 10.017-10.139 9.913-18.281l-30.827 13.407.009-.009z" fill="#170728" stroke="#170728" stroke-width=".869" stroke-miterlimit="10"/><path d="M453.382 222.98c9.627-4.424 12.806-18.077 7.099-30.495-5.706-12.418-18.136-18.899-27.764-14.475-9.627 4.424-12.806 18.077-7.099 30.495 5.706 12.418 18.136 18.899 27.764 14.475z" fill="#BEFECD" stroke="#170728" stroke-width=".869" stroke-miterlimit="10"/><path d="M365.314 388.957l17.777 4.101-8.402 12.694-17.777-4.11 8.402-12.685z" stroke="#72987B" stroke-width=".869" stroke-miterlimit="10"/><path d="M383.09 393.058l17.777 4.102-8.402 12.694-17.777-4.102 8.402-12.694zm17.777 4.102l17.777 4.109-8.402 12.685-17.777-4.1 8.402-12.694zm17.777 4.109l17.786 4.101-8.411 12.694-17.777-4.11 8.402-12.685z" stroke="#72987B" stroke-width=".869" stroke-miterlimit="10"/><path d="M436.429 405.37l17.777 4.11-8.41 12.685-17.777-4.101 8.41-12.694zm17.778 4.11l17.776 4.101-8.41 12.685-17.777-4.101 8.411-12.685zm17.777 4.101l17.777 4.101-8.411 12.694-17.777-4.11 8.411-12.685zm-98.269-37.318l17.786 4.11-8.411 12.685-17.777-4.101 8.402-12.694z" stroke="#72987B" stroke-width=".869" stroke-miterlimit="10"/><path d="M391.501 380.373l17.776 4.101-8.41 12.686-17.777-4.102 8.411-12.685zm17.777 4.101l17.777 4.101-8.411 12.694-17.777-4.109 8.411-12.686z" stroke="#72987B" stroke-width=".869" stroke-miterlimit="10"/><path d="M427.054 388.575l17.777 4.11-8.402 12.685-17.785-4.101 8.41-12.694zm17.777 4.11l17.777 4.101-8.402 12.694-17.776-4.11 8.401-12.685zm17.778 4.101l17.777 4.101-8.402 12.694-17.777-4.101 8.402-12.694z" stroke="#72987B" stroke-width=".869" stroke-miterlimit="10"/><path d="M480.385 400.887l17.777 4.11-8.402 12.685-17.777-4.101 8.402-12.694zm-98.259-37.309l17.776 4.101-8.401 12.694-17.786-4.11 8.411-12.685zm17.777 4.101l17.777 4.101-8.402 12.694-17.777-4.101 8.402-12.694zm17.777 4.101l17.777 4.11-8.402 12.685-17.777-4.101 8.402-12.694z" stroke="#72987B" stroke-width=".869" stroke-miterlimit="10"/><path d="M435.456 375.89l17.777 4.101-8.402 12.694-17.776-4.11 8.401-12.685z" stroke="#72987B" stroke-width=".869" stroke-miterlimit="10"/><path d="M453.233 379.99l17.777 4.102-8.402 12.694-17.777-4.102 8.402-12.694z" stroke="#72987B" stroke-width=".869" stroke-miterlimit="10"/><path d="M471.01 384.092l17.777 4.109-8.402 12.686-17.777-4.101 8.402-12.694zm17.777 4.109l17.777 4.101-8.402 12.695-17.777-4.11 8.402-12.686zm-98.259-37.317l17.777 4.101-8.402 12.694-17.777-4.101 8.402-12.694zm17.777 4.101l17.777 4.11-8.402 12.685-17.777-4.101 8.402-12.694z" stroke="#72987B" stroke-width=".869" stroke-miterlimit="10"/><path d="M426.081 359.095l17.777 4.101-8.402 12.694-17.776-4.11 8.401-12.685z" stroke="#72987B" stroke-width=".869" stroke-miterlimit="10"/><path d="M443.858 363.196l17.786 4.109-8.411 12.686-17.777-4.101 8.402-12.694z" stroke="#72987B" stroke-width=".869" stroke-miterlimit="10"/><path d="M461.644 367.305l17.777 4.101-8.411 12.686-17.777-4.102 8.411-12.685z" stroke="#72987B" stroke-width=".869" stroke-miterlimit="10"/><path d="M479.42 371.406l17.777 4.101-8.41 12.694-17.777-4.109 8.41-12.686zm17.778 4.101l17.777 4.11-8.411 12.685-17.777-4.1 8.411-12.695zM398.93 338.19l17.785 4.11-8.41 12.685-17.777-4.101 8.402-12.694z" stroke="#72987B" stroke-width=".869" stroke-miterlimit="10"/><path d="M416.715 342.3l17.777 4.1-8.411 12.695-17.776-4.11 8.41-12.685zm17.777 4.101l17.777 4.109-8.411 12.686-17.777-4.101 8.411-12.694zm17.777 4.109l17.777 4.101-8.402 12.694-17.786-4.109 8.411-12.686zm17.777 4.101l17.777 4.102-8.402 12.694-17.777-4.102 8.402-12.694z" stroke="#72987B" stroke-width=".869" stroke-miterlimit="10"/><path d="M487.823 358.713l17.776 4.109-8.401 12.685-17.777-4.101 8.402-12.693zm17.777 4.109l17.777 4.101-8.402 12.694-17.777-4.11 8.402-12.685zm-98.26-37.318l17.777 4.102-8.402 12.694-17.785-4.11 8.41-12.686zm17.777 4.102l17.777 4.11-8.402 12.685-17.777-4.101 8.402-12.694z" stroke="#72987B" stroke-width=".869" stroke-miterlimit="10"/><path d="M442.894 333.715l17.777 4.101-8.402 12.694-17.777-4.11 8.402-12.685z" stroke="#72987B" stroke-width=".869" stroke-miterlimit="10"/><path d="M460.671 337.816l17.777 4.101-8.402 12.694-17.777-4.101 8.402-12.694z" stroke="#72987B" stroke-width=".869" stroke-miterlimit="10"/><path d="M478.448 341.917l17.776 4.11-8.401 12.685-17.777-4.101 8.402-12.694z" stroke="#72987B" stroke-width=".869" stroke-miterlimit="10"/><path d="M496.224 346.027l17.777 4.101-8.402 12.694-17.777-4.109 8.402-12.686z" stroke="#72987B" stroke-width=".869" stroke-miterlimit="10"/><path d="M514.001 350.128l17.777 4.109-8.402 12.686-17.777-4.101 8.402-12.694z" stroke="#72987B" stroke-width=".869" stroke-miterlimit="10"/><path d="M559 296.711c9.522 2.198 14.24 8.523 10.53 14.119l-76.485 115.488-139.809-32.278 76.486-115.488c3.71-5.596 14.441-8.359 23.963-6.161L559 296.702v.009z" fill="url(#paint0_linear_21_15)"/><path d="M367.581 386.082l4.596 1.06 13.459-12.321 1.094 6.351 6.908-2.432 5.448-.217 12.45-10.792 3.38 2.902-7.576 19.437 6.751-2.19 2.945 3.563 6.169-1.313 9.801-6.794 3.519 2.676 6.994-2.554 4.023 1.937 8.888-5.43.965 6.551 14.266-13.537 2.859 3.684 7.168-2.815 5.361-.087 12.755-11.252 6.907-2.432-7.628 19.523 5.091.313 1.538 5.673 6.421-1.676" stroke="#BEFECD" stroke-width=".869" stroke-miterlimit="10"/><path d="M443.589 442.444c3.467.799 5.178 3.102 3.831 5.135l-5.3 8.002c-1.346 2.033-5.248 3.041-8.714 2.242l-73.028-16.856c-3.467-.799-5.178-3.102-3.832-5.135l5.301-8.002c1.346-2.033 5.247-3.041 8.714-2.242l73.028 16.856z" fill="#BEFECD"/><path d="M396.08 437.223l2.589.599c.626.148 1.025.365 1.199.626.183.278.156.564-.061.895-.286.434-.834.625-1.468.634v.017c.539.287.712.774.374 1.295-.261.391-.609.626-1.095.765-.469.139-1.06.139-1.677 0l-2.65-.617 2.789-4.214zm-1.147 3.779l1.347.313c.564.13 1.06-.017 1.286-.365.269-.4 0-.695-.539-.825l-1.321-.305-.782 1.182h.009zm2.468-1.512c.512.113.973.018 1.19-.312.208-.313.009-.565-.504-.687l-1.295-.295-.66.999 1.269.295zm3.728 3.754l.234-.356h-.026c-.469.208-.895.286-1.477.156-.921-.209-1.156-.764-.721-1.425l1.338-2.016 1.095.252-1.243 1.877c-.234.356-.148.6.322.704a1.201 1.201 0 001.286-.487l1.155-1.746 1.104.252-1.999 3.023-1.06-.243-.008.009zm1.624.79l.391.087c.435.105.721-.026.886-.269.113-.165.157-.382.226-.895l.304-2.406 1.156.269-.287 1.503a7.98 7.98 0 01-.174.721h.018s.365-.356.678-.6l1.485-1.224 1.112.252-3.501 2.762c-.765.6-1.225.765-2.068.574l-.643-.148.417-.626z" fill="#170728"/><path d="M364.071 411.122c-.539.808-.2 1.642.747 1.868l7.351 1.694c.947.217 2.155-.26 2.685-1.068l.86-1.295c.538-.808.2-1.642-.747-1.868l-7.351-1.695c-.947-.217-2.155.261-2.685 1.069l-.86 1.295zm17.777 4.101c-.539.808-.2 1.642.747 1.868l7.35 1.694c.947.217 2.155-.261 2.685-1.069l.86-1.294c.539-.808.2-1.642-.747-1.868l-7.35-1.694c-.948-.218-2.155.26-2.685 1.068l-.86 1.295zm17.777 4.101c-.539.808-.2 1.642.747 1.868l7.351 1.694c.947.217 2.154-.26 2.684-1.068l.861-1.295c.538-.808.199-1.642-.748-1.868l-7.35-1.694c-.947-.217-2.155.26-2.685 1.068l-.86 1.295zm17.786 4.11c-.539.808-.2 1.642.747 1.867l7.35 1.695c.947.217 2.155-.261 2.685-1.069l.86-1.295c.539-.808.2-1.642-.747-1.868l-7.35-1.694c-.948-.217-2.155.261-2.685 1.069l-.86 1.295zm17.776 4.101c-.539.808-.2 1.642.747 1.868l7.351 1.694c.947.217 2.155-.261 2.685-1.069l.86-1.294c.539-.808.2-1.642-.747-1.868l-7.351-1.695c-.947-.217-2.155.261-2.685 1.069l-.86 1.295zm17.777 4.109c-.539.808-.2 1.642.747 1.868l7.351 1.695c.947.217 2.154-.261 2.684-1.069l.86-1.295c.539-.808.2-1.642-.747-1.868l-7.35-1.694c-.947-.217-2.155.26-2.685 1.068l-.86 1.295z" fill="#72987B"/><path d="M455.987 351.432l4.918-2.259c6.49-2.989 10.035-10.175 9.922-18.342" stroke="#72987B" stroke-width=".869" stroke-miterlimit="10"/><path d="M428.227 336.957c5.708 12.416 18.142 18.897 27.769 14.466 6.516-2.998 10.061-10.218 9.922-18.42l-38.039-19.254c-3.284 6.265-3.414 14.997.357 23.199l-.009.009z" stroke="#72987B" stroke-width=".869" stroke-miterlimit="10"/><path d="M468.011 318.675c-5.708-12.416-18.141-18.897-27.768-14.466l-4.918 2.259.417.912 30.167 25.64 4.917-2.181c-.06-3.944-.955-8.115-2.815-12.155v-.009z" fill="#72987B" stroke="#170728" stroke-width=".869" stroke-miterlimit="10"/><path d="M463.094 320.935c-5.708-12.416-18.142-18.898-27.769-14.467-3.267 1.503-5.769 4.084-7.455 7.299l38.039 19.254c-.069-3.919-.973-8.063-2.815-12.078v-.008z" fill="#BEFECD" stroke="#170728" stroke-width=".869" stroke-miterlimit="10"/><path d="M525.504 269.195l-5.378-2.772-.46.895c-4.762.938-11.565 8.106-16.708 18.098-5.144 9.992-7.012 19.697-5.014 24.12l-.46.895 5.378 2.771c4.501 2.311 13.215-5.665 19.462-17.811 6.248-12.156 7.672-23.877 3.172-26.196h.008z" fill="#72987B" stroke="#170728" stroke-width=".869" stroke-miterlimit="10"/><path d="M498.614 296.207c-1.642 5.7-1.92 10.557-.66 13.329l-.461.895 5.378 2.771c3.024 1.555 7.959-1.555 12.772-7.454l-17.029-9.541v0z" fill="#170728" stroke="#170728" stroke-width=".869" stroke-miterlimit="10"/><path d="M516.976 292.567c6.251-12.153 7.672-23.88 3.175-26.193-4.498-2.314-13.211 5.663-19.462 17.816-6.252 12.152-7.673 23.88-3.175 26.193 4.497 2.314 13.211-5.663 19.462-17.816z" fill="#fff"/><path d="M516.976 292.567c6.251-12.153 7.672-23.88 3.175-26.193-4.498-2.314-13.211 5.663-19.462 17.816-6.252 12.152-7.673 23.88-3.175 26.193 4.497 2.314 13.211-5.663 19.462-17.816z" stroke="#170728" stroke-width=".869" stroke-miterlimit="10"/><path d="M338.276 520l-.357-1.457.357 1.457zm38.831-39.307a1.5 1.5 0 00-2.661-1.386l2.661 1.386zM29.349 274.821l-21 16.5 1.854 2.358 21-16.5-1.854-2.358zm-21 16.5c-3.709 2.914-8.165 8.385-9.473 15.417-1.327 7.141.64 15.624 9.34 24.323l2.12-2.122c-8.1-8.101-9.632-15.618-8.51-21.652 1.142-6.143 5.086-11.022 8.377-13.608l-1.854-2.358zm-.134 39.74c21.196 21.195 64.413 49.305 119.595 67.365l.933-2.852c-54.818-17.94-97.601-45.83-118.406-66.635l-2.122 2.122zm119.595 67.365c27.387 8.963 42.206 17.264 53.271 26.239 5.547 4.499 10.18 9.191 15.013 14.289 4.823 5.088 9.86 10.596 16.144 16.628l2.077-2.164c-6.217-5.968-11.18-11.397-16.044-16.528-4.854-5.121-9.596-9.929-15.3-14.555-11.435-9.275-26.615-17.724-54.228-26.761l-.933 2.852zm84.428 57.156c6.221 5.973 13.2 13.927 21.315 22.451 8.069 8.475 17.169 17.409 27.457 25.121 20.601 15.443 46.056 26.05 77.624 18.303l-.715-2.914c-30.409 7.463-54.954-2.68-75.109-17.789-10.09-7.564-19.057-16.358-27.085-24.79-7.982-8.384-15.132-16.519-21.41-22.546l-2.077 2.164zm126.396 65.875c12.893-3.165 25.16-15.194 38.473-40.764l-2.661-1.386c-13.24 25.43-24.973 36.401-36.527 39.236l.715 2.914z" fill="#2E203E"/><path d="M255.736 361.53c-3.93-4.65-12.2-7.86-21.76-7.86-9.56 0-17.84 3.21-21.76 7.86h-2.44v6.11c0 7.72 10.83 13.97 24.2 13.97s24.2-6.26 24.2-13.97v-6.11h-2.44z" fill="#fff"/><path d="M237.086 374.67v6.74m-3.11-6.74v6.74" stroke="#72987B" stroke-miterlimit="10"/><path d="M239.746 354.08v27.13c10.58-1.49 18.43-7 18.43-13.57v-6.11h-2.44c-3.11-3.68-8.95-6.46-15.99-7.45z" fill="#72987B"/><path d="M255.736 361.53c-3.93-4.65-12.2-7.86-21.76-7.86-9.56 0-17.84 3.21-21.76 7.86h-2.44v6.11c0 7.72 10.83 13.97 24.2 13.97s24.2-6.26 24.2-13.97v-6.11h-2.44z" stroke="#170728" stroke-miterlimit="10"/><path d="M233.976 375.5c13.365 0 24.2-6.255 24.2-13.97 0-7.715-10.835-13.97-24.2-13.97-13.365 0-24.2 6.255-24.2 13.97 0 7.715 10.835 13.97 24.2 13.97z" fill="#fff" stroke="#170728" stroke-linecap="round" stroke-linejoin="round"/><path d="M255.736 355.42c-3.93-4.65-12.2-7.86-21.76-7.86-9.56 0-17.84 3.21-21.76 7.86h-2.44v6.11c0 7.72 10.83 13.97 24.2 13.97s24.2-6.26 24.2-13.97v-6.11h-2.44z" fill="#fff"/><path d="M237.086 368.56v6.73m-3.11-6.73v6.73" stroke="#72987B" stroke-miterlimit="10"/><path d="M239.746 347.97v27.13c10.58-1.49 18.43-7 18.43-13.57v-6.11h-2.44c-3.11-3.68-8.95-6.46-15.99-7.45z" fill="#72987B"/><path d="M255.736 355.42c-3.93-4.65-12.2-7.86-21.76-7.86-9.56 0-17.84 3.21-21.76 7.86h-2.44v6.11c0 7.72 10.83 13.97 24.2 13.97s24.2-6.26 24.2-13.97v-6.11h-2.44v0z" stroke="#170728" stroke-miterlimit="10"/><path d="M233.976 369.39c13.365 0 24.2-6.255 24.2-13.97 0-7.715-10.835-13.97-24.2-13.97-13.365 0-24.2 6.255-24.2 13.97 0 7.715 10.835 13.97 24.2 13.97z" fill="#fff" stroke="#170728" stroke-linecap="round" stroke-linejoin="round"/><path d="M255.736 349.31c-3.93-4.65-12.2-7.86-21.76-7.86-9.56 0-17.84 3.21-21.76 7.86h-2.44v6.11c0 7.72 10.83 13.97 24.2 13.97s24.2-6.26 24.2-13.97v-6.11h-2.44z" fill="#fff"/><path d="M237.086 362.45v6.73m-3.11-6.73v6.73" stroke="#72987B" stroke-miterlimit="10"/><path d="M239.746 341.86v27.13c10.58-1.49 18.43-7 18.43-13.57v-6.11h-2.44c-3.11-3.68-8.95-6.46-15.99-7.45z" fill="#72987B"/><path d="M255.736 349.31c-3.93-4.65-12.2-7.86-21.76-7.86-9.56 0-17.84 3.21-21.76 7.86h-2.44v6.11c0 7.72 10.83 13.97 24.2 13.97s24.2-6.26 24.2-13.97v-6.11h-2.44z" stroke="#170728" stroke-miterlimit="10"/><path d="M233.976 363.28c13.365 0 24.2-6.255 24.2-13.97 0-7.715-10.835-13.97-24.2-13.97-13.365 0-24.2 6.255-24.2 13.97 0 7.715 10.835 13.97 24.2 13.97z" fill="#fff" stroke="#170728" stroke-linecap="round" stroke-linejoin="round"/><path d="M255.736 343.2c-3.93-4.65-12.2-7.86-21.76-7.86-9.56 0-17.84 3.21-21.76 7.86h-2.44v6.11c0 7.72 10.83 13.97 24.2 13.97s24.2-6.26 24.2-13.97v-6.11h-2.44z" fill="#fff"/><path d="M237.086 356.34v6.73m-3.11-6.73v6.73" stroke="#72987B" stroke-miterlimit="10"/><path d="M239.746 335.75v27.13c10.58-1.49 18.43-7 18.43-13.57v-6.11h-2.44c-3.11-3.68-8.95-6.46-15.99-7.45z" fill="#72987B"/><path d="M255.736 343.2c-3.93-4.65-12.2-7.86-21.76-7.86-9.56 0-17.84 3.21-21.76 7.86h-2.44v6.11c0 7.72 10.83 13.97 24.2 13.97s24.2-6.26 24.2-13.97v-6.11h-2.44z" stroke="#170728" stroke-miterlimit="10"/><path d="M233.976 357.17c13.365 0 24.2-6.255 24.2-13.97 0-7.715-10.835-13.97-24.2-13.97-13.365 0-24.2 6.255-24.2 13.97 0 7.715 10.835 13.97 24.2 13.97z" fill="#fff" stroke="#170728" stroke-linecap="round" stroke-linejoin="round"/><path d="M255.736 337.09c-3.93-4.65-12.2-7.86-21.76-7.86-9.56 0-17.84 3.21-21.76 7.86h-2.44v6.11c0 7.72 10.83 13.97 24.2 13.97s24.2-6.26 24.2-13.97v-6.11h-2.44z" fill="#fff"/><path d="M237.086 350.22v6.74m-3.11-6.74v6.74" stroke="#72987B" stroke-miterlimit="10"/><path d="M239.746 329.63v27.13c10.58-1.49 18.43-7 18.43-13.57v-6.11h-2.44c-3.11-3.68-8.95-6.46-15.99-7.45z" fill="#72987B"/><path d="M255.736 337.09c-3.93-4.65-12.2-7.86-21.76-7.86-9.56 0-17.84 3.21-21.76 7.86h-2.44v6.11c0 7.72 10.83 13.97 24.2 13.97s24.2-6.26 24.2-13.97v-6.11h-2.44z" stroke="#170728" stroke-miterlimit="10"/><path d="M233.976 351.06c13.365 0 24.2-6.255 24.2-13.97 0-7.715-10.835-13.97-24.2-13.97-13.365 0-24.2 6.255-24.2 13.97 0 7.715 10.835 13.97 24.2 13.97z" fill="#fff" stroke="#170728" stroke-linecap="round" stroke-linejoin="round"/><path d="M255.736 330.97c-3.93-4.65-12.2-7.86-21.76-7.86-9.56 0-17.84 3.21-21.76 7.86h-2.44v6.11c0 7.72 10.83 13.97 24.2 13.97s24.2-6.26 24.2-13.97v-6.11h-2.44z" fill="#fff"/><path d="M237.086 344.11v6.74m-3.11-6.74v6.74" stroke="#72987B" stroke-miterlimit="10"/><path d="M239.746 323.52v27.13c10.58-1.49 18.43-7 18.43-13.57v-6.11h-2.44c-3.11-3.68-8.95-6.46-15.99-7.45z" fill="#72987B"/><path d="M255.736 330.97c-3.93-4.65-12.2-7.86-21.76-7.86-9.56 0-17.84 3.21-21.76 7.86h-2.44v6.11c0 7.72 10.83 13.97 24.2 13.97s24.2-6.26 24.2-13.97v-6.11h-2.44z" stroke="#170728" stroke-miterlimit="10"/><path d="M233.976 344.94c13.365 0 24.2-6.255 24.2-13.97 0-7.715-10.835-13.97-24.2-13.97-13.365 0-24.2 6.255-24.2 13.97 0 7.715 10.835 13.97 24.2 13.97z" fill="#BEFECD" stroke="#170728" stroke-linecap="round" stroke-linejoin="round"/><path d="M272.736 404.97c-3.93-4.65-12.2-7.86-21.76-7.86-9.56 0-17.84 3.21-21.76 7.86h-2.44v6.11c0 7.72 10.83 13.97 24.2 13.97s24.2-6.26 24.2-13.97v-6.11h-2.44z" fill="#fff"/><path d="M254.086 418.11v6.74m-3.11-6.74v6.74" stroke="#72987B" stroke-miterlimit="10"/><path d="M256.746 397.52v27.13c10.58-1.49 18.43-7 18.43-13.57v-6.11h-2.44c-3.11-3.68-8.95-6.46-15.99-7.45z" fill="#72987B"/><path d="M272.736 404.97c-3.93-4.65-12.2-7.86-21.76-7.86-9.56 0-17.84 3.21-21.76 7.86h-2.44v6.11c0 7.72 10.83 13.97 24.2 13.97s24.2-6.26 24.2-13.97v-6.11h-2.44z" stroke="#170728" stroke-miterlimit="10"/><path d="M250.976 418.94c13.365 0 24.2-6.255 24.2-13.97 0-7.715-10.835-13.97-24.2-13.97-13.365 0-24.2 6.255-24.2 13.97 0 7.715 10.835 13.97 24.2 13.97z" fill="#BEFECD" stroke="#170728" stroke-linecap="round" stroke-linejoin="round"/><path d="M238.463 404.26l-.016-1.128 6.48.032c-1.846.703-4.068 1.107-6.464 1.096zm9.722-2.977l.028 1.897-3.286-.016c1.295-.493 2.404-1.134 3.258-1.881z" fill="#170728"/><path d="M248.185 401.283l-.054-3.741 1.953.009c.02 1.384-.68 2.666-1.899 3.732zm-9.722 3.819l.004 1.125 9.744.01.017 5.626 1.949.002-.02-6.751-11.694-.012zm24.794-.788l-.004-1.125-9.744-.01-.017-5.626-1.949-.002.02 6.751 11.694.012zm-9.747 1.924l.028 1.897c-1.219 1.065-1.919 2.348-1.899 3.731l1.954.01-.055-3.741c.854-.747 1.964-1.388 3.258-1.881l6.48.031-.016-1.127c-2.396-.012-4.618.392-6.464 1.096l-3.286-.016z" fill="#170728"/><path d="M119.746 423.97c-3.93-4.65-12.2-7.86-21.76-7.86-9.56 0-17.84 3.21-21.76 7.86h-2.44v6.11c0 7.72 10.83 13.97 24.2 13.97s24.2-6.26 24.2-13.97v-6.11h-2.44z" fill="#fff"/><path d="M101.086 437.11v6.73m-3.11-6.73v6.73" stroke="#777E87" stroke-miterlimit="10"/><path d="M103.746 416.52v27.13c10.58-1.49 18.43-7 18.43-13.57v-6.11h-2.44c-3.11-3.68-8.95-6.46-15.99-7.45z" fill="#72987B"/><path d="M119.746 423.97c-3.93-4.65-12.2-7.86-21.76-7.86-9.56 0-17.84 3.21-21.76 7.86h-2.44v6.11c0 7.72 10.83 13.97 24.2 13.97s24.2-6.26 24.2-13.97v-6.11h-2.44z" stroke="#170728" stroke-miterlimit="10"/><path d="M97.976 437.94c13.365 0 24.2-6.255 24.2-13.97 0-7.715-10.835-13.97-24.2-13.97-13.365 0-24.2 6.255-24.2 13.97 0 7.715 10.835 13.97 24.2 13.97z" fill="#BEFECD" stroke="#170728" stroke-linecap="round" stroke-linejoin="round"/><path d="M158.746 444.19c-3.93-4.65-12.2-7.86-21.76-7.86-9.56 0-17.84 3.21-21.76 7.86h-2.44v6.11c0 7.72 10.83 13.97 24.2 13.97s24.2-6.26 24.2-13.97v-6.11h-2.44z" fill="#fff"/><path d="M140.086 457.33v6.74m-3.11-6.74v6.74" stroke="#72987B" stroke-miterlimit="10"/><path d="M142.746 436.74v27.13c10.58-1.49 18.43-7 18.43-13.57v-6.11h-2.44c-3.11-3.68-8.95-6.46-15.99-7.45z" fill="#72987B"/><path d="M158.746 444.19c-3.93-4.65-12.2-7.86-21.76-7.86-9.56 0-17.84 3.21-21.76 7.86h-2.44v6.11c0 7.72 10.83 13.97 24.2 13.97s24.2-6.26 24.2-13.97v-6.11h-2.44z" stroke="#170728" stroke-miterlimit="10"/><path d="M136.976 458.16c13.365 0 24.2-6.255 24.2-13.97 0-7.715-10.835-13.97-24.2-13.97-13.365 0-24.2 6.255-24.2 13.97 0 7.715 10.835 13.97 24.2 13.97z" fill="#fff" stroke="#170728" stroke-linecap="round" stroke-linejoin="round"/><path d="M158.746 438.08c-3.93-4.65-12.2-7.86-21.76-7.86-9.56 0-17.84 3.21-21.76 7.86h-2.44v6.11c0 7.72 10.83 13.97 24.2 13.97s24.2-6.26 24.2-13.97v-6.11h-2.44z" fill="#fff"/><path d="M140.086 451.22v6.73m-3.11-6.73v6.73" stroke="#72987B" stroke-miterlimit="10"/><path d="M142.746 430.63v27.13c10.58-1.49 18.43-7 18.43-13.57v-6.11h-2.44c-3.11-3.68-8.95-6.46-15.99-7.45z" fill="#72987B"/><path d="M158.746 438.08c-3.93-4.65-12.2-7.86-21.76-7.86-9.56 0-17.84 3.21-21.76 7.86h-2.44v6.11c0 7.72 10.83 13.97 24.2 13.97s24.2-6.26 24.2-13.97v-6.11h-2.44z" stroke="#170728" stroke-miterlimit="10"/><path d="M136.976 452.05c13.365 0 24.2-6.255 24.2-13.97 0-7.715-10.835-13.97-24.2-13.97-13.365 0-24.2 6.255-24.2 13.97 0 7.715 10.835 13.97 24.2 13.97z" fill="#fff" stroke="#170728" stroke-linecap="round" stroke-linejoin="round"/><path d="M158.746 431.97c-3.93-4.65-12.2-7.86-21.76-7.86-9.56 0-17.84 3.21-21.76 7.86h-2.44v6.11c0 7.72 10.83 13.97 24.2 13.97s24.2-6.26 24.2-13.97v-6.11h-2.44z" fill="#fff"/><path d="M140.086 445.11v6.73m-3.11-6.73v6.73" stroke="#72987B" stroke-miterlimit="10"/><path d="M142.746 424.52v27.13c10.58-1.49 18.43-7 18.43-13.57v-6.11h-2.44c-3.11-3.68-8.95-6.46-15.99-7.45z" fill="#72987B"/><path d="M158.746 431.97c-3.93-4.65-12.2-7.86-21.76-7.86-9.56 0-17.84 3.21-21.76 7.86h-2.44v6.11c0 7.72 10.83 13.97 24.2 13.97s24.2-6.26 24.2-13.97v-6.11h-2.44z" stroke="#170728" stroke-miterlimit="10"/><path d="M136.976 445.94c13.365 0 24.2-6.255 24.2-13.97 0-7.715-10.835-13.97-24.2-13.97-13.365 0-24.2 6.255-24.2 13.97 0 7.715 10.835 13.97 24.2 13.97z" fill="#BEFECD" stroke="#170728" stroke-linecap="round" stroke-linejoin="round"/><path d="M434.851 187.583l1.179-.704 3.915 6.858c-1.866-1.519-3.647-3.618-5.094-6.154zm9.064 8.446l-1.985 1.185-1.985-3.477c1.31 1.065 2.661 1.846 3.97 2.292zm0 0l3.915-2.337 1.18 2.067c-1.448.864-3.228.907-5.095.27zm-9.953-7.932l-1.186.689 5.927 10.289-5.926 3.445 1.185 2.058 7.112-4.134-7.112-12.347zm15.937 25.683l1.186-.689-5.927-10.289 5.926-3.445-1.185-2.058-7.112 4.134 7.112 12.347zm-7.968-9.113l-1.985 1.185c-1.867-.636-3.647-.594-5.095.27l1.18 2.067 3.915-2.337c1.309.447 2.66 1.227 3.97 2.292l3.915 6.858 1.179-.704c-1.447-2.536-3.228-4.634-5.094-6.154l-1.985-3.477zM221.463 329.26l-.016-1.128 6.48.032c-1.846.703-4.068 1.107-6.464 1.096zm9.722-2.977l.028 1.897-3.286-.016c1.295-.493 2.404-1.134 3.258-1.881z" fill="#170728"/><path d="M231.185 326.283l-.054-3.741 1.953.009c.02 1.384-.68 2.666-1.899 3.732zm-9.722 3.819l.004 1.125 9.744.01.017 5.626 1.949.002-.02-6.751-11.694-.012zm24.794-.788l-.004-1.125-9.744-.01-.017-5.626-1.949-.002.02 6.751 11.694.012zm-9.747 1.924l.028 1.897c-1.219 1.065-1.919 2.348-1.899 3.731l1.954.01-.055-3.741c.854-.747 1.964-1.388 3.258-1.881l6.48.031-.016-1.127c-2.396-.012-4.618.392-6.464 1.096l-3.286-.016zM124.463 431.26l-.016-1.128 6.48.032c-1.846.703-4.068 1.107-6.464 1.096zm9.722-2.977l.028 1.897-3.286-.016c1.295-.493 2.404-1.134 3.258-1.881z" fill="#170728"/><path d="M134.185 428.283l-.054-3.741 1.953.009c.02 1.384-.68 2.666-1.899 3.732zm-9.722 3.819l.004 1.125 9.744.01.017 5.626 1.949.002-.02-6.751-11.694-.012zm24.794-.788l-.004-1.125-9.744-.01-.017-5.626-1.949-.002.02 6.751 11.694.012zm-9.747 1.924l.028 1.897c-1.219 1.065-1.919 2.348-1.899 3.731l1.954.01-.055-3.741c.854-.747 1.964-1.388 3.258-1.881l6.48.031-.016-1.127c-2.396-.012-4.618.392-6.464 1.096l-3.286-.016zM85.463 422.26l-.016-1.128 6.48.032c-1.846.703-4.068 1.107-6.464 1.096zm9.722-2.977l.028 1.897-3.286-.016c1.294-.493 2.404-1.134 3.258-1.881z" fill="#170728"/><path d="M95.185 419.283l-.055-3.741 1.954.009c.02 1.384-.68 2.666-1.899 3.732zm-9.722 3.819l.004 1.125 9.744.01.017 5.626 1.95.002-.021-6.751-11.694-.012zm24.794-.788l-.004-1.125-9.744-.01-.017-5.626-1.949-.002.02 6.751 11.694.012zm-9.747 1.924l.028 1.897c-1.219 1.065-1.919 2.348-1.899 3.731l1.954.01-.055-3.741c.854-.747 1.964-1.388 3.258-1.881l6.48.031-.016-1.127c-2.396-.012-4.618.392-6.464 1.096l-3.286-.016z" fill="#170728"/></g><defs><linearGradient id="paint0_linear_21_15" x1="449.914" y1="412.868" x2="463.521" y2="343.073" gradientUnits="userSpaceOnUse"><stop stop-opacity="0"/><stop offset="0" stop-color="#170728" stop-opacity="0"/><stop offset="1" stop-color="#170728"/></linearGradient><clipPath id="clip0_21_15"><path fill="#fff" d="M0 0h577v528H0z"/></clipPath></defs></svg>