<svg width="384" height="358" fill="none" xmlns="http://www.w3.org/2000/svg"><path d="M.5 11.297c0-2.192 1.087-4.902 3.033-7.068C5.47 2.073 8.217.501 11.499.5h.001l139.858.476a11.501 11.501 0 0110.245 6.353l1.44 2.876 3.5 8.93a8.5 8.5 0 007.914 5.399h106.808a8.5 8.5 0 007.789-5.098l5.26-12.04A11.5 11.5 0 01304.853.5H372.5c3.227 0 5.974 1.62 7.928 3.835 1.961 2.224 3.072 4.99 3.072 7.181v335.13c0 2.188-1.126 4.913-3.084 7.097-1.951 2.176-4.672 3.757-7.81 3.757H11.28c-3.132 0-5.824-1.616-7.748-3.832C1.602 351.444.5 348.677.5 346.484V11.297z" fill="#fff" stroke="#2E203E"/></svg>