<svg width="727" height="302" fill="none" xmlns="http://www.w3.org/2000/svg"><path d="M.5 7.895C.5 5.937 1.705 4.1 3.785 2.73 5.861 1.362 8.758.5 11.983.5h482.36a11.5 11.5 0 0110.598 7.035l4.536 10.765a8.5 8.5 0 007.833 5.2h107.072a8.5 8.5 0 007.717-4.937l5.256-11.384A11.5 11.5 0 01647.796.5h67.22c3.226 0 6.123.863 8.199 2.231 2.08 1.37 3.285 3.207 3.285 5.165v286.21c0 1.958-1.205 3.794-3.285 5.165-2.076 1.368-4.973 2.23-8.199 2.23H11.984c-3.226 0-6.123-.862-8.199-2.23C1.705 297.9.5 296.063.5 294.105V7.895z" fill="#fff" stroke="#2E203E"/></svg>