<svg width="711" height="666" fill="none" xmlns="http://www.w3.org/2000/svg"><path d="M140 16c-6.627 0-12 5.373-12 12v572c0 6.627 5.373 12 12 12h558c6.627 0 12-5.373 12-12V28c0-6.628-5.373-12-12-12h-67a12 12 0 00-11.077 7.385l-4.872 11.692A8 8 0 01607.667 40H500.333a8 8 0 01-7.384-4.923l-4.872-11.692A12 12 0 00477 16H140z" fill="#F2FFF5"/><path d="M652 612h46c6.627 0 12-5.373 12-12V28c0-6.628-5.373-12-12-12h-67a12 12 0 00-11.077 7.385l-4.872 11.692A8 8 0 01607.667 40H500.333a8 8 0 01-7.384-4.923l-4.872-11.692A12 12 0 00477 16H278.5M614 612H140c-6.627 0-12-5.373-12-12V28c0-6.627 5.373-12 12-12h99" stroke="#453953"/><path d="M582 82c0-6.627-5.373-12-12-12H233a12 12 0 00-11.077 7.385l-4.872 11.692A8 8 0 01209.667 94H102.333a8 8 0 01-7.384-4.923l-4.872-11.692A12 12 0 0079 70H12C5.373 70 0 75.373 0 82v572c0 6.627 5.372 12 12 12h492c6.627 0 12-5.373 12-12v-6c0-6.627 5.373-12 12-12h42c6.627 0 12-5.373 12-12V82z" fill="#ECB9FD"/><path d="M292.8 30.719c0 .54-.607.855-1.049.545L270 16 291.751.736a.666.666 0 011.049.545c0 4.42 1.952 8.615 5.333 11.462l2.93 2.468a1.033 1.033 0 010 1.578l-2.93 2.468a14.986 14.986 0 00-5.333 11.462zm314.525 571.162c0-.371.417-.588.721-.375L623 612l-14.954 10.494a.458.458 0 01-.721-.375c0-3.039-1.342-5.923-3.666-7.88l-2.015-1.696a.711.711 0 010-1.086l2.015-1.696a10.302 10.302 0 003.666-7.88z" fill="#2E203E"/></svg>