<svg width="385" height="550" fill="none" xmlns="http://www.w3.org/2000/svg"><path d="M17.711 10C13.453 10 10 14.688 10 20.47v499.06c0 5.783 3.453 10.47 7.711 10.47H376.29c4.259 0 7.711-4.687 7.711-10.47V20.47c0-5.782-3.453-10.47-7.711-10.47h-42.491a7.719 7.719 0 00-7.379 5.454l-3.636 11.85a5.147 5.147 0 01-4.92 3.636h-68.221a5.146 5.146 0 01-4.919-3.637l-3.637-11.849a7.719 7.719 0 00-7.38-5.454H17.711z" fill="#F2FFF5"/><path d="M346.404 530.35h29.539a7.704 7.704 0 007.706-7.702V17.994a7.704 7.704 0 00-7.706-7.701H106.565M322.003 530.35H17.628a7.704 7.704 0 01-7.705-7.702V17.994a7.704 7.704 0 017.705-7.701h63.573" stroke="#453953"/><path d="M361.01 19.942a7.719 7.719 0 017.719 7.718v514.621a7.718 7.718 0 01-7.718 7.719H7.719a7.719 7.719 0 01-7.72-7.719V27.661a7.719 7.719 0 017.72-7.72h43.097a7.718 7.718 0 017.124 4.75l3.134 7.521a5.146 5.146 0 004.75 3.167h69.041a5.145 5.145 0 004.749-3.167l3.134-7.52a7.72 7.72 0 017.125-4.75H361.01z" fill="#ECB9FD"/><path d="M115.847 19.76c0 .348-.391.55-.675.351l-13.98-9.818 13.98-9.819c.284-.2.675.004.675.35a9.644 9.644 0 003.429 7.375l1.882 1.586a.663.663 0 010 1.015l-1.882 1.587a9.644 9.644 0 00-3.429 7.373z" fill="#2E203E"/></svg>