<svg width="526" height="459" fill="none" xmlns="http://www.w3.org/2000/svg"><path fill-rule="evenodd" clip-rule="evenodd" d="M525 12c0-6.075-4.925-11-11-11H233a11 11 0 00-10.154 6.77l-4.872 11.691A8.999 8.999 0 01209.667 25H102.333a9 9 0 01-8.307-5.539L89.154 7.77A11 11 0 0079 1H12C5.925 1 1 5.926 1 12v151.9c1.805-4.351 5.898-7.399 11-7.399h281c5.046 0 9.598 3.034 11.539 7.692l4.871 11.693a7.502 7.502 0 006.923 4.615h107.334a7.501 7.501 0 006.923-4.615l4.872-11.693A12.5 12.5 0 01447 156.5h67c5.102 0 9.195 3.048 11 7.398V12zm1 156.941V12c0-6.627-5.373-12-12-12H233a12 12 0 00-11.077 7.385l-4.872 11.692A8 8 0 01209.667 24H102.333a8 8 0 01-7.384-4.923L90.077 7.384A12 12 0 0079 0H12C5.373 0 0 5.372 0 12v435c0 6.627 5.373 12 12 12h502c6.627 0 12-5.373 12-12V168.941zm-1 .059v-.057c-.027-6.353-4.695-11.443-11-11.443h-67c-4.642 0-8.83 2.791-10.615 7.077l-4.872 11.692a8.5 8.5 0 01-7.846 5.231H316.333a8.5 8.5 0 01-7.846-5.231l-4.872-11.692A11.498 11.498 0 00293 157.5H12c-6.324 0-11 5.12-11 11.5v278c0 6.075 4.925 11 11 11h502c6.075 0 11-4.925 11-11V169z" fill="#2E203E"/></svg>