<svg width="728" height="459" fill="none" xmlns="http://www.w3.org/2000/svg"><path fill-rule="evenodd" clip-rule="evenodd" d="M727 12c0-6.075-4.925-11-11-11H233a11 11 0 00-10.154 6.77l-4.872 11.692A8.999 8.999 0 01209.667 25H102.333a9 9 0 01-8.307-5.538L89.154 7.769A11 11 0 0079 1H12C5.925 1 1 5.925 1 12v151.899c1.805-4.351 5.898-7.399 11-7.399h483c5.046 0 9.598 3.034 11.538 7.692l4.872 11.693a7.5 7.5 0 006.923 4.615h107.334a7.5 7.5 0 006.923-4.615l4.872-11.693A12.499 12.499 0 01649 156.5h67c5.102 0 9.195 3.048 11 7.399V12zm1 156.952V12c0-6.627-5.373-12-12-12H233a12 12 0 00-11.077 7.385l-4.872 11.692A8 8 0 01209.667 24H102.333a8 8 0 01-7.384-4.923L90.077 7.385A12 12 0 0079 0H12C5.373 0 0 5.373 0 12v435c0 6.627 5.373 12 12 12h704c6.627 0 12-5.372 12-12V168.952zm-1 .048v-.047c-.023-6.357-4.692-11.453-11-11.453h-67c-4.643 0-8.83 2.791-10.615 7.077l-4.872 11.692a8.5 8.5 0 01-7.846 5.231H518.333a8.5 8.5 0 01-7.846-5.231l-4.872-11.692A11.5 11.5 0 00495 157.5H12c-6.324 0-11 5.12-11 11.5v278c0 6.075 4.925 11 11 11h704c6.075 0 11-4.925 11-11V169z" fill="#2E203E"/></svg>