<svg width="74" height="75" fill="none" xmlns="http://www.w3.org/2000/svg"><path d="M22.5 67.8c0 3.7 3 6.7 6.7 6.7h37.6c3.7 0 6.7-3 6.7-6.7V30.2c0-3.7-3-6.7-6.7-6.7H32.243A10.743 10.743 0 0121.5 12.757V7.2c0-3.7-3-6.7-6.7-6.7H7.2C3.5.5.5 3.5.5 7.2v8.6c0 3.7 3 6.7 6.7 6.7h7.098a8.201 8.201 0 018.202 8.202V67.8z" stroke="#5D5169"/><circle cx="11.5" cy="11.5" r="2.5" fill="#5D5169"/><path d="M58 41.5c0 5.247-.5 5-10 10-9-4.5-10-4.753-10-10S42.477 32 48 32s10 4.253 10 9.5z" fill="#BEFECD"/><path d="M60.93 44.652l4.426-2.57a.365.365 0 000-.633l-8.861-5.122A10.518 10.518 0 0048 31.98c-3.17 0-6.316 1.48-8.359 4.167l-9.007 5.586a.364.364 0 00.01.626l4.425 2.57-4.426 2.57a.366.366 0 00.001.634l4.772 2.754-.022 7.838c0 .131.07.253.183.318l11.999 6.928a.367.367 0 00.365 0l12.41-7.214a.365.365 0 00.182-.314l.021-7.8 4.802-2.788a.366.366 0 000-.632l-4.425-2.57zm-20.607-8.199a10.475 10.475 0 002.049 1.712 16.72 16.72 0 00-.544 3.96h-3.587c.076-2.06.738-3.967 2.082-5.672zm4.876-3.32c-1.103.958-2.018 2.457-2.615 4.298a9.742 9.742 0 01-1.792-1.526 9.615 9.615 0 014.407-2.772zm9.911 2.664l.097.107a9.735 9.735 0 01-1.791 1.526c-.598-1.84-1.512-3.338-2.615-4.297a9.662 9.662 0 014.31 2.664zm2.65 6.328h-3.59a16.727 16.727 0 00-.543-3.961 10.478 10.478 0 002.049-1.712 9.525 9.525 0 012.083 5.673zM38.02 45.79l-1.512-.872 1.126-.697c.062.382.237 1.119.386 1.57zm3.81-2.935c.027 1.373.206 2.703.537 3.965-.39.247-.768.524-1.128.829l-2.208-1.275c-.527-1.2-.74-2.303-.787-3.52h3.586zm15.931 0a9.216 9.216 0 01-.646 3.167l-2.531 1.47a9.993 9.993 0 00-.95-.676 16.92 16.92 0 00.536-3.962h3.591zm-5.682 6.092l-3.714 2.157v-5.198a9.63 9.63 0 014.411 1.247c-.202.652-.432 1.26-.697 1.794zm-4.445 2.394l-3.528-2.037a11.578 11.578 0 01-.88-2.152 9.625 9.625 0 014.408-1.246v5.435zm-5.046-3.8c.124.387.257.765.41 1.124l-1.092-.63a9.2 9.2 0 01.682-.493zm10.824.01c.166.11.334.21.497.333l-.76.441c.096-.245.178-.511.263-.774zm-.435-1.124a10.367 10.367 0 00-4.612-1.252v-2.32h5.075a16.289 16.289 0 01-.463 3.572zm-4.612-4.303v-2.332a10.46 10.46 0 004.618-1.253 16.38 16.38 0 01.458 3.585h-5.076zm0-3.062v-6.319c1.91.229 3.555 2.218 4.425 5.08a9.744 9.744 0 01-4.425 1.24zm-.731-6.319v6.32a9.742 9.742 0 01-4.424-1.239c.87-2.861 2.514-4.851 4.424-5.08zm0 7.05v2.33h-5.075c.026-1.27.185-2.48.458-3.584a10.462 10.462 0 004.617 1.253zm0 3.062v2.32a10.363 10.363 0 00-4.61 1.252 16.275 16.275 0 01-.464-3.572h5.074zm10.76 1.175l1.08.623-1.39.807c.025-.086.228-.874.31-1.43zm-1.063-6.376l7.113 4.111-4.24 2.464-1.721-.992c.017-.248.026-.496.026-.75 0-1.698-.466-3.464-1.178-4.833zm-18.634-.063c-.697 1.317-1.205 3.13-1.205 4.897 0 .315.014.628.043.935l-1.744 1.08-4.254-2.471 7.16-4.44zm-2.9 7.76c19.398 11.207-7.415-4.28 11.27 6.507l-4.242 2.463-11.269-6.507 4.241-2.463zm.349 5.957l6.497 3.751a.367.367 0 00.366 0l4.42-2.567-.034 12.53-11.27-6.507.02-7.207zm23.677-.24l-.02 7.162-11.677 6.787.034-12.527 4.422 2.569a.365.365 0 00.366 0l6.875-3.992zm-7.058 3.252l-4.241-2.463 11.68-6.783 4.242 2.463-11.681 6.783z" fill="#170728"/><path d="M49.797 59.156a.366.366 0 00-.365.366l.005 2.464a.366.366 0 00.73-.002l-.005-2.464a.366.366 0 00-.365-.364zm1.748-1.016a.366.366 0 00-.365.366l.005 2.464a.366.366 0 00.73-.002l-.005-2.464a.366.366 0 00-.365-.364zm1.754 2.179a.366.366 0 00.365-.366l-.006-2.465a.366.366 0 00-.73.002l.005 2.464a.367.367 0 00.366.365z" fill="#170728"/></svg>