<svg width="373" height="86" fill="none" xmlns="http://www.w3.org/2000/svg"><path d="M188.872 84.697h-26.931c-6.301 0-9.451-3.17-9.451-9.512V30.838h-14.501V19.111h14.501V4.17L165.826 0v19.111h20.457v11.727h-20.457V73.1h23.046v11.597zm9.918-65.575h13.432v9.856l-2.348 8.673h3.652c2.956-13.229 10.562-19.843 22.821-19.843 5.737 0 10.171 1.796 13.301 5.388 3.217 3.504 5.26 8.323 6.129 14.455h2.478c1.391-6.308 3.868-11.17 7.433-14.587 3.651-3.504 8.737-5.256 15.257-5.256 6.868 0 11.997 2.54 15.388 7.622 3.391 4.994 5.086 11.608 5.086 19.843v39.424h-13.432v-37.19c0-6.57-.869-11.214-2.608-13.93-1.739-2.715-4.999-4.073-9.78-4.073-6.086 0-10.737 2.497-13.954 7.49-3.216 4.994-4.825 11.784-4.825 20.37v27.333h-13.432v-37.19c0-6.57-.869-11.214-2.608-13.93-1.738-2.715-4.998-4.073-9.78-4.073-6.086 0-10.737 2.497-13.953 7.49-3.217 4.994-4.825 11.784-4.825 20.37v27.333H198.79V19.122z" fill="#2E203E"/><path fill-rule="evenodd" clip-rule="evenodd" d="M73.75 33.648c-2.595 4.96-3.893 10.88-3.893 17.755 0 6.615 1.255 12.533 3.764 17.756 2.51 5.222 6.187 9.356 11.033 12.402C89.586 84.521 95.514 86 102.437 86c9.259 0 16.484-2.263 21.676-6.789 5.279-4.613 8.61-10.4 9.995-17.364h-13.24c-1.038 4.265-3.158 7.573-6.36 9.923-3.115 2.35-7.226 3.525-12.331 3.525-5.97 0-10.6-1.872-13.889-5.614-3.201-3.743-4.932-8.704-5.192-14.883h50.752v-4.57c0-10.009-2.899-17.842-8.696-23.5-5.798-5.657-13.673-8.486-23.624-8.486-6.317 0-11.855 1.306-16.614 3.917-4.76 2.611-8.48 6.44-11.163 11.489zm41.277-.392c3.461 3.046 5.365 7.311 5.711 12.794H83.096c.433-5.483 2.337-9.748 5.712-12.794 3.374-3.046 7.658-4.57 12.85-4.57 5.538 0 9.994 1.524 13.369 4.57zm193.722 18.147c0-6.876 1.298-12.794 3.894-17.755 2.683-5.048 6.403-8.878 11.163-11.49 4.759-2.61 10.297-3.916 16.614-3.916 9.951 0 17.826 2.829 23.624 8.486 5.797 5.658 8.696 13.491 8.696 23.5v4.57h-50.751c.259 6.18 1.99 11.14 5.192 14.883 3.288 3.742 7.917 5.614 13.888 5.614 5.106 0 9.216-1.175 12.331-3.525 3.202-2.35 5.322-5.658 6.36-9.922H373c-1.385 6.962-4.716 12.75-9.995 17.363C357.813 83.737 350.588 86 341.329 86c-6.923 0-12.85-1.48-17.783-4.439-4.846-3.046-8.523-7.18-11.033-12.403-2.509-5.222-3.764-11.14-3.764-17.755zm50.882-5.353c-.347-5.483-2.25-9.748-5.712-12.794-3.374-3.046-7.831-4.57-13.369-4.57-5.192 0-9.475 1.524-12.85 4.57-3.375 3.046-5.279 7.311-5.711 12.794h37.642z" fill="#2E203E"/><path d="M47.644 84.697L67.269 19.11H54.1L35.636 81.017h-3.615L13.428 19.11H0l19.884 65.586h27.76z" fill="#2E203E"/></svg>